<?xml version="1.0" standalone="no"?>
<!DOCTYPE svg PUBLIC "-//W3C//DTD SVG 20010904//EN"
 "http://www.w3.org/TR/2001/REC-SVG-20010904/DTD/svg10.dtd">
<svg version="1.0" xmlns="http://www.w3.org/2000/svg"
 width="429.000000pt" height="429.000000pt" viewBox="0 0 429.000000 429.000000"
 preserveAspectRatio="xMidYMid meet">
<metadata>
Created by potrace 1.11, written by Peter Selinger 2001-2013
</metadata>
<g transform="translate(0.000000,429.000000) scale(0.100000,-0.100000)"
fill="#000000" stroke="none">
<path d="M2445 4209 c-31 -13 -79 -32 -85 -33 -33 -8 -153 -89 -272 -184 -134
-107 -158 -122 -290 -181 -78 -35 -163 -80 -188 -101 -25 -20 -58 -45 -75 -56
-16 -10 -114 -83 -217 -162 -181 -137 -588 -404 -753 -492 -115 -62 -177 -104
-205 -142 -22 -29 -25 -43 -25 -118 1 -75 11 -212 20 -259 1 -9 6 -45 11 -81
4 -36 8 -67 9 -70 1 -3 5 -32 10 -65 5 -33 9 -62 10 -65 1 -3 5 -32 10 -65 5
-33 9 -62 10 -65 2 -7 16 -89 21 -125 20 -124 45 -255 89 -476 35 -178 136
-506 226 -731 l40 -103 117 -57 c64 -32 142 -66 172 -77 71 -27 422 -204 605
-306 94 -52 290 -138 314 -137 33 1 68 7 216 38 293 62 504 120 858 238 125
42 238 78 251 80 45 8 61 24 90 93 16 37 37 87 48 110 10 23 18 48 18 55 0 8
4 18 8 23 5 6 17 33 27 60 18 51 95 254 110 290 5 11 9 22 9 25 2 11 78 197
91 220 7 14 28 77 48 140 19 63 56 183 82 265 27 83 77 262 112 399 59 235
105 393 123 425 11 20 -16 75 -102 209 -92 144 -238 321 -393 477 -127 127
-205 200 -444 414 -96 86 -262 244 -365 346 -195 194 -293 264 -341 244z"/>
</g>
</svg>
