<svg id="圖層_1" data-name="圖層 1" xmlns="http://www.w3.org/2000/svg" viewBox="0 0 220 100"><defs><style>.cls-1{fill:#fff;}.cls-2{fill:#e55125;}.cls-3{fill:#7bb22a;}.cls-4{fill:#777778;}.cls-5{fill:#269ad7;}.cls-6{fill:#f5b419;}</style></defs><title>gold_MS</title><rect class="cls-1" width="220" height="100"/><path class="cls-2" d="M19.1,31.65H37.56q0,9.23,0,18.46H19.1V31.65Z"/><path class="cls-3" d="M39.44,31.65H57.91q0,9.23,0,18.46H39.45q0-9.23,0-18.46Z"/><path class="cls-4" d="M185.58,38.68A7.25,7.25,0,0,1,191.4,38c0,1.14,0,2.28,0,3.42a3.81,3.81,0,0,0-2.94-.27A2.33,2.33,0,0,0,187.13,43a25.13,25.13,0,0,0-.07,3h5.84c0-1.26,0-2.53,0-3.79,1.32-.38,2.63-.8,4-1.2,0,1.67,0,3.33,0,5,1.32,0,2.63,0,4,0v3.24c-1.32-.05-2.64,0-4,0,0,1.86,0,3.73,0,5.59,0,1-.06,2.07.07,3.1a2,2,0,0,0,.86,1.59,3,3,0,0,0,3-.28V62.5a7.81,7.81,0,0,1-3.65.56A4.44,4.44,0,0,1,194,61.62a6,6,0,0,1-1.13-3.81c0-2.86,0-5.72,0-8.58h-5.84q0,6.73,0,13.47h-4q0-6.73,0-13.46c-.93,0-1.85,0-2.78,0,0-1.07,0-2.13,0-3.2.92,0,1.84,0,2.77,0a17,17,0,0,1,.27-4.26,5.45,5.45,0,0,1,2.25-3.07Z"/><path class="cls-4" d="M100.09,38.92a2.44,2.44,0,0,1,2.21.78,2.28,2.28,0,0,1,.28,2.59,2.48,2.48,0,0,1-2.66,1.11,2.26,2.26,0,0,1-1.85-2.22,2.31,2.31,0,0,1,2-2.27Z"/><path class="cls-4" d="M69.49,39.41H75.3Q78,46.3,80.74,53.17c.46,1.15.89,2.31,1.38,3.45,2.33-5.73,4.68-11.45,7-17.2,1.86,0,3.72,0,5.59,0q0,11.64,0,23.28c-1.34,0-2.69,0-4,0,0-5.73,0-11.45,0-17.18,0-.26,0-.51,0-.77a3.08,3.08,0,0,0-.21.37c-2.31,5.86-4.66,11.71-7,17.58-1,0-1.91,0-2.87,0-2.38-5.86-4.73-11.74-7.1-17.6-.06-.12-.13-.24-.2-.35,0,2.51,0,5,0,7.53q0,5.21,0,10.42h-3.8q0-11.64,0-23.28Z"/><path class="cls-4" d="M111.08,46A10.93,10.93,0,0,1,117,46a4.79,4.79,0,0,1,1.14.47c0,1.27,0,2.54,0,3.82a6.34,6.34,0,0,0-4.56-1.4,4.69,4.69,0,0,0-3.32,1.84,6.44,6.44,0,0,0-1.06,4.62,5,5,0,0,0,1.61,3.32,5.06,5.06,0,0,0,3.74,1.11,7.61,7.61,0,0,0,3.58-1.47c0,1.21,0,2.41,0,3.62a9.71,9.71,0,0,1-5.46,1.13,8.09,8.09,0,0,1-5.2-2.17,8.32,8.32,0,0,1-2.42-5.59,10.11,10.11,0,0,1,1.58-6.19A8,8,0,0,1,111.08,46Z"/><path class="cls-4" d="M154.69,45.74a10.56,10.56,0,0,1,5.53.58c0,1.22,0,2.45,0,3.67A7,7,0,0,0,156,48.75a2.15,2.15,0,0,0-1.91,1.05,1.72,1.72,0,0,0,.58,2c1.13.76,2.48,1.08,3.66,1.76a5.26,5.26,0,0,1,2.29,2.18,4.87,4.87,0,0,1-1,5.62A7.64,7.64,0,0,1,154,63.08a11.87,11.87,0,0,1-4.06-.93c0-1.29,0-2.57,0-3.86a8.73,8.73,0,0,0,3.62,1.56,4.66,4.66,0,0,0,2.76-.25,1.59,1.59,0,0,0,.48-2.27,4.8,4.8,0,0,0-1.74-1.14,16.7,16.7,0,0,1-3.45-1.76,4.13,4.13,0,0,1-1.49-2.27,5.09,5.09,0,0,1,.55-4,6,6,0,0,1,4-2.44Z"/><path class="cls-4" d="M127.08,46.26a4.5,4.5,0,0,1,3.71-.31c0,1.33,0,2.66,0,4a4.24,4.24,0,0,0-2.7-.63,3.32,3.32,0,0,0-2.5,2,7.38,7.38,0,0,0-.57,3.41q0,4,0,8h-3.94q0-8.34,0-16.68c1.31,0,2.63,0,3.94,0,0,1,0,1.91,0,2.87a5.11,5.11,0,0,1,2.06-2.61Z"/><path class="cls-4" d="M98.43,46c1.32,0,2.65,0,4,0,0,5.56,0,11.12,0,16.68h-4q0-8.34,0-16.68Z"/><path class="cls-4" d="M147.33,49.9a7.06,7.06,0,0,0-3.49-3.52,10.59,10.59,0,0,0-5.72-.67,8,8,0,0,0-5.25,2.81,8.89,8.89,0,0,0-1.84,5.1,9.58,9.58,0,0,0,1.46,6.23,7.56,7.56,0,0,0,4.61,3,11.47,11.47,0,0,0,4.67,0A7.73,7.73,0,0,0,146.37,60a8.85,8.85,0,0,0,1.76-4.86A11,11,0,0,0,147.33,49.9Zm-3.86,7.66a3.65,3.65,0,0,1-2,1.93,5.38,5.38,0,0,1-3.25.14,4,4,0,0,1-2.5-2.06,7.7,7.7,0,0,1-.61-4.18,5.31,5.31,0,0,1,1.54-3.48,4.18,4.18,0,0,1,2.63-1A4.3,4.3,0,0,1,142.66,50,5.39,5.39,0,0,1,144,53.49,8.74,8.74,0,0,1,143.48,57.56Z"/><path class="cls-4" d="M179.31,50.39a7.12,7.12,0,0,0-3.43-3.88,10.34,10.34,0,0,0-5.93-.8,8.27,8.27,0,0,0-4.41,1.89,8.17,8.17,0,0,0-2.63,5.12,11,11,0,0,0,.63,5.8,7.4,7.4,0,0,0,4.06,3.94,10.74,10.74,0,0,0,5.62.48,7.8,7.8,0,0,0,4.91-2.87,9.13,9.13,0,0,0,1.81-5.68A10.64,10.64,0,0,0,179.31,50.39ZM175.71,56a5.2,5.2,0,0,1-1,2.45,3.74,3.74,0,0,1-2.33,1.26,5.28,5.28,0,0,1-2.86-.31,4,4,0,0,1-2.11-2.2,7.92,7.92,0,0,1-.47-3.64,5.77,5.77,0,0,1,1.21-3.32,4.09,4.09,0,0,1,2.91-1.4,4.38,4.38,0,0,1,3.2.94,4.58,4.58,0,0,1,1.44,2.66A10.14,10.14,0,0,1,175.71,56Z"/><path class="cls-5" d="M19.1,52H37.56q0,9.23,0,18.46H19.1V52Z"/><path class="cls-6" d="M39.45,52H57.91V70.46H39.44q0-9.23,0-18.46Z"/></svg>