<svg id="圖層_1" data-name="圖層 1" xmlns="http://www.w3.org/2000/svg" viewBox="0 0 220 100"><defs><style>.cls-1{fill:#fff;}.cls-2{fill:#241c1d;}</style></defs><title>Gold_gandi</title><rect class="cls-1" width="220" height="100"/><path id="gandi" class="cls-2" d="M75.31,53.84c-2.55,0-3-1.85-3-4.82,0-3.63,1.4-5,3.17-5,2,0,3,1.28,3,4.28C78.44,51.86,77.49,53.84,75.31,53.84Zm-1.65,8a4.58,4.58,0,0,0,.78.08c3.63.25,4.7.78,4.7,2.64,0,1.44-1.28,3.17-4.2,3.17s-3.46-1-3.46-2.35a4.83,4.83,0,0,1,2.18-3.54Zm4-20a8.17,8.17,0,0,0-2.06-.33c-4,0-6.84,2.26-6.84,7.74,0,2.64.62,4.9,2.51,6.14-1.19,1-2.55,2.68-2.59,3.75s.91,1.81,2.47,2.27C69.38,62.57,68,64.21,68,66.19c0,2.14,1.07,4.7,6.63,4.7s7.87-3.21,7.87-6.76c0-3.25-2.47-4.45-5.11-4.82-3.09-.41-5.19-.54-5.19-1.24a3.36,3.36,0,0,1,1.07-1.85,8.39,8.39,0,0,0,1.85.16c4.78,0,6.67-2.84,6.67-7.21a6.54,6.54,0,0,0-1.61-4.65,7.38,7.38,0,0,0,1.52.21c.7,0,1.15-.41,1.15-1.32a3.28,3.28,0,0,0-.33-1.57H77.62ZM53.2,38a3.24,3.24,0,0,0-4.51.77,13.49,13.49,0,0,1-4.27,4L44,43.1l-.42.21a12.13,12.13,0,0,1-10.14,0,13,13,0,0,1-5.14-4.49A3.24,3.24,0,0,0,23,42.56a19.52,19.52,0,0,0,7.7,6.62,17.62,17.62,0,0,0,1.79.71,17.82,17.82,0,0,0-6.57,7.89,15.45,15.45,0,0,0,0,11.1,14.7,14.7,0,0,0,6.95,7.73,13.93,13.93,0,0,0,11.94,0c4.17-1.88,6.88-5.31,7.27-9.19a8.89,8.89,0,0,0-5-9.26c-3.56-1.6-7.57-.46-10.22,2.9a3.24,3.24,0,1,0,5.08,4c.79-1,1.7-1.37,2.49-1a2.49,2.49,0,0,1,1.2,2.71c-.15,1.52-1.49,3-3.49,3.92a7.55,7.55,0,0,1-6.34.13A8.24,8.24,0,0,1,32,66.51a8.85,8.85,0,0,1,0-6.46c.77-2.05,2.7-4,6.09-6.1,1.44-.89,3-1.73,4.47-2.53,1.72-.93,3.35-1.81,4.78-2.76A19.93,19.93,0,0,0,54,42.56,3.24,3.24,0,0,0,53.2,38ZM94.33,59.89a3.49,3.49,0,0,1-2.22.66c-1.61,0-2.64-.17-2.64-3.71s1.4-4.2,3-4.2a4.5,4.5,0,0,1,1.94.37c0,3-.12,6.88-.12,6.88Zm-.74-18.37c-3.83,0-6.59.54-7.21,1A1.27,1.27,0,0,0,86,43.58a5,5,0,0,0,.45,2.14,17.48,17.48,0,0,1,5.81-.95c1.28,0,2.18.49,2.18,2.43v3.46a7.72,7.72,0,0,0-3.13-.54c-2.64,0-5.35,1-5.35,6.76,0,6.26,2.88,6.51,5.89,6.47A11,11,0,0,0,97.58,62s.25-5.85.25-13.06V46.54C97.83,42.84,96.27,41.52,93.59,41.52ZM36.75,32a2.19,2.19,0,1,1-.64,1.55A2.18,2.18,0,0,1,36.75,32Zm1.55,9A7.47,7.47,0,1,0,33,38.79,7.42,7.42,0,0,0,38.3,41ZM147.92,58.37a2.25,2.25,0,0,0-2.31,2.39c0,1.44.58,2.35,2.31,2.35a2.24,2.24,0,0,0,2.31-2.35C150.23,59.31,149.61,58.37,147.92,58.37Zm13.83-16.85a19,19,0,0,0-6.8,1.36V62.73c3.42,0,3.34,0,3.34-.7V45.23a6.15,6.15,0,0,1,3.09-.78c2.18,0,2.43,1.24,2.43,4.49v13.8c3.5,0,3.46,0,3.46-.7V49.1c0-5.68-.54-7.58-5.52-7.58Zm-22.59-8.94c-1.32,0-1.89,1-1.89,2.47,0,1.94.62,2.55,1.69,2.59,1.24,0,1.85-1,1.89-2.68S140.43,32.58,139.15,32.58ZM115,49.1c0-5.68-.54-7.58-5.52-7.58a19,19,0,0,0-6.8,1.36V62.73c3.42,0,3.34,0,3.34-.7V45.23a6.16,6.16,0,0,1,3.09-.78c2.18,0,2.43,1.24,2.43,4.49v13.8c3.5,0,3.46,0,3.46-.7Zm65.65,2.1a22.73,22.73,0,0,1-5.6.45c.25-5.73,1.77-7.21,3.46-7.21s2.31,1.24,2.35,4.2a13.08,13.08,0,0,1-.21,2.55Zm3.46-2.92c0-4.41-1.77-6.75-5.23-6.75-3.67,0-7.29,1.28-7.29,12,0,8.4,2.76,9.84,6.59,9.84,3.09,0,5.68-1,5.68-1.56a12.67,12.67,0,0,0-.29-3,10.1,10.1,0,0,1-5,1.28c-2.22,0-3.38-.74-3.5-5.73a48.62,48.62,0,0,0,8.61-.66,27.62,27.62,0,0,0,.45-5.44ZM128.62,59.73a4.29,4.29,0,0,1-2.43.62c-1.94,0-3.09-.91-3.09-7.54s1.81-8.36,3.62-8.36a2.74,2.74,0,0,1,1.9.54V59.73Zm0-25.74v8.36a4.94,4.94,0,0,0-2.93-.82c-3.54,0-6.34,3.5-6.34,11.66,0,8.94,2.8,10.17,6.71,10.17A11.61,11.61,0,0,0,132,62.11V32.46c-2.72,0-3.34,0-3.34,1.52Zm8.68,9.68V62.73c3.38,0,3.42,0,3.42-.7V42.14C138,42.14,137.3,42.14,137.3,43.66Zm57.58,16.85c-1.48,0-1.48-1.48-1.48-3.25V45h3.54c.66,0,.66-.29.66-2.88h-4.2V34.72c-2.72,0-3.34,0-3.34,1.15v6.26H188c-.7,0-.74.33-.74,2.88h2.84V56.88c0,3.71,0,6.51,3.91,6.51,1.61,0,3.54-.33,3.54-1.32a9.59,9.59,0,0,0-.25-2.18,4.77,4.77,0,0,1-2.39.62"/></svg>