<svg id="圖層_1" data-name="圖層 1" xmlns="http://www.w3.org/2000/svg" xmlns:xlink="http://www.w3.org/1999/xlink" viewBox="0 0 220 100"><defs><style>.cls-1,.cls-3{fill:#163648;}.cls-2{fill:#fff;}.cls-3{fill-rule:evenodd;}.cls-4{clip-path:url(#clip-path);}</style><clipPath id="clip-path"><path class="cls-1" d="M118.81,43.47H101a3.61,3.61,0,0,1-3.61-3.6V27.18a3.61,3.61,0,0,1,3.61-3.6h17.79a3.61,3.61,0,0,1,3.61,3.6V39.87A3.61,3.61,0,0,1,118.81,43.47ZM101,25.07a2.11,2.11,0,0,0-2.11,2.1V39.87A2.11,2.11,0,0,0,101,42h17.79a2.11,2.11,0,0,0,2.11-2.1V27.18a2.11,2.11,0,0,0-2.11-2.1Z"/></clipPath></defs><title>gold_codementor</title><rect class="cls-2" width="220" height="100"/><path class="cls-3" d="M94.55,44.82h31.64v1.45a1.45,1.45,0,0,1-1.45,1.45H95.94a1.42,1.42,0,0,1-1.39-1.45Z"/><path class="cls-1" d="M118.81,43.47H101a3.61,3.61,0,0,1-3.61-3.6V27.18a3.61,3.61,0,0,1,3.61-3.6h17.79a3.61,3.61,0,0,1,3.61,3.6V39.87A3.61,3.61,0,0,1,118.81,43.47ZM101,25.07a2.11,2.11,0,0,0-2.11,2.1V39.87A2.11,2.11,0,0,0,101,42h17.79a2.11,2.11,0,0,0,2.11-2.1V27.18a2.11,2.11,0,0,0-2.11-2.1Z"/><g class="cls-4"><path class="cls-1" d="M118.81,43.47H101a3.61,3.61,0,0,1-3.61-3.6V27.18a3.61,3.61,0,0,1,3.61-3.6h17.79a3.61,3.61,0,0,1,3.61,3.6V39.87A3.61,3.61,0,0,1,118.81,43.47ZM101,25.07a2.11,2.11,0,0,0-2.11,2.1V39.87A2.11,2.11,0,0,0,101,42h17.79a2.11,2.11,0,0,0,2.11-2.1V27.18a2.11,2.11,0,0,0-2.11-2.1Z"/></g><rect class="cls-1" x="101.1" y="31.4" width="5.87" height="1.35"/><rect class="cls-1" x="101.1" y="34.3" width="5.87" height="1.35"/><rect class="cls-1" x="101.1" y="37.21" width="5.87" height="1.35"/><rect class="cls-1" x="101.1" y="28.49" width="5.87" height="1.35"/><circle class="cls-1" cx="113.37" cy="30.29" r="2.87"/><path class="cls-3" d="M108.11,36.64c0-1.58,1.16-3.38,2.21-3.54h0a1.61,1.61,0,0,1,.77.12,4.42,4.42,0,0,0,1,.81,3.69,3.69,0,0,0,1.19.28A2.17,2.17,0,0,0,114.6,34c.47-.31.92-.72,1.33-.93a.88.88,0,0,1,.46,0l.31,0h0A3.78,3.78,0,0,1,119,36.64v1.27a1.9,1.9,0,0,1-1.9,1.91h-7a1.9,1.9,0,0,1-1.9-1.91Z"/><path class="cls-1" d="M110.08,59.21c-12.41,0-22.5-10.32-22.5-23s10.1-23,22.5-23,22.5,10.32,22.5,23S122.49,59.21,110.08,59.21Zm0-44.5a21.28,21.28,0,0,0-21,21.5,21,21,0,1,0,42,0A21.28,21.28,0,0,0,110.08,14.71Z"/><path class="cls-1" d="M29.25,79.13a8,8,0,0,1,.53-2.9,7.12,7.12,0,0,1,4-4.11,8.59,8.59,0,0,1,3.35-.62,8,8,0,0,1,4.29,1.08,6.93,6.93,0,0,1,2.61,2.82l-4.38,1.32a2.82,2.82,0,0,0-2.55-1.4,3,3,0,0,0-2.34,1,4,4,0,0,0-.94,2.78,4.75,4.75,0,0,0,.25,1.58,3.63,3.63,0,0,0,.7,1.22,3.19,3.19,0,0,0,1.05.79,3,3,0,0,0,1.28.28,3,3,0,0,0,1.54-.41,2.6,2.6,0,0,0,1-1.05l4.38,1.35a6.6,6.6,0,0,1-2.59,2.8,8.13,8.13,0,0,1-4.33,1.09,8.36,8.36,0,0,1-3.32-.63,7.62,7.62,0,0,1-2.49-1.68A7.13,7.13,0,0,1,29.78,82,8,8,0,0,1,29.25,79.13Z"/><path class="cls-1" d="M52.46,86.79a8.61,8.61,0,0,1-3.35-.62,7.3,7.3,0,0,1-2.48-1.67,7,7,0,0,1-1.53-2.44,8.37,8.37,0,0,1,0-5.8,7,7,0,0,1,1.53-2.44,7.48,7.48,0,0,1,2.48-1.68,8.43,8.43,0,0,1,3.35-.63,8.34,8.34,0,0,1,3.34.63,7.5,7.5,0,0,1,2.47,1.68,7.21,7.21,0,0,1,1.54,2.44,8,8,0,0,1,.53,2.9,8.24,8.24,0,0,1-.52,2.9,7,7,0,0,1-1.53,2.44,7.28,7.28,0,0,1-2.48,1.67A8.62,8.62,0,0,1,52.46,86.79Zm-3.28-7.63A4.07,4.07,0,0,0,50.11,82,3,3,0,0,0,52.46,83a3,3,0,0,0,1.29-.28,3.1,3.1,0,0,0,1-.79,3.76,3.76,0,0,0,.69-1.22,4.64,4.64,0,0,0,.25-1.56,4.07,4.07,0,0,0-.93-2.79,3,3,0,0,0-2.33-1.05,3,3,0,0,0-2.34,1.07,3.77,3.77,0,0,0-.69,1.22A4.66,4.66,0,0,0,49.18,79.16Z"/><path class="cls-1" d="M68.16,86.79a6.72,6.72,0,0,1-2.79-.57,6.48,6.48,0,0,1-2.2-1.61,7.62,7.62,0,0,1-1.44-2.43,8.63,8.63,0,0,1-.52-3,9.24,9.24,0,0,1,.48-3A7.34,7.34,0,0,1,63,73.71a6.4,6.4,0,0,1,2.06-1.61,5.84,5.84,0,0,1,2.62-.59,5.43,5.43,0,0,1,2.79.73,5,5,0,0,1,1.92,2V66h4.49V81.46a1.57,1.57,0,0,0,.21.94,1,1,0,0,0,.74.32v3.79a8.6,8.6,0,0,1-1.07.18c-.3,0-.58,0-.84,0a3.36,3.36,0,0,1-1.91-.49,1.89,1.89,0,0,1-.84-1.42l-.08-.76a5,5,0,0,1-2.12,2A6.22,6.22,0,0,1,68.16,86.79ZM69.37,83a3.26,3.26,0,0,0,1.78-.55,3.52,3.52,0,0,0,1.3-1.5V77.87A4,4,0,0,0,71.09,76a3.18,3.18,0,0,0-1.95-.71,2.8,2.8,0,0,0-1.33.32,3.56,3.56,0,0,0-1.05.86,3.76,3.76,0,0,0-.69,1.23,4.56,4.56,0,0,0-.24,1.49,4.2,4.2,0,0,0,.27,1.51,3.69,3.69,0,0,0,.73,1.21,3.19,3.19,0,0,0,1.12.79A3.56,3.56,0,0,0,69.37,83Z"/><path class="cls-1" d="M86.92,86.79a8.69,8.69,0,0,1-3.32-.6,7.38,7.38,0,0,1-2.49-1.64,7,7,0,0,1-1.56-2.4A7.73,7.73,0,0,1,79,79.3a8.48,8.48,0,0,1,.53-3,7.33,7.33,0,0,1,1.54-2.48,7.2,7.2,0,0,1,2.48-1.68,8.59,8.59,0,0,1,3.35-.62,8.49,8.49,0,0,1,3.34.62,7.32,7.32,0,0,1,2.47,1.67,7.07,7.07,0,0,1,1.53,2.42,8.13,8.13,0,0,1,.52,2.89q0,.39,0,.77a5.42,5.42,0,0,1-.08.66H83.78a3,3,0,0,0,1.08,2.26,3.44,3.44,0,0,0,2.2.77A4,4,0,0,0,89,83.09a2.43,2.43,0,0,0,1.22-1.29L94,82.86A6.86,6.86,0,0,1,91.3,85.7,8.35,8.35,0,0,1,86.92,86.79Zm3.11-9a3.37,3.37,0,0,0-1-2.22,3,3,0,0,0-2.16-.81,3,3,0,0,0-2.17.83,3.43,3.43,0,0,0-1,2.2Z"/><path class="cls-1" d="M119.59,86.51H115.1V78.24a3.37,3.37,0,0,0-.53-2.12,1.69,1.69,0,0,0-1.37-.66,2.33,2.33,0,0,0-.91.2,3.07,3.07,0,0,0-.85.55,4.43,4.43,0,0,0-.72.83,4.5,4.5,0,0,0-.52,1v8.44h-4.49V78.24a3.37,3.37,0,0,0-.53-2.12,1.69,1.69,0,0,0-1.37-.66,2.72,2.72,0,0,0-1.75.72,4.09,4.09,0,0,0-1.25,1.89v8.44H96.32V71.79h4v2.47a5.35,5.35,0,0,1,2.2-2,7.11,7.11,0,0,1,3.24-.7,5.2,5.2,0,0,1,1.61.22,3.91,3.91,0,0,1,1.19.62,3.28,3.28,0,0,1,.81.91,4,4,0,0,1,.45,1.11,5.79,5.79,0,0,1,2.21-2.12,6.5,6.5,0,0,1,3.14-.74,4.32,4.32,0,0,1,2.26.52,3.75,3.75,0,0,1,1.33,1.35,5.18,5.18,0,0,1,.63,1.81,12.21,12.21,0,0,1,.16,1.91Z"/><path class="cls-1" d="M129.07,86.79a8.69,8.69,0,0,1-3.32-.6,7.38,7.38,0,0,1-2.49-1.64,7,7,0,0,1-1.56-2.4,7.73,7.73,0,0,1-.53-2.85,8.48,8.48,0,0,1,.53-3,7.33,7.33,0,0,1,1.54-2.48,7.2,7.2,0,0,1,2.48-1.68,8.59,8.59,0,0,1,3.35-.62,8.49,8.49,0,0,1,3.34.62,7.32,7.32,0,0,1,2.47,1.67,7.07,7.07,0,0,1,1.53,2.42,8.13,8.13,0,0,1,.52,2.89q0,.39,0,.77a5.42,5.42,0,0,1-.08.66H125.93A3,3,0,0,0,127,82.79a3.44,3.44,0,0,0,2.2.77,4,4,0,0,0,1.89-.48,2.43,2.43,0,0,0,1.22-1.29l3.81,1.07a6.86,6.86,0,0,1-2.69,2.83A8.35,8.35,0,0,1,129.07,86.79Zm3.11-9a3.37,3.37,0,0,0-1-2.22,3,3,0,0,0-2.16-.81,3,3,0,0,0-2.17.83,3.43,3.43,0,0,0-1,2.2Z"/><path class="cls-1" d="M152.09,86.51H147.6V78.24a3.3,3.3,0,0,0-.55-2.12,1.79,1.79,0,0,0-1.44-.66,2.5,2.5,0,0,0-1,.2,3.91,3.91,0,0,0-.92.55,4.23,4.23,0,0,0-.8.83,3.94,3.94,0,0,0-.55,1v8.44H137.9V71.79h4v2.47a5.36,5.36,0,0,1,2.3-2,7.8,7.8,0,0,1,3.42-.72A4.46,4.46,0,0,1,150,72a3.73,3.73,0,0,1,1.35,1.35,5.23,5.23,0,0,1,.63,1.81,12.35,12.35,0,0,1,.15,1.91Z"/><path class="cls-1" d="M164,85.72a17.75,17.75,0,0,1-2.12.73,8.76,8.76,0,0,1-2.4.34,5.78,5.78,0,0,1-1.58-.21,3.53,3.53,0,0,1-1.3-.67,3.13,3.13,0,0,1-.88-1.22,4.62,4.62,0,0,1-.32-1.82V75.18h-1.88V71.79h1.88V67.11h4.49v4.68h3v3.39h-3v6.14a1.2,1.2,0,0,0,1.29,1.37,3.42,3.42,0,0,0,1-.17,6.45,6.45,0,0,0,.93-.36Z"/><path class="cls-1" d="M171.83,86.79a8.61,8.61,0,0,1-3.35-.62A7.3,7.3,0,0,1,166,84.5a7,7,0,0,1-1.53-2.44,8.37,8.37,0,0,1,0-5.8A7,7,0,0,1,166,73.82a7.48,7.48,0,0,1,2.48-1.68,8.43,8.43,0,0,1,3.35-.63,8.34,8.34,0,0,1,3.34.63,7.5,7.5,0,0,1,2.47,1.68,7.21,7.21,0,0,1,1.54,2.44,8.05,8.05,0,0,1,.53,2.9,8.24,8.24,0,0,1-.52,2.9,7,7,0,0,1-1.53,2.44,7.29,7.29,0,0,1-2.48,1.67A8.62,8.62,0,0,1,171.83,86.79Zm-3.28-7.63a4.07,4.07,0,0,0,.93,2.79A3,3,0,0,0,171.83,83a3,3,0,0,0,1.29-.28,3.1,3.1,0,0,0,1-.79,3.76,3.76,0,0,0,.69-1.22,4.63,4.63,0,0,0,.25-1.56,4.07,4.07,0,0,0-.93-2.79,3,3,0,0,0-2.33-1.05,3,3,0,0,0-2.34,1.07,3.77,3.77,0,0,0-.69,1.22A4.66,4.66,0,0,0,168.55,79.16Z"/><path class="cls-1" d="M190.75,75.63a8.58,8.58,0,0,0-2.94.53,3.59,3.59,0,0,0-1.91,1.51v8.83h-4.49V71.79h4.12v3a6.24,6.24,0,0,1,1.95-2.33,4.49,4.49,0,0,1,2.54-.87h.45l.28,0Z"/></svg>