<svg id="圖層_1" data-name="圖層 1" xmlns="http://www.w3.org/2000/svg" viewBox="0 0 220 100"><defs><style>.cls-1{fill:#fff;}.cls-2{fill:#8b919c;}.cls-3{fill:#ed6b2c;}.cls-4{fill:#d6452c;}.cls-5{fill:#f29f2d;}</style></defs><title>gold_gitlab</title><rect class="cls-1" width="220" height="100"/><g id="g12"><path id="path14" class="cls-2" d="M148,41.12h-2.92V62.88H156.9V60.19H148V41.12Z"/></g><g id="g24"><path id="path26" class="cls-2" d="M168.16,59.06a5,5,0,0,1-3.62,1.53c-2.23,0-3.12-1.1-3.12-2.52,0-2.16,1.49-3.19,4.68-3.19a13.26,13.26,0,0,1,2.06.17v4Zm-3-13.19a9.73,9.73,0,0,0-6.21,2.23l1,1.79a9,9,0,0,1,4.75-1.4c2.39,0,3.45,1.23,3.45,3.29v1.06a12.5,12.5,0,0,0-2-.17c-5.11,0-7.71,1.79-7.71,5.55,0,3.35,2.06,5,5.18,5,2.1,0,4.12-1,4.82-2.52l.53,2.13H171V51.75c0-3.52-1.53-5.88-5.88-5.88Z"/></g><g id="g28"><path id="path30" class="cls-2" d="M180.44,60.68a6.91,6.91,0,0,1-2.79-.47V50.16a5.76,5.76,0,0,1,3.79-1.43c2.82,0,3.92,2,3.92,5.21,0,4.58-1.76,6.74-4.92,6.74m1.23-14.81a5.35,5.35,0,0,0-4,1.78V41.12h-2.86V62.35a14.81,14.81,0,0,0,5.51.93c5.45,0,8.07-3.49,8.07-9.5,0-4.75-2.42-7.9-6.71-7.9"/></g><g id="g32"><path id="path34" class="cls-2" d="M116.22,43.48a8.27,8.27,0,0,1,5.35,1.73L122.82,43a9.76,9.76,0,0,0-6.47-2.31c-6.21,0-10.56,3.79-10.56,11.42,0,8,4.69,11.13,10.06,11.13A17,17,0,0,0,122.33,62l-.06-8.55V50.77h-8v2.69h5.08l.06,6.49a8,8,0,0,1-3.39.6c-4.32,0-7.21-2.72-7.21-8.44s3-8.63,7.37-8.63"/></g><g id="g36"><path id="path38" class="cls-2" d="M136.77,41.12h-2.86V57.4c0,3.52,1.53,5.88,5.88,5.88a9.84,9.84,0,0,0,1.76-.16V60.55a8.74,8.74,0,0,1-1.33.1c-2.39,0-3.45-1.23-3.45-3.29v-8.7h4.78V46.27h-4.78V41.12Z"/></g><path id="path40" class="cls-2" d="M126.67,62.88h2.86V46.27h-2.86V62.88Z"/><path id="path42" class="cls-2" d="M126.67,44h2.86V41.12h-2.86V44Z"/><g id="g44"><path id="path46" class="cls-3" d="M93.43,56.36,89.74,45,82.43,22.5a1.26,1.26,0,0,0-2.39,0L72.73,45H48.45L41.14,22.5a1.26,1.26,0,0,0-2.39,0L31.43,45,27.74,56.36a2.51,2.51,0,0,0,.91,2.81l31.93,23.2,31.93-23.2a2.51,2.51,0,0,0,.91-2.81"/></g><g id="g48"><path id="path50" class="cls-4" d="M60.59,82.37h0L72.73,45H48.45L60.59,82.37Z"/></g><g id="g56"><path id="path58" class="cls-3" d="M60.59,82.37,48.45,45h-17L60.59,82.37Z"/></g><g id="g64"><path id="path66" class="cls-5" d="M31.43,45h0L27.74,56.36a2.51,2.51,0,0,0,.91,2.81l31.93,23.2L31.43,45Z"/></g><g id="g72"><path id="path74" class="cls-4" d="M31.43,45h17L41.14,22.5a1.26,1.26,0,0,0-2.39,0L31.43,45Z"/></g><g id="g76"><path id="path78" class="cls-3" d="M60.59,82.37,72.73,45h17L60.59,82.37Z"/></g><g id="g80"><path id="path82" class="cls-5" d="M89.74,45h0l3.69,11.35a2.51,2.51,0,0,1-.91,2.81L60.59,82.37,89.74,45Z"/></g><g id="g84"><path id="path86" class="cls-4" d="M89.74,45h-17L80,22.5a1.26,1.26,0,0,1,2.39,0L89.74,45Z"/></g></svg>