<svg id="圖層_1" data-name="圖層 1" xmlns="http://www.w3.org/2000/svg" viewBox="0 0 220 100"><defs><style>.cls-1{fill:#fff;}.cls-2{fill:#1b2026;}</style></defs><title>gold_shopline</title><rect class="cls-1" width="220" height="100"/><path class="cls-2" d="M25.38,55.22a11.34,11.34,0,0,0,8.3,3.6c3.05,0,4.54-1.48,4.54-3,0-2-2.27-2.68-5.29-3.4-4.27-1-9.75-2.2-9.75-8.16,0-4.44,3.76-8,9.91-8a14.35,14.35,0,0,1,10.18,3.72L40.19,44.1a11,11,0,0,0-7.48-2.92c-2.51,0-3.84,1.12-3.84,2.72,0,1.8,2.19,2.36,5.21,3.08,4.31,1,9.79,2.32,9.79,8.24,0,4.88-3.41,8.56-10.46,8.56-5,0-8.62-1.72-11-4.24Z"/><path class="cls-2" d="M65.13,52.1H52.8V63.3H47.24V36.62H52.8V47.1H65.13V36.62h5.6V63.3h-5.6Z"/><path class="cls-2" d="M104.38,36.62H116.6c5.68,0,8.77,3.92,8.77,8.6s-3.13,8.52-8.77,8.52h-6.66V63.3h-5.56Zm11.48,4.88h-5.91v7.36h5.91a3.68,3.68,0,1,0,0-7.36Z"/><path class="cls-2" d="M129.09,36.62h2.23V61.22H144V63.3H129.09Z"/><path class="cls-2" d="M146.87,36.62h2.23V63.3h-2.23Z"/><path class="cls-2" d="M155.88,40.26v23h-2.23V36.62h2.27l16.37,22.73V36.62h2.23V63.3h-2.19Z"/><path class="cls-2" d="M179.07,36.62h16.57V38.7H181.3v9.88h14.06v2.08H181.3V61.22h14.33V63.3H179.07Z"/><g id="Ellipse_3" data-name="Ellipse 3"><path class="cls-2" d="M87.9,36.7a13.18,13.18,0,1,0,12.9,13.17A13,13,0,0,0,87.9,36.7ZM85.22,61c-.42-1.72-1.68-6.85-1.68-6.85l5.94,7.24A9.55,9.55,0,0,1,85.22,61Zm4.84.19c-2.21-2.67-7-8.34-7-8.34l11,6.4S93.16,60.51,90.06,61.22ZM94.49,59,83.1,52.21l-1.92-6.94a2.84,2.84,0,0,1,0-.92c.05-.18.65-.37.65-.37l7-2s6.16,3.16,10.38,5.46C100.19,52.08,97.09,57.3,94.49,59Zm-8-13.35A1.52,1.52,0,1,0,88,47.21,1.5,1.5,0,0,0,86.52,45.7Z"/></g></svg>