<svg id="圖層_1" data-name="圖層 1" xmlns="http://www.w3.org/2000/svg" viewBox="0 0 250 120"><defs><style>.cls-1{fill:#fff}.cls-2{fill:#d7233b}</style></defs><title>Platinum_2</title><path class="cls-1" d="M0 0h250v120H0z"/><path class="cls-2" d="M36.79 74.37v-3a12.82 12.82 0 0 0 4.78 1 5.2 5.2 0 0 0 3.92-1.47 5.56 5.56 0 0 0 1.42-4q0-5.68-7.83-5.68a15.33 15.33 0 0 0-1.86.12V49H50v3h-9.83v6.6q4.86 0 7.59 2.23A7.56 7.56 0 0 1 50.49 67 7.14 7.14 0 0 1 48 72.81a10.37 10.37 0 0 1-6.88 2.09 20.57 20.57 0 0 1-4.33-.53zM69 67.35h-3.5l-2.15-3-2.15 3h-3.58l3.94-5.6-3.84-5.47h3.52l2.09 3 2.09-3H69l-3.89 5.5zm10.66-5.71a6.29 6.29 0 0 1 1.52 2.16 8.11 8.11 0 0 1 .4 2.85v8.79a4 4 0 0 0 .4 2.26 2.55 2.55 0 0 0 1.88.49H85v3.55h-1.41A5.33 5.33 0 0 1 79.14 80q-1.41-1.73-1.41-5.45v-7.79a4.71 4.71 0 0 0-.42-2.3 2.23 2.23 0 0 0-1.48-1l-.17-.06h-.15l-.23-.06v-3.65a.94.94 0 0 1 .55-.3q1.9-.36 1.9-3.06V48q0-6.58 5.65-6.58h.89a1.13 1.13 0 0 1 .7.19v3.53h-1.12q-1.5 0-1.9.61a6.87 6.87 0 0 0-.38 2.94v8a11.85 11.85 0 0 1-.1 1.66 6.19 6.19 0 0 1-.33 1.33 4.27 4.27 0 0 1-.6 1.08 6 6 0 0 1-.88.88zm93.12-1.99h3.81v3.81h-3.81zm17.31 12.82a5.32 5.32 0 0 1-4-1.47 5.59 5.59 0 0 1-1.43-4.08V56h-2.32v-2.48h2.32v-3.37l3.36-.32v3.68h4.84V56H188v10.31q0 3.63 3.14 3.63a7.36 7.36 0 0 0 1.62-.22V72a10.4 10.4 0 0 1-2.67.47zm9.65-.47l-5.31-18.53h3.29l4.06 14.35 4.38-14.35h3.36l3.84 14.35 4.64-14.3h2.88l-6 18.53h-3.38l-3.92-14.35-4.44 14.3zm-37.95-10.45a7.62 7.62 0 0 1-1.54-2.18 9.11 9.11 0 0 1-.38-2.85v-8.81a3.83 3.83 0 0 0-.42-2.24Q159 45 157.56 45h-1.08v-3.59h1.39a5.33 5.33 0 0 1 4.45 1.69q1.41 1.73 1.41 5.45v7.85a5 5 0 0 0 .4 2.31 2.26 2.26 0 0 0 1.5 1l.17.06h.15l.23.06v3.64a.94.94 0 0 1-.55.3q-1.9.36-1.9 3.07v8.33q0 6.58-5.67 6.58h-.89a1.1 1.1 0 0 1-.68-.19V78h1.1q1.5 0 1.9-.61a6.5 6.5 0 0 0 .4-2.94v-8a8.07 8.07 0 0 1 .42-3 4.94 4.94 0 0 1 1.48-1.9z" id="text"/><path class="cls-2" d="M121.6 63.06v22.92l15.28-25.1-15.28 2.18zm.39-1.62L137 59.29l-9.65-12.86-5.36 15.01zm19.46-19.68l-2.13 17.09 12.81-3.21-10.68-13.88zm-3.58 16.11l2.12-16.92-11.64 4.23 9.52 12.69zm-35.12 2.68l-12.04-3.01 26.08 26.08-14.04-23.07zm17.3 2.51l-15.28-2.18 15.28 25.1V63.06zm18.85-2.51l-14.04 23.07 26.08-26.08-12.04 3.01zm-35.49-20.62L114.68 44H127l11.28-4.1a80.18 80.18 0 0 0-34.84 0zm17.42 20.15L126 45.59h-10.35l5.18 14.49zm-1.17 1.36l-5.36-15.01-9.64 12.86 15 2.15zm-17.33-2.59l-2.13-17.09-10.68 13.88 12.81 3.21zm1.45-.98l9.52-12.69-11.63-4.23 2.11 16.92z" id="ruby"/></svg>