<svg id="圖層_1" data-name="圖層 1" xmlns="http://www.w3.org/2000/svg" viewBox="0 0 250 120"><defs><style>.cls-1{fill:#fff;}.cls-2{fill:#d7233b;}</style></defs><title>Platinum_2</title><rect class="cls-1" width="250" height="120"/><g id="text"><path class="cls-2" d="M36.79,74.37v-3a12.82,12.82,0,0,0,4.78,1,5.2,5.2,0,0,0,3.92-1.47,5.56,5.56,0,0,0,1.42-4q0-5.68-7.83-5.68a15.33,15.33,0,0,0-1.86.12V49H50V52H40.17V58.6q4.86,0,7.59,2.23A7.56,7.56,0,0,1,50.49,67,7.14,7.14,0,0,1,48,72.81a10.37,10.37,0,0,1-6.88,2.09A20.57,20.57,0,0,1,36.79,74.37Z"/><path class="cls-2" d="M69,67.35H65.5l-2.15-3-2.15,3H57.62l3.94-5.6-3.84-5.47h3.52l2.09,3,2.09-3H69l-3.89,5.5Z"/><path class="cls-2" d="M79.66,61.64a6.29,6.29,0,0,1,1.52,2.16,8.11,8.11,0,0,1,.4,2.85v7.86l0,.93a4,4,0,0,0,.4,2.26,2.55,2.55,0,0,0,1.88.49H85v3.55H83.59A5.33,5.33,0,0,1,79.14,80q-1.41-1.73-1.41-5.45V66.76a4.71,4.71,0,0,0-.42-2.3,2.23,2.23,0,0,0-1.48-1l-.17-.06-.15,0-.23-.06V59.69a.94.94,0,0,1,.55-.3q1.9-.36,1.9-3.06V48q0-6.58,5.65-6.58l.89,0a1.13,1.13,0,0,1,.7.19v3.53H83.85q-1.5,0-1.9.61a6.87,6.87,0,0,0-.38,2.94v8a11.85,11.85,0,0,1-.1,1.66,6.19,6.19,0,0,1-.33,1.33,4.27,4.27,0,0,1-.6,1.08A6,6,0,0,1,79.66,61.64Z"/><path class="cls-2" d="M172.78,59.65h3.81v3.81h-3.81Z"/><path class="cls-2" d="M190.09,72.47a5.32,5.32,0,0,1-4-1.47,5.59,5.59,0,0,1-1.43-4.08V56h-2.32V53.52h2.32V50.15l3.36-.32v3.68h4.84V56H188V66.31q0,3.63,3.14,3.63a7.36,7.36,0,0,0,1.62-.22V72A10.4,10.4,0,0,1,190.09,72.47Z"/><path class="cls-2" d="M199.74,72l-5.31-18.53h3.29l4.06,14.35,4.38-14.35h3.36l3.84,14.35L218,53.52h2.88l-6,18.53H211.5l-3.92-14.35L203.14,72Z"/><path class="cls-2" d="M161.79,61.55a7.62,7.62,0,0,1-1.54-2.18,9.11,9.11,0,0,1-.38-2.85V48.64l0-.93a3.83,3.83,0,0,0-.42-2.24Q159,45,157.56,45h-1.08V41.41h1.39a5.33,5.33,0,0,1,4.45,1.69q1.41,1.73,1.41,5.45V56.4a5,5,0,0,0,.4,2.31,2.26,2.26,0,0,0,1.5,1l.17.06.15,0,.23.06v3.64a.94.94,0,0,1-.55.3q-1.9.36-1.9,3.07v8.33q0,6.58-5.67,6.58l-.89,0a1.1,1.1,0,0,1-.68-.19V78h1.1q1.5,0,1.9-.61a6.5,6.5,0,0,0,.4-2.94v-8a8.07,8.07,0,0,1,.42-3A4.94,4.94,0,0,1,161.79,61.55Z"/></g><g id="ruby"><polygon class="cls-2" points="121.6 63.06 121.6 85.98 136.88 60.88 121.6 63.06"/><polygon class="cls-2" points="121.99 61.44 137 59.29 127.35 46.43 121.99 61.44"/><polygon class="cls-2" points="141.45 41.76 139.32 58.85 152.13 55.64 141.45 41.76"/><polygon class="cls-2" points="137.87 57.87 139.99 40.95 128.35 45.18 137.87 57.87"/><polygon class="cls-2" points="102.75 60.55 90.71 57.54 116.79 83.62 102.75 60.55"/><polygon class="cls-2" points="120.05 63.06 104.77 60.88 120.05 85.98 120.05 63.06"/><polygon class="cls-2" points="138.9 60.55 124.86 83.62 150.94 57.54 138.9 60.55"/><path class="cls-2" d="M103.41,39.93,114.68,44H127l11.28-4.1a80.18,80.18,0,0,0-34.84,0Z"/><polygon class="cls-2" points="120.83 60.08 126 45.59 115.65 45.59 120.83 60.08"/><polygon class="cls-2" points="119.66 61.44 114.3 46.43 104.66 59.29 119.66 61.44"/><polygon class="cls-2" points="102.33 58.85 100.2 41.76 89.52 55.64 102.33 58.85"/><polygon class="cls-2" points="103.78 57.87 113.3 45.18 101.67 40.95 103.78 57.87"/></g></svg>