<svg id="圖層_1" data-name="圖層 1" xmlns="http://www.w3.org/2000/svg" viewBox="0 0 250 120"><defs><style>.cls-1{fill:#fff}.cls-2{fill:#727171}.cls-3{fill:none}.cls-4{fill:#92308d}.cls-5{fill:#0086cd}.cls-6{fill:#00a9e4}.cls-7{fill:#45b035}.cls-8{fill:#009d85}.cls-9{fill:#e61478}.cls-10{fill:#d95097}.cls-11{fill:#f39800}.cls-12{fill:#e8382f}.cls-13{fill:#8fc31f}.cls-14{fill:#fdd000}</style></defs><title>Platinum_1</title><path class="cls-1" d="M0 0h250v120H0z"/><circle class="cls-1" cx="42.96" cy="60.1" r="14.88"/><path class="cls-2" d="M88 49.07L98.05 71h-1.76l-3.44-7.52H82.2L78.77 71H77l10.07-21.93zm4.21 13l-4.7-10.26-4.67 10.25zM108 71h-1.53V49.22H108zm10.14-14.33l-7.84 6.8 9.01 7.53h-2.09l-9-7.52 7.92-6.81zM138 68.49v1.28a6 6 0 0 1-2.9 1.5.77.77 0 0 1-.73-.35 4 4 0 0 1-.3-1.43 7.27 7.27 0 0 1-4.49 1.78 3.85 3.85 0 0 1-2.74-1.06 3.41 3.41 0 0 1-1.12-2.57 4.15 4.15 0 0 1 2.13-3.64 13 13 0 0 1 6.15-1.6v-1.82q0-2.93-3.18-2.93a7.34 7.34 0 0 0-4.38 1.82V57.9a8.75 8.75 0 0 1 4.63-1.53 5.16 5.16 0 0 1 3.21 1 3.28 3.28 0 0 1 1.26 2.78V69c0 .49.11.73.34.73a5.58 5.58 0 0 0 2-1.28m-3.88-.3v-4.47a8.82 8.82 0 0 0-4.88 1 3.36 3.36 0 0 0-1.94 2.92 2.12 2.12 0 0 0 .81 1.68 3 3 0 0 0 2 .68 6 6 0 0 0 4-1.85m15.32-16.21v4.75h4v1.25h-4v8.52a7 7 0 0 0 .33 2.7q.33.65 1.8.65a6.33 6.33 0 0 0 2.62-.7v1.46a6.75 6.75 0 0 1-3 .73 3.52 3.52 0 0 1-2.37-.81 2.79 2.79 0 0 1-1-2.24V57.9h-3.86v-1.25h3.86v-3.41l1-1.34zm21.09 5.69v1.65a7.27 7.27 0 0 0-3.93-1.46 3.42 3.42 0 0 0-2.18.7 2.12 2.12 0 0 0-.89 1.72 2 2 0 0 0 .54 1.34 9 9 0 0 0 3 1.56 7.26 7.26 0 0 1 3.18 2 3.71 3.71 0 0 1 .75 2.26 3.55 3.55 0 0 1-1.35 2.81 5 5 0 0 1-3.35 1.15 8.16 8.16 0 0 1-4.3-1.31v-1.5a10.06 10.06 0 0 0 4.5 1.31 3.3 3.3 0 0 0 2.17-.7 2.22 2.22 0 0 0 .85-1.79 2.05 2.05 0 0 0-.55-1.38 9.15 9.15 0 0 0-3-1.6 7.7 7.7 0 0 1-3.16-1.91 3.36 3.36 0 0 1-.72-2.1 3.52 3.52 0 0 1 1.35-2.78 4.89 4.89 0 0 1 3.28-1.15 7.68 7.68 0 0 1 3.83 1.22M190.3 71v-2.38h-.06a6.74 6.74 0 0 1-2 2 5.29 5.29 0 0 1-2.67.61 5.2 5.2 0 0 1-3.82-1.5 5.69 5.69 0 0 1-1.51-4.24v-8.84h1.53v8.85a4.34 4.34 0 0 0 1.09 3.13 3.75 3.75 0 0 0 2.84 1.14 4.55 4.55 0 0 0 2.55-.69 7.62 7.62 0 0 0 2.11-2.37V56.65h1.53V71zm13.35 0h-1.53V49.22h1.53zm10.14-14.33l-7.84 6.8L215 71h-2.09l-9-7.52 7.92-6.81zM224 51.84h-1.54v-2.62H224zM224 71h-1.54V56.65H224z"/><path class="cls-3" d="M42.96 60.1zm0 0z"/><rect class="cls-3" x="42.96" y="60.1" transform="rotate(-45 42.962 60.095)"/><path class="cls-4" d="M35.51 70.35l-3.68 5.07A18.85 18.85 0 0 0 43 79.06v-6.27a12.61 12.61 0 0 1-7.49-2.44z"/><path class="cls-5" d="M30.89 64l-6 1.94a19 19 0 0 0 6.89 9.47l3.68-5.07A12.73 12.73 0 0 1 30.89 64z"/><path class="cls-6" d="M30.27 60.1a12.63 12.63 0 0 1 .63-3.92l-6-1.94a18.86 18.86 0 0 0 0 11.71l6-1.94a12.63 12.63 0 0 1-.63-3.91z"/><path class="cls-7" d="M43 47.4v-6.26a18.85 18.85 0 0 0-11.13 3.64l3.68 5.07A12.61 12.61 0 0 1 43 47.4z"/><path class="cls-8" d="M35.51 49.84l-3.68-5.07a19 19 0 0 0-6.89 9.47l6 1.94a12.73 12.73 0 0 1 4.57-6.34z"/><path class="cls-9" d="M49.82 59.86a6.87 6.87 0 1 0-2.06 5.06V67h2.07v-7.14zm-6.86 5a4.8 4.8 0 1 1 4.8-4.87v.13a4.8 4.8 0 0 1-4.76 4.7z"/><path class="cls-10" d="M43 72.79v6.27a18.85 18.85 0 0 0 11.13-3.64l-3.68-5.07A12.61 12.61 0 0 1 43 72.79z"/><path class="cls-11" d="M61 54.24l-6 1.94A12.58 12.58 0 0 1 55 64l6 2a18.86 18.86 0 0 0 0-11.71z"/><path class="cls-12" d="M50.41 70.35l3.68 5.07A19 19 0 0 0 61 66l-6-2a12.73 12.73 0 0 1-4.59 6.35z"/><path class="cls-13" d="M50.41 49.84l3.68-5.07A18.85 18.85 0 0 0 43 41.14v6.26a12.61 12.61 0 0 1 7.41 2.44z"/><path class="cls-14" d="M55 56.18l6-1.94a19 19 0 0 0-6.89-9.47l-3.68 5.07A12.73 12.73 0 0 1 55 56.18z"/></svg>