<svg id="圖層_1" data-name="圖層 1" xmlns="http://www.w3.org/2000/svg" viewBox="0 0 280 150"><defs><style>.cls-1{fill:#fff;}.cls-2{fill:#e41635;}.cls-3{fill:#00264b;}.cls-4{font-size:9.8px;fill:#65667e;font-family:ProximaNova-Regular, ProximaNova Regular;}</style></defs><title>ruby_ shopmatic</title><rect class="cls-1" width="280" height="150"/><circle class="cls-2" cx="44.17" cy="74.5" r="24.37"/><path class="cls-1" d="M52.81,66.07v.2h0l0-.2a8,8,0,0,0-4.22,1.41,18.9,18.9,0,0,0-3.94,4.07c-.1.12-1,1.33-2,2.65s-2.08,2.73-2.53,3.2A13.76,13.76,0,0,1,38,79.56a5,5,0,0,1-2.19.84h0a5.52,5.52,0,0,1-5.37-5.5A5.48,5.48,0,0,1,32,71a5.4,5.4,0,0,1,3.8-1.63h0a4.17,4.17,0,0,1,2,.85,14.48,14.48,0,0,1,3,2.86l.16.22,2.1-2.81-.11-.12c-.15-.17,0-.06-.19-.24A16.06,16.06,0,0,0,40,67.47a8.06,8.06,0,0,0-4.21-1.4,8.79,8.79,0,1,0,0,17.58,8,8,0,0,0,4.2-1.4,19.26,19.26,0,0,0,3.94-4.08c.1-.12,1-1.33,2-2.65s2.08-2.73,2.53-3.2a14,14,0,0,1,2.36-2.11,4,4,0,0,1,1.91-.8h0a5.45,5.45,0,0,1,5.38,5.43,5.53,5.53,0,0,1-1.58,3.89,5.41,5.41,0,0,1-3.8,1.67h0a5.09,5.09,0,0,1-2.26-.89,13.85,13.85,0,0,1-2.77-3l-.17-.22-2.1,2.8.11.12c.14.16.1.13.26.31a16.45,16.45,0,0,0,2.75,2.69,8.06,8.06,0,0,0,4.2,1.4,8.83,8.83,0,0,0,8.83-8.79A9.07,9.07,0,0,0,52.81,66.07Z"/><path class="cls-3" d="M88.77,86.34a15.85,15.85,0,0,1-5.4-.94,14.23,14.23,0,0,1-4.82-2.91l3.13-3.75a15.72,15.72,0,0,0,3.39,2.14,9,9,0,0,0,3.8.79,4.62,4.62,0,0,0,2.56-.6,1.9,1.9,0,0,0,.91-1.67v-.07a2.11,2.11,0,0,0-.19-.91,1.9,1.9,0,0,0-.73-.74A7.67,7.67,0,0,0,90,77a25.2,25.2,0,0,0-2.47-.72,28.83,28.83,0,0,1-3.31-1,9,9,0,0,1-2.52-1.36,5.51,5.51,0,0,1-1.6-2,7,7,0,0,1-.57-3v-.07a7,7,0,0,1,.61-3,6.77,6.77,0,0,1,1.73-2.29,7.76,7.76,0,0,1,2.65-1.48,10.78,10.78,0,0,1,3.4-.51,14.4,14.4,0,0,1,4.87.79,14.09,14.09,0,0,1,4.08,2.27l-2.75,4a17.21,17.21,0,0,0-3.16-1.73,8.12,8.12,0,0,0-3.1-.64,3.78,3.78,0,0,0-2.32.6,1.84,1.84,0,0,0-.77,1.5v.07a2.2,2.2,0,0,0,.22,1,2.05,2.05,0,0,0,.81.77,7.57,7.57,0,0,0,1.61.66c.67.2,1.54.45,2.57.72a24.36,24.36,0,0,1,3.26,1.08,8.88,8.88,0,0,1,2.41,1.44,5.43,5.43,0,0,1,1.48,2,6.69,6.69,0,0,1,.5,2.72v.07a7.47,7.47,0,0,1-.65,3.18,6.45,6.45,0,0,1-1.81,2.34,8,8,0,0,1-2.77,1.45A12,12,0,0,1,88.77,86.34Z"/><path class="cls-3" d="M98.88,60.88h5.23v9.31a12.16,12.16,0,0,1,1-1.12,6.75,6.75,0,0,1,1.19-1,6,6,0,0,1,1.44-.66,6.21,6.21,0,0,1,1.79-.24A5.9,5.9,0,0,1,114.14,69a7.27,7.27,0,0,1,1.64,5V86h-5.23V75.74a4.14,4.14,0,0,0-.83-2.8,3,3,0,0,0-2.34-.95,3.11,3.11,0,0,0-2.39.95,4,4,0,0,0-.88,2.8V86H98.88Z"/><path class="cls-3" d="M127.3,86.41a10.42,10.42,0,0,1-4-.74,9.69,9.69,0,0,1-3.14-2,9.42,9.42,0,0,1-2.09-3,9.24,9.24,0,0,1-.75-3.73v-.07a9.28,9.28,0,0,1,.75-3.73,9.53,9.53,0,0,1,2.1-3A10,10,0,0,1,123.38,68a10.89,10.89,0,0,1,7.95,0,9.7,9.7,0,0,1,3.15,2,9.4,9.4,0,0,1,2.08,3,9.2,9.2,0,0,1,.75,3.73v.07a9.24,9.24,0,0,1-.75,3.73,9.34,9.34,0,0,1-2.1,3,9.92,9.92,0,0,1-3.16,2.07A10.33,10.33,0,0,1,127.3,86.41Zm.07-4.5a4.81,4.81,0,0,0,2-.4,4.39,4.39,0,0,0,1.49-1.08,4.82,4.82,0,0,0,.95-1.6,5.82,5.82,0,0,0,.33-1.95v-.07a5.53,5.53,0,0,0-.35-1.94,4.93,4.93,0,0,0-1-1.62,4.83,4.83,0,0,0-1.55-1.12,4.62,4.62,0,0,0-2-.41,4.94,4.94,0,0,0-2,.39,4.51,4.51,0,0,0-1.5,1.09,4.84,4.84,0,0,0-.95,1.6,5.77,5.77,0,0,0-.33,1.94v.07a5.5,5.5,0,0,0,.35,1.94,5,5,0,0,0,1,1.62,4.88,4.88,0,0,0,1.53,1.12A4.59,4.59,0,0,0,127.37,81.9Z"/><path class="cls-3" d="M139,67.55h5.23V70.2a8.31,8.31,0,0,1,2.32-2.15,6.39,6.39,0,0,1,3.42-.84,8.18,8.18,0,0,1,3.13.62,7.74,7.74,0,0,1,2.68,1.84,9.11,9.11,0,0,1,1.88,3,11,11,0,0,1,.7,4.07v.07a11,11,0,0,1-.7,4.08,9.26,9.26,0,0,1-1.86,3,7.59,7.59,0,0,1-2.66,1.84,8.31,8.31,0,0,1-3.17.62,6.58,6.58,0,0,1-3.46-.82,9.29,9.29,0,0,1-2.29-1.93V91.5H139Zm9.63,14.35a4.19,4.19,0,0,0,1.74-.36,4.31,4.31,0,0,0,1.43-1,5.1,5.1,0,0,0,1-1.6,5.84,5.84,0,0,0,.36-2.1v-.07a5.85,5.85,0,0,0-.36-2.08,5.13,5.13,0,0,0-1-1.62,4.37,4.37,0,0,0-1.43-1,4.43,4.43,0,0,0-3.48,0,4.22,4.22,0,0,0-1.41,1,5.38,5.38,0,0,0-1,1.62,5.85,5.85,0,0,0-.36,2.08v.07a5.88,5.88,0,0,0,.36,2.09,5.3,5.3,0,0,0,1,1.62,4.16,4.16,0,0,0,1.41,1A4.23,4.23,0,0,0,148.67,81.9Z"/><path class="cls-3" d="M160.19,67.55h5.23v2.64a10.54,10.54,0,0,1,1-1.12,6.81,6.81,0,0,1,1.18-1,5.94,5.94,0,0,1,1.46-.66,6.48,6.48,0,0,1,1.81-.24A6.2,6.2,0,0,1,174,68a5.15,5.15,0,0,1,2,2.18,8.53,8.53,0,0,1,2.68-2.2,7.42,7.42,0,0,1,3.38-.75,6,6,0,0,1,4.57,1.72A7,7,0,0,1,188.34,74V86h-5.23V75.74a4.28,4.28,0,0,0-.79-2.8A2.81,2.81,0,0,0,180,72a3,3,0,0,0-2.32.95,4.06,4.06,0,0,0-.84,2.8V86h-5.23V75.74a4.26,4.26,0,0,0-.79-2.8,2.8,2.8,0,0,0-2.27-.95,3,3,0,0,0-2.32.95,4.06,4.06,0,0,0-.84,2.8V86h-5.23Z"/><path class="cls-3" d="M196,86.34a8.08,8.08,0,0,1-2.46-.36,5.67,5.67,0,0,1-2-1.08,5.17,5.17,0,0,1-1.36-1.77,5.7,5.7,0,0,1-.5-2.43v-.07a5.74,5.74,0,0,1,.55-2.61,5,5,0,0,1,1.53-1.83,6.81,6.81,0,0,1,2.34-1.08,11.64,11.64,0,0,1,3-.36,13,13,0,0,1,2.46.2,15.26,15.26,0,0,1,2,.55v-.31a3.12,3.12,0,0,0-1-2.51,4.39,4.39,0,0,0-3-.86,12.37,12.37,0,0,0-2.66.26,18.34,18.34,0,0,0-2.43.74l-1.3-4a19.94,19.94,0,0,1,3.16-1.07,16.56,16.56,0,0,1,4-.41,11.26,11.26,0,0,1,3.7.53,6.55,6.55,0,0,1,2.53,1.53,6.23,6.23,0,0,1,1.51,2.53,10.84,10.84,0,0,1,.48,3.35V86h-5.06V84a7.19,7.19,0,0,1-2.3,1.71A7.58,7.58,0,0,1,196,86.34Zm1.58-3.61a4.61,4.61,0,0,0,3-.9,2.85,2.85,0,0,0,1.12-2.34v-.93a8,8,0,0,0-1.54-.5,8.26,8.26,0,0,0-1.8-.19,4.67,4.67,0,0,0-2.65.65,2.15,2.15,0,0,0-1,1.89v.07a1.92,1.92,0,0,0,.79,1.65A3.32,3.32,0,0,0,197.62,82.73Z"/><path class="cls-3" d="M215.34,86.31a8.71,8.71,0,0,1-2.18-.26,3.89,3.89,0,0,1-1.69-.91,4.27,4.27,0,0,1-1.1-1.7,7.54,7.54,0,0,1-.4-2.66V72h-2.2V67.55H210V62.84h5.23v4.71h4.33V72h-4.33v7.91c0,1.19.56,1.79,1.68,1.79a5.13,5.13,0,0,0,2.59-.69v4.2a8.25,8.25,0,0,1-1.83.78A8.35,8.35,0,0,1,215.34,86.31Z"/><path class="cls-3" d="M221.43,60.88h5.5v4.65h-5.5Zm.14,6.67h5.23V86h-5.23Z"/><path class="cls-3" d="M237.67,86.41a9.71,9.71,0,0,1-3.84-.75,9.47,9.47,0,0,1-5.76-8.78v-.07A9.76,9.76,0,0,1,230.79,70a9.36,9.36,0,0,1,3-2.06,9.87,9.87,0,0,1,3.91-.76,10,10,0,0,1,4.33.83,9.76,9.76,0,0,1,3,2.27l-3.2,3.44a8.64,8.64,0,0,0-1.84-1.48,4.62,4.62,0,0,0-2.35-.55,4.11,4.11,0,0,0-1.81.39,4.52,4.52,0,0,0-1.41,1.09,4.91,4.91,0,0,0-.93,1.6,5.59,5.59,0,0,0-.33,1.94v.07a5.83,5.83,0,0,0,.33,2,4.66,4.66,0,0,0,.95,1.62A4.44,4.44,0,0,0,236,81.5a4.52,4.52,0,0,0,1.93.4,4.72,4.72,0,0,0,2.29-.53,9.83,9.83,0,0,0,1.95-1.43L245.2,83a11.75,11.75,0,0,1-3.06,2.42A9.22,9.22,0,0,1,237.67,86.41Z"/><polygon class="cls-3" points="233.88 52.37 235.01 54.66 237.54 55.03 235.71 56.82 236.14 59.33 233.88 58.14 231.62 59.33 232.05 56.82 230.22 55.03 232.75 54.66 233.88 52.37"/><polygon class="cls-3" points="209.42 45.13 211.07 48.48 214.76 49.02 212.09 51.63 212.72 55.3 209.42 53.57 206.12 55.3 206.75 51.63 204.07 49.02 207.76 48.48 209.42 45.13"/><text class="cls-4" transform="translate(246.61 67.56)">TM</text></svg>