<svg id="圖層_1" data-name="圖層 1" xmlns="http://www.w3.org/2000/svg" xmlns:xlink="http://www.w3.org/1999/xlink" viewBox="0 0 200 100"><defs><style>.cls-1{fill:#fff;}.cls-2{fill:url(#未命名漸層_97);}.cls-3{fill:#323333;}</style><linearGradient id="未命名漸層_97" x1="47.99" y1="63.98" x2="28.91" y2="30.94" gradientUnits="userSpaceOnUse"><stop offset="0" stop-color="#3a2b84"/><stop offset="1" stop-color="#814590"/></linearGradient></defs><title>silver_5FPRO</title><rect class="cls-1" width="200" height="100"/><path class="cls-2" d="M28.25,31.37H53.32a.17.17,0,0,1,.1.31L19.83,54.77a.17.17,0,0,1-.26-.2l8.35-23A.34.34,0,0,1,28.25,31.37ZM19.94,57.23H34.25a.17.17,0,0,1,.17.21L30.29,73.87a.17.17,0,0,0,.29.16L55.73,48.9a.17.17,0,0,0-.12-.29H32.09a.52.52,0,0,0-.29.09l-12,8.22A.17.17,0,0,0,19.94,57.23Z"/><path class="cls-3" d="M76,62.6a9.14,9.14,0,0,1-6.61-2.33,7.74,7.74,0,0,1-2.26-4.21L67,55.36h3.81l.13.4a4.33,4.33,0,0,0,2.91,2.84,6.34,6.34,0,0,0,2,.28,5.11,5.11,0,0,0,2-.36,4.53,4.53,0,0,0,1.47-1A4.52,4.52,0,0,0,76,49.79a5.81,5.81,0,0,0-2.52.52,4.83,4.83,0,0,0-1.6,1.13l-.32.38L68.4,49.89l1.7-11.83H83.21v3.67H73.46l-.79,5.07.31-.12a7.74,7.74,0,0,1,2.74-.5,10.14,10.14,0,0,1,3.66.6A7.63,7.63,0,0,1,82,48.49a7.81,7.81,0,0,1,2.33,5.85A8,8,0,0,1,82,60.19,8.08,8.08,0,0,1,76,62.6Z"/><polygon class="cls-3" points="88.86 62.32 88.86 38.06 106.7 38.06 104.76 41.74 92.64 41.74 92.64 48.6 105.16 48.6 103.22 52.31 92.64 52.31 92.64 62.32 88.86 62.32"/><path class="cls-3" d="M111.2,62.31V38.07h10.85a8.49,8.49,0,0,1,6,2.07,7.29,7.29,0,0,1,2.15,5.52A7.24,7.24,0,0,1,128,51.19a8.46,8.46,0,0,1-6,2h-9.18v9.07Zm1.67-10.56h9a7,7,0,0,0,5-1.63,5.88,5.88,0,0,0,1.73-4.46,5.88,5.88,0,0,0-1.73-4.46,7,7,0,0,0-5-1.63h-9Z"/><path class="cls-3" d="M151.1,62.31l-6.15-9.77h-9.78v9.77h-1.67V38.07h11.58a8.31,8.31,0,0,1,5.82,2A6.88,6.88,0,0,1,153,45.42c0,2.94-1.18,4.89-3.6,5.94a10.51,10.51,0,0,1-2.08.69l-.86.18,6.56,10.07ZM135.17,51h9.41c2.93,0,5-1,6.13-2.83a6,6,0,0,0-1.2-7.06,7.16,7.16,0,0,0-4.78-1.55h-9.56Z"/><path class="cls-3" d="M168.12,62.62A11.85,11.85,0,0,1,159.22,59a12.21,12.21,0,0,1-3.41-8.81,12.21,12.21,0,0,1,3.41-8.81,12.77,12.77,0,0,1,17.82,0,12.21,12.21,0,0,1,3.41,8.81A12.2,12.2,0,0,1,177,59,11.86,11.86,0,0,1,168.12,62.62Zm0-23.26a10.28,10.28,0,0,0-7.78,3.15,10.78,10.78,0,0,0-2.86,7.68,10.78,10.78,0,0,0,2.86,7.68,11.19,11.19,0,0,0,15.57,0,10.78,10.78,0,0,0,2.86-7.68,10.78,10.78,0,0,0-2.86-7.68A10.28,10.28,0,0,0,168.12,39.36Z"/></svg>