<svg id="圖層_1" data-name="圖層 1" xmlns="http://www.w3.org/2000/svg" xmlns:xlink="http://www.w3.org/1999/xlink" viewBox="0 0 220 100"><defs><style>.cls-1{fill:#fff;}.cls-2{fill:url(#未命名漸層_97);}.cls-3{fill:#323333;}</style><linearGradient id="未命名漸層_97" x1="52.79" y1="65.38" x2="31.8" y2="29.03" gradientUnits="userSpaceOnUse"><stop offset="0" stop-color="#3a2b84"/><stop offset="1" stop-color="#814590"/></linearGradient></defs><title>Silver_5FPRO</title><rect class="cls-1" width="220" height="100"/><path class="cls-2" d="M31.07,29.51H58.65a.19.19,0,0,1,.11.34L21.81,55.25a.19.19,0,0,1-.28-.22l9.19-25.27A.38.38,0,0,1,31.07,29.51ZM21.93,58H37.68a.19.19,0,0,1,.18.24L33.32,76.26a.19.19,0,0,0,.32.18L61.3,48.79a.19.19,0,0,0-.13-.32H35.3a.57.57,0,0,0-.32.1l-13.15,9A.19.19,0,0,0,21.93,58Z"/><path class="cls-3" d="M83.64,63.86a10.06,10.06,0,0,1-7.28-2.56,8.52,8.52,0,0,1-2.49-4.64l-.15-.76h4.19l.15.43a4.77,4.77,0,0,0,3.21,3.13,7,7,0,0,0,2.19.31,5.62,5.62,0,0,0,2.17-.39,5,5,0,0,0,1.62-1.07,5,5,0,0,0-3.65-8.54,6.39,6.39,0,0,0-2.77.57,5.31,5.31,0,0,0-1.76,1.24l-.35.42-3.47-2.11,1.87-13H91.53v4H80.81l-.87,5.58.34-.13a8.51,8.51,0,0,1,3-.55,11.15,11.15,0,0,1,4,.66,8.39,8.39,0,0,1,2.91,1.87,8.6,8.6,0,0,1,2.57,6.44,8.8,8.8,0,0,1-2.64,6.44A8.89,8.89,0,0,1,83.64,63.86Z"/><polygon class="cls-3" points="97.75 63.55 97.75 36.87 117.37 36.87 115.24 40.91 101.9 40.91 101.9 48.46 115.68 48.46 113.55 52.54 101.9 52.54 101.9 63.55 97.75 63.55"/><path class="cls-3" d="M122.32,63.54V36.87h11.94a9.33,9.33,0,0,1,6.61,2.27,8,8,0,0,1,2.37,6.07,8,8,0,0,1-2.39,6.09,9.3,9.3,0,0,1-6.59,2.25h-10.1v10Zm1.84-11.61H134a7.65,7.65,0,0,0,5.45-1.79,6.47,6.47,0,0,0,1.9-4.9,6.47,6.47,0,0,0-1.9-4.9A7.65,7.65,0,0,0,134,38.55h-9.89Z"/><path class="cls-3" d="M166.21,63.54,159.44,52.8H148.68V63.54h-1.84V36.87h12.74a9.14,9.14,0,0,1,6.4,2.19,7.57,7.57,0,0,1,2.36,5.9c0,3.24-1.29,5.38-4,6.54a11.56,11.56,0,0,1-2.28.76l-.95.2,7.22,11.08ZM148.68,51.13H159c3.22,0,5.49-1,6.74-3.11a5.87,5.87,0,0,0,.73-3.05,5.89,5.89,0,0,0-2.05-4.71,7.87,7.87,0,0,0-5.25-1.7H148.68Z"/><path class="cls-3" d="M184.94,63.88a13,13,0,0,1-9.8-4,13.43,13.43,0,0,1-3.75-9.69,13.43,13.43,0,0,1,3.75-9.69,14,14,0,0,1,19.6,0,13.43,13.43,0,0,1,3.75,9.69,13.43,13.43,0,0,1-3.75,9.69A13,13,0,0,1,184.94,63.88Zm0-25.59a11.31,11.31,0,0,0-8.56,3.46,11.86,11.86,0,0,0-3.14,8.45,11.86,11.86,0,0,0,3.14,8.45,12.31,12.31,0,0,0,17.12,0,11.86,11.86,0,0,0,3.14-8.45,11.86,11.86,0,0,0-3.14-8.45A11.31,11.31,0,0,0,184.94,38.29Z"/></svg>