<svg id="圖層_1" data-name="圖層 1" xmlns="http://www.w3.org/2000/svg" viewBox="0 0 200 100"><defs><style>.cls-1{fill:#fff;}.cls-2{fill:#191918;}.cls-3{fill:#a12224;}</style></defs><title>sliver_icook</title><rect class="cls-1" width="200" height="100"/><path id="Fill-2" class="cls-2" d="M30.44,49.14A15.66,15.66,0,0,0,28,54.89c-.35,1.56.28,2.55,2.48,3.26s2.34.28,3.26-.85,1.63-6.6,1.63-6.6-.07-2.13-1.63-2.48a5.84,5.84,0,0,0-3.26.92Zm7.38,5.75c-.14.5-.28,6,7.38,8.23,6.67,2,19.93,1.49,23-3.26,1.84-2.91.92-6.31-1.63-6.6-1.49-.14-1.77-1.42-1.63,0S63,58.65,58.18,59.14s-11.14-.57-13-2.55-1.13-4.26-3.26-5c-4-1.28-4,2.77-4.11,3.26ZM51,50.13a11.35,11.35,0,0,1,.14,4.11c-.35,2.2,2.2,2.55,4.89,2.2s2.55-3.12,2.2-3.9S55.13,47.15,51,50.13Zm19.51-2.77c-.14,6.17,2.55,7.38,2.55,7.38,4,1.63,3.4-.14,3.4-.14s1.35-1.84-.5-5.25a4.39,4.39,0,0,0-5.46-2ZM21.29,50.91c-.71,3.83-1.13,6.74,1.28,11,2.34,4,9.93,5.82,16.81,7.45s18.3,1.21,23,.57,19.93-5.6,21.14-12.56-.78-12-3.76-14.9-16.39-3.55-20.36-4S36.55,40.63,33,41c-6.17.57-10.21,1.77-11.7,9.93Zm4.47-3a5.62,5.62,0,0,1,4.89-3.26c5.39-.5,17.17-1.84,24.47-2.06s19.29.14,21.85,3.26,2.84,7,2.27,11.14-11.35,8.8-20.36,9.58-22.63-1.21-29.51-4.26c-4.11-1.84-4.82-5-4.75-8.37a31.85,31.85,0,0,1,1.13-6Zm1.42-9.51s25.47-4.11,47.6-1.63l1.63-1.63a188.08,188.08,0,0,0-21.35-4.11c-.64-.07,5.75-5.11,4.11-6.6s-14,0-14,0,5.32,5.32,4.11,5.75-14.54,2.7-23,5.75.85,2.48.85,2.48Z"/><path id="Fill-3" class="cls-3" d="M89.53,41.12c-.21-2.91-1.13-4.61,8.3-4.68s51.93.14,61.29-.5S172,37.79,172,37.79s2.2,18.3,1.28,25.82c0,0,2.48,2.77-8.3,3.05a188.19,188.19,0,0,1-19.37-.35L144,64.68v1.56s-29.37,1.06-35.54.92-15.89,1.35-17.73-.35-1.42-9.72-1.42-9.72.5-13,.21-16"/><path id="Fill-4" class="cls-1" d="M105.07,48.79s.5,1.06.78,1.84,1.7.07,1.7.07.64-.78.07-1.35a5.32,5.32,0,0,0-2.55-.57Zm12.06-2.27Zm-.14,4.4a32.61,32.61,0,0,1,.14-4.4,42.9,42.9,0,0,1-4.61-.21l-.43-.5s1.63-1.28,1.77-1.7-.43-1.35-.43-1.35l1.7.07c-.14-.78-.85-1.77-1.63-1.84a7.82,7.82,0,0,0-1.7-.07c-1.49.85-15.89,1.63-15.89,1.63s-.5.43.85,1.35S98,44,98,44l1.28.07s-.14.71.43.85a1.32,1.32,0,0,0,.85,0l-.07,1.77a36.32,36.32,0,0,1-4.68-.14l-.07,2.2c-.07,1.77-.5,1.77-.5,1.77.21.92,2.2,1.21,2.55.5A9.82,9.82,0,0,0,98,47.86c.57-.28,3.9.14,3.9.14a20.7,20.7,0,0,0,.21,5.32l.85.07a2.37,2.37,0,0,1-.92,1.77,29.22,29.22,0,0,1-6.1,3.33c.14,1.21,2.13,1.42,2.13,1.42a8.49,8.49,0,0,0,4.89-3.83l2.48,3.19c-3.55,3.05-9,1.77-9.51,1.84S98,63.4,98,63.4c4.54-.43,9.51-3.19,9.51-3.19a31.5,31.5,0,0,0,8.87,3,8.93,8.93,0,0,0,.92-2.62c-7-.07-8.09-1.21-8.09-1.21s-.5.21.5-.85A21.17,21.17,0,0,1,112.8,56,3.37,3.37,0,0,0,111.6,55c-.85-.35-6.17,0-6.38-.21s.07-1.35.07-1.35a22.31,22.31,0,0,0,5.18-.21c1.06-.35.71-.35.85-1.28s-1.21-1.35-1.21-1.35a1.86,1.86,0,0,1-.85,1.28c-.71.35-4.68.28-4.68.28s-.35-.07-.35-1.35a7.15,7.15,0,0,0-.78-2.7s10.78,0,11.56-.07.35,2.2.35,2.2h-.43a5.28,5.28,0,0,0-2.13-1.42c-.92-.14-1.28.85-1.28.85a12.16,12.16,0,0,1,2.91,2.77l1.35-1.28-.43-.5,1.63.21Zm-15.18-7.16,2.55.14s1.42,2.62,2.06,2.7l-3.48.35-.43-.07c-1.13-.07-.71-3.12-.71-3.12Zm4.68-.28,4.26.14a5.77,5.77,0,0,1-.92,2.62l-2.13-.07s-1.28-.57-1.21-2.7Zm-.43,12.91a20.75,20.75,0,0,0,2.55.14c1.06.07,0,1.84-1.35,1.7s-1.35.43-1.63-1.42c0-.07-.07-.57.43-.43ZM99.89,49.5h-.43c.07.64-1.42,3.05-1.42,3.05a2.23,2.23,0,0,0,1.7.5c.57-.07.85-.85.85-.85.64-2.13-.71-2.7-.71-2.7ZM121,44.88a19.73,19.73,0,0,1,2.06,3.19c.07.14,1.35-1.28,1.35-1.28a25.47,25.47,0,0,0-2.06-3.19A13,13,0,0,0,121,44.88Zm7.24,2.06,1.28.5a24,24,0,0,0,1.77-2.2,3,3,0,0,0-2.13-1.42c-.28.92-.92,3.12-.92,3.12Zm-2.84-5c.07,0,.43,7.09.14,7.09l-4.26-.14s-.14,2.34-.07,2.2a6.48,6.48,0,0,1,3.9-.28s-1.35,4.19-3.26,6.1a12.31,12.31,0,0,1-1.28-.07l-.07,1.77a2.25,2.25,0,0,0,1.21.92s2.55-2.84,3.55-4.26a6.64,6.64,0,0,1,.28,3.12,26.25,26.25,0,0,1-.5,3.55s-.07.92,1.21.92,1.28-.43,1.28-.43a20.15,20.15,0,0,1-.28-3.55l.14-4.4,2.06,2.27s.78-.14.85-.43a2.76,2.76,0,0,0,.85,1.35s4.75-2,6.53-2.41a51.27,51.27,0,0,1-.71,7.52,1.73,1.73,0,0,0,1.28.5,3.52,3.52,0,0,1,1.28.07l.07-2.2s-.35.14-.28-3.55l.14-2.62a10.49,10.49,0,0,1,2.55-.85l.07-1.77a5.83,5.83,0,0,0-2.55.85s-.28-5-.14-9.36a14.14,14.14,0,0,1,.5-1.77,2.94,2.94,0,0,0-1.7-.5c-1.06.07-1.28.43-1.28.43s.64,1.63.64,6.24a29.77,29.77,0,0,0,.21,5.32s-5.82,2-7,2v-.5a41.87,41.87,0,0,1-3.76-2.84l.07-1.35,1.28-.43V50l.43.5a18,18,0,0,0,2.13.07s.07.5.43.5.85-.57,1.28.07a5.94,5.94,0,0,0,.85.92,2.66,2.66,0,0,0,1.28-.85v-.5c0-.07-.78-.57-1.21-.92a4.55,4.55,0,0,0-.85-.5l-1.77.85.07-.85s-2.84-.21-3.9-.14c0,0,.14-6.46.71-7l-.85-.5a10.07,10.07,0,0,1-1.56.35Zm6.67,3.83A23.81,23.81,0,0,1,135,47.65a5.2,5.2,0,0,0,.92-1.77s-.71-.43-2.13-1.42c.07,0-.5-.07-1.7,1.35Zm13.41-2.7c-.35-.07-.07,1.77-.07,1.77l.85.5a4.72,4.72,0,0,1,.85-.43c.07,0,.64,0,1.42.07a36.66,36.66,0,0,1,.14,4.47,16,16,0,0,0-3.48.28c-.21,2.41,1.21,2.2,1.21,2.2a4.84,4.84,0,0,0,2.2-.85l-.21,6.17a8.56,8.56,0,0,1-3,.35s-.5,0-.5,1.28.85,1.35.85,1.35c2.2-.85,6.6-2.13,7-2s.5-.43.5-.43c-.14-1.21-.35-1.35-.35-1.35a6.11,6.11,0,0,1-2.55.35s.28-4.82.14-5.75,1.84.5,2.13.07a5.23,5.23,0,0,0,.07-1.77c0-.07-2.13-.07-2.13-.07.07-2.62.35-3.9.64-4.4l2.06.07.07-2.2a45.76,45.76,0,0,1-7.8.28Zm8.58-.07c-.28-.07-.14,4.4-.14,4.4s1,.57.85.92-.85.85-.85.85c-.14.85-.14,3.55-.14,3.55l2.13.07a17.73,17.73,0,0,0,3.05-.14c0,1.13-.14,3.33-.14,3.33a28.6,28.6,0,0,0-5.11-.64l-.43.5.78,2.2.85-.85,3,.14.85.5-.07,2.2a34.81,34.81,0,0,1-7.66.14l.78,2.7a29,29,0,0,1,4.26-.78,79.64,79.64,0,0,1,9.86.35l1.7.07.14-3.12a18.21,18.21,0,0,1-4.26.78,13,13,0,0,1-3-.14l.14-2.62s4.89.14,5.6.14l.14-3.12a16,16,0,0,1-4.33,1.21l-1.28-.07.14-3.05,5.53.57-.85-.92-.43-9.29a99.3,99.3,0,0,0-11.14.14Zm1.56,2.7c.07-.21-.07-.57.5-.85a8,8,0,0,1,2.2-.35l.43.5s0,2.2-.07,2.2a6.6,6.6,0,0,1-2.2.35c-.64-.07-.85-.43-.85-.5a8.5,8.5,0,0,1,0-1.35Zm5.18-.71a3.05,3.05,0,0,1,2.2-.35s.85.07.85,1.35l-.07,1.35-1.28.43-2.13-.5.07-2.2c-.07-.07.35,0,.35-.07ZM156,49.21s.21-.43,1.7-.35,1.28.5,1.28.5.07,1.84-.07,1.77-1.56.28-2.55.35-.35-2.27-.35-2.27Zm4.26-.28a2.58,2.58,0,0,1,1.28.07,2.91,2.91,0,0,0,1.7-.43c.71.28-.14,2.62-.14,2.62a21.72,21.72,0,0,1-2.55-.14l-.28-2.13Z"/></svg>