<?xml version="1.0" encoding="utf-8"?>
<!-- Generator: Adobe Illustrator 20.0.0, SVG Export Plug-In . SVG Version: 6.00 Build 0)  -->
<svg version="1.1" id="圖層_1" xmlns="http://www.w3.org/2000/svg" xmlns:xlink="http://www.w3.org/1999/xlink" x="0px" y="0px"
	 viewBox="0 0 200 100" style="enable-background:new 0 0 200 100;" xml:space="preserve">
<style type="text/css">
	.st0{fill:#FFFFFF;}
	.st1{fill:#330000;}
	.st2{fill:#FF9933;}
</style>
<title>speaker_cookpad</title>
<rect y="0" class="st0" width="200" height="100"/>
<g>
	<g>
		<path class="st1" d="M160.7,41.6c-1.6,0-3.6,0.3-5.4,0.9c-0.4,0.1-1.1,0.4-1.1,0.4l0.9,3.2l0.2-0.1c0,0,0.6-0.2,1-0.3
			c0,0,2.1-0.7,4-0.7c1.3,0,2.2,0.3,2.8,0.8c0.5,0.5,0.8,1.3,0.8,2.4h-3.2c-2.4,0-4.2,0.5-5.5,1.5c-1.2,0.9-1.9,2.2-1.9,3.9
			c0,1.5,0.5,2.7,1.6,3.7c1,0.8,2.2,1.3,3.8,1.3c0.1,0,0.2,0,0.2,0c1,0,2.3-0.1,3.6-0.6c0.4-0.2,0.9-0.4,1.4-0.7v1.3h3.6V48
			c0-1.7-0.5-3.2-1.6-4.4C164.6,42.2,162.8,41.6,160.7,41.6z M163.8,51.6V53c-0.4,0.5-1.1,1-1.8,1.4c-0.8,0.4-1.5,0.6-2.3,0.7
			c-2,0.1-3.1-0.5-3.1-1.7c0-0.6,0.6-1.2,1.3-1.4c0.8-0.3,1.9-0.3,3.1-0.3H163.8z"/>
		<path class="st1" d="M143.5,41.5c-1.5,0-2.9,0.3-4,0.9v-0.9h-3.9v21.8h3.9v-5.8c1.2,0.6,2.5,0.9,4,0.9c2.5,0,4.5-0.8,6-2.4
			c1.5-1.6,2.2-3.6,2.2-6.1c0-2.5-0.8-4.5-2.2-6.1C148,42.3,146,41.5,143.5,41.5z M140.5,53.9c-0.4-0.4-0.8-0.9-1-1.5
			c-0.3-0.6-0.4-1.4-0.4-2.3c0-0.9,0.1-1.7,0.4-2.3c0.8-1.8,2.1-2.6,4-2.6c1.2,0,2.2,0.4,3,1.1c1,0.9,1.5,2.2,1.5,3.8
			c0,1.7-0.5,3-1.5,3.9c-0.4,0.4-0.9,0.7-1.4,0.8c-1.1,0.4-2.1,0.4-3.2,0C141.4,54.5,140.9,54.2,140.5,53.9z"/>
		<path class="st1" d="M181.6,36.6v5.8c-1.2-0.6-2.5-0.9-4-0.9c-2.5,0-4.5,0.8-6,2.4c-1.5,1.6-2.2,3.6-2.2,6.1
			c0,2.5,0.8,4.5,2.2,6.1c1.5,1.6,3.5,2.4,6,2.4c1.5,0,2.9-0.3,4-0.9v0.9h3.9V36.6H181.6z M182,50c0,0.9-0.1,1.7-0.4,2.3
			c-0.8,1.8-2.1,2.6-4,2.6c-1.2,0-2.2-0.4-3-1.1c-1-0.9-1.5-2.2-1.5-3.8c0-1.7,0.5-3,1.5-3.9c0.4-0.4,0.9-0.7,1.4-0.8
			c0.5-0.2,1.1-0.3,1.6-0.3s1,0.1,1.6,0.3c0.5,0.2,1,0.5,1.4,0.8c0.4,0.4,0.8,0.9,1,1.5C181.9,48.3,182,49.1,182,50z"/>
		<polygon class="st1" points="133.8,44.5 131.4,41.5 122.9,48.1 122.9,36.6 119,36.6 119,58.5 122.9,58.5 122.9,53.1 125,51.5 
			131,58.5 134,56 128,49 		"/>
		<path class="st1" d="M90.2,41.5c-2.6,0-4.7,0.8-6.2,2.4c-1.5,1.6-2.3,3.6-2.3,6.1c0,2.5,0.8,4.6,2.3,6.1c1.5,1.5,3.6,2.4,6.2,2.4
			s4.7-0.8,6.2-2.4c1.5-1.6,2.3-3.6,2.3-6.1c0-2.5-0.8-4.6-2.3-6.1C94.9,42.3,92.7,41.5,90.2,41.5z M93.3,53.9
			c-0.4,0.4-0.9,0.7-1.5,0.8c-0.5,0.2-1.1,0.3-1.6,0.3c-0.5,0-1.1-0.1-1.6-0.3c-0.5-0.2-1-0.5-1.5-0.8c-1-0.9-1.5-2.2-1.5-3.9
			c0-1.7,0.5-2.9,1.5-3.8c0.8-0.7,1.9-1.1,3.1-1.1c1.2,0,2.3,0.4,3.1,1.1c1,0.9,1.5,2.2,1.5,3.8C94.8,51.7,94.3,53,93.3,53.9z"/>
		<path class="st1" d="M108.5,41.5c-2.6,0-4.7,0.8-6.2,2.4c-1.5,1.6-2.3,3.6-2.3,6.1c0,2.5,0.8,4.6,2.3,6.1c1.5,1.5,3.6,2.4,6.2,2.4
			c2.6,0,4.7-0.8,6.2-2.4c1.5-1.6,2.3-3.6,2.3-6.1c0-2.5-0.8-4.6-2.3-6.1C113.2,42.3,111.1,41.5,108.5,41.5z M111.6,53.9
			c-0.4,0.4-0.9,0.7-1.5,0.8c-0.5,0.2-1.1,0.3-1.6,0.3c-0.5,0-1.1-0.1-1.6-0.3c-0.5-0.2-1-0.5-1.5-0.8c-1-0.9-1.5-2.2-1.5-3.9
			c0-1.7,0.5-2.9,1.5-3.8c0.8-0.7,1.9-1.1,3.1-1.1c1.2,0,2.3,0.4,3.1,1.1c1,0.9,1.5,2.2,1.5,3.8C113.1,51.7,112.6,53,111.6,53.9z"/>
		<path class="st1" d="M68.9,50c0,0.7,0.2,1.8,0.6,2.6c0.3,0.6,0.8,1.2,1.5,1.6c0.7,0.5,1.6,0.8,2.6,0.8c0.5,0,0.9-0.1,1.4-0.2
			c1.2-0.3,2.3-1,3.3-2.1l0.1-0.1l2.5,2.5c0,0-0.7,0.8-1.5,1.4c-1.6,1.2-3.6,2-5.9,2c-2.9,0-5.5-1.3-6.9-3.3
			c-1.1-1.5-1.6-3.4-1.6-5.2s0.5-3.7,1.6-5.2c1.4-2,4-3.3,6.9-3.3c2.4,0,4.3,0.8,5.9,2c0.8,0.6,1.5,1.4,1.5,1.4l-2.5,2.5l-0.1-0.1
			c-1-1.1-2.1-1.8-3.3-2.1c-0.5-0.1-0.9-0.2-1.4-0.2c-1,0-1.9,0.3-2.6,0.8c-0.6,0.4-1.1,1-1.5,1.6C69.1,48.2,68.9,49.3,68.9,50z"/>
	</g>
	<g>
		<circle class="st2" cx="37.8" cy="50" r="23.3"/>
		<g>
			<path class="st0" d="M48.1,39.2c-1.6,0-3,0.5-4.1,1.4c-1-2.4-3.4-4.1-6.2-4.1c-2.3,0-4.4,1.2-5.6,3.1c-0.8-0.4-1.8-0.6-2.8-0.6
				c-3.7,0-6.7,3-6.7,6.7c0,2.9,1.9,5.4,4.4,6.3l-1.3,10.2c0,0.3,0.1,0.6,0.3,0.9c0.2,0.2,0.5,0.4,0.8,0.4h18.2c0.5,0,1-0.4,1.1-1
				l1.2-9.9c0.2,0,0.4,0,0.7,0c3.7,0,6.7-3,6.7-6.7C54.8,42.2,51.8,39.2,48.1,39.2z"/>
			<path class="st1" d="M48.7,38.5c-1.7,0-3.2,0.6-4.4,1.5c-1.1-2.6-3.6-4.4-6.5-4.4c-2.5,0-4.7,1.3-6,3.3c-0.9-0.4-1.9-0.6-3-0.6
				c-3.9,0-7.1,3.2-7.1,7.1c0,3.1,2,5.7,4.7,6.7L25.1,63c0,0.3,0.1,0.7,0.3,0.9c0.2,0.2,0.5,0.4,0.8,0.4h19.3c0.6,0,1.1-0.4,1.1-1
				L48,52.8c0.2,0,0.5,0,0.7,0c3.9,0,7.1-3.2,7.1-7.2C55.8,41.7,52.6,38.5,48.7,38.5z M48.7,50.5c-0.1,0-0.3,0-0.4,0l0.2-1.3
				c0.1-0.6-0.4-1.2-1-1.3c-0.6-0.1-1.2,0.4-1.3,1c0,0-0.5,3.8-0.9,7.3H30.5c-0.6,0-1.1,0.5-1.1,1.2c0,0.6,0.5,1.2,1.1,1.2H45
				c-0.2,1.6-0.4,2.9-0.4,3.4c-1.7,0-14.9,0-17.1,0c0.2-1.7,1.1-9,1.4-11.7c0,0-0.1,0-0.1,0c-2.7,0-4.8-2.2-4.8-4.8
				c0-2.7,2.2-4.8,4.8-4.8c1.5,0,2.9,0.7,3.8,1.8c0.1,0.2,0.3,0.2,0.3-0.1c0.2-2.4,2.3-4.3,4.8-4.3c2.4,0,4.4,1.8,4.8,4.1
				c-0.2,0.3-0.3,0.6-0.5,1l2,1.1c0.6-1.9,2.5-3.3,4.6-3.3c2.7,0,4.8,2.2,4.8,4.8S51.3,50.5,48.7,50.5z"/>
		</g>
	</g>
</g>
</svg>
