<svg id="圖層_1" data-name="圖層 1" xmlns="http://www.w3.org/2000/svg" xmlns:xlink="http://www.w3.org/1999/xlink" viewBox="0 0 200 100"><defs><style>.cls-1{fill:#fff;}.cls-2{fill:#040000;}.cls-3{fill:url(#linear-gradient);}.cls-4{fill:url(#linear-gradient-2);}.cls-5{fill:url(#linear-gradient-3);}.cls-6{fill:url(#linear-gradient-4);}.cls-7{fill:#f5c0c1;}</style><linearGradient id="linear-gradient" x1="100.06" y1="9.57" x2="100.06" y2="29.64" gradientUnits="userSpaceOnUse"><stop offset="0" stop-color="#e7794f"/><stop offset="1" stop-color="#e47276"/></linearGradient><linearGradient id="linear-gradient-2" x1="91.33" y1="11.83" x2="88.8" y2="26.15" gradientUnits="userSpaceOnUse"><stop offset="0" stop-color="#e56034"/><stop offset="1" stop-color="#e15662"/></linearGradient><linearGradient id="linear-gradient-3" x1="89.16" y1="9.57" x2="89.16" y2="51.89" gradientUnits="userSpaceOnUse"><stop offset="0" stop-color="#e14f27"/><stop offset="1" stop-color="#d81d82"/></linearGradient><linearGradient id="linear-gradient-4" x1="116.8" y1="10.46" x2="119.82" y2="27.62" gradientUnits="userSpaceOnUse"><stop offset="0" stop-color="#ea8f6e"/><stop offset="1" stop-color="#ea8a8a"/></linearGradient></defs><title>speaker_treasure-data</title><rect class="cls-1" width="200" height="100"/><polygon class="cls-2" points="56.23 67.63 59.04 67.63 59.04 75.44 60.76 75.44 60.76 67.63 63.57 67.63 63.57 67.55 63.57 66.23 56.23 66.23 56.23 67.63"/><path class="cls-2" d="M74.4,70.53A2.58,2.58,0,0,0,74.84,69,2.52,2.52,0,0,0,74,66.92a3.73,3.73,0,0,0-2.44-.69H68.41v9.21h1.72V72h1.5l1.79,3.43h1.7v-.33l-1.93-3.67A2.92,2.92,0,0,0,74.4,70.53ZM73.13,69a1.22,1.22,0,0,1-.42,1,1.69,1.69,0,0,1-1.18.3H70.12V67.63h1.46a1.62,1.62,0,0,1,1.17.35A1.31,1.31,0,0,1,73.13,69Z"/><polygon class="cls-2" points="86.05 74.03 81.68 74.03 81.68 71.38 85.42 71.38 85.42 71.3 85.42 69.97 81.68 69.97 81.68 67.63 86.05 67.63 86.05 66.23 79.96 66.23 79.96 75.44 86.05 75.44 86.05 74.03"/><path class="cls-2" d="M92.5,73.25h3.35l.73,2.19h1.79l-3.44-9.21h-1.5L90,75.44h1.78ZM93,71.85l1.19-3.4,1.19,3.4Z"/><path class="cls-2" d="M104.28,75a4.45,4.45,0,0,0,1.82.37,3.79,3.79,0,0,0,2.37-.68,2.21,2.21,0,0,0,.89-1.84,2.45,2.45,0,0,0-.31-1.24,2.74,2.74,0,0,0-1-.94,7,7,0,0,0-1.7-.71,5.18,5.18,0,0,1-1.48-.63.9.9,0,0,1-.42-.76,1,1,0,0,1,.39-.85,1.82,1.82,0,0,1,1.14-.32,1.74,1.74,0,0,1,1.2.35,1.47,1.47,0,0,1,.41,1v.08h1.7V68.8a3,3,0,0,0-.43-1.42,2.74,2.74,0,0,0-1.18-1,3.94,3.94,0,0,0-1.7-.35,3.65,3.65,0,0,0-2.34.72,2.26,2.26,0,0,0-.91,1.84,2.37,2.37,0,0,0,1.26,2.07,7.29,7.29,0,0,0,1.74.73,4.93,4.93,0,0,1,1.47.63,1,1,0,0,1,.38.85,1,1,0,0,1-.38.81,1.84,1.84,0,0,1-1.17.32,2.13,2.13,0,0,1-1.39-.39,1.64,1.64,0,0,1-.48-1.1v-.08h-1.71v.08A2.36,2.36,0,0,0,103,74,3,3,0,0,0,104.28,75Z"/><path class="cls-2" d="M117.62,75.41a3.53,3.53,0,0,0,2.48-.85,3,3,0,0,0,.93-2.32v-6h-1.72v6a2,2,0,0,1-.41,1.36,1.62,1.62,0,0,1-1.26.45,1.59,1.59,0,0,1-1.24-.45,1.81,1.81,0,0,1-.37-1.31v-6h-1.72v6a3,3,0,0,0,.87,2.33A3.42,3.42,0,0,0,117.62,75.41Z"/><path class="cls-2" d="M132.4,70.53a2.58,2.58,0,0,0,.45-1.54,2.52,2.52,0,0,0-.87-2.06,3.73,3.73,0,0,0-2.44-.69h-3.37v9.21h1.72V72h1.74l1.79,3.43h1.77v-.33l-2-3.67A2.83,2.83,0,0,0,132.4,70.53ZM131.14,69a1.22,1.22,0,0,1-.42,1,1.69,1.69,0,0,1-1.18.3h-1.66V67.63h1.7a1.62,1.62,0,0,1,1.17.35A1.31,1.31,0,0,1,131.14,69Z"/><polygon class="cls-2" points="143.82 67.63 143.82 66.23 138.04 66.23 138.04 75.44 143.82 75.44 143.82 74.03 139.76 74.03 139.76 71.38 143.19 71.38 143.19 71.3 143.19 69.97 139.76 69.97 139.76 67.63 143.82 67.63"/><path class="cls-2" d="M84.68,81.79a4.24,4.24,0,0,0-2.14-.57H80v9.21h2.51a4.45,4.45,0,0,0,2.19-.55,3.7,3.7,0,0,0,1.48-1.54,4.82,4.82,0,0,0,.53-2.27v-.45a4.92,4.92,0,0,0-.53-2.28A3.76,3.76,0,0,0,84.68,81.79Zm-3,.83h.86a2.22,2.22,0,0,1,1.79.78A3.45,3.45,0,0,1,85,85.61v.5a3.26,3.26,0,0,1-.66,2.16,2.3,2.3,0,0,1-1.83.76h-.78Z"/><path class="cls-2" d="M94.29,81.22l-3.44,9.21h1.78l.72-2.19h3.35l.73,2.19h1.79l-3.44-9.21Zm1.93,5.62H93.85L95,83.44Z"/><polygon class="cls-2" points="102.44 82.62 105.25 82.62 105.25 90.43 106.97 90.43 106.97 82.62 109.78 82.62 109.78 82.54 109.78 81.22 102.44 81.22 102.44 82.62"/><path class="cls-2" d="M116.37,81.22l-3.44,9.21h1.78l.73-2.19h3.35l.73,2.19h1.79l-3.44-9.21Zm1.93,5.62h-2.37l1.19-3.4Z"/><path class="cls-3" d="M108.31,29.59h0l.08.05,12.9-20h0l-.07,0-.13,0h0l-.18,0H79.14l-.19,0h-.05l-.07,0Z"/><path class="cls-4" d="M78.82,9.63h0l-.18.09h0a1,1,0,0,0-.18.15l-8.13,8.53-.07.07a1,1,0,0,0-.12.16v0a1,1,0,0,0-.08.15h0a1,1,0,0,0-.06.37h0l38.37,10.38Z"/><path class="cls-5" d="M108.38,29.64l-.08-.05L69.93,19.2a1,1,0,0,0,.26.67L99.3,51.56a1,1,0,0,0,.73.33l8.36-22.25Z"/><path class="cls-6" d="M130.11,19.07V19l0-.1,0-.07-.05-.1,0-.05-.11-.14-8.23-8.6-.15-.13-.09-.05-.07,0-12.9,20Z"/><path class="cls-7" d="M130.06,19.5v0a1,1,0,0,0,0-.18h0a1,1,0,0,0,0-.2h0L108.38,29.64,100,51.89h0a1,1,0,0,0,.4-.08h0l.16-.09h0a1,1,0,0,0,.16-.14l29.06-31.69a1,1,0,0,0,.13-.17l0,0A1,1,0,0,0,130.06,19.5ZM108.41,29.7h0Z"/></svg>