<svg id="圖層_1" data-name="圖層 1" xmlns="http://www.w3.org/2000/svg" xmlns:xlink="http://www.w3.org/1999/xlink" viewBox="0 0 200 100"><defs><style>.cls-1{fill:none;}.cls-2{clip-path:url(#clip-path);}.cls-3{fill:#e6763e;}.cls-4{fill:#fff;}</style><clipPath id="clip-path"><rect class="cls-1" width="200" height="100"/></clipPath></defs><title>speaker_omada</title><g class="cls-2"><rect class="cls-3" x="-7.07" y="-11.89" width="214" height="124"/><path class="cls-4" d="M69.47,73.15a6,6,0,0,0-2-1.39,5.85,5.85,0,0,0-2.44-.51,5.76,5.76,0,0,0-2.43.51,6.21,6.21,0,0,0-2,1.39,6.5,6.5,0,0,0-1.31,2.06,6.63,6.63,0,0,0-.48,2.51,6.45,6.45,0,0,0,.48,2.49,6.58,6.58,0,0,0,1.31,2,6.06,6.06,0,0,0,2,1.38,5.88,5.88,0,0,0,2.43.5,6,6,0,0,0,2.44-.5,5.9,5.9,0,0,0,2-1.38,6.7,6.7,0,0,0,1.3-2,6.45,6.45,0,0,0,.48-2.49,6.69,6.69,0,0,0-1.77-4.57Zm-.57,6.31A4.41,4.41,0,0,1,68,80.87a4.23,4.23,0,0,1-1.32.95,3.94,3.94,0,0,1-3.22,0,4.09,4.09,0,0,1-1.31-.95,4.52,4.52,0,0,1-.88-1.41,4.63,4.63,0,0,1-.32-1.73A4.81,4.81,0,0,1,61.26,76a4.61,4.61,0,0,1,.88-1.45,4.17,4.17,0,0,1,1.31-1,3.82,3.82,0,0,1,3.22,0,4.31,4.31,0,0,1,1.32,1A4.5,4.5,0,0,1,68.89,76a4.81,4.81,0,0,1,.32,1.76A4.63,4.63,0,0,1,68.89,79.46Zm22-6.84a4.34,4.34,0,0,0-1.47-1,4.91,4.91,0,0,0-1.9-.36,4.3,4.3,0,0,0-2.2.55,4.08,4.08,0,0,0-1.49,1.47,4.11,4.11,0,0,0-1.47-1.47,4.24,4.24,0,0,0-2.19-.55,4.91,4.91,0,0,0-1.9.36,4.34,4.34,0,0,0-1.47,1,4.61,4.61,0,0,0-1,1.5A4.9,4.9,0,0,0,75.47,76V83.8h2V75.9a2.82,2.82,0,0,1,.73-2,2.79,2.79,0,0,1,3.88,0,2.82,2.82,0,0,1,.73,2v7.9h2V75.9a2.82,2.82,0,0,1,.73-2,2.79,2.79,0,0,1,3.88,0,2.82,2.82,0,0,1,.73,2v7.9h2V76a4.9,4.9,0,0,0-.34-1.85A4.62,4.62,0,0,0,90.89,72.62Zm16.07.51A6,6,0,0,0,105,71.77a5.91,5.91,0,0,0-2.43-.5,6,6,0,0,0-4.36,1.84A6.56,6.56,0,0,0,96.4,77.7a6.72,6.72,0,0,0,.48,2.55,6.21,6.21,0,0,0,1.31,2,6.09,6.09,0,0,0,2,1.34,5.93,5.93,0,0,0,2.38.49,5,5,0,0,0,2.42-.61,5.39,5.39,0,0,0,1.82-1.6v1.9h2V77.7a6.66,6.66,0,0,0-.48-2.53A6.46,6.46,0,0,0,107,73.13Zm-.58,6.34a4.83,4.83,0,0,1-.89,1.44,4.15,4.15,0,0,1-1.31,1,3.69,3.69,0,0,1-1.61.36,3.8,3.8,0,0,1-1.61-.34,4.13,4.13,0,0,1-1.32-1,4.52,4.52,0,0,1-.89-1.44,4.87,4.87,0,0,1-.32-1.79,5,5,0,0,1,.32-1.79,4.47,4.47,0,0,1,.89-1.46,4.3,4.3,0,0,1,1.32-1,3.69,3.69,0,0,1,1.61-.36,3.64,3.64,0,0,1,1.58.36,4.21,4.21,0,0,1,1.32,1,4.83,4.83,0,0,1,.9,1.46,4.75,4.75,0,0,1,.33,1.78A4.65,4.65,0,0,1,106.37,79.47ZM123,73.34a5.64,5.64,0,0,0-1.86-1.51,5.19,5.19,0,0,0-2.38-.56,5.93,5.93,0,0,0-2.38.49,6.1,6.1,0,0,0-2,1.34,6.24,6.24,0,0,0-1.31,2,7,7,0,0,0,0,5.09,6.51,6.51,0,0,0,1.32,2,6,6,0,0,0,4.36,1.84,5.91,5.91,0,0,0,2.43-.5,6,6,0,0,0,1.94-1.36,6.46,6.46,0,0,0,1.3-2,6.66,6.66,0,0,0,.48-2.53V66.14h-2Zm-.4,6.1a4.81,4.81,0,0,1-.9,1.46,4.21,4.21,0,0,1-1.32,1,3.64,3.64,0,0,1-1.58.36,3.7,3.7,0,0,1-1.61-.36,4.29,4.29,0,0,1-1.32-1,4.49,4.49,0,0,1-.89-1.45,5,5,0,0,1-.32-1.8,4.9,4.9,0,0,1,.32-1.78,4.34,4.34,0,0,1,2.21-2.4,3.8,3.8,0,0,1,3.21,0,4.16,4.16,0,0,1,1.31,1,4.84,4.84,0,0,1,.89,1.44,4.65,4.65,0,0,1,.33,1.77A4.74,4.74,0,0,1,122.62,79.44Zm18-4.26a6.47,6.47,0,0,0-1.3-2,6,6,0,0,0-1.94-1.36,5.91,5.91,0,0,0-2.43-.5,6,6,0,0,0-4.36,1.84,6.56,6.56,0,0,0-1.81,4.59,6.71,6.71,0,0,0,.48,2.55,6.21,6.21,0,0,0,1.31,2,6.09,6.09,0,0,0,2,1.34,5.93,5.93,0,0,0,2.38.49,5,5,0,0,0,2.42-.61,5.39,5.39,0,0,0,1.82-1.6v1.9h2V77.7A6.66,6.66,0,0,0,140.58,75.18Zm-1.88,4.3a4.83,4.83,0,0,1-.89,1.44,4.15,4.15,0,0,1-1.31,1,3.69,3.69,0,0,1-1.61.36,3.8,3.8,0,0,1-1.61-.34,4.13,4.13,0,0,1-1.32-1,4.52,4.52,0,0,1-.89-1.44,4.87,4.87,0,0,1-.32-1.79,5,5,0,0,1,.32-1.79,4.47,4.47,0,0,1,.89-1.46,4.29,4.29,0,0,1,1.32-1,3.69,3.69,0,0,1,1.61-.36,3.64,3.64,0,0,1,1.58.36,4.21,4.21,0,0,1,1.32,1,4.82,4.82,0,0,1,.9,1.46A4.74,4.74,0,0,1,139,77.7,4.65,4.65,0,0,1,138.7,79.47ZM100.08,57.62A20.72,20.72,0,1,0,79.36,36.9,20.72,20.72,0,0,0,100.08,57.62Zm0-33.49A12.77,12.77,0,1,1,87.3,36.9,12.77,12.77,0,0,1,100.08,24.12Z"/></g></svg>