<svg id="圖層_1" data-name="圖層 1" xmlns="http://www.w3.org/2000/svg" viewBox="0 0 200 100"><defs><style>.cls-1{fill:#fff;}.cls-2{fill:#c93130;}</style></defs><title>speaker_fastly</title><rect class="cls-1" width="200" height="100"/><path class="cls-2" d="M126.31,32.58v38h11.42V64.79H134v-38h-7.65v5.79ZM27.14,64.79H31V46.44H27.14v-5L31,40.76V35.66c0-6.19,1.35-8.87,9.23-8.87a32.81,32.81,0,0,1,5.49.57l-1,6.22a14.28,14.28,0,0,0-2.55-.22c-2.78,0-3.48.28-3.48,3v4.42h5.77v5.68H38.67V64.79h3.84v5.81H27.14V64.79ZM122.42,63a15.08,15.08,0,0,1-3,.24c-3.15.08-2.87-1-2.87-3.92V46.44h6V40.76h-6v-14H108.9V60.85c0,6.69,1.65,9.74,8.84,9.74a31.45,31.45,0,0,0,5.81-.82L122.42,63ZM99.35,46.43v-1A32.91,32.91,0,0,0,93.5,45c-3.56,0-4,1.89-4,2.91,0,1.45.49,2.23,4.35,3.07,5.64,1.27,11.3,2.59,11.3,9.57,0,6.63-3.41,10.05-10.59,10.05a53.68,53.68,0,0,1-13-1.93V63h5.79v1a34.07,34.07,0,0,0,6.47.43c3.8,0,4.41-2,4.41-3.13,0-1.51-1.09-2.23-4.65-3-6.7-1.15-12-3.43-12-10.24,0-6.45,4.31-9,11.49-9a46.52,46.52,0,0,1,12.12,1.66v5.67H99.35ZM60.61,62.93V62H59.7v.9a8.09,8.09,0,0,1-7.6-7.65H53v-.92H52.1a8.09,8.09,0,0,1,7.6-7.59v.9h.92v-.9a8.09,8.09,0,0,1,7.62,7.36v.26h-.92v.92h.92v.25a8.09,8.09,0,0,1-7.62,7.36Zm15.27,0V39.15H68.23v2.23a15.63,15.63,0,0,0-5.2-2h0V36.78H64V34.84h-7.7v1.94h.93v2.64h.05a15.72,15.72,0,1,0,11,28.93l1.38,2.25h8.08V63H75.88Zm81.2-22.19h15.77v5.68h-3.77l-9.67,23.8c-2.77,6.68-7.33,13-14.26,13a26.69,26.69,0,0,1-5.55-.57l.69-6.94a19.76,19.76,0,0,0,3,.31,8.47,8.47,0,0,0,8-5.46l-9.8-24.12h-3.77V40.76h15.78v5.68h-3.77l5.55,13.66,5.55-13.66h-3.76V40.76ZM64.17,51.45l-.58-.58-3,2.58a1.4,1.4,0,0,0-.48-.08,1.48,1.48,0,1,0,1.44,1.48,1.52,1.52,0,0,0-.07-.45l2.64-2.95"/></svg>