<svg id="圖層_1" data-name="圖層 1" xmlns="http://www.w3.org/2000/svg" viewBox="0 0 200 100"><defs><style>.cls-1{fill:#fff;}.cls-2{fill:#d92620;fill-rule:evenodd;}.cls-3{fill:#302c2c;}</style></defs><title>speaker_red-panthers</title><rect class="cls-1" width="200" height="100"/><path class="cls-2" d="M40.42,46.65c.81.94,1.61,1.84,2.38,2.77a.67.67,0,0,1,.06.5q-1.17,5.19-2.36,10.37a.88.88,0,0,0,.21.89c1.12,1.27,2.06,2.58,3.25,4,0,0,2.46-2.81,3.52-4a.71.71,0,0,0,.19-.71C46.87,57,46.09,53.5,45.3,50a.84.84,0,0,1,.21-.85c.74-.82,1.46-1.67,2.26-2.59.7.5,1.43,1,2.1,1.49A14.71,14.71,0,0,1,55.26,58a11.34,11.34,0,0,1-.48,4.86c-.89,2.89-1.76,5.79-2.63,8.69a1.56,1.56,0,0,0,.95,2.19,25.73,25.73,0,0,1,2.61,1.53,2.55,2.55,0,0,1,1,2.46,1.9,1.9,0,0,1-2,1.77l-21.06,0a2.13,2.13,0,0,1-2.12-3.05,2.82,2.82,0,0,1,.85-1.18,23.57,23.57,0,0,1,2.2-1.36c.31-.18.64-.33.93-.53a1.29,1.29,0,0,0,.53-1.55c-.6-2-1.22-4.09-1.82-6.13-.42-1.41-.91-2.79-1.22-4.22a12.39,12.39,0,0,1,.7-7,14.65,14.65,0,0,1,6.18-7.53C40.07,46.84,40.23,46.76,40.42,46.65Z"/><path class="cls-2" d="M59.31,25.08a14,14,0,0,1-1.48,6.46,1.61,1.61,0,0,0-.06,1,10.76,10.76,0,0,1-5.61,12.69l-.83.38a4.4,4.4,0,0,1-3.79.17,7.54,7.54,0,0,0-6.07-.15c-2.69,1.13-4.92.09-6.95-1.43a10.12,10.12,0,0,1-4-10.79,5,5,0,0,0-.27-3.09,13,13,0,0,1-.76-6.9c.13-.82.37-1,1.19-.94a11.51,11.51,0,0,1,6,2.42,1.15,1.15,0,0,0,1.13.23,23.13,23.13,0,0,1,13,0A1.15,1.15,0,0,0,51.95,25a12.3,12.3,0,0,1,6.21-2.45c.7-.08,1,.17,1.12.88a2.83,2.83,0,0,1,0,.39C59.31,24.25,59.31,24.66,59.31,25.08Zm-23.38,7.1C35.51,36,37.75,38.71,42,38.24,42.35,34,39.91,31.82,35.93,32.18Zm11,6.08c4,.34,6.49-1.85,6.09-6.08C49,31.79,46.65,34.1,47,38.27Z"/><path class="cls-2" d="M53.61,73.14a19.42,19.42,0,0,0,3.64-1.47c1.33-.81,2.49-1.79,2.7-2.5a7,7,0,0,0-.42-3.84C59,63.85,57.73,62,57,60.51s-1.42-4.34-.5-6.51,4.56-3.67,5.42-2.92.79,1.53.5,1.95-1.38.4-2.5.95-1.42,2.42-1.06,4,1.88,3.46,2.75,4.92,2.28,5.06.89,7.9-6.12,4.15-6.12,4.15A24.25,24.25,0,0,0,53.61,73.14Z"/><path class="cls-3" d="M100.78,37.49q0,8.63-6.83,11.15L103,61.48H93.18L85.22,50H79.67V61.48h-8V25.58H85.27q8.37,0,11.94,2.82T100.78,37.49Zm-9.66,4.26a5.42,5.42,0,0,0,1.49-4.24q0-2.9-1.54-4t-5.39-1.08h-6V43.09h5.86Q89.64,43.09,91.13,41.76Z"/><path class="cls-3" d="M134.89,25.58v7.14H117v7.4h16.08v6.83H117v7.45h18.44v7.09H109V25.58Z"/><path class="cls-3" d="M170,30.28q5.14,4.7,5.14,13.07t-5,13.25q-5,4.88-15.28,4.88H142.6V25.58h12.69Q164.89,25.58,170,30.28Zm-5.88,21.34q3-2.77,3-8.07t-3-8.14q-3-2.85-9.07-2.85h-4.47V54.39h5.09Q161.19,54.39,164.14,51.62Z"/><path class="cls-3" d="M78.09,68.3a3.72,3.72,0,0,1,1.15,3,3.56,3.56,0,0,1-1.18,3,5.74,5.74,0,0,1-3.61.94H73v3.05H70.56V67.32h3.87A5.61,5.61,0,0,1,78.09,68.3ZM76.3,72.6a2.1,2.1,0,0,0,.44-1.44,1.53,1.53,0,0,0-.57-1.35,3.14,3.14,0,0,0-1.78-.4H73v3.68h1.64A2.18,2.18,0,0,0,76.3,72.6Z"/><path class="cls-3" d="M90.81,78.26l-1-2.36H85.21l-1,2.36h-2.6l4.73-10.94h2.36l4.73,10.94Zm-3.3-7.68-1.38,3.18h2.74Z"/><path class="cls-3" d="M104.83,67.32h2.44V78.26h-2.44L99.62,71.4v6.85H97.18V67.32h2.28l5.37,7Z"/><path class="cls-3" d="M117.1,69.43v8.83h-2.44V69.43h-3.1V67.32h8.64v2.11Z"/><path class="cls-3" d="M131.28,67.32h2.44V78.26h-2.44V74h-4.35v4.3h-2.44V67.32h2.44v4.57h4.35Z"/><path class="cls-3" d="M146.8,67.32v2.17h-5.45v2.25h4.9v2.08h-4.9V76.1H147v2.16h-8.06V67.32Z"/><path class="cls-3" d="M160.53,71a3.22,3.22,0,0,1-2.08,3.4l2.77,3.91h-3l-2.43-3.49h-1.69v3.49h-2.44V67.32h4.15a5.94,5.94,0,0,1,3.64.86A3.32,3.32,0,0,1,160.53,71Zm-2.94,1.3A1.65,1.65,0,0,0,158,71a1.39,1.39,0,0,0-.47-1.21,3,3,0,0,0-1.64-.33h-1.83v3.24h1.78A2.62,2.62,0,0,0,157.58,72.25Z"/><path class="cls-3" d="M168.09,69.5a.94.94,0,0,0-.35.77.87.87,0,0,0,.43.76,7.87,7.87,0,0,0,2,.66,5.61,5.61,0,0,1,2.42,1.15,2.84,2.84,0,0,1,.86,2.24,3,3,0,0,1-1.1,2.39,4.4,4.4,0,0,1-2.9.92,6.72,6.72,0,0,1-4.68-1.92l1.46-1.78a5.17,5.17,0,0,0,3.27,1.55,1.71,1.71,0,0,0,1.06-.29.93.93,0,0,0,.38-.78.91.91,0,0,0-.41-.78,5.32,5.32,0,0,0-1.61-.59,7,7,0,0,1-2.79-1.18,2.79,2.79,0,0,1-.88-2.28,2.83,2.83,0,0,1,1.12-2.4,4.5,4.5,0,0,1,2.79-.85,6.72,6.72,0,0,1,2.19.38,5.87,5.87,0,0,1,1.91,1.06L172,70.29a4.81,4.81,0,0,0-2.94-1.08A1.47,1.47,0,0,0,168.09,69.5Z"/></svg>