<svg id="圖層_1" data-name="圖層 1" xmlns="http://www.w3.org/2000/svg" viewBox="0 0 200 100"><defs><style>.cls-1{fill:#fff;}.cls-2{fill:#310304;}.cls-3{fill:#f29539;}</style></defs><title>speaker_cookpad</title><rect class="cls-1" width="200" height="100"/><path class="cls-2" d="M160.67,41.56a17.64,17.64,0,0,0-5.43.92c-.38.13-1.08.42-1.08.42l.89,3.22.16-.05,1-.29a14.5,14.5,0,0,1,4-.73,4.21,4.21,0,0,1,2.77.76,3.11,3.11,0,0,1,.85,2.36h-3.23A9.09,9.09,0,0,0,155,49.64a4.59,4.59,0,0,0-1.87,3.87,4.65,4.65,0,0,0,1.6,3.66,5.78,5.78,0,0,0,3.76,1.32h.24a8.81,8.81,0,0,0,5-1.32v1.31h3.63V48a6.22,6.22,0,0,0-1.63-4.38A6.56,6.56,0,0,0,160.67,41.56Zm3.11,10V53a6,6,0,0,1-1.85,1.42,5.71,5.71,0,0,1-2.29.67c-2,.13-3.1-.52-3.1-1.74,0-.64.64-1.18,1.28-1.42a9.52,9.52,0,0,1,3.09-.34Z"/><path class="cls-2" d="M143.49,41.53a8.68,8.68,0,0,0-4,.91v-.91h-3.89V63.37h3.89V57.57a8.67,8.67,0,0,0,4,.91,7.91,7.91,0,0,0,6-2.35A8.59,8.59,0,0,0,151.69,50a8.58,8.58,0,0,0-2.25-6.12A7.9,7.9,0,0,0,143.49,41.53Zm-3,12.33a4.35,4.35,0,0,1-1-1.53,6.88,6.88,0,0,1,0-4.68,4,4,0,0,1,4-2.62,4.31,4.31,0,0,1,3,1.1A5,5,0,0,1,147.95,50a5,5,0,0,1-1.45,3.89,4.2,4.2,0,0,1-1.44.83,4.69,4.69,0,0,1-3.16,0A3.93,3.93,0,0,1,140.48,53.86Z"/><path class="cls-2" d="M181.57,36.62v5.82a8.67,8.67,0,0,0-4-.91,7.91,7.91,0,0,0-6,2.35A8.58,8.58,0,0,0,169.33,50a8.58,8.58,0,0,0,2.25,6.12,7.9,7.9,0,0,0,6,2.35,8.68,8.68,0,0,0,4-.91v.91h3.89V36.62ZM182,50a5.93,5.93,0,0,1-.41,2.34,4,4,0,0,1-4,2.62,4.31,4.31,0,0,1-3-1.1A5,5,0,0,1,173.08,50a5,5,0,0,1,1.45-3.89,4.2,4.2,0,0,1,1.44-.83,4.73,4.73,0,0,1,3.16,0,3.94,3.94,0,0,1,1.41.84,4.36,4.36,0,0,1,1,1.53A5.93,5.93,0,0,1,182,50Z"/><polygon class="cls-2" points="133.77 44.52 131.37 41.47 122.89 48.13 122.89 36.62 119 36.62 119 58.48 122.89 58.48 122.89 53.07 124.95 51.45 131.01 58.55 133.96 56.03 128.01 49.05 133.77 44.52"/><path class="cls-2" d="M90.16,41.53a8,8,0,1,0,6.22,2.36A8.38,8.38,0,0,0,90.16,41.53Zm3.11,12.32a4.4,4.4,0,0,1-1.49.83,4.94,4.94,0,0,1-3.24,0,4.39,4.39,0,0,1-1.49-.83A4.92,4.92,0,0,1,85.56,50a4.84,4.84,0,0,1,1.51-3.83,4.9,4.9,0,0,1,6.19,0A4.85,4.85,0,0,1,94.76,50,4.92,4.92,0,0,1,93.27,53.85Z"/><path class="cls-2" d="M108.51,41.53a8,8,0,1,0,6.22,2.36A8.38,8.38,0,0,0,108.51,41.53Zm3.11,12.32a4.39,4.39,0,0,1-1.49.83,5.13,5.13,0,0,1-1.62.27,5.21,5.21,0,0,1-1.62-.27,4.39,4.39,0,0,1-1.49-.83A4.92,4.92,0,0,1,103.9,50a4.85,4.85,0,0,1,1.51-3.83,4.9,4.9,0,0,1,6.19,0A4.85,4.85,0,0,1,113.11,50,4.92,4.92,0,0,1,111.61,53.85Z"/><path class="cls-2" d="M68.94,50a5.89,5.89,0,0,0,.58,2.58A4.72,4.72,0,0,0,71,54.2a4.62,4.62,0,0,0,2.64.75,6,6,0,0,0,1.4-.17,6.44,6.44,0,0,0,3.3-2.06l.11-.13L81,55.07a11,11,0,0,1-1.52,1.41,9.81,9.81,0,0,1-5.95,2,8.44,8.44,0,0,1-6.9-3.27,9.4,9.4,0,0,1,0-10.4,8.44,8.44,0,0,1,6.9-3.27,9.81,9.81,0,0,1,5.95,2A11,11,0,0,1,81,44.93L78.47,47.4l-.11-.13a6.44,6.44,0,0,0-3.3-2.06,6,6,0,0,0-1.4-.17A4.62,4.62,0,0,0,71,45.8a4.72,4.72,0,0,0-1.49,1.62A5.89,5.89,0,0,0,68.94,50Z"/><circle class="cls-3" cx="37.85" cy="50" r="23.3"/><path class="cls-1" d="M48.07,39.18a6.62,6.62,0,0,0-4.13,1.44,6.67,6.67,0,0,0-11.76-1A6.61,6.61,0,0,0,29.39,39,6.73,6.73,0,0,0,27.14,52l-1.26,10.2a1.13,1.13,0,0,0,.26.86,1,1,0,0,0,.8.37h18.2a1.08,1.08,0,0,0,1.06-1l1.22-9.91c.22,0,.43,0,.65,0a6.73,6.73,0,0,0,0-13.45Z"/><path class="cls-2" d="M48.65,38.51A7,7,0,0,0,44.26,40a7.08,7.08,0,0,0-12.49-1.11,7,7,0,0,0-3-.65,7.15,7.15,0,0,0-2.4,13.88L25.08,63a1.22,1.22,0,0,0,.27.92,1.14,1.14,0,0,0,.85.39H45.54a1.14,1.14,0,0,0,1.12-1L48,52.76c.23,0,.46,0,.7,0a7.15,7.15,0,0,0,0-14.3Zm0,12-.41,0,.16-1.27a1.17,1.17,0,0,0-1-1.31,1.14,1.14,0,0,0-1.27,1s-.47,3.8-.9,7.35H30.51a1.17,1.17,0,0,0,0,2.34H45c-.2,1.6-.36,2.91-.42,3.42H27.49c.21-1.74,1.11-9,1.44-11.74h-.12a4.81,4.81,0,1,1,3.77-7.83c.12.17.28.17.32-.06a4.85,4.85,0,0,1,9.61-.28A7.17,7.17,0,0,0,42,43l2,1.09a4.84,4.84,0,1,1,4.59,6.34Z"/></svg>