<svg id="圖層_1" data-name="圖層 1" xmlns="http://www.w3.org/2000/svg" viewBox="0 0 200 100"><defs><style>.cls-1{fill:#fff;}.cls-2{fill:#4fb5e8;}.cls-3{fill:none;}.cls-4{fill:#1f8acc;}</style></defs><title>speaker_coupa</title><rect class="cls-1" width="200" height="100"/><path class="cls-2" d="M87.27,61.33a11.86,11.86,0,0,1-6.19,1.58c-7,0-11-4.85-11-13.07,0-5.84,2.23-9.71,5.2-11.74a12,12,0,0,1,6.29-1.88,10.82,10.82,0,0,1,4.9,1.14,11.26,11.26,0,0,1,2.48,1.78L85.69,43.5a6.39,6.39,0,0,0-4-2c-3,0-4.31,2.57-4.31,8.52,0,3.32.45,5.3,1.29,6.39a3.83,3.83,0,0,0,3,1.44,6.78,6.78,0,0,0,4.56-2.08l.4-.35,3,4A10.47,10.47,0,0,1,87.27,61.33Z"/><path class="cls-2" d="M109.36,59.35A10.36,10.36,0,0,1,101,62.86c-6.88,0-11.39-5.15-11.39-13.12S94.16,36.47,101,36.47a10.63,10.63,0,0,1,8.62,3.81c2,2.38,2.92,5.15,2.92,9.26C112.53,53.9,111.54,56.87,109.36,59.35ZM104,42.71a3.63,3.63,0,0,0-6.29,1.24A18.08,18.08,0,0,0,97,49.59,17.92,17.92,0,0,0,97.82,56a3.67,3.67,0,0,0,3.37,2.08c2.87,0,4.11-2.57,4.11-8.57C105.3,46.08,104.85,43.85,104,42.71Z"/><path class="cls-2" d="M131.19,63a5.81,5.81,0,0,1-2-2.48A9.47,9.47,0,0,1,122.53,63c-3.57,0-6.64-1.68-7.48-4.11a15.15,15.15,0,0,1-.54-5.05V37.56L121,36.32V52.61a10,10,0,0,0,.54,4.16A2.66,2.66,0,0,0,123.92,58,4.91,4.91,0,0,0,128,55.53V37.71l6.34-1.34V55.73a7.37,7.37,0,0,0,1.53,4.61Z"/><path class="cls-2" d="M157.19,60a9,9,0,0,1-6.78,2.87,10.64,10.64,0,0,1-5.3-1.34,13.62,13.62,0,0,1,.1,2.08v7.92l-6.39,1.68V43.9a32,32,0,0,0-.4-6.39l5.89-1a11.06,11.06,0,0,1,.45,2.38c1.14-1.39,3.66-2.38,6.24-2.38A9.17,9.17,0,0,1,156,38c2.72,1.83,4.7,5.1,4.7,10.94C160.71,54.39,159.81,57.17,157.19,60Zm-4.36-16a3.05,3.05,0,0,0-3.17-2.13,6.12,6.12,0,0,0-4.41,1.93V56.13a6.25,6.25,0,0,0,3.66,1.49c3.27,0,4.56-2.23,4.56-8A18,18,0,0,0,152.83,44Z"/><path class="cls-2" d="M180.86,63.6a7.09,7.09,0,0,1-3.57-3.07,12.34,12.34,0,0,1-1.53,1.34,8.76,8.76,0,0,1-5.1,1.39c-5.64,0-8.71-2.87-8.71-7.92,0-5.94,4.11-8.71,12.18-8.71.5,0,.94,0,1.49,0v-1c0-2.82-.54-3.76-3-3.76-2.13,0-4.6,1-7.33,2.87L162.49,40a24.39,24.39,0,0,1,4.11-2.08,17.16,17.16,0,0,1,6.93-1.49c4.26,0,7.18,1.58,8.17,4.41a11.74,11.74,0,0,1,.45,4.56L182,53.9c0,2.77.15,4,2.38,5.64Zm-5.64-12.38c-4.6,0-6.19.84-6.19,3.86a3,3,0,0,0,2.92,3.32,4.81,4.81,0,0,0,3.47-1.73l.1-5.45Z"/><path class="cls-3" d="M63,49.63a7,7,0,0,0,4-1.76,2.21,2.21,0,0,0,.53-1.8c-.26-1.61-2.31-2.76-4.55-3.54a5.29,5.29,0,0,0,1.91-2.11,2.21,2.21,0,0,0-.11-2c-.69-1.19-2.53-1.8-5.44-1.8h0a5.15,5.15,0,0,0,.94-2.73,2.28,2.28,0,0,0-.82-1.75,3.17,3.17,0,0,0-2.09-.64,9.26,9.26,0,0,0-2.73.5,5.2,5.2,0,0,0-.17-2.16A2.51,2.51,0,0,0,53,28.24a2.62,2.62,0,0,0-1-.2,6.43,6.43,0,0,0-3.69,1.67c-.59-2.07-1.65-3.35-3-3.5l-.27,0c-1.21,0-2.36.87-3.3,2.44-1.12-1.37-2.38-2.28-3.64-2.28a2.53,2.53,0,0,0-.4,0,2.61,2.61,0,0,0-1.81,1.24,5.82,5.82,0,0,0-.77,2.57,8.81,8.81,0,0,0-4.2-1.53,2.9,2.9,0,0,0-1.3.28,2.36,2.36,0,0,0-1.25,1.59,4.82,4.82,0,0,0,.23,2.63,14.46,14.46,0,0,0-2.81-.32,4.06,4.06,0,0,0-3,.91,2.25,2.25,0,0,0-.64,2,5.92,5.92,0,0,0,1.89,3c-2.82.3-5.87,1-6.62,2.81a2.19,2.19,0,0,0,.12,1.95,6.5,6.5,0,0,0,3.37,2.39c-3,1.44-5.33,3.18-5.28,5,0,1.29,1.07,2.82,5.76,2.82l1.21,0c-2.62,2.66-5,5.91-3.77,8A2.8,2.8,0,0,0,21.45,63,14.64,14.64,0,0,0,27,61.43c-1,2.6-1.53,5-1.17,6.62A2.83,2.83,0,0,0,27.1,70a2.65,2.65,0,0,0,1.39.37c2,0,4.7-2.09,7.32-5.08.18,3.15.79,6,2.07,7.49a2.87,2.87,0,0,0,2.05,1.07.45.45,0,0,1,.12,0c2.61,0,4.36-3.62,5.44-7.11,1.77,3.07,3.78,5.16,5.68,5.16a2.58,2.58,0,0,0,1-.2c2.27-.95,2.56-4.74,2-8.95,2.34,1.7,4.41,2.64,5.91,2.64h0a2.6,2.6,0,0,0,2.07-.88c1.41-1.65.27-4.62-1.29-7.28a13.78,13.78,0,0,0,2.62.29h0c2.42,0,3.21-1,3.46-1.88C67.42,53.78,65.53,51.59,63,49.63Z"/><path class="cls-2" d="M55.21,46.28c-.85-.41-1.69-.78-2.5-1.11.81-.17,1.64-.36,2.48-.59C60.94,43,64.6,40.53,63.71,39s-5.72-1.63-11.2-.34c-.79.19-1.56.39-2.29.62.39-.56.76-1.15,1.1-1.76,2.32-4.07,2.75-7.56,1.24-8.21S47.93,31,45.3,34.79q-.59.85-1.08,1.72c-.17-.63-.38-1.27-.61-1.92-1.59-4.34-4.09-7.31-5.77-7s-2.19,3.84-.92,8.4c.19.68.41,1.34.65,2q-1-.58-2.15-1.12c-5.3-2.53-10.49-3.51-11.81-2.21s1.87,4.71,7.49,7.54c.8.4,1.6.77,2.39,1.11-.92.16-1.88.36-2.88.59-7.45,1.76-13.86,5-13.8,7.1s7.11,2.22,15.12,0C33,50.68,34,50.36,35,50q-.92,1.17-1.85,2.53c-4.9,7.14-7.7,15-5.4,16.39s8.41-4.74,12.79-12.43c.55-1,1-1.91,1.48-2.82q.29,1.44.72,3c2.28,8.16,6.5,14.91,9,13.86s1.81-8.86-1-16.44c-.35-1-.73-1.89-1.11-2.75.82.49,1.69,1,2.61,1.42,6.75,3.4,12.94,4.54,13.52,2.49S61.49,49.28,55.21,46.28Z"/><g id="Layer_2" data-name="Layer 2"><path class="cls-4" d="M36.91,48.66c-.72.24-1.49.48-2.29.69a34.34,34.34,0,0,1-6.54,1.15c-5.5,4.25-9.31,8.89-8.24,10.66s6.43-.14,12.21-3.93a32,32,0,0,1,3.49-6.68Q36.23,49.54,36.91,48.66Z"/><path class="cls-4" d="M35.66,43.47c-.62-.26-1.25-.55-1.88-.86a22.65,22.65,0,0,1-4.42-2.82c-5.57-.17-10.21.71-10.87,2.27s2.88,3.28,8.28,4.17a34.2,34.2,0,0,1,6.68-2.3C34.21,43.75,34.95,43.59,35.66,43.47Z"/><path class="cls-4" d="M38.75,39.26c-.2-.52-.38-1.05-.54-1.6a14.78,14.78,0,0,1-.64-4.11c-3.09-2.73-6.15-4.2-7.5-3.53s-.7,3.27,1.51,6.41A25.49,25.49,0,0,1,37,38.36C37.64,38.65,38.21,39,38.75,39.26Z"/><path class="cls-4" d="M48.76,40.32c.59-.18,1.2-.35,1.84-.5a25.4,25.4,0,0,1,5-.72C58.48,36.43,59.74,34,58.64,33s-3.95-.17-7.25,1.65a14.31,14.31,0,0,1-1.72,4.21C49.38,39.39,49.08,39.86,48.76,40.32Z"/><path class="cls-4" d="M42.28,51.43c-.33.67-.7,1.36-1.11,2.07a34.05,34.05,0,0,1-4.07,5.63c-.63,7.19.44,13.38,2.88,13.5s4.67-5.42,5.72-12.18a29.08,29.08,0,0,1-2.87-6.81C42.61,52.88,42.43,52.14,42.28,51.43Z"/><path class="cls-4" d="M44,38.09c.26-.47.55-.94.87-1.41a17.17,17.17,0,0,1,2.75-3.22c-.09-3.46-1.1-5.92-2.5-6.08s-2.84,1.87-3.74,5a15.7,15.7,0,0,1,2.13,4.12C43.71,37.05,43.87,37.58,44,38.09Z"/><path class="cls-4" d="M66.31,46.25c-.24-1.47-3.8-3-8.53-3.8a21.2,21.2,0,0,1-5.19,2.06c-.66.18-1.32.33-2,.46.63.26,1.28.54,1.94.86a30.46,30.46,0,0,1,5,3C62.87,48.9,66.57,47.85,66.31,46.25Z"/><path class="cls-4" d="M48.15,49.72q.42,1,.81,2.06A30.4,30.4,0,0,1,50.49,58c4.68,4.64,9.37,7.29,10.73,5.7s-.92-6-4.69-10.54a28.55,28.55,0,0,1-6.4-2.38C49.43,50.45,48.77,50.08,48.15,49.72Z"/></g><path class="cls-1" d="M57.59,48.83a30.52,30.52,0,0,0-5-3c-.66-.32-1.31-.6-1.94-.86.64-.13,1.3-.28,2-.46a21.21,21.21,0,0,0,5.19-2.06c1.44-.86,2.16-1.73,1.81-2.39s-1.91-1-4-1a25.42,25.42,0,0,0-5,.72c-.63.15-1.25.32-1.84.5.32-.45.62-.93.91-1.42a14.3,14.3,0,0,0,1.72-4.21c.27-1.35.09-2.32-.56-2.6s-1.9.23-3.2,1.37a17.19,17.19,0,0,0-2.75,3.22c-.31.47-.61.94-.87,1.41-.14-.51-.3-1-.49-1.56a15.7,15.7,0,0,0-2.13-4.12c-.9-1.19-1.82-1.85-2.55-1.72s-1.25,1.23-1.26,2.86a14.8,14.8,0,0,0,.64,4.11c.16.55.34,1.08.54,1.6q-.81-.46-1.71-.89a25.45,25.45,0,0,0-5.45-1.94c-1.89-.41-3.35-.38-3.88.2s.08,1.84,1.65,3.17a22.69,22.69,0,0,0,4.42,2.82c.63.31,1.26.6,1.88.86-.71.13-1.45.28-2.21.46a34.18,34.18,0,0,0-6.68,2.3c-2.2,1.06-3.58,2.19-3.5,3.07s2,1.39,4.81,1.2a34.31,34.31,0,0,0,6.54-1.14c.8-.22,1.57-.45,2.29-.69q-.68.88-1.36,1.89a32,32,0,0,0-3.49,6.68c-.9,2.49-1,4.42-.1,5s3-.72,5.15-3.05a34,34,0,0,0,4.07-5.63c.41-.71.78-1.4,1.11-2.07.15.71.33,1.45.56,2.21a29.09,29.09,0,0,0,2.87,6.81c1.32,2.19,2.71,3.45,3.74,3.07s1.41-2.61,1.05-5.51A30.42,30.42,0,0,0,49,51.78c-.26-.72-.53-1.41-.81-2.06.62.37,1.29.73,2,1.08a28.53,28.53,0,0,0,6.4,2.38c2.15.47,3.68.35,4-.47S59.63,50.36,57.59,48.83Z"/></svg>