<svg id="圖層_1" data-name="圖層 1" xmlns="http://www.w3.org/2000/svg" viewBox="0 0 200 100"><defs><style>.cls-1{fill:#fff;}.cls-2{fill:#ce293d;}.cls-3{fill:#f8f3b2;}.cls-4{fill:#ead4b1;}.cls-5{fill:#686f66;}.cls-6{fill:#ead2a6;}.cls-7{fill:#cdba9b;}.cls-12,.cls-8{fill:#efdd9a;}.cls-9{fill:#2c3035;}.cls-10{fill:#f3fafd;}.cls-11{opacity:0.8;}.cls-12{opacity:0.75;}</style></defs><title>speaker_travis-ci</title><rect class="cls-1" width="200" height="100"/><path class="cls-2" d="M23.68,45.53s-8.56,6-8.89,8.32l.64-.13S25.68,46.92,33.8,46.1l.18-1Z"/><path class="cls-2" d="M37.12,44.67l-6.74,4.78.36.29c.27-.22,12-3.79,12-3.79l2.47-1.55C43.53,44.61,37.12,44.67,37.12,44.67Z"/><path class="cls-2" d="M43,50.45c4.79,0,12-4.69,12-4.69l-2.32-.44c-.11.11-3.74-.13-3.74-.13l-1.72-.48L43,49.4l-.33.81C43,50.1,43,50.45,43,50.45Z"/><path class="cls-2" d="M58.59,65.4l-1.48.42-6.83-.15L46,62.35l-5.17,1.29-6-.52-3.35,3.66-6.28,1.88-3.13-1L22,67.55,23.36,71s3.19,3.42,5,3.82,5,0,7.41-.4,4.33-1.23,5.11-2.64A11.75,11.75,0,0,0,41.74,70S44,73.2,46,73.57s7.87-1.64,7.87-1.64,3.59-1,4.22-2.21,2.3-5.28,2.3-5.28ZM22.77,68.21l-.1,0-.55-.48Z"/><path class="cls-3" d="M64.4,41c0-.18,0-.37-.06-.55s0-.27-.06-.39a11.26,11.26,0,0,0-1.64-1.12,21.8,21.8,0,0,0-2-1c-.67-.32-1.36-.6-2.05-.88l-1-.41-1.05-.39c.74.12,1.48.29,2.2.48.47.12.95.26,1.41.41-3.33-8.7-11.29-14.37-20-14.37s-16.66,5.67-20,14.37c.47-.15.94-.28,1.41-.41.73-.19,1.46-.36,2.2-.48l-1.06.39-1,.41c-.69.28-1.38.57-2.05.88a22,22,0,0,0-2,1A11.37,11.37,0,0,0,16,40.05c0,.13,0,.26-.06.39s0,.37-.06.55c0,.37,0,.74,0,1.12a16.39,16.39,0,0,0,.58,4.42c.1.36.21.71.34,1,.07.17.14.34.21.5l.11.24,0,.09.17.08.33.16.65.3,0,0-.61-2.34c.13,0,1.3-.34,3.31-.72l-.49-.1a10,10,0,0,1-1.35-.43,6.17,6.17,0,0,1-.63-.31,2.17,2.17,0,0,1-.56-.43c2.21.72,6.78.39,10.83,0A111.07,111.07,0,0,1,40,43.92a111,111,0,0,1,11.17.64c4.06.42,8.63.75,10.84,0a2.16,2.16,0,0,1-.56.43,6.17,6.17,0,0,1-.63.31,10,10,0,0,1-1.35.43l-.2,0c2.21.41,3.49.74,3.63.78l-.59,2.23.35-.16.33-.16.17-.08,0-.09.12-.24c.07-.16.15-.33.21-.5.13-.34.24-.69.34-1a16.11,16.11,0,0,0,.44-2.19,16.31,16.31,0,0,0,.14-2.23C64.44,41.74,64.43,41.37,64.4,41Z"/><path class="cls-4" d="M42.66,72c-.29,0-.59.08-.88.1l-.57,0h-.07l.53-1.19C41.94,71.19,42.28,71.56,42.66,72Z"/><path class="cls-4" d="M43.3,72.6a5.12,5.12,0,0,0,3.27,1.51A18.07,18.07,0,0,1,41,75.38a13.68,13.68,0,0,1-4.53-.49l.33-.05c.12,0,2.81-.36,4-2.16h.41l.58,0a12,12,0,0,0,1.34-.19Z"/><path class="cls-5" d="M45.87,45.67l-.29.37a23.94,23.94,0,0,1-2.14,2.37q-1.52,0-3.14,0c-1.78,0-3.48,0-5.1.13a40.6,40.6,0,0,1,8-2.43C44.08,45.89,45,45.76,45.87,45.67Z"/><path class="cls-5" d="M32.5,46.69a20.35,20.35,0,0,0-2.63,2.19c-2.29.23-4.28.51-5.93.77A45,45,0,0,1,32.5,46.69Z"/><path class="cls-5" d="M60.45,51.42l-.93,6.51L55.06,61,43.43,59.73,41.68,54a.38.38,0,0,0-.3-.27,6.14,6.14,0,0,0-2.26,0,.38.38,0,0,0-.3.27l-1.71,5.62L25.54,62.16,21,59l-.9-7.31.6-.33,1-.19.85,6.9a.38.38,0,0,0,.16.27l3.15,2.21a.39.39,0,0,0,.22.07h.08l9.51-2.12.09,0a.38.38,0,0,0,.19-.23l1.71-5.64a11.85,11.85,0,0,1,2.67-.39,11.87,11.87,0,0,1,2.67.39l1.71,5.64a.38.38,0,0,0,.32.27l9.51,1.08a.39.39,0,0,0,.26-.07l3.15-2.21A.39.39,0,0,0,58,57l.84-5.89Z"/><path class="cls-5" d="M61.63,47.33l-.82,3.1a89.64,89.64,0,0,0-10.35-1.58,25.26,25.26,0,0,0,4.82-2.66C58.25,46.61,60.44,47.06,61.63,47.33Z"/><path class="cls-6" d="M28.1,57a5.28,5.28,0,0,1,2.53-.3h.73c1.18,0,2.16.1,2.15-1.75s-.84-3.35-2-3.34S29.16,53.17,29.23,55a2.94,2.94,0,0,0,.2,1.08A1.87,1.87,0,0,0,28.1,57Zm14.21-7.63a12.83,12.83,0,0,1-1.44,1l-1.68,1a14.37,14.37,0,0,0-2,.4l-.09,0a.39.39,0,0,0-.17.22L35.2,57.73l-9.13,2-2.87-2L22.37,51c1.63-.3,3.82-.65,6.44-.94-.28.34-.55.69-.81,1.06l-1.56,2.24,2.27-1.52a37.28,37.28,0,0,1,3.85-2.13c2.36-.18,5-.29,7.75-.29Z"/><path class="cls-6" d="M52.3,56.28s-.26-.79-1.36-.66a2.33,2.33,0,0,0,.14-1.16c-.15-1.85-1.22-3.32-2.4-3.28s-1.94,1.58-1.87,3.43,1.06,1.84,2.24,1.8C50.63,56.39,51.5,55.9,52.3,56.28ZM58.12,51l-.82,5.76-2.9,2-9.11-1-1.7-5.6a.39.39,0,0,0-.26-.26,14,14,0,0,0-2.38-.44h.22a36.13,36.13,0,0,0,7.09-1.69A97,97,0,0,1,58.12,51Z"/><path class="cls-7" d="M28.1,57a5.28,5.28,0,0,1,2.53-.3h.73c1.18,0,2.16.1,2.15-1.75s-.84-3.35-2-3.34S29.16,53.17,29.23,55a2.94,2.94,0,0,0,.2,1.08A1.87,1.87,0,0,0,28.1,57Zm14.21-7.63a12.83,12.83,0,0,1-1.44,1l-1.68,1a14.37,14.37,0,0,0-2,.4l-.09,0a.39.39,0,0,0-.17.22L35.2,57.73l-9.13,2-2.87-2L22.37,51c1.63-.3,3.82-.65,6.44-.94-.28.34-.55.69-.81,1.06l-1.56,2.24,2.27-1.52a37.28,37.28,0,0,1,3.85-2.13c2.36-.18,5-.29,7.75-.29Z"/><path class="cls-7" d="M52.3,56.28s-.26-.79-1.36-.66a2.33,2.33,0,0,0,.14-1.16c-.15-1.85-1.22-3.32-2.4-3.28s-1.94,1.58-1.87,3.43,1.06,1.84,2.24,1.8C50.63,56.39,51.5,55.9,52.3,56.28ZM58.12,51l-.82,5.76-2.9,2-9.11-1-1.7-5.6a.39.39,0,0,0-.26-.26,14,14,0,0,0-2.38-.44h.22a36.13,36.13,0,0,0,7.09-1.69A97,97,0,0,1,58.12,51Z"/><path class="cls-4" d="M62.1,53.49c.14.12.25.41.13,1.8-.15,1.7-.87,4.69-1.31,5.17a6.7,6.7,0,0,1-2.14-.16c.11-.43.14-.63.23-1.07l1.09-.76a.38.38,0,0,0,.16-.26L61,52.85A10.52,10.52,0,0,1,62.1,53.49Z"/><path class="cls-4" d="M21.8,60.47l.17.58a7,7,0,0,1-2.33.24c-.45-.45-1.29-3.57-1.47-5.22-.15-1.34,0-1.63.09-1.74a12,12,0,0,1,1.26-.74l.69,5.62a.38.38,0,0,0,.16.27Z"/><path class="cls-4" d="M43.91,60.55l0,.36a6.41,6.41,0,0,1-3.29,1.43,5.33,5.33,0,0,1-3.62-1,2.18,2.18,0,0,0,.62,1.12,14.62,14.62,0,0,0-1.74-.11l-.66,0c-1.25.07-3,2-4.24,3.85-.61.19-2.5.79-4.69,1.44a24.91,24.91,0,0,1-3.15-6h0L23,61.3l.53.37h0l1.3.91.43.3a.38.38,0,0,0,.22.07h.08l11.94-2.66a.38.38,0,0,0,.28-.26l1.7-5.61a5,5,0,0,1,1.55,0l1.75,5.77a.38.38,0,0,0,.32.27Z"/><path class="cls-4" d="M57.55,60.24l.39-.27c-.06.27-.13.53-.21.8a27.54,27.54,0,0,1-1.87,4.58l-.49,0c-.54,0-1.1,0-1.71-.1-1.06-.1-2.75-.29-3.29-.35L47,62.26l-.14-.12a1.41,1.41,0,0,0-1-.42,12.09,12.09,0,0,0-2.88.69,2.07,2.07,0,0,0,.89-1.51l0-.36,11.21,1.27a.39.39,0,0,0,.26-.07L56.51,61Z"/><path class="cls-8" d="M49.3,36.67a15.82,15.82,0,0,1-.46,4.49.36.36,0,0,0,0,.19l-1.77-.16a9.67,9.67,0,0,0,.84-3.39A15.6,15.6,0,0,0,49.3,36.67Z"/><path class="cls-8" d="M32.39,37.8a9.66,9.66,0,0,0,.84,3.39l-1.77.16a.36.36,0,0,0,0-.19A15.87,15.87,0,0,1,31,36.67,15.37,15.37,0,0,0,32.39,37.8Z"/><path class="cls-9" d="M52.3,56.28c-.79-.38-1.67.1-3.25.13-1.18,0-2.17.05-2.24-1.8s.69-3.39,1.87-3.43,2.26,1.43,2.4,3.28a2.33,2.33,0,0,1-.14,1.16C52,55.49,52.29,56.24,52.3,56.28Zm-3.71-2.72A.6.6,0,1,0,48,53,.61.61,0,0,0,48.59,53.57Z"/><circle class="cls-10" cx="48.58" cy="52.96" r="0.6" transform="translate(-0.96 0.9) rotate(-1.05)"/><path class="cls-9" d="M33.5,55c0,1.86-1,1.74-2.15,1.75h-.73a5.28,5.28,0,0,0-2.53.3,1.87,1.87,0,0,1,1.33-.93,2.94,2.94,0,0,1-.2-1.08c-.07-1.85,1.07-3.37,2.25-3.38S33.48,53.13,33.5,55Zm-1.82-1a.6.6,0,1,0-.62-.59A.6.6,0,0,0,31.68,54Z"/><circle class="cls-10" cx="31.66" cy="53.41" r="0.6" transform="translate(-1.36 0.83) rotate(-1.47)"/><g class="cls-11"><path class="cls-8" d="M24.48,42.39A16.5,16.5,0,0,1,25,39.09c.19-.47,1.37-.77,2.28-1s2.34-.64,2.62.62a7.46,7.46,0,0,0,1,2.6l-.39-5.22-6.2,1.5L24,42.22l.19.37.32-.19"/><path class="cls-8" d="M55.88,42.39a16.49,16.49,0,0,0-.56-3.31c-.19-.47-1.37-.77-2.28-1s-2.34-.64-2.62.62a7.44,7.44,0,0,1-1,2.6l.39-5.22L56,37.6l.41,4.62-.19.37-.32-.19"/></g><path class="cls-12" d="M47.11,26.78S46.95,39.29,44,39.29h-7.6c-2.92,0-3.16-12.5-3.16-12.5L31.83,31l0,5.83,1,.81.46,2.5L34,41.63l12.51,0,.58-1,.49-1.76.07-1.11L49,33.79Z"/><path class="cls-12" d="M56.31,38.44s.6,4.32,2.19,5.09h0l-2.23-.67Z"/><path class="cls-12" d="M24,38.44s-.6,4.32-2.19,5.09h0L24,42.86Z"/><path class="cls-9" d="M56.74,42.84a11.3,11.3,0,0,1,2.21.91,8.75,8.75,0,0,0-1.13-.35c-.38-.1-.77-.18-1.16-.25-.78-.15-1.55-.27-2.34-.36s-1.56-.19-2.35-.25-1.57-.13-2.36-.18c-3.15-.19-6.3-.24-9.46-.25s-6.31.06-9.46.25c-.79,0-1.57.11-2.36.18s-1.57.15-2.35.25-1.56.22-2.34.36q-.58.11-1.16.25a8.82,8.82,0,0,0-1.13.35,11.3,11.3,0,0,1,2.21-.92l.19-.06v0a18.46,18.46,0,0,1,.2-5.13.37.37,0,0,1,.26-.3l.8-.23c.17-6.22,2.74-9.15,2.82-9.24a17.09,17.09,0,0,0-2.23,9.07l5-1.42h.19l.06,0h0l0,0h0l.35.33a20.6,20.6,0,0,1,2.27-10.26,28.83,28.83,0,0,0-1.21,11.18c.2.16.41.32.61.45a.37.37,0,0,1,.16.3A9,9,0,0,0,34,41.06l0,.07c2-.14,4.09-.19,6.14-.2s4.09.06,6.13.2l0-.08a8.93,8.93,0,0,0,.86-3.46.37.37,0,0,1,.16-.3c.2-.14.41-.29.61-.45a28.83,28.83,0,0,0-1.21-11.18A20.62,20.62,0,0,1,49,35.93l.35-.33h0l0,0h0l.06,0h.19l5,1.42a17.09,17.09,0,0,0-2.23-9.07c.08.09,2.64,3,2.82,9.24l.8.23a.37.37,0,0,1,.26.3,18.52,18.52,0,0,1,.19,5.13v.05Zm-.91-.27A18.34,18.34,0,0,0,55.67,38L50,36.35a16.68,16.68,0,0,1-.47,5l0,.07.17,0a47,47,0,0,1,4.73.78Zm-7-1.42a15.82,15.82,0,0,0,.46-4.49,15.6,15.6,0,0,1-1.39,1.13,9.67,9.67,0,0,1-.84,3.39l1.77.16A.36.36,0,0,1,48.85,41.16Zm-15.61,0a9.66,9.66,0,0,1-.84-3.39A15.37,15.37,0,0,1,31,36.67a15.87,15.87,0,0,0,.45,4.49.36.36,0,0,1,0,.19Zm-2.46.24,0-.07a16.72,16.72,0,0,1-.47-5L24.64,38a18.39,18.39,0,0,0-.16,4.62l1.41-.35c.78-.17,1.57-.32,2.35-.45s1.58-.23,2.37-.33Z"/><path class="cls-9" d="M46.1,26.94v4.68H42.78V30.26H42v6.32h1.13v3.53h-5.8V36.58h1.13V30.26h-.75v1.37H34.42V26.94Zm-1,3.69V27.94H35.42v2.69h1.32V29.26h2.74v8.31H38.35v1.54h3.81V37.57H41V29.26h2.74v1.37Z"/><polygon class="cls-2" points="45.1 27.94 45.1 30.63 43.78 30.63 43.78 29.26 41.04 29.26 41.04 37.57 42.16 37.57 42.16 39.11 38.35 39.11 38.35 37.57 39.48 37.57 39.48 29.26 36.74 29.26 36.74 30.63 35.41 30.63 35.41 27.94 41.04 27.94 43.66 27.94 45.1 27.94"/><path class="cls-5" d="M19,47.33c.48-.11,1.14-.25,1.94-.4-.49.34-1.08.76-1.71,1.26Z"/><path class="cls-7" d="M36.7,60.16s.14.87-1.08,1.24S26.68,64.08,25.8,64a13.51,13.51,0,0,1-3.11-1.62l-.54-1.93,3.3,2.06Z"/><path class="cls-7" d="M43.61,60s-.1.88,1.14,1.19,9,2.28,9.91,2.12a13.52,13.52,0,0,0,3-1.75l.46-1.95-3,1.81Z"/><path class="cls-7" d="M18.36,58.56s1.07,2.14,2.8,1.4l1.23.45-.12.9-2.59.33-.7-.41Z"/><path class="cls-7" d="M62.12,58s-1.75,2.23-3.47,1.49l-.56.36.12.9,2.59.33.7-.41Z"/><path class="cls-7" d="M35.1,74.77a14.59,14.59,0,0,0,13.5-1.15l-2.3-.16s-5,2-9,.89Z"/><path class="cls-9" d="M41.52,68.89l.44.52s1,1.17,2.17,2.35A3.92,3.92,0,0,0,47,72.94a5,5,0,0,0,1.16-.14l1.18-.28c1.48-.35,3.16-.76,4-1l.53-.13a4.38,4.38,0,0,0,3.35-2.17c.59-1.18,1.39-2.72,2-3.84-.51.24-1,.49-1.43.69a5,5,0,0,1-2.35.46c-.59,0-1.17,0-1.82-.11-1.29-.12-3.46-.37-3.48-.38l-.17,0-.13-.11L46.3,63.19l-.17-.14c-.16-.14-.16-.14-.26-.14a34.73,34.73,0,0,0-5.08,1.42l-.19.06-.19-.07a14.58,14.58,0,0,0-4.56-.77l-.6,0c-.25,0-1.64.67-3.42,3.49l-.12.18-.2.07s-3.09,1-6.34,1.93l-.21.06-.2-.09L22.27,68c.66,1,1.5,2.19,2.24,3.14a7.1,7.1,0,0,0,6.06,3.21,11.05,11.05,0,0,0,1.24-.07c3.18-.36,4-.51,4.45-.58l.42-.07s2.63-.34,3.36-2,.91-2.09.91-2.1l.27-.71a.67.67,0,0,1,.09-.24h0A1.28,1.28,0,0,1,41.52,68.89ZM21.68,37c-.69.28-1.38.57-2.05.88s-1.34.64-2,1A11.29,11.29,0,0,0,16,40.05c0,.13,0,.26-.06.39s0,.37-.06.55c0,.37,0,.74,0,1.12A16.43,16.43,0,0,0,16,44.34a16.24,16.24,0,0,0,.44,2.19c.1.36.21.71.34,1,.06.17.14.34.21.5l.11.24,0,.09.17.08.33.16.65.3,0,0-.61-2.34c.13,0,1.3-.34,3.31-.72l-.49-.1a10.11,10.11,0,0,1-1.35-.43,6.28,6.28,0,0,1-.63-.31,2.16,2.16,0,0,1-.56-.43c2.21.72,6.78.39,10.83,0A111.23,111.23,0,0,1,40,43.92a111.19,111.19,0,0,1,11.17.64c4.06.42,8.63.75,10.84,0a2.16,2.16,0,0,1-.56.43,6.3,6.3,0,0,1-.63.31,10.15,10.15,0,0,1-1.35.43l-.2,0c2.21.41,3.49.74,3.63.78l-.59,2.23.35-.16.33-.16.17-.08,0-.09.12-.24c.07-.16.15-.33.21-.5.13-.34.24-.69.34-1a16,16,0,0,0,.44-2.19,16.25,16.25,0,0,0,.14-2.23c0-.37,0-.75,0-1.12,0-.19,0-.37-.06-.55s0-.27-.06-.39a11.27,11.27,0,0,0-1.64-1.12,22.09,22.09,0,0,0-2-1c-.67-.32-1.36-.6-2.05-.88l-1-.41-1.05-.39c.74.12,1.48.29,2.2.48.47.12.95.26,1.41.41-3.33-8.71-11.29-14.37-20-14.37s-16.66,5.67-20,14.37c.47-.15.94-.28,1.41-.41.73-.19,1.46-.36,2.21-.48l-1.06.39Zm43.84,5a14.81,14.81,0,0,1-.07,2.4A15.25,15.25,0,0,1,65,46.85c-.11.39-.24.77-.39,1.15-.08.19-.16.38-.24.57l-.14.28-.08.14-.1.16-.08.13-.13.07-.37.18-.36.16-.72.29-.46.19-.4,1.51-.35-.09,0,.16a13.44,13.44,0,0,1,1.59.94c.59.49.63,1.26.5,2.71a25.67,25.67,0,0,1-.65,3.51c-.59,2.28-.9,2.55-1.31,2.65a3.55,3.55,0,0,1-.83.11,9.94,9.94,0,0,1-2-.12A21.85,21.85,0,0,1,57,65.1l.12-.06c1-.54,3-1.39,3.07-1.43l1.55-.67L61,64.43s-1.72,3.24-2.77,5.33a5.51,5.51,0,0,1-4.14,2.79l-.48.12c-.83.23-2.52.64-4,1h-.05a17.6,17.6,0,0,1-3,1.49,17.12,17.12,0,0,1-12.06,0l-2.53.3a12.43,12.43,0,0,1-1.37.08,8.27,8.27,0,0,1-7-3.67C22.07,70,20.22,67.08,20.14,67l-1.07-1.67,1.81.81L25.06,68l.18-.05A22.18,22.18,0,0,1,22.3,62a8.82,8.82,0,0,1-2.26.32,3.1,3.1,0,0,1-.68-.06c-.4-.09-.87-.48-1.49-2.69a24.38,24.38,0,0,1-.72-3.41C17,54.78,17,54,17.6,53.54a15.86,15.86,0,0,1,1.79-1l-.05-.43a44.29,44.29,0,0,0-6.09,4.23l-2.7,2.37,1.93-3a29.61,29.61,0,0,1,4.91-5.85l-.2-.08-.36-.16-.37-.18-.13-.07-.08-.13-.1-.16-.08-.14-.14-.28c-.09-.19-.17-.38-.24-.57-.15-.38-.28-.77-.39-1.15a15.38,15.38,0,0,1-.52-4.77q0-.6.12-1.2c0-.2.06-.4.1-.6s.08-.39.14-.61l0-.15.11-.09a10.6,10.6,0,0,1,2-1.2c.57-.27,1.15-.5,1.74-.72a24.77,24.77,0,0,1,8.14-11.36,21.25,21.25,0,0,1,26,0,24.76,24.76,0,0,1,8.14,11.36c.59.22,1.17.45,1.74.72a10.6,10.6,0,0,1,2,1.2l.11.09,0,.15c.06.22.1.41.14.61s.07.4.1.6C65.46,41.28,65.5,41.68,65.52,42.08Zm-3.3,13.21c.13-1.39,0-1.69-.13-1.8A10.23,10.23,0,0,0,61,52.85l-.76,5.35a.38.38,0,0,1-.16.26L59,59.22c-.09.44-.12.64-.22,1.07a6.74,6.74,0,0,0,2.14.16C61.36,60,62.07,57,62.23,55.29Zm-1.42-4.85.82-3.1c-1.19-.27-3.37-.72-6.35-1.14a25.23,25.23,0,0,1-4.82,2.67A89.59,89.59,0,0,1,60.81,50.44Zm-1.29,7.49.93-6.51-1.58-.32L58,57a.39.39,0,0,1-.16.26l-3.15,2.21a.38.38,0,0,1-.26.07L45,58.44a.38.38,0,0,1-.32-.27l-1.71-5.64a11.82,11.82,0,0,0-2.67-.39,11.81,11.81,0,0,0-2.67.39l-1.71,5.64a.38.38,0,0,1-.19.23l-.09,0-9.51,2.12H26a.37.37,0,0,1-.22-.07l-3.15-2.21a.38.38,0,0,1-.16-.27l-.85-6.89-1,.19-.6.33.9,7.31,4.58,3.21,11.56-2.57L38.81,54a.38.38,0,0,1,.3-.27,6.13,6.13,0,0,1,2.26,0,.38.38,0,0,1,.3.27l1.75,5.76L55.06,61ZM57.3,56.71,58.12,51a97.11,97.11,0,0,0-9.87-1.25,36,36,0,0,1-7.09,1.69l-.22,0a13.92,13.92,0,0,1,2.38.44.39.39,0,0,1,.26.26l1.7,5.6,9.11,1ZM57.93,60l-.39.27-1,.73-1.13.79a.39.39,0,0,1-.26.07l-11.2-1.27-.82-.09a.38.38,0,0,1-.32-.27L41,54.42a5,5,0,0,0-1.55,0L37.77,60a.38.38,0,0,1-.28.26L25.55,62.94h-.08a.38.38,0,0,1-.22-.07l-.43-.3-1.3-.91h0L23,61.3c0,.12.08.23.12.35h0a24.87,24.87,0,0,0,3.15,6c2.19-.65,4.09-1.25,4.69-1.44,1.23-1.9,3-3.79,4.24-3.85l.66,0a14.78,14.78,0,0,1,1.74.11A2.17,2.17,0,0,1,37,61.36a5.33,5.33,0,0,0,3.62,1,6.41,6.41,0,0,0,3.29-1.43A2.07,2.07,0,0,1,43,62.42a12.14,12.14,0,0,1,2.88-.69,1.41,1.41,0,0,1,1,.42l.14.12,3.34,2.64c.53.06,2.22.25,3.28.35.61.06,1.17.1,1.71.1l.49,0a27.54,27.54,0,0,0,1.87-4.58C57.8,60.5,57.87,60.24,57.93,60ZM53.8,45.78h0l-2.7-.18q-1.88-.11-3.76-.18L46.9,46a23.77,23.77,0,0,1-3.77,4.05A27,27,0,0,0,53.52,46ZM45.58,46l.29-.37c-.9.09-1.79.22-2.66.39a40.61,40.61,0,0,0-8,2.43c1.62-.08,3.32-.13,5.1-.13,1.07,0,2.12,0,3.14,0A23.84,23.84,0,0,0,45.58,46Zm1,28.07A5.12,5.12,0,0,1,43.3,72.6l-.14-.14a12.22,12.22,0,0,1-1.34.19l-.57,0h-.41c-1.21,1.8-3.89,2.15-4,2.16l-.33.05a13.68,13.68,0,0,0,4.53.49A18.08,18.08,0,0,0,46.57,74.11Zm-4.78-2.05c.29,0,.58-.06.88-.1-.38-.4-.72-.76-1-1.06l-.53,1.19h.07Zm-.92-21.62a13,13,0,0,0,1.44-1l-2,0c-2.79,0-5.39.11-7.75.29a37.07,37.07,0,0,0-3.85,2.13l-2.27,1.52L28,51.1c.26-.37.53-.72.81-1.06-2.62.29-4.81.64-6.44.94l.84,6.77,2.87,2,9.13-2,1.71-5.63a.38.38,0,0,1,.17-.22l.09,0a14.58,14.58,0,0,1,2-.4Zm1-5.17-1.91,0h0l-2.8,0-1.72.82h0a20.28,20.28,0,0,0-4.65,3.31,47.59,47.59,0,0,1,8-3.33C39.81,45.78,40.84,45.5,41.91,45.27Zm-12,3.61a20.43,20.43,0,0,1,2.63-2.19,44.87,44.87,0,0,0-8.56,3C25.58,49.39,27.58,49.11,29.86,48.88Zm.59-2.74q1.58-.44,3.25-.77-2.39.09-4.78.22-1.39.08-2.77.18l-1.38.12-.39,0a38.58,38.58,0,0,0-9,7.39A51.27,51.27,0,0,1,30.46,46.15ZM22,61.05c-.06-.19-.12-.38-.17-.58l-1.42-1a.38.38,0,0,1-.16-.27l-.69-5.62a12,12,0,0,0-1.26.74c-.14.11-.24.4-.09,1.74.18,1.65,1,4.77,1.47,5.22A7,7,0,0,0,22,61.05Zm-1-14.12c-.8.15-1.46.29-1.94.4l.23.86C19.85,47.68,20.43,47.26,20.92,46.93Z"/><path class="cls-9" d="M80.75,42.16h-6.4V38.84H91v3.32H84.68V61H80.75Z"/><path class="cls-9" d="M90.69,44.36h3.22l.27,2.95h.14C95.5,45.14,97.26,44,99,44a4.22,4.22,0,0,1,1.9.34l-.68,3.39a5.44,5.44,0,0,0-1.73-.27c-1.32,0-2.91.91-3.93,3.42V61H90.69Z"/><path class="cls-9" d="M111.55,50.35c0-1.76-.78-3.25-3-3.25a9.25,9.25,0,0,0-4.67,1.63l-1.42-2.61A12.88,12.88,0,0,1,109.25,44c4.16,0,6.2,2.54,6.2,7.18V61h-3.18l-.3-1.83h-.1a8.09,8.09,0,0,1-5.15,2.23,4.67,4.67,0,0,1-4.94-4.88C101.76,53,104.74,51.1,111.55,50.35Zm-3.62,8a5.22,5.22,0,0,0,3.62-1.83V52.79c-4.5.58-6,1.76-6,3.42C105.56,57.7,106.54,58.34,107.93,58.34Z"/><path class="cls-9" d="M116.56,44.36h4L123.16,53c.44,1.63.95,3.32,1.39,5h.14c.47-1.69.95-3.39,1.42-5l2.64-8.63h3.76L126.85,61h-4.5Z"/><path class="cls-9" d="M134,39.25a2.41,2.41,0,1,1,2.4,2.2A2.24,2.24,0,0,1,134,39.25Zm.44,5.11h3.89V61H134.4Z"/><path class="cls-9" d="M142.36,56.58a7.4,7.4,0,0,0,4.6,1.86c1.79,0,2.64-.85,2.64-2,0-1.39-1.79-2-3.56-2.67-2.2-.81-4.67-2.07-4.67-4.84s2.34-5,6.06-5A9,9,0,0,1,153,46l-1.79,2.37a6.19,6.19,0,0,0-3.66-1.42c-1.66,0-2.44.78-2.44,1.83,0,1.29,1.66,1.83,3.45,2.47,2.27.85,4.77,1.93,4.77,5,0,2.84-2.27,5.15-6.47,5.15a10.53,10.53,0,0,1-6.3-2.3Z"/><path class="cls-9" d="M172.39,38.44a8.67,8.67,0,0,1,6.3,2.81l-2.17,2.44a5.64,5.64,0,0,0-4.1-1.83c-3.62,0-6.23,3-6.23,8S168.6,58,172.29,58a6,6,0,0,0,4.67-2.2l2.17,2.4a8.84,8.84,0,0,1-6.91,3.22c-5.62,0-10.06-4.06-10.06-11.41S166.7,38.44,172.39,38.44Z"/><path class="cls-9" d="M181.53,38.84h3.93V61h-3.93Z"/></svg>