<svg id="圖層_1" data-name="圖層 1" xmlns="http://www.w3.org/2000/svg" viewBox="0 0 200 100"><defs><style>.cls-1{fill:#fff;}.cls-2{fill:#282625;}.cls-3{fill:#ef7d32;}</style></defs><title>speaker_procore</title><rect class="cls-1" width="200" height="100"/><g id="PROCORE"><path class="cls-2" d="M111.58,44.6q0-2.87-1.08-3.87t-4-1H94.22q-2.95,0-4,1T89.12,44.6V55.44q0,2.87,1.07,3.87t4,1h12.26q2.95,0,4-1t1.08-3.86V52.74h-5.15l-2.09,3.63H96.84L93.1,49.88l3.74-6.48h7.49l2,3.54h5.2Z"/><path class="cls-2" d="M87.56,52.74v2.71q0,2.86-1.07,3.86t-4,1H70.2q-2.95,0-4-1T65.1,55.44V44.6q0-2.87,1.07-3.86t4-1H82.47q2.94,0,4,1t1.07,3.87v8.14ZM69.08,49.88l3.74,6.48h7.49l3.74-6.48L80.31,43.4H72.83Z"/><path class="cls-2" d="M135.53,52.74v2.71q0,2.86-1.07,3.86t-4,1H118.16q-2.95,0-4-1t-1.08-3.87V44.6q0-2.87,1.08-3.86t4-1h12.26q2.95,0,4,1t1.07,3.87v8.14ZM117,49.88l3.74,6.48h7.49L132,49.88l-3.74-6.48h-7.49Z"/><polygon class="cls-3" points="96.42 49.88 98.5 53.49 102.67 53.49 104.76 49.88 102.67 46.27 98.5 46.27 96.42 49.88"/><path class="cls-2" d="M18.29,60.27V39.7h17c3.6,0,5.19,1.65,5.19,4.13v4.78c0,2.31-1.38,4.13-5.19,4.13H24v7.51ZM33,44.28H24v3.9H33A3.48,3.48,0,0,0,34.35,48a1,1,0,0,0,.5-1V45.45a1,1,0,0,0-.5-1A3.45,3.45,0,0,0,33,44.28Z"/><path class="cls-2" d="M41.57,60.27V39.7H58.51c3.6,0,5.19,1.65,5.19,4.13v4.78c0,2.31-1.38,4.13-5.19,4.13h-.7l9,7.51H58.5l-8-7.51H47.24v7.51Zm14.73-16H47.24v3.9h9.07A3.48,3.48,0,0,0,57.62,48a1,1,0,0,0,.5-1V45.45a1,1,0,0,0-.5-1A3.45,3.45,0,0,0,56.31,44.28Z"/><path class="cls-2" d="M137.12,60.27V39.7h16.94c3.6,0,5.19,1.65,5.19,4.13v4.78c0,2.31-1.38,4.13-5.19,4.13h-.7l9,7.51H154l-8-7.51h-3.28v7.51Zm14.73-16h-9.07v3.9h9.07a3.48,3.48,0,0,0,1.31-.17,1,1,0,0,0,.5-1V45.45a1,1,0,0,0-.5-1A3.45,3.45,0,0,0,151.85,44.28Z"/><path class="cls-2" d="M160.66,60.27V39.7h21v4.53H166.39v3.11h8.91v4.51h-8.91v3.58h15.45v4.83Z"/><path class="cls-2" d="M187.71,41.95a2.31,2.31,0,1,1-2.3-2.24A2.25,2.25,0,0,1,187.71,41.95Zm-4,0a1.74,1.74,0,0,0,1.75,1.79A1.72,1.72,0,0,0,187.14,42a1.73,1.73,0,1,0-3.46,0Zm1.38,1.18h-.52V40.88a4.53,4.53,0,0,1,.86-.07,1.4,1.4,0,0,1,.78.16.62.62,0,0,1,.22.49.58.58,0,0,1-.46.52v0a.66.66,0,0,1,.41.55,1.7,1.7,0,0,0,.16.56h-.56a2,2,0,0,1-.18-.55c0-.25-.18-.36-.46-.36h-.25Zm0-1.27h.25c.29,0,.52-.1.52-.33s-.15-.34-.48-.34a1.22,1.22,0,0,0-.29,0Z"/></g></svg>