<svg id="圖層_1" data-name="圖層 1" xmlns="http://www.w3.org/2000/svg" viewBox="0 0 200 100"><defs><style>.cls-1{fill:#fff;}.cls-2{fill:#27a8cd;}</style></defs><title>speaker_quipper</title><rect class="cls-1" width="200" height="100"/><path class="cls-2" d="M75.14,41.3H64.65v5.35h2.67v6.44c0,1.82-1.13,3.08-2.55,3.08-1.66,0-2.19-1.62-2.19-5.11V41.3H52.77v5.35h1.7v5.59c0,6.73,2,9.89,8.14,9.89,3.44,0,4.86-2.11,5.75-3.12l1.09,2.55h7.66V56.17h-2Z"/><path class="cls-2" d="M85,39.48c2.88,0,4.46-1.86,4.46-4.09A4.36,4.36,0,0,0,85,31.25a4.25,4.25,0,0,0-4.38,4.13A4.36,4.36,0,0,0,85,39.48Z"/><polygon class="cls-2" points="88.91 41.3 79.51 41.3 79.51 46.57 81.21 46.57 81.21 56.25 79.51 56.25 79.51 61.56 90.85 61.56 90.85 56.25 88.91 56.25 88.91 41.3"/><path class="cls-2" d="M107,41a8.17,8.17,0,0,0-4.9,1.74l-.69-1.42H92.12v5.39h1.7V64.52h-1.7v5.31h12.12V64.52H102V60.42A7.91,7.91,0,0,0,107.31,62c5.23,0,9.24-4,9.24-10.41C116.55,45.84,113.31,41,107,41Zm-2,15.76c-1.54,0-2.92-2.11-2.92-4.86-.16-3.2,1.3-5.19,2.88-5.19,1.78,0,2.92,2.55,2.92,5C107.84,54.75,106.66,56.74,105,56.74Z"/><path class="cls-2" d="M132.45,41a8.17,8.17,0,0,0-4.9,1.74l-.69-1.42h-9.28v5.39h1.7V64.52h-1.7v5.31H129.7V64.52h-2.19V60.42A7.91,7.91,0,0,0,132.78,62C138,62,142,58,142,51.59,142,45.84,138.78,41,132.45,41Zm-.88,15.76c-1.54,0-2.92-2.11-2.92-4.86-.16-3.2,1.3-5.19,2.88-5.19,1.78,0,2.92,2.55,2.92,5C134.45,54.75,133.28,56.74,131.57,56.74Z"/><path class="cls-2" d="M155.84,56.78c-3.4,0-3.93-2.23-4.17-3.32h12.76a11.75,11.75,0,0,0-.08-6.85c-1.18-3.4-4.86-5.88-9.68-5.88-6.12,0-10.9,3.93-10.9,10.58,0,7.78,5.67,11,10.7,11,4.21,0,7.46-.93,10.45-3.52l-3.4-3.93A8.26,8.26,0,0,1,155.84,56.78Zm-1.7-10.58c2.59,0,3,1.7,3,3.24H151A3.19,3.19,0,0,1,154.15,46.2Z"/><path class="cls-2" d="M182.08,47.58V40.29c-4.17,0-5.23,1.66-6.28,3.61l-1.21-2.59H167v5.27h1.74v9.68h-1.78v5.31h11.47V56.25h-2V52.08C176.36,48.51,178.43,47.58,182.08,47.58Z"/><path class="cls-2" d="M48.2,58.89c0,.78-.09,2.07-.92,2.07-1.15,0-1.65-1.56-2-3,2.53-2.76,3.81-6.66,3.81-11.48,0-9.79-4.87-16.31-15.71-16.31-9.23,0-15.44,6.62-15.44,16,0,10.84,6.43,16.26,15.71,16.26a22.23,22.23,0,0,0,3.58-.28,7.41,7.41,0,0,0,7.12,5.1c4.59,0,6.89-3.26,6.89-7.35V57.56h-3ZM33.5,55.63c-3,0-5.5-4.24-5.5-9.48s2.46-9.48,5.5-9.48S39,40.92,39,46.15,36.54,55.63,33.5,55.63Z"/></svg>