<svg id="圖層_1" xmlns="http://www.w3.org/2000/svg" viewBox="0 0 840 120"><style>.st0{fill:#e99a9a}.st1{fill:#e5c440}.st2{fill:#dc7d95}.st3{fill:#92c3cf}.st4{fill:#dc6b6b}.st5{fill:#a9c958}</style><path class="st0" d="M778.8 98.9c-5.7-2.4-10.9-5.4-15.5-9l-.2-.2c-.4-.3-.8-.6-1.2-1l-.3-.2c-.3-.3-.7-.6-1-.9l-.3-.3c-1-.9-1.9-1.8-2.9-2.7l-.6-.6-.6-.6c-.2-.2-.4-.5-.6-.7l-.6-.6c-.2-.2-.4-.5-.6-.7l-.6-.6c-.2-.2-.4-.5-.6-.7l-.3-.4-.5-.6c-10.4-13.5-12.6-28.6-11.1-38.3v-.1c.1-.5.2-.8.2-1.2l.1-.4c.1-.2.1-.6.2-.8.1-.4.2-.9.3-1.3l.1-.2c.1-.3.2-.6.2-1v-.1c.8-2.6 1.9-4.8 3.4-6.6l.2-.2c.2-.2.2-.3.4-.5s.4-.5.6-.7c.4-.4.8-.8 1.2-1.1 4.2-3.7 9.6-5.6 16-5.6 7.4 0 13.9 2.5 15.8 3.3.8-.4 2.2-.9 4.5-1.5 2.7-.8 6.9-1.8 11.4-1.8 7.1 0 12.9 2.2 17.2 6.7.2.2.5.5.7.8l.2.2c.2.2.4.5.6.7l.2.2c7.3 10.2 6.6 31.8-7 49.5l-.5.6c-.2.2-.3.4-.5.6l-.3.4c-.3.3-.6.7-.9 1l-.2.2c-.3.3-.6.7-1 1l-.1.1c-6.2 6.7-13.9 12.1-23 15.8l-1.2.5-1.3-.4z"/><path class="st1" d="M401.8 98.8c6.2.8 12.1 1.2 17.3 1.2h.9c1.6 0 10-.1 18.5-1.3l1-.2c3.2-.4 6.6-1 9.9-1.5l1.1-.2c1.5-.2 3.2-.6 5-1 2.9-.6 5-1.1 6.1-1.4.6-.2 1-.2 1-.2l1.2-.3-.2-1.1c-.6-3.4-1.4-7-2.2-10.3v-.2c-1.1-4.9-2-7-2.2-7.4C447 38.8 421 20.6 420.7 20.5l-.8-.5-.7.5c-.2.1-26.2 18.3-38.5 54.5-.2.5-1.1 2.6-2.2 7.4v.2c-.9 3.4-1.7 6.9-2.2 10.3l-.2 1.1 1.1.2s3.8 1 9.6 2.1c.8.2 1.5.3 2.3.4 3.8.7 7.6 1.3 11.3 1.8l1.4.3z"/><path class="st2" d="M254 60l23-40h46l13.2 23 9.8 17-23 40h-46z"/><path class="st3" d="M128 43l22.6-23h59.5L232 43.1 180.5 100z"/><path class="st4" d="M94 59.8c0-1.4-.1-2.8-.2-4.2-.2-3.1-.8-6.2-1.7-9.1-.7-2.4-1.6-4.7-2.7-6.9-1.8-3.5-4-6.8-6.7-9.6-2-2.2-4.3-4-6.8-5.5h-.2.3c-2.4-1.4-5-2.6-7.8-3.4-2.7-.7-5.4-1-8.1-1-2.7 0-5.4.4-7.9 1.1-2.7.8-5.4 2-7.8 3.5-2.5 1.6-4.8 3.4-6.8 5.6-2.9 2.9-5.1 6.2-6.9 9.7-1.1 2.2-2.1 4.6-2.8 7-1 3-1.5 6-1.8 9-.2 1.4-.2 2.8-.2 4.2.1 7 1.6 13.8 4.6 20.2 1.8 3.5 4 6.8 6.7 9.6 2 2.2 4.3 4 6.8 5.5h.2-.2c2.4 1.4 5 2.6 7.8 3.4h.2-.1c2.6.7 5.3 1.1 8 1 2.7 0 5.4-.4 8-1.2 2.7-.8 5.4-2 7.8-3.4 2.5-1.6 4.8-3.4 6.9-5.6 2.7-2.9 5-6.2 6.8-9.7 2.8-6.2 4.5-13.2 4.6-20.2z"/><path class="st5" d="M539.8 100c-5 0-9.8-.9-14.3-2.7-5-1.9-9.6-4.9-13.4-8.6l-.2-.2-.8-.8c-3.4-3.4-6.1-7.6-8-12l-.3-.9c-.1-.2-.2-.5-.3-.7l-.1-.5c-1.6-4.4-2.4-9-2.4-13.6v-1.7c.2-4.8 1.3-9.5 3.2-14 2-4.6 4.8-8.8 8.3-12.3l.8-.8c3.8-3.7 8.3-6.5 13.3-8.4 4.6-1.8 9.4-2.7 14.2-2.7 5 0 9.8.9 14.5 2.7 5 1.9 9.4 4.7 13.3 8.4l.9.8c3.5 3.6 6.3 7.8 8.3 12.3l.2.6c1.8 4.5 2.8 9.1 3 13.9v1.9c-.1 4.6-1 9.1-2.6 13.4l-.4 1.1c-2.1 5-5.1 9.5-9 13.2-3.9 3.8-8.5 6.8-13.6 8.8-4.6 1.8-9.4 2.8-14.4 2.8h-.2z"/><path class="st3" d="M620 93.4V26.3l11.3-6.3h57.9l10.8 6.4v65.8l-10.3 7.8h-56.6z"/></svg>