<svg id="layer_x5F_1" xmlns="http://www.w3.org/2000/svg" viewBox="0 0 840 120"><style>.st0{fill:#f8cbcb}.st1{fill:#e76e6e}.st2{fill:#d3322f}.st3{fill:#f29e9e}.st4{fill:#f6eecd}.st5{fill:#f2df94}.st6{fill:#edca3a}.st7{fill:#eed55a}.st8{fill:#e7819b}.st9{fill:#f5c3d2}.st10{fill:#dc698c}.st11{fill:#ea96b4}.st12{fill:#f1b1cb}.st13{fill:#92d1d7}.st14{fill:#b0dde2}.st15{fill:#daeef2}.st16{fill:#c6e6ea}.st17{fill:#f1f5d0}.st18{fill:#e7efb7}.st19{fill:#cadf85}.st20{fill:#afd156}.st21{fill:#c5d949}.st22{fill:#d2e285}.st23{fill:#cedf6c}.st24{fill:#e8efbb}.st25{fill:#dce798}.st26{fill:#e6f4f4}</style><title>nav_element</title><path class="st0" d="M812.2 28.4c-11.9-12.2-32.2-3-32.2-2.9s-20.2-9.4-32.2 3-7.3 53.7 32.2 69.6c39.5-16 44.2-57.4 32.2-69.7z"/><path class="st1" d="M747.8 28.4c-4 4.1-6.1 11.4-5.8 19.8h12.1l19-7 7-15.7c-.1 0-20.4-9.3-32.3 2.9z"/><path class="st1" d="M812.2 28.4c4 4.1 6.1 11.4 5.8 19.8h-12.1l-19-7-6.9-15.7s20.3-9.3 32.2 2.9z"/><path class="st2" d="M753.9 78.9l7.2-14.6-6.9-16h-12.1c.3 9.6 4 20.7 11.8 30.6z"/><path class="st3" d="M806.2 78.9L799 64.3l6.9-16H818c-.5 9.6-4.1 20.7-11.8 30.6z"/><path class="st1" d="M761 64.3l-7.2 14.6c6.1 7.7 14.6 14.5 26.2 19.2V74l-19-9.7z"/><path class="st2" d="M799 64.3l7.2 14.6c-6.1 7.7-14.6 14.5-26.2 19.2V74l19-9.7z"/><path class="st3" d="M754.1 48.3l6.9 16 12.1-23.1z"/><path class="st2" d="M786.9 41.2L799 64.3l6.9-16z"/><path class="st3" d="M780 25.5l-6.9 15.7h13.8z"/><path class="st4" d="M419.9 21.5s-34.2 23.4-42.6 71.6c0 0 22.3 5.7 42.6 5.7s42.6-5.7 42.6-5.7c-8.4-48.2-42.6-71.6-42.6-71.6z"/><path class="st5" d="M406 34.2l13.9 9.2V21.5s-6.2 4.3-13.9 12.7z"/><path class="st6" d="M419.9 43.4L408 63l-2-28.8z"/><path class="st7" d="M408 63l-2-28.7c-4.1 4.5-7.8 9.3-11 14.3L408 63z"/><path class="st6" d="M394.9 48.6v19.6L408 63z"/><path class="st7" d="M408 63l-10 21.3-3.1-16.1z"/><path class="st5" d="M394.9 68.2V48.6c-5.4 8.3-9.8 17.3-13 26.7l13-7.1z"/><path class="st6" d="M398 84.3l-16.2-8.9 13.1-7.2z"/><path class="st5" d="M398 84.3L377.3 93s1-4.9 2.3-10.4 2.2-7.3 2.2-7.3l16.2 9z"/><path class="st6" d="M398 84.3l3.4 13.1s-6.2-.8-12.1-1.8c-5.8-1-12.1-2.6-12.1-2.6l20.8-8.7z"/><path class="st5" d="M398 84.3l15 2.7-11.6 10.5zm21.9 14.5V87H413z"/><path class="st6" d="M433.8 34.2l-13.9 9.2V21.5s6.2 4.3 13.9 12.7z"/><path class="st5" d="M419.9 43.4L431.8 63l2-28.8z"/><path class="st7" d="M431.8 63l2-28.7c4.1 4.5 7.8 9.3 11 14.3l-13 14.4z"/><path class="st6" d="M444.9 48.6v19.6L431.8 63z"/><path class="st5" d="M431.8 63l10 21.3 3.1-16.1z"/><path class="st5" d="M444.9 68.2V48.6c5.4 8.3 9.8 17.3 13 26.7l-13-7.1z"/><path class="st6" d="M441.8 84.3l16.1-8.9-13-7.2z"/><path class="st5" d="M441.8 84.3l20.7 8.7s-1-4.9-2.3-10.4-2.2-7.3-2.2-7.3l-16.2 9z"/><path class="st6" d="M441.8 84.3l-3.4 13.2s6.2-.8 12.1-1.8c5.8-1 12.1-2.6 12.1-2.6l-20.8-8.8z"/><path class="st5" d="M441.8 84.3L426.9 87l11.4 10.5z"/><path class="st7" d="M426.9 87l-7 11.8s9.2.1 18.5-1.3L426.9 87z"/><path class="st5" d="M419.9 98.8V87h7z"/><path class="st7" d="M401.4 97.5c9.2 1.4 18.5 1.3 18.5 1.3L413 87l-11.6 10.5z"/><path class="st8" d="M277.7 98.8L255.4 60l22.3-38.8h44.6L344.6 60l-22.3 38.8z"/><path class="st9" d="M288.1 80.8l-12-20.8 12-20.8h23.8l12 20.8-12 20.8z"/><path class="st10" d="M277.7 21.2l5.2 7.3 5.8-7.3z"/><path class="st11" d="M271.9 31.2l5.8-10 5.2 7.3z"/><path class="st12" d="M282.9 28.5l5.8-7.3 11.3 7.3-11.9 10.7z"/><path class="st10" d="M300 28.5v-7.3h-11.3zm-11.9 10.7l-16.2-8 11-2.7z"/><path class="st11" d="M280 35.2l-15.3 8.5 7.2-12.5zm0 0L276.1 60l12-20.8z"/><path class="st10" d="M264.7 43.7l15.3-8.5-3.9 24.8z"/><path class="st11" d="M255.4 60h20.7l-11.4-16.3z"/><path class="st10" d="M322.3 21.2l-5.2 7.3-5.8-7.3z"/><path class="st11" d="M328 31.2l-5.7-10-5.2 7.3zm-10.9-2.7l-5.8-7.3-11.3 7.3 11.9 10.7z"/><path class="st10" d="M300 28.5v-7.3h11.3zm11.9 10.7l16.1-8-10.9-2.7z"/><path class="st12" d="M320 35.2l15.2 8.5-7.2-12.5z"/><path class="st11" d="M320 35.2l3.9 24.8-12-20.8z"/><path class="st9" d="M335.2 43.7L320 35.2l3.9 24.8z"/><path class="st12" d="M344.6 60h-20.7l11.3-16.3z"/><path class="st10" d="M322.3 98.8l-5.2-7.3-5.8 7.3z"/><path class="st11" d="M328.1 88.8l-5.8 10-5.2-7.3z"/><path class="st12" d="M317.1 91.5l-5.8 7.3-11.3-7.3 11.9-10.7z"/><path class="st10" d="M300 91.5v7.3h11.3zm11.9-10.7l16.2 8-11 2.7z"/><path class="st12" d="M320 84.8l15.3-8.5-7.2 12.5z"/><path class="st11" d="M320 84.8l3.9-24.8-12 20.8z"/><path class="st10" d="M335.3 76.3L320 84.8l3.9-24.8z"/><path class="st11" d="M344.6 60h-20.7l11.4 16.3z"/><path class="st10" d="M277.7 98.8l5.2-7.3 5.8 7.3z"/><path class="st11" d="M272 88.8l5.7 10 5.2-7.3zm10.9 2.7l5.8 7.3 11.3-7.3-11.9-10.7z"/><path class="st10" d="M300 91.5v7.3h-11.3zm-11.9-10.7l-16.1 8 10.9 2.7z"/><path class="st11" d="M280 84.8l-15.2-8.5 7.2 12.5zm0 0L276.1 60l12 20.8z"/><path class="st9" d="M264.8 76.3l15.2 8.5-3.9-24.8z"/><path class="st12" d="M255.4 60h20.7l-11.3 16.3z"/><path class="st13" d="M129.7 43.1l50.8 55.1-21.9-55.1z"/><path class="st14" d="M151.1 21.2l-21.4 21.9h28.9z"/><path class="st15" d="M151.1 21.2h29.5l-22 21.9z"/><path class="st14" d="M158.6 43.1l22-21.9v22.2zm51-21.9l20.7 21.9h-27.8z"/><path class="st16" d="M209.6 21.2h-29l21.9 21.9z"/><path class="st15" d="M202.5 43.1l-21.9-21.9v22.2z"/><path class="st13" d="M230.4 43.1l-49.9 55.1 22-55.1z"/><path class="st14" d="M158.6 43.1h43.9l-22 55.1z"/><path class="st16" d="M180.5 43.1v55.1l-21.9-55.1z"/><path class="st1" d="M60.2 25.6v-4.4c-2.6 0-5.2.4-7.7 1.1l7.7 3.3z"/><path class="st2" d="M60.2 25.6l-7.8-3.3c-2.6.8-5.2 1.9-7.5 3.4l15.3-.1z"/><path class="st1" d="M50.6 33.6l-5.7-7.9 15.3-.1z"/><path class="st3" d="M38.2 31.2l9.5-1.5-2.9-3.9c-2.4 1.4-4.6 3.3-6.6 5.4z"/><path class="st2" d="M47.8 29.6L39.2 43l11.4-9.4z"/><path class="st1" d="M38.2 31.2l1 11.8 8.6-13.4z"/><path class="st2" d="M39.2 43l-1-11.8c-2.6 2.8-4.9 6-6.6 9.4l7.6 2.4z"/><path class="st1" d="M39.2 43l-7.6-2.4c-1.1 2.2-2 4.4-2.7 6.7L39.2 43z"/><path class="st3" d="M39.2 43L29 47.3l10.2 5.1z"/><path class="st1" d="M34.1 49.9L29 47.3c-.9 2.9-1.4 5.8-1.8 8.8l6.9-6.2zm5.1 2.5l-.1 9.3-5-11.8z"/><path class="st2" d="M34.1 49.9l-6.9 6.3 11.9 5.5z"/><path class="st1" d="M27.2 56.2l11.9 21.2V61.7z"/><path class="st3" d="M31.5 79.9l7.6-2.5-11.9-21.2c-.2 1.4-.2 2.7-.2 4.1 0 6.7 1.6 13.4 4.5 19.6z"/><path class="st1" d="M59.8 94.4v4.4c-2.6 0-5.2-.3-7.8-1l7.8-3.4z"/><path class="st2" d="M59.8 94.4L52 97.8c-2.6-.7-5.2-1.8-7.5-3.3l15.3-.1z"/><path class="st1" d="M50.4 86.7l-5.8 7.8 15.2-.1z"/><path class="st2" d="M38 89.2l9.5 1.4-2.9 3.9c-2.4-1.4-4.6-3.3-6.6-5.3z"/><path class="st3" d="M47.5 90.6l-8.4-13.2 11.3 9.3z"/><path class="st1" d="M38 89.2l1.1-11.8 8.4 13.2z"/><path class="st2" d="M39.1 77.4L38 89.2c-2.6-2.8-4.8-5.9-6.5-9.4l7.6-2.4z"/><path class="st1" d="M60.2 25.6v-4.4c2.6 0 5.2.3 7.8 1l-7.8 3.4z"/><path class="st3" d="M60.2 25.6l7.8-3.4c2.6.7 5.2 1.8 7.5 3.3l-15.3.1z"/><path class="st1" d="M69.6 33.4l5.8-7.8H60.2z"/><path class="st2" d="M82 30.9l-9.5-1.4 2.9-3.9c2.4 1.5 4.6 3.2 6.6 5.3z"/><path class="st3" d="M72.5 29.5l8.4 13.2-11.3-9.3z"/><path class="st1" d="M82 30.9l-1.1 11.8-8.4-13.2z"/><path class="st2" d="M80.9 42.7L82 30.9c2.6 2.8 4.8 5.9 6.5 9.4l-7.6 2.4z"/><path class="st1" d="M80.9 42.7l7.6-2.5c1 2.2 1.9 4.4 2.6 6.7l-10.2-4.2z"/><path class="st3" d="M80.9 42.7l10.2 4.2-10.2 5.3z"/><path class="st1" d="M86 49.6l5.1-2.6c.9 2.9 1.4 5.8 1.7 8.8L86 49.6zm-5.1 2.6l-.1 9.2L86 49.6z"/><path class="st2" d="M86 49.6l6.8 6.2-12 5.6z"/><path class="st1" d="M92.8 55.8l-12 21.3V61.4z"/><path class="st2" d="M88.3 79.5l-7.6-2.4 12.1-21.4c.1 1.4.2 2.7.2 4.1-.1 6.9-1.7 13.5-4.7 19.7z"/><path class="st1" d="M59.8 94.4v4.4c2.6 0 5.2-.4 7.8-1.1l-7.8-3.3z"/><path class="st3" d="M59.8 94.4l7.7 3.3c2.6-.8 5.2-1.9 7.5-3.4l-15.2.1z"/><path class="st1" d="M69.4 86.5l5.7 7.9H59.8z"/><path class="st3" d="M81.8 88.9l-9.5 1.5 2.9 3.9c2.4-1.5 4.6-3.3 6.6-5.4z"/><path class="st2" d="M72.2 90.4l8.6-13.3-11.4 9.4z"/><path class="st1" d="M81.8 88.9l-1-11.8-8.6 13.3z"/><path class="st3" d="M80.8 77.1l1 11.8c2.6-2.8 4.9-6 6.6-9.4l-7.6-2.4zM60.2 25.6l-.1 7.3-7.7-.8z"/><path class="st1" d="M60.1 32.9l-7.7-.8L48 42.9z"/><path class="st3" d="M48 42.9l-8.8.1 13.2-10.9z"/><path class="st2" d="M48 42.9l-4.4 3.7-4.4-3.6z"/><path class="st1" d="M43.6 46.6l-4.4 5.8V43z"/><path class="st3" d="M43.6 46.6l-.1 15.9-4.4-.8.1-9.3z"/><path class="st1" d="M43.5 62.5l-4.4-.8v15.7l4.4-3.7z"/><path class="st3" d="M43.5 73.7l2.1 9.1-6.5-5.4z"/><path class="st1" d="M52.2 88.2l-1.4-8.5-7.3-6 2.1 9.1z"/><path class="st3" d="M52.2 88.2l7.7-1-9.1-7.5z"/><path class="st2" d="M59.9 87.2l-.1 7.2-7.6-6.2z"/><path class="st3" d="M60.2 25.6l-.1 7.3 7.7-.9z"/><path class="st1" d="M60.1 32.9l7.7-.9 4.3 10.8z"/><path class="st3" d="M72.1 42.8l8.8-.1L67.8 32z"/><path class="st2" d="M72.1 42.8l4.4 3.6 4.4-3.7z"/><path class="st1" d="M76.5 46.4l4.4 5.8v-9.5z"/><path class="st3" d="M76.5 46.4l-.1 16 4.4-1 .1-9.2z"/><path class="st1" d="M76.4 62.4l4.4-1v15.7l-4.4-3.6z"/><path class="st3" d="M76.4 73.5l-2.2 9 6.6-5.4z"/><path class="st1" d="M67.5 88l1.5-8.4 7.4-6.1-2.2 9z"/><path class="st3" d="M67.5 88l-7.6-.8 9.1-7.6z"/><path class="st2" d="M59.9 87.2l-.1 7.2 7.7-6.4z"/><path class="st0" d="M43.6 46.6l16.5-13.7 16.4 13.5-.1 27.1-16.5 13.7-16.4-13.5z"/><ellipse class="st17" cx="540.1" cy="60" rx="28.2" ry="28.1"/><path class="st18" d="M567.5 59.5l8.2-14.7c2 4.6 3 9.8 3.1 14.8l-11.3-.1z"/><path class="st19" d="M576.3 73.6l-8.8-14.1 11.3-.1v.5c0 4.8-.8 9.5-2.5 13.7z"/><path class="st20" d="M540 31.4l-.2-10.2c-4.7 0-9.3 1-13.7 2.7l13.9 7.5z"/><path class="st18" d="M520.6 40.7l5.5-16.8c-4.8 1.8-9.3 4.6-13 8.2l7.5 8.6z"/><path class="st19" d="M520.6 40.7h11.5l8.1-9.2-14.1-7.6z"/><path class="st19" d="M504.3 44.8l16.9-3.6-8-9.2c-3.8 3.6-6.8 7.9-8.9 12.8z"/><path class="st21" d="M532.1 40.7l-11.5 11.1V40.7z"/><path class="st20" d="M504.3 44.8l8.2 15.3 8.1-8.3V40.7z"/><path class="st22" d="M512.5 59.5l-8.2-14.7c-2 4.6-3 9.8-3.1 14.8l11.3-.1z"/><path class="st19" d="M520.6 51.8v16l-8.1-8.3zm-16.9 21.8l8.8-14.1-11.3-.1v.5c0 4.8.8 9.5 2.5 13.7z"/><path class="st22" d="M512.8 87.7l7.1-8.1-16.2-6c2 5.3 5.1 10.1 9.1 14.1z"/><path class="st18" d="M520.6 67.8l-1.1 12.1-15.8-6.3 8.8-14.1z"/><path class="st19" d="M519.5 79.9l-6.7 7.8c3.8 3.7 8.2 6.4 13.2 8.4l-6.5-16.2z"/><path class="st20" d="M520.6 67.8l12.1 11.9-13.2.2z"/><path class="st18" d="M519.5 79.9l6.5 16.2 14.2-8.5-7.5-7.9z"/><path class="st20" d="M526 96.1c4.4 1.8 9.1 2.6 13.8 2.6V87.6L526 96.1z"/><path class="st22" d="M539.9 31.7l-.1-10.5c4.8 0 9.5.9 14 2.6l-13.9 7.9z"/><path class="st18" d="M559.4 40.7l-5.6-16.9c4.8 1.8 9.4 4.7 13.1 8.3l-7.5 8.6z"/><path class="st19" d="M559.4 40.7h-11.5l-8.1-9.2 14-7.7zm16.3 4.1l-16.3-4.1 7.4-8.7c3.8 3.6 6.8 7.9 8.9 12.8z"/><path class="st20" d="M547.9 40.7l11.5 11.1V40.7z"/><path class="st22" d="M575.7 44.8l-8.2 14.7-8.1-7.7V40.7z"/><path class="st19" d="M559.4 51.8v16l8.1-8.3z"/><path class="st23" d="M567.2 87.7l-6.7-7.8 15.8-6.3c-2 5.3-5.1 10.1-9.1 14.1z"/><path class="st20" d="M559.4 67.8l1.1 12.1 15.8-6.3-8.8-14.1z"/><path class="st18" d="M560.5 79.9l6.7 7.8c-3.8 3.7-8.2 6.4-13.2 8.4l6.5-16.2z"/><path class="st19" d="M559.4 67.8l-12.1 11.9 13.2.2z"/><path class="st22" d="M560.5 79.9L554 96.1l-14.2-8.5 7.5-7.9z"/><path class="st24" d="M540.2 31.9l-.2-.3-.2.3-7.7 8.8h15.8z"/><path class="st25" d="M540.2 87.3l7.1-7.6h-14.6l7.1 7.6.2.2z"/><path class="st19" d="M554 96.1c-4.5 1.8-9.3 2.6-14.2 2.6V87.6l14.2 8.5z"/><path class="st13" d="M621.2 27l10.4-5.8h57.2l10 5.8v64.6l-9.5 7.2h-55.6l-12.5-6.1z"/><path class="st14" d="M627.4 30.2l8.4-4.5h48l9.2 4.5V90l-9.2 4.3h-45.6L627.4 90z"/><path class="st15" d="M633.7 34.7l6.6-4.5h39.4l6.6 4.5v51.1l-7 4.2h-39l-6.6-4.2z"/><path class="st26" d="M638.2 37.1l5.4-3.7H676l5.4 3.5v46.8l-5.2 3.3h-33l-4.9-3.2z"/><path class="st26" d="M633.7 34.7l4.5 2.4 5.4-3.7-3.3-3.2zm46-4.5l-3.7 3.2 5.4 3.5 4.9-2.2zM676.2 87l3.1 3 7-4.2-4.9-2.1zm-33 0l-2.9 3-6.6-4.2 4.6-2z"/><path class="st15" d="M633.7 34.7l-6.3-4.5 8.4-4.5 4.5 4.5zm46-4.5l4.1-4.5 9.2 4.5-6.7 4.5zm6.6 55.6L693 90l-9.2 4.3-4.5-4.3zm-46 4.2l-2.1 4.3-10.8-4.3 6.3-4.2z"/><path class="st14" d="M638.2 94.3l-4.5 4.5-12.5-6.1 6.2-2.7zm-17-67.3l6.2 3.2 8.4-4.5-4.2-4.5zm62.6-1.3l5-4.5 10 5.8-5.8 3.2zm0 68.6l5.5 4.5 9.5-7.2L693 90z"/></svg>