<?xml version="1.0" encoding="utf-8"?>
<!-- Generator: Adobe Illustrator 20.0.0, SVG Export Plug-In . SVG Version: 6.00 Build 0)  -->
<svg version="1.1" id="layer_x5F_1" xmlns="http://www.w3.org/2000/svg" xmlns:xlink="http://www.w3.org/1999/xlink" x="0px"
	 y="0px" viewBox="0 0 840 120" style="enable-background:new 0 0 840 120;" xml:space="preserve">
<style type="text/css">
	.st0{fill:#F29E9E;}
	.st1{fill:#F8CBCB;}
	.st2{fill:#E76E6E;}
	.st3{fill:#D3322F;}
	.st4{fill:#EDCA3A;}
	.st5{fill:#F6EECD;}
	.st6{fill:#F2DF94;}
	.st7{fill:#EED55A;}
	.st8{fill:#E7819B;}
	.st9{fill:#F5C3D2;}
	.st10{fill:#DC698C;}
	.st11{fill:#EA96B4;}
	.st12{fill:#F1B1CB;}
	.st13{fill:#94C9D6;}
	.st14{fill:#92D1D7;}
	.st15{fill:#B0DDE2;}
	.st16{fill:#DAEEF2;}
	.st17{fill:#C6E6EA;}
	.st18{fill:#AFD156;}
	.st19{fill:#F1F5D0;}
	.st20{fill:#E7EFB7;}
	.st21{fill:#CADF85;}
	.st22{fill:#C5D949;}
	.st23{fill:#D2E285;}
	.st24{fill:#CEDF6C;}
	.st25{fill:#E8EFBB;}
	.st26{fill:#DCE798;}
	.st27{fill:#E6F4F4;}
</style>
<g id="圖層_2">
</g>
<title>nav_element</title>
<g>
	<path class="st0" d="M778.8,98.9c-5.7-2.4-10.9-5.4-15.5-9l-0.2-0.2c-0.4-0.3-0.8-0.6-1.2-1l-0.3-0.2c-0.3-0.3-0.7-0.6-1-0.9
		l-0.3-0.3c-1-0.9-1.9-1.8-2.9-2.7c0,0-0.5-0.5-0.6-0.6c-0.2-0.2-0.6-0.6-0.6-0.6c-0.2-0.2-0.4-0.5-0.6-0.7
		c-0.2-0.2-0.4-0.4-0.6-0.6c-0.2-0.2-0.4-0.5-0.6-0.7c-0.2-0.2-0.4-0.4-0.6-0.6c-0.2-0.2-0.4-0.5-0.6-0.7l-0.3-0.4l-0.5-0.6l0,0
		c-10.4-13.5-12.6-28.6-11.1-38.3v-0.1c0.1-0.5,0.2-0.8,0.2-1.2l0.1-0.4c0.1-0.2,0.1-0.6,0.2-0.8c0.1-0.4,0.2-0.9,0.3-1.3l0.1-0.2
		c0.1-0.3,0.2-0.6,0.2-1v-0.1c0.8-2.6,1.9-4.8,3.4-6.6l0.2-0.2c0.2-0.2,0.2-0.3,0.4-0.5c0.2-0.2,0.4-0.5,0.6-0.7
		c0.4-0.4,0.8-0.8,1.2-1.1c4.2-3.7,9.6-5.6,16-5.6c7.4,0,13.9,2.5,15.8,3.3c0.8-0.4,2.2-0.9,4.5-1.5c2.7-0.8,6.9-1.8,11.4-1.8
		c7.1,0,12.9,2.2,17.2,6.7c0.2,0.2,0.5,0.5,0.7,0.8l0.2,0.2c0.2,0.2,0.4,0.5,0.6,0.7l0.2,0.2c7.3,10.2,6.6,31.8-7,49.5l0,0l-0.5,0.6
		c-0.2,0.2-0.3,0.4-0.5,0.6l-0.3,0.4c-0.3,0.3-0.6,0.7-0.9,1l-0.2,0.2c-0.3,0.3-0.6,0.7-1,1l-0.1,0.1c-6.2,6.7-13.9,12.1-23,15.8
		l-1.2,0.5L778.8,98.9z"/>
	<g>
		<path class="st1" d="M812.2,28.4c-11.9-12.2-32.2-3-32.2-2.9c0,0.1-20.2-9.4-32.2,3s-7.3,53.7,32.2,69.6l0,0
			C819.5,82.1,824.2,40.7,812.2,28.4z"/>
		<path class="st2" d="M747.8,28.4c-4,4.1-6.1,11.4-5.8,19.8h12.1l19-7l7-15.7C780,25.5,759.7,16.2,747.8,28.4z"/>
		<path class="st2" d="M812.2,28.4c4,4.1,6.1,11.4,5.8,19.8h-12.1l-19-7L780,25.5C780,25.5,800.3,16.2,812.2,28.4z"/>
		<path class="st3" d="M753.9,78.9l7.2-14.6l-6.9-16h-12.1C742.4,57.9,746.1,69,753.9,78.9z"/>
		<path class="st0" d="M806.2,78.9L799,64.3l6.9-16h12.1C817.5,57.9,813.9,69,806.2,78.9z"/>
		<path class="st2" d="M761,64.3l-7.2,14.6c6.1,7.7,14.6,14.5,26.2,19.2l0,0V74L761,64.3z"/>
		<path class="st3" d="M799,64.3l7.2,14.6c-6.1,7.7-14.6,14.5-26.2,19.2l0,0V74L799,64.3z"/>
		<polygon class="st0" points="754.1,48.3 761,64.3 773.1,41.2 		"/>
		<polygon class="st3" points="786.9,41.2 799,64.3 805.9,48.3 		"/>
		<polygon class="st0" points="780,25.5 773.1,41.2 786.9,41.2 		"/>
	</g>
</g>
<g>
	<path class="st4" d="M401.8,98.8c6.2,0.8,12.1,1.2,17.3,1.2l0,0h0.9c1.6,0,10-0.1,18.5-1.3l1-0.2c3.2-0.4,6.6-1,9.9-1.5l1.1-0.2
		c1.5-0.2,3.2-0.6,5-1c2.9-0.6,5-1.1,6.1-1.4c0.6-0.2,1-0.2,1-0.2l1.2-0.3l-0.2-1.1c-0.6-3.4-1.4-7-2.2-10.3v-0.2
		c-1.1-4.9-2-7-2.2-7.4C447,38.8,421,20.6,420.7,20.5l-0.8-0.5l-0.7,0.5C419,20.6,393,38.8,380.7,75c-0.2,0.5-1.1,2.6-2.2,7.4v0.2
		c-0.9,3.4-1.7,6.9-2.2,10.3l-0.2,1.1l1.1,0.2c0,0,3.8,1,9.6,2.1c0.8,0.2,1.5,0.3,2.3,0.4c3.8,0.7,7.6,1.3,11.3,1.8L401.8,98.8z"/>
	<g>
		<g>
			<path class="st5" d="M419.9,21.5c0,0-34.2,23.4-42.6,71.6c0,0,22.3,5.7,42.6,5.7s42.6-5.7,42.6-5.7
				C454.1,44.9,419.9,21.5,419.9,21.5z"/>
			<path class="st6" d="M406,34.2l13.9,9.2V21.5C419.9,21.5,413.7,25.8,406,34.2z"/>
			<polygon class="st4" points="419.9,43.4 408,63 406,34.2 			"/>
			<path class="st7" d="M408,63l-2-28.7c-4.1,4.5-7.8,9.3-11,14.3L408,63z"/>
			<polygon class="st4" points="394.9,48.6 394.9,68.2 408,63 			"/>
			<polygon class="st7" points="408,63 398,84.3 394.9,68.2 			"/>
			<path class="st6" d="M394.9,68.2V48.6c-5.4,8.3-9.8,17.3-13,26.7L394.9,68.2z"/>
			<polygon class="st4" points="398,84.3 381.8,75.4 394.9,68.2 			"/>
			<path class="st6" d="M398,84.3L377.3,93c0,0,1-4.9,2.3-10.4c1.3-5.5,2.2-7.3,2.2-7.3L398,84.3z"/>
			<path class="st4" d="M398,84.3l3.4,13.1c0,0-6.2-0.8-12.1-1.8c-5.8-1-12.1-2.6-12.1-2.6L398,84.3z"/>
			<polygon class="st6" points="398,84.3 413,87 401.4,97.5 			"/>
			<polygon class="st6" points="419.9,98.8 419.9,87 413,87 			"/>
			<path class="st4" d="M433.8,34.2l-13.9,9.2V21.5C419.9,21.5,426.1,25.8,433.8,34.2z"/>
			<polygon class="st6" points="419.9,43.4 431.8,63 433.8,34.2 			"/>
			<path class="st7" d="M431.8,63l2-28.7c4.1,4.5,7.8,9.3,11,14.3L431.8,63z"/>
			<polygon class="st4" points="444.9,48.6 444.9,68.2 431.8,63 			"/>
			<polygon class="st6" points="431.8,63 441.8,84.3 444.9,68.2 			"/>
			<path class="st6" d="M444.9,68.2V48.6c5.4,8.3,9.8,17.3,13,26.7L444.9,68.2z"/>
			<polygon class="st4" points="441.8,84.3 457.9,75.4 444.9,68.2 			"/>
			<path class="st6" d="M441.8,84.3l20.7,8.7c0,0-1-4.9-2.3-10.4c-1.3-5.5-2.2-7.3-2.2-7.3L441.8,84.3z"/>
			<path class="st4" d="M441.8,84.3l-3.4,13.2c0,0,6.2-0.8,12.1-1.8c5.8-1,12.1-2.6,12.1-2.6L441.8,84.3z"/>
			<polygon class="st6" points="441.8,84.3 426.9,87 438.3,97.5 			"/>
			<path class="st7" d="M426.9,87l-7,11.8c0,0,9.2,0.1,18.5-1.3L426.9,87z"/>
			<polygon class="st6" points="419.9,98.8 419.9,87 426.9,87 			"/>
		</g>
		<path class="st7" d="M401.4,97.5c9.2,1.4,18.5,1.3,18.5,1.3L413,87L401.4,97.5z"/>
	</g>
</g>
<g>
	<polygon class="st8" points="254,60 277,20 323,20 336.2,43 346,60 323,100 277,100 	"/>
	<g>
		<polygon class="st8" points="277.7,98.8 255.4,60 277.7,21.2 322.3,21.2 344.6,60 322.3,98.8 		"/>
		<polygon class="st9" points="288.1,80.8 276.1,60 288.1,39.2 311.9,39.2 323.9,60 311.9,80.8 		"/>
		<polygon class="st10" points="277.7,21.2 282.9,28.5 288.7,21.2 		"/>
		<polygon class="st11" points="271.9,31.2 277.7,21.2 282.9,28.5 		"/>
		<polygon class="st12" points="282.9,28.5 288.7,21.2 300,28.5 288.1,39.2 		"/>
		<polygon class="st10" points="300,28.5 300,21.2 288.7,21.2 		"/>
		<polygon class="st10" points="288.1,39.2 271.9,31.2 282.9,28.5 		"/>
		<polygon class="st11" points="280,35.2 264.7,43.7 271.9,31.2 		"/>
		<polygon class="st11" points="280,35.2 276.1,60 288.1,39.2 		"/>
		<polygon class="st10" points="264.7,43.7 280,35.2 276.1,60 		"/>
		<polygon class="st11" points="255.4,60 276.1,60 264.7,43.7 		"/>
		<polygon class="st10" points="322.3,21.2 317.1,28.5 311.3,21.2 		"/>
		<polygon class="st11" points="328,31.2 322.3,21.2 317.1,28.5 		"/>
		<polygon class="st11" points="317.1,28.5 311.3,21.2 300,28.5 311.9,39.2 		"/>
		<polygon class="st10" points="300,28.5 300,21.2 311.3,21.2 		"/>
		<polygon class="st10" points="311.9,39.2 328,31.2 317.1,28.5 		"/>
		<polygon class="st12" points="320,35.2 335.2,43.7 328,31.2 		"/>
		<polygon class="st11" points="320,35.2 323.9,60 311.9,39.2 		"/>
		<polygon class="st9" points="335.2,43.7 320,35.2 323.9,60 		"/>
		<polygon class="st12" points="344.6,60 323.9,60 335.2,43.7 		"/>
		<polygon class="st10" points="322.3,98.8 317.1,91.5 311.3,98.8 		"/>
		<polygon class="st11" points="328.1,88.8 322.3,98.8 317.1,91.5 		"/>
		<polygon class="st12" points="317.1,91.5 311.3,98.8 300,91.5 311.9,80.8 		"/>
		<polygon class="st10" points="300,91.5 300,98.8 311.3,98.8 		"/>
		<polygon class="st10" points="311.9,80.8 328.1,88.8 317.1,91.5 		"/>
		<polygon class="st12" points="320,84.8 335.3,76.3 328.1,88.8 		"/>
		<polygon class="st11" points="320,84.8 323.9,60 311.9,80.8 		"/>
		<polygon class="st10" points="335.3,76.3 320,84.8 323.9,60 		"/>
		<polygon class="st11" points="344.6,60 323.9,60 335.3,76.3 		"/>
		<polygon class="st10" points="277.7,98.8 282.9,91.5 288.7,98.8 		"/>
		<polygon class="st11" points="272,88.8 277.7,98.8 282.9,91.5 		"/>
		<polygon class="st11" points="282.9,91.5 288.7,98.8 300,91.5 288.1,80.8 		"/>
		<polygon class="st10" points="300,91.5 300,98.8 288.7,98.8 		"/>
		<polygon class="st10" points="288.1,80.8 272,88.8 282.9,91.5 		"/>
		<polygon class="st11" points="280,84.8 264.8,76.3 272,88.8 		"/>
		<polygon class="st11" points="280,84.8 276.1,60 288.1,80.8 		"/>
		<polygon class="st9" points="264.8,76.3 280,84.8 276.1,60 		"/>
		<polygon class="st12" points="255.4,60 276.1,60 264.8,76.3 		"/>
	</g>
</g>
<g>
	<polygon class="st13" points="128,43 150.6,20 210.1,20 232,43.1 180.5,100 	"/>
	<polygon class="st14" points="129.7,43.1 180.5,98.2 158.6,43.1 	"/>
	<polygon class="st15" points="151.1,21.2 129.7,43.1 158.6,43.1 	"/>
	<polygon class="st16" points="151.1,21.2 180.6,21.2 158.6,43.1 	"/>
	<polygon class="st15" points="158.6,43.1 180.6,21.2 180.6,43.4 	"/>
	<polygon class="st15" points="209.6,21.2 230.3,43.1 202.5,43.1 	"/>
	<polygon class="st17" points="209.6,21.2 180.6,21.2 202.5,43.1 	"/>
	<polygon class="st16" points="202.5,43.1 180.6,21.2 180.6,43.4 	"/>
	<polygon class="st14" points="230.4,43.1 180.5,98.2 202.5,43.1 	"/>
	<polygon class="st15" points="158.6,43.1 202.5,43.1 180.5,98.2 	"/>
	<polygon class="st17" points="180.5,43.1 180.5,98.2 158.6,43.1 	"/>
</g>
<g>
	<path class="st2" d="M94,59.8c0-1.4-0.1-2.8-0.2-4.2c-0.2-3.1-0.8-6.2-1.7-9.1c-0.7-2.4-1.6-4.7-2.7-6.9l0,0
		c-1.8-3.5-4-6.8-6.7-9.6c-2-2.2-4.3-4-6.8-5.5l0,0h-0.2H76c-2.4-1.4-5-2.6-7.8-3.4l0,0c-2.7-0.7-5.4-1-8.1-1l0,0l0,0
		c-2.7,0-5.4,0.4-7.9,1.1c-2.7,0.8-5.4,2-7.8,3.5l0,0c-2.5,1.6-4.8,3.4-6.8,5.6c-2.9,2.9-5.1,6.2-6.9,9.7l0,0l0,0l0,0l0,0
		c-1.1,2.2-2.1,4.6-2.8,7V47c-1,3-1.5,6-1.8,9l0,0c-0.2,1.4-0.2,2.8-0.2,4.2c0.1,7,1.6,13.8,4.6,20.2c1.8,3.5,4,6.8,6.7,9.6
		c2,2.2,4.3,4,6.8,5.5l0,0h0.2h-0.2c2.4,1.4,5,2.6,7.8,3.4H52h-0.1c2.6,0.7,5.3,1.1,8,1c2.7,0,5.4-0.4,8-1.2l0,0
		c2.7-0.8,5.4-2,7.8-3.4c2.5-1.6,4.8-3.4,6.9-5.6c2.7-2.9,5-6.2,6.8-9.7l0,0C92.2,73.8,93.9,66.8,94,59.8z"/>
	<g>
		<path class="st2" d="M60.2,25.6v-4.4c-2.6,0-5.2,0.4-7.7,1.1L60.2,25.6z"/>
		<path class="st3" d="M60.2,25.6l-7.8-3.3l0,0c-2.6,0.8-5.2,1.9-7.5,3.4L60.2,25.6z"/>
		<polygon class="st2" points="50.6,33.6 44.9,25.7 60.2,25.6 		"/>
		<path class="st0" d="M38.2,31.2l9.5-1.5l-2.9-3.9l0,0C42.4,27.2,40.2,29.1,38.2,31.2z"/>
		<polygon class="st3" points="47.8,29.6 39.2,43 50.6,33.6 		"/>
		<polygon class="st2" points="38.2,31.2 39.2,43 47.8,29.6 		"/>
		<path class="st3" d="M39.2,43l-1-11.8l0,0c-2.6,2.8-4.9,6-6.6,9.4L39.2,43z"/>
		<path class="st2" d="M39.2,43l-7.6-2.4l0,0c-1.1,2.2-2,4.4-2.7,6.7L39.2,43z"/>
		<polygon class="st0" points="39.2,43 29,47.3 39.2,52.4 		"/>
		<path class="st2" d="M34.1,49.9L29,47.3l0,0c-0.9,2.9-1.4,5.8-1.8,8.8L34.1,49.9z"/>
		<polygon class="st2" points="39.2,52.4 39.1,61.7 34.1,49.9 		"/>
		<polygon class="st3" points="34.1,49.9 27.2,56.2 39.1,61.7 		"/>
		<polygon class="st2" points="27.2,56.2 39.1,77.4 39.1,61.7 		"/>
		<path class="st0" d="M31.5,79.9l7.6-2.5L27.2,56.2l0,0C27,57.6,27,58.9,27,60.3C27,67,28.6,73.7,31.5,79.9z"/>
		<path class="st2" d="M59.8,94.4v4.4c-2.6,0-5.2-0.3-7.8-1L59.8,94.4z"/>
		<path class="st3" d="M59.8,94.4l-7.8,3.4l0,0c-2.6-0.7-5.2-1.8-7.5-3.3L59.8,94.4z"/>
		<polygon class="st2" points="50.4,86.7 44.6,94.5 59.8,94.4 		"/>
		<path class="st3" d="M38,89.2l9.5,1.4l-2.9,3.9l0,0C42.2,93.1,40,91.2,38,89.2z"/>
		<polygon class="st0" points="47.5,90.6 39.1,77.4 50.4,86.7 		"/>
		<polygon class="st2" points="38,89.2 39.1,77.4 47.5,90.6 		"/>
		<path class="st3" d="M39.1,77.4L38,89.2l0,0c-2.6-2.8-4.8-5.9-6.5-9.4L39.1,77.4z"/>
		<path class="st2" d="M60.2,25.6v-4.4c2.6,0,5.2,0.3,7.8,1L60.2,25.6z"/>
		<path class="st0" d="M60.2,25.6l7.8-3.4l0,0c2.6,0.7,5.2,1.8,7.5,3.3L60.2,25.6z"/>
		<polygon class="st2" points="69.6,33.4 75.4,25.6 60.2,25.6 		"/>
		<path class="st3" d="M82,30.9l-9.5-1.4l2.9-3.9l0,0C77.8,27.1,80,28.8,82,30.9z"/>
		<polygon class="st0" points="72.5,29.5 80.9,42.7 69.6,33.4 		"/>
		<polygon class="st2" points="82,30.9 80.9,42.7 72.5,29.5 		"/>
		<path class="st3" d="M80.9,42.7L82,30.9l0,0c2.6,2.8,4.8,5.9,6.5,9.4L80.9,42.7z"/>
		<path class="st2" d="M80.9,42.7l7.6-2.5l0,0c1,2.2,1.9,4.4,2.6,6.7L80.9,42.7z"/>
		<polygon class="st0" points="80.9,42.7 91.1,46.9 80.9,52.2 		"/>
		<path class="st2" d="M86,49.6l5.1-2.6l0,0c0.9,2.9,1.4,5.8,1.7,8.8L86,49.6z"/>
		<polygon class="st2" points="80.9,52.2 80.8,61.4 86,49.6 		"/>
		<polygon class="st3" points="86,49.6 92.8,55.8 80.8,61.4 		"/>
		<polygon class="st2" points="92.8,55.8 80.8,77.1 80.8,61.4 		"/>
		<path class="st3" d="M88.3,79.5l-7.6-2.4l12.1-21.4l0,0c0.1,1.4,0.2,2.7,0.2,4.1C92.9,66.7,91.3,73.3,88.3,79.5z"/>
		<path class="st2" d="M59.8,94.4v4.4c2.6,0,5.2-0.4,7.8-1.1L59.8,94.4z"/>
		<path class="st0" d="M59.8,94.4l7.7,3.3l0,0c2.6-0.8,5.2-1.9,7.5-3.4L59.8,94.4z"/>
		<polygon class="st2" points="69.4,86.5 75.1,94.4 59.8,94.4 		"/>
		<path class="st0" d="M81.8,88.9l-9.5,1.5l2.9,3.9l0,0C77.6,92.8,79.8,91,81.8,88.9z"/>
		<polygon class="st3" points="72.2,90.4 80.8,77.1 69.4,86.5 		"/>
		<polygon class="st2" points="81.8,88.9 80.8,77.1 72.2,90.4 		"/>
		<path class="st0" d="M80.8,77.1l1,11.8l0,0c2.6-2.8,4.9-6,6.6-9.4L80.8,77.1z"/>
		<polygon class="st0" points="60.2,25.6 60.1,32.9 52.4,32.1 		"/>
		<polygon class="st2" points="60.1,32.9 52.4,32.1 48,42.9 		"/>
		<polygon class="st0" points="48,42.9 39.2,43 52.4,32.1 		"/>
		<polygon class="st3" points="48,42.9 43.6,46.6 39.2,43 		"/>
		<polygon class="st2" points="43.6,46.6 39.2,52.4 39.2,43 		"/>
		<polygon class="st0" points="43.6,46.6 43.5,62.5 39.1,61.7 39.2,52.4 		"/>
		<polygon class="st2" points="43.5,62.5 39.1,61.7 39.1,77.4 43.5,73.7 		"/>
		<polygon class="st0" points="43.5,73.7 45.6,82.8 39.1,77.4 		"/>
		<polygon class="st2" points="52.2,88.2 50.8,79.7 43.5,73.7 45.6,82.8 		"/>
		<polygon class="st0" points="52.2,88.2 59.9,87.2 50.8,79.7 		"/>
		<polygon class="st3" points="59.9,87.2 59.8,94.4 52.2,88.2 		"/>
		<polygon class="st0" points="60.2,25.6 60.1,32.9 67.8,32 		"/>
		<polygon class="st2" points="60.1,32.9 67.8,32 72.1,42.8 		"/>
		<polygon class="st0" points="72.1,42.8 80.9,42.7 67.8,32 		"/>
		<polygon class="st3" points="72.1,42.8 76.5,46.4 80.9,42.7 		"/>
		<polygon class="st2" points="76.5,46.4 80.9,52.2 80.9,42.7 		"/>
		<polygon class="st0" points="76.5,46.4 76.4,62.4 80.8,61.4 80.9,52.2 		"/>
		<polygon class="st2" points="76.4,62.4 80.8,61.4 80.8,77.1 76.4,73.5 		"/>
		<polygon class="st0" points="76.4,73.5 74.2,82.5 80.8,77.1 		"/>
		<polygon class="st2" points="67.5,88 69,79.6 76.4,73.5 74.2,82.5 		"/>
		<polygon class="st0" points="67.5,88 59.9,87.2 69,79.6 		"/>
		<polygon class="st3" points="59.9,87.2 59.8,94.4 67.5,88 		"/>
		<polygon class="st1" points="43.6,46.6 60.1,32.9 76.5,46.4 76.4,73.5 59.9,87.2 43.5,73.7 		"/>
	</g>
</g>
<g>
	<path class="st18" d="M539.8,100c-5,0-9.8-0.9-14.3-2.7c-5-1.9-9.6-4.9-13.4-8.6l-0.2-0.2c-0.2-0.2-0.8-0.8-0.8-0.8l0,0
		c-3.4-3.4-6.1-7.6-8-12l0,0l-0.3-0.9c-0.1-0.2-0.2-0.5-0.3-0.7l-0.1-0.5l0,0c-1.6-4.4-2.4-9-2.4-13.6v-1.7l0,0
		c0.2-4.8,1.3-9.5,3.2-14c2-4.6,4.8-8.8,8.3-12.3l0,0l0.8-0.8c3.8-3.7,8.3-6.5,13.3-8.4c4.6-1.8,9.4-2.7,14.2-2.7
		c5,0,9.8,0.9,14.5,2.7c5,1.9,9.4,4.7,13.3,8.4l0.9,0.8l0,0c3.5,3.6,6.3,7.8,8.3,12.3l0.2,0.6l0,0c1.8,4.5,2.8,9.1,3,13.9l0,0v0.7
		c0,0,0,0.6,0,0.6v0.6l0,0c-0.1,4.6-1,9.1-2.6,13.4l-0.4,1.1l0,0c-2.1,5-5.1,9.5-9,13.2c-3.9,3.8-8.5,6.8-13.6,8.8
		C549.8,99,545,100,540,100C540,100,539.8,100,539.8,100z"/>
	<g>
		<ellipse class="st19" cx="540.1" cy="60" rx="28.2" ry="28.1"/>
		<path class="st20" d="M567.5,59.5l8.2-14.6l0,0c2,4.6,3,9.7,3.1,14.7L567.5,59.5L567.5,59.5z"/>
		<path class="st21" d="M576.3,73.6l-8.8-14.2h11.3c0,0.2,0,0.3,0,0.5C578.8,64.7,578,69.4,576.3,73.6z"/>
		<path class="st18" d="M539.8,31.5V21.2c-4.7,0-9.4,0.9-13.8,2.6L539.8,31.5z"/>
		<path class="st20" d="M520.6,40.7l5.4-16.8l0,0c-4.8,1.8-9.2,4.6-12.9,8.2L520.6,40.7z"/>
		<polygon class="st21" points="520.6,40.7 532.1,40.7 540.2,31.5 526.1,23.9 		"/>
		<path class="st21" d="M504.3,44.8l16.3-4.2l-7.4-8.6C509.4,35.6,506.4,39.9,504.3,44.8z"/>
		<polygon class="st22" points="532.1,40.7 520.6,51.8 520.6,40.7 		"/>
		<polygon class="st18" points="504.3,44.8 512.5,59.5 520.6,51.8 520.6,40.7 		"/>
		<path class="st23" d="M512.5,59.5l-8.2-14.6l0,0c-2,4.6-3,9.7-3.1,14.7L512.5,59.5L512.5,59.5z"/>
		<polygon class="st21" points="520.6,51.8 520.6,67.8 512.5,59.5 		"/>
		<path class="st21" d="M503.7,73.6l8.8-14.2h-11.3c0,0.2,0,0.3,0,0.5C501.2,64.7,502,69.4,503.7,73.6z"/>
		<path class="st23" d="M512.8,87.6l6.7-7.8l-15.8-6.2C505.7,78.9,508.8,83.6,512.8,87.6z"/>
		<polygon class="st20" points="520.6,67.8 519.5,79.9 503.7,73.6 512.5,59.5 		"/>
		<path class="st21" d="M519.5,79.9l-6.7,7.8l0,0c3.8,3.7,8.2,6.6,13.2,8.6L519.5,79.9z"/>
		<polygon class="st18" points="520.6,67.8 532.7,79.7 519.5,79.9 		"/>
		<polygon class="st20" points="519.5,79.9 526,96.1 540.2,87.6 532.7,79.7 		"/>
		<path class="st18" d="M526,96.1L526,96.1c4.4,1.8,9.1,2.6,13.8,2.6V87.6L526,96.1z"/>
		<path class="st23" d="M539.8,31.5V21.2c4.8,0,9.5,0.9,14,2.6L539.8,31.5z"/>
		<path class="st20" d="M559.4,40.7l-5.4-16.8l0,0c4.8,1.8,9.2,4.6,12.9,8.2L559.4,40.7z"/>
		<polygon class="st21" points="559.4,40.7 547.9,40.7 539.8,31.5 553.8,23.9 		"/>
		<path class="st21" d="M575.7,44.8l-16.3-4.2l7.4-8.6C570.6,35.6,573.6,39.9,575.7,44.8z"/>
		<polygon class="st18" points="547.9,40.7 559.4,51.8 559.4,40.7 		"/>
		<polygon class="st23" points="575.7,44.8 567.5,59.5 559.4,51.8 559.4,40.7 		"/>
		<polygon class="st21" points="559.4,51.8 559.4,67.8 567.5,59.5 		"/>
		<path class="st24" d="M567.2,87.6l-6.7-7.8l15.8-6.2C574.3,78.9,571.2,83.6,567.2,87.6z"/>
		<polygon class="st18" points="559.4,67.8 560.5,79.9 576.3,73.6 567.5,59.5 		"/>
		<path class="st20" d="M560.5,79.9l6.7,7.8l0,0c-3.8,3.7-8.2,6.6-13.2,8.6L560.5,79.9z"/>
		<polygon class="st21" points="559.4,67.8 547.3,79.7 560.5,79.9 		"/>
		<polygon class="st23" points="560.5,79.9 554,96.1 539.8,87.6 547.3,79.7 		"/>
		<polygon class="st25" points="540.2,31.9 540,31.6 539.8,31.9 532.1,40.7 539.8,40.7 540.2,40.7 547.9,40.7 		"/>
		<polygon class="st26" points="540.2,87.3 547.3,79.7 540.2,79.7 539.8,79.7 532.7,79.7 539.8,87.3 540,87.5 		"/>
		<path class="st21" d="M554,96.1L554,96.1c-4.5,1.8-9.3,2.6-14.2,2.6V87.6L554,96.1z"/>
	</g>
</g>
<g>
	<polygon class="st13" points="620,93.4 620,26.3 631.3,20 689.2,20 700,26.4 700,92.2 689.7,100 634.2,100 633.1,100 	"/>
	<g>
		<polygon class="st14" points="621.2,27 631.6,21.2 688.8,21.2 698.8,27 698.8,91.6 689.3,98.8 633.7,98.8 621.2,92.7 		"/>
		<polygon class="st15" points="627.4,30.2 635.8,25.7 683.8,25.7 693,30.2 693,90 683.8,94.3 638.2,94.3 627.4,90 		"/>
		<polygon class="st16" points="633.7,34.7 640.3,30.2 679.7,30.2 686.3,34.7 686.3,85.8 679.3,90 640.3,90 633.7,85.8 		"/>
		<polygon class="st27" points="638.2,37.1 643.6,33.4 676,33.4 681.4,36.9 681.4,83.7 676.2,87 643.2,87 638.3,83.8 		"/>
		<polygon class="st27" points="633.7,34.7 638.2,37.1 643.6,33.4 640.3,30.2 		"/>
		<polygon class="st27" points="679.7,30.2 676,33.4 681.4,36.9 686.3,34.7 		"/>
		<polygon class="st27" points="676.2,87 679.3,90 686.3,85.8 681.4,83.7 		"/>
		<polygon class="st27" points="643.2,87 640.3,90 633.7,85.8 638.3,83.8 		"/>
		<polygon class="st16" points="633.7,34.7 627.4,30.2 635.8,25.7 640.3,30.2 		"/>
		<polygon class="st16" points="679.7,30.2 683.8,25.7 693,30.2 686.3,34.7 		"/>
		<polygon class="st16" points="686.3,85.8 693,90 683.8,94.3 679.3,90 		"/>
		<polygon class="st16" points="640.3,90 638.2,94.3 627.4,90 633.7,85.8 		"/>
		<polygon class="st15" points="638.2,94.3 633.7,98.8 621.2,92.7 627.4,90 		"/>
		<polygon class="st15" points="621.2,27 627.4,30.2 635.8,25.7 631.6,21.2 		"/>
		<polygon class="st15" points="683.8,25.7 688.8,21.2 698.8,27 693,30.2 		"/>
		<polygon class="st15" points="683.8,94.3 689.3,98.8 698.8,91.6 693,90 		"/>
	</g>
</g>
</svg>
