<?xml version="1.0" encoding="utf-8"?>
<!-- Generator: Adobe Illustrator 20.0.0, SVG Export Plug-In . SVG Version: 6.00 Build 0)  -->
<svg version="1.1" id="圖層_1" xmlns="http://www.w3.org/2000/svg" xmlns:xlink="http://www.w3.org/1999/xlink" x="0px" y="0px"
	 viewBox="0 0 840 120" style="enable-background:new 0 0 840 120;" xml:space="preserve">
<style type="text/css">
	.st0{fill:#E99A9A;}
	.st1{fill:#E5C440;}
	.st2{fill:#DC7D95;}
	.st3{fill:#92C3CF;}
	.st4{fill:#DC6B6B;}
	.st5{fill:#A9C958;}
</style>
<g>
	<g>
		<path class="st0" d="M778.8,98.9c-5.7-2.4-10.9-5.4-15.5-9l-0.2-0.2c-0.4-0.3-0.8-0.6-1.2-1l-0.3-0.2c-0.3-0.3-0.7-0.6-1-0.9
			l-0.3-0.3c-1-0.9-1.9-1.8-2.9-2.7c0,0-0.5-0.5-0.6-0.6c-0.2-0.2-0.6-0.6-0.6-0.6c-0.2-0.2-0.4-0.5-0.6-0.7
			c-0.2-0.2-0.4-0.4-0.6-0.6c-0.2-0.2-0.4-0.5-0.6-0.7c-0.2-0.2-0.4-0.4-0.6-0.6c-0.2-0.2-0.4-0.5-0.6-0.7l-0.3-0.4l-0.5-0.6l0,0
			c-10.4-13.5-12.6-28.6-11.1-38.3v-0.1c0.1-0.5,0.2-0.8,0.2-1.2l0.1-0.4c0.1-0.2,0.1-0.6,0.2-0.8c0.1-0.4,0.2-0.9,0.3-1.3l0.1-0.2
			c0.1-0.3,0.2-0.6,0.2-1v-0.1c0.8-2.6,1.9-4.8,3.4-6.6l0.2-0.2c0.2-0.2,0.2-0.3,0.4-0.5c0.2-0.2,0.4-0.5,0.6-0.7
			c0.4-0.4,0.8-0.8,1.2-1.1c4.2-3.7,9.6-5.6,16-5.6c7.4,0,13.9,2.5,15.8,3.3c0.8-0.4,2.2-0.9,4.5-1.5c2.7-0.8,6.9-1.8,11.4-1.8
			c7.1,0,12.9,2.2,17.2,6.7c0.2,0.2,0.5,0.5,0.7,0.8l0.2,0.2c0.2,0.2,0.4,0.5,0.6,0.7l0.2,0.2c7.3,10.2,6.6,31.8-7,49.5l0,0
			l-0.5,0.6c-0.2,0.2-0.3,0.4-0.5,0.6l-0.3,0.4c-0.3,0.3-0.6,0.7-0.9,1l-0.2,0.2c-0.3,0.3-0.6,0.7-1,1l-0.1,0.1
			c-6.2,6.7-13.9,12.1-23,15.8l-1.2,0.5L778.8,98.9z"/>
	</g>
	<g>
		<path class="st1" d="M401.8,98.8c6.2,0.8,12.1,1.2,17.3,1.2l0,0h0.9c1.6,0,10-0.1,18.5-1.3l1-0.2c3.2-0.4,6.6-1,9.9-1.5l1.1-0.2
			c1.5-0.2,3.2-0.6,5-1c2.9-0.6,5-1.1,6.1-1.4c0.6-0.2,1-0.2,1-0.2l1.2-0.3l-0.2-1.1c-0.6-3.4-1.4-7-2.2-10.3v-0.2
			c-1.1-4.9-2-7-2.2-7.4C447,38.8,421,20.6,420.7,20.5l-0.8-0.5l-0.7,0.5C419,20.6,393,38.8,380.7,75c-0.2,0.5-1.1,2.6-2.2,7.4v0.2
			c-0.9,3.4-1.7,6.9-2.2,10.3l-0.2,1.1l1.1,0.2c0,0,3.8,1,9.6,2.1c0.8,0.2,1.5,0.3,2.3,0.4c3.8,0.7,7.6,1.3,11.3,1.8L401.8,98.8z"/>
	</g>
	<g>
		<polygon class="st2" points="254,60 277,20 323,20 336.2,43 346,60 323,100 277,100 		"/>
	</g>
	<g>
		<polygon class="st3" points="128,43 150.6,20 210.1,20 232,43.1 180.5,100 		"/>
	</g>
	<g>
		<path class="st4" d="M94,59.8c0-1.4-0.1-2.8-0.2-4.2c-0.2-3.1-0.8-6.2-1.7-9.1c-0.7-2.4-1.6-4.7-2.7-6.9l0,0
			c-1.8-3.5-4-6.8-6.7-9.6c-2-2.2-4.3-4-6.8-5.5l0,0h-0.2H76c-2.4-1.4-5-2.6-7.8-3.4l0,0c-2.7-0.7-5.4-1-8.1-1l0,0l0,0
			c-2.7,0-5.4,0.4-7.9,1.1c-2.7,0.8-5.4,2-7.8,3.5l0,0c-2.5,1.6-4.8,3.4-6.8,5.6c-2.9,2.9-5.1,6.2-6.9,9.7l0,0l0,0l0,0l0,0
			c-1.1,2.2-2.1,4.6-2.8,7V47c-1,3-1.5,6-1.8,9l0,0c-0.2,1.4-0.2,2.8-0.2,4.2c0.1,7,1.6,13.8,4.6,20.2c1.8,3.5,4,6.8,6.7,9.6
			c2,2.2,4.3,4,6.8,5.5l0,0h0.2h-0.2c2.4,1.4,5,2.6,7.8,3.4H52h-0.1c2.6,0.7,5.3,1.1,8,1c2.7,0,5.4-0.4,8-1.2l0,0
			c2.7-0.8,5.4-2,7.8-3.4c2.5-1.6,4.8-3.4,6.9-5.6c2.7-2.9,5-6.2,6.8-9.7l0,0C92.2,73.8,93.9,66.8,94,59.8z"/>
	</g>
	<g>
		<path class="st5" d="M539.8,100c-5,0-9.8-0.9-14.3-2.7c-5-1.9-9.6-4.9-13.4-8.6l-0.2-0.2c-0.2-0.2-0.8-0.8-0.8-0.8l0,0
			c-3.4-3.4-6.1-7.6-8-12l0,0l-0.3-0.9c-0.1-0.2-0.2-0.5-0.3-0.7l-0.1-0.5l0,0c-1.6-4.4-2.4-9-2.4-13.6v-1.7l0,0
			c0.2-4.8,1.3-9.5,3.2-14c2-4.6,4.8-8.8,8.3-12.3l0,0l0.8-0.8c3.8-3.7,8.3-6.5,13.3-8.4c4.6-1.8,9.4-2.7,14.2-2.7
			c5,0,9.8,0.9,14.5,2.7c5,1.9,9.4,4.7,13.3,8.4l0.9,0.8l0,0c3.5,3.6,6.3,7.8,8.3,12.3l0.2,0.6l0,0c1.8,4.5,2.8,9.1,3,13.9l0,0v0.7
			c0,0,0,0.6,0,0.6v0.6l0,0c-0.1,4.6-1,9.1-2.6,13.4l-0.4,1.1l0,0c-2.1,5-5.1,9.5-9,13.2c-3.9,3.8-8.5,6.8-13.6,8.8
			C549.8,99,545,100,540,100C540,100,539.8,100,539.8,100z"/>
	</g>
	<g>
		<polygon class="st3" points="620,93.4 620,26.3 631.3,20 689.2,20 700,26.4 700,92.2 689.7,100 634.2,100 633.1,100 		"/>
	</g>
</g>
</svg>
