<?xml version="1.0" encoding="utf-8"?>
<!-- Generator: Adobe Illustrator 20.0.0, SVG Export Plug-In . SVG Version: 6.00 Build 0)  -->
<svg version="1.1" id="圖層_1" xmlns="http://www.w3.org/2000/svg" xmlns:xlink="http://www.w3.org/1999/xlink" x="0px" y="0px"
	 viewBox="0 0 500 448.8" style="enable-background:new 0 0 500 448.8;" xml:space="preserve">
<style type="text/css">
	.st0{opacity:0.3;fill:#FBFBFB;enable-background:new    ;}
	.st1{fill:#412F0F;}
</style>
<title>工作區域 1</title>
<path class="st0" d="M477,221.4c0,116.5-102.1,212-228.1,212c-69.6,0-94.7-23.8-117.6-11.1c-33.2,18.4-75.2,5.5-75.2,5.5
	c33.5-17.9,37-49.3,13.6-74.6C50,331.8,18.3,303.9,20.9,221.4C24.5,105,123,10.5,248.9,10.5S477,104.9,477,221.4z"/>
<g>
	<path class="st1" d="M68.7,419.2c21.3-18.3,21-44.4,1-66.1C50,331.8,18.3,303.9,20.8,221.4c0.9-29.7,8.1-58.1,20.3-83.7
		C27.8,162,19.4,189.1,17,217.9c-6.8,81.6,24.3,110.8,43.5,133C79.6,373,87.5,401.3,68.7,419.2z"/>
	<path class="st1" d="M447.2,117.1c19,30.8,29.8,66.4,29.8,104.4c0,88-58.2,163.4-140.9,195c-26.7,10.6-56.2,16.4-87.1,16.4
		c-67.7,0-95.3-23-117.6-10.6c-19.5,10.8-40.9,10.8-54.9,9.1c-12.1-1-20.3-3.6-20.3-3.6c0.1,0,0.2-0.1,0.2-0.1
		c-0.5,0.2-1,0.5-1.5,0.7c0,0,37.3,19.8,82.1-5.2c15-8.4,32.1,12,103.6,15.6c129.3,6.6,238.9-81.7,244.7-197.1
		C487.6,196,473.3,152.9,447.2,117.1z"/>
</g>
</svg>
