<?xml version="1.0" encoding="utf-8"?>
<!-- Generator: Adobe Illustrator 20.0.0, SVG Export Plug-In . SVG Version: 6.00 Build 0)  -->
<svg version="1.1" id="圖層_1" xmlns="http://www.w3.org/2000/svg" xmlns:xlink="http://www.w3.org/1999/xlink" x="0px" y="0px"
	 viewBox="0 0 1440 720" style="enable-background:new 0 0 1440 720;" xml:space="preserve">
<style type="text/css">
	.st0{clip-path:url(#SVGID_2_);}
	.st1{fill:#060B0E;}
	.st2{fill:#050A0E;}
	.st3{fill:#081013;}
	.st4{fill:#141716;}
	.st5{fill:#121B1A;}
	.st6{fill:#1B1C18;}
	.st7{fill:#885123;}
	.st8{fill:#B46F2C;}
	.st9{fill:#1F1810;}
	.st10{fill:#824D22;}
	.st11{fill:#2A2419;}
	.st12{fill:#684122;}
	.st13{fill:#C4834B;}
	.st14{fill:#3A2919;}
	.st15{fill:#402E1B;}
	.st16{fill:#55341A;}
	.st17{fill:#5D381B;}
	.st18{fill:#3B2D1D;}
	.st19{fill:#4A2A13;}
	.st20{fill:#97531B;}
</style>
<title>cave_right</title>
<g>
	<defs>
		<rect id="SVGID_1_" x="1311.5" y="0" width="128.5" height="720"/>
	</defs>
	<clipPath id="SVGID_2_">
		<use xlink:href="#SVGID_1_"  style="overflow:visible;"/>
	</clipPath>
	<g class="st0">
		<rect x="1410" y="0" class="st1" width="40.2" height="720.2"/>
		<path class="st2" d="M1330.7,279.8c-0.5-1.3-1.2-2.6-1.9-3.8c-1-1.7-1.7-3.6-2.2-5.5c-0.2-0.6-0.3-1.1-0.3-1.7
			c-1.7-5.1-2.3-10.4-4.7-15.4c-2.2-4.7-1.8-27.8-4-34.8c-1.7-5.3-2.6-10.8-2.6-16.3c-0.1-10.8,1.6-20.9,1-43.5
			c-0.2-5.8-4.6-29.8-4.5-39.5c0-6.1,2.5-29.2,3.2-38.4c1.1-4.4,2.2-21.2,2.8-26.6c1-9.3,1.2-18.7,1.7-28c0.4-6.1,0.8-12.2,2.7-18
			c0.9-2.6,1.8-5.4,1.2-8.3h127.1v330.9c-0.6,4.5-4.7,6.1-7.6,8.5c-2.1,1.7-4.1,0.5-4.9-2c-0.8-2.5-1.7-5.1-2.4-7.7
			c-2.1,1.5-4.3,2.6-6,4.2c-2.3,2.1-4.1,1.8-4.5-1.1c-0.7-4.5-4.2-6.1-7.2-8.4c-0.7-0.5-1.6-1.1-2.3-0.5c-3,2-6.9,1.3-9.9,3.2
			c-1.3-0.2-2.4-0.9-3.3-1.8c-0.3-0.3-0.5-0.7-0.7-1.1c0-0.2,0-0.4-0.1-0.6c0.6-2.1,2.4-2.1,4-2.4c2-0.4,2.4-1.5,1.9-3.4
			c-0.8-3.3-3.1-5.7-5-8.2c-2.5-3.5-5.6-6.4-9.3-8.6c-3.7-2.2-7.2-4.8-10.4-7.6c-3.7-3.1-8.4-4.9-13.3-4.9c-6.6-0.3-13.2-1-19.8-1.1
			C1342.5,287.3,1335.6,285.5,1330.7,279.8z"/>
		<path class="st3" d="M1340.1,615.2c-0.9-9.7-2.8-19.3-5.6-28.7c-3.1-10.2-5.4-20.6-6.9-31.1c-1.5-10.7-1.2-21.6,1-32.2
			c1.3-6.5,2.7-13.1,4.1-19.6c0.6-2.9,0.8-5.9,0.8-8.9c0-9.5-0.7-19-2.3-28.4c-0.9-4.7-1.3-9.6-1.3-14.4c0.1-3.1,0.6-6.2,1.5-9.2
			c1.9-2.3,3.3-4.5,1.7-7.9c-1-2.1-0.4-4.5,3-5.4s6.1-2.4,9.8-1.3c2.7,0.6,5.6-0.3,7.5-2.3c3.3-3.4,7.5-4.1,11.6-5
			c-3.1-0.3-6.3-1.1-9.5-0.5c-2.7,0.5-5.3,0.9-7,3.5c-0.7,0.9-1.7,1.6-2.9,1.7c-1.5,0.4-3.2,0.6-4.4-0.7c-1.2-1.3-0.3-3,0.5-4.3
			c1.2-1.6,2.2-3.4,3-5.2c0.6-1.5,2-2.5,3.6-2.6c3.9-0.5,7.8-1.5,11.9-0.8c4.1,0.7,7.8-1.4,11.7-1.6c2.2-0.1,4.5-1,5.4,2.4
			c0.5,1.9,1.9,0.8,2.4-0.1c1.7-3.2,4.4-3.6,7.6-3.3c3.7,0.3,7.4-0.7,10.9-1.6c5.5-1.4,11.2-1.9,16.7-3.2c2.5-0.5,5.1-0.6,7.6-0.2
			c4.1,0.5,8.1,1.5,12.3,0.4c1.7-0.6,3.6,0.2,4.2,1.9v0.1c0.6,2-1.5,2.4-2.8,3.1c-1.6,0.6-3.3,0.9-5,0.7c-2.4-0.2-4.9,0.1-7.2,0.9
			c-4.2,1.7-8.2,2.9-12.7,1.1c-1.3-0.4-2.6-0.2-3.7,0.6c-1.7,1.2-3.9,1.5-5.9,1.1c12.6-0.4,25.2-1.7,37.6-3.7
			c3.6-0.7,7.2-1.4,10.9-0.3v49.5c-2.1,5-3,5.1-6.5,0.6c-0.7-0.9-1.7-1.8-2.3-0.7c-3.7,6.1-10.4,5.7-16,7.8c-0.3,0.1-0.4,0.4-0.6,1
			c1.8,1.4,3.3,0,4.8-0.7c1.7-0.8,3.5-1.9,5.1-0.3c1.6,1.6,0.3,3.2-0.3,4.8c-0.8,2.1-1.8,4.2-2.6,6.3c-2.3,6-2.3,6-8.6,5.4
			c0.4,1.2,1.4,1.2,2.3,1.4c2.9,0.6,4.4,2.8,4,5.2c-1.2,6.1,1.3,11.8,1.8,17.7c0.2,2.6,0.7,4.9-3,5.2c-1.5,0.1-2.2,1.8-2.8,3.1
			c-4.1,8.6-11.6,13.3-19.7,17.4c-5.9,2.9-11.6,6.1-17.1,9.6c-7.2,4.6-12.8,10.7-18,17.3c-1.9,2.7-2.1,5.9-2.4,9
			c-0.2,0.8-0.6,1.5-1.1,2.1l-0.4,0.4c-0.5,0.6-1.1,1.1-1.7,1.7c-3.9,4.7-7.8,9.4-11.9,13.9c-5.8,6.1-7.5,14-9.6,21.7
			C1343,611.7,1343.2,614.5,1340.1,615.2z"/>
		<path class="st1" d="M1323,720c-0.1-5.2-0.2-10.4-0.2-15.6c0-4.9,0.1-9.8,0.2-14.8c0-0.7,0.2-1.4,0.4-2.1c0.5-1.9,0.5-3.9,0.2-5.9
			c-0.4-2.6,0-5.3,1.2-7.7c0.4-2.6,1.8-4.1,4.1-5.4c4.1-2.3,7.9-4.9,9.1-10.1c0.5-2.5,2.8-4.2,5.3-4c1.8,0.1,3.1,0,2.9-2.4
			c-0.2-1.4,0.8-2.6,2.1-2.8h0.4c6.9-0.5,12.9-4.1,19.4-5.8c2.1-0.5,3.9-1.1,4.4,2c0.3,2,1.8,1.4,3,1.1c2.6-0.7,4.8-2.1,7.3-2.8
			c-0.2-1-0.7-1.3-1.3-1.3c-2-0.2-4.6,0.7-4.5-2.8c0.2-3.8,2.9-7.2,5.8-7.2c5.5,0,11.1-0.6,16.6-0.3c3.1,0.1,6.1-0.6,9.3-1.1
			c-0.9-1.2-2-0.8-2.9-1.2c-1.6-0.6-3.6-1.1-2.8-3.4c0.5-1.7,2.3-2.7,4.1-2.2c0,0,0,0,0,0c0.2,0,0.3,0.1,0.4,0.2
			c7.2,3.4,14.8,1.3,22.3,1.8c3.5,0.2,5.9-0.8,5.8-4.9c0-0.3,0.1-0.6,0.2-0.8c1.3-3.6,10.6-7.5,14.3-5.9V720H1323z"/>
		<path class="st4" d="M1450.2,410.3c-2,0.7-4.2,1-6.3,0.8c-2.9-0.2-5.6,0.7-8.4,1.1c-3.8,0.5-7.5,1-11.3,1.6
			c-5.6,0.9-11.2,0.5-16.8,1.4c-2.9,0.5-5.9,0.1-8.9,0.1c-0.2,0-0.5-0.3-0.6-0.5c-0.3-0.5,0.2-0.8,0.5-0.9c1.8-0.2,3.4-1.5,5.3-0.4
			c0.7,0.3,1.5,0.1,1.9-0.5c2.6-2.6,5.7-2.3,8.6-0.9c1.9,0.9,3.6,1,5.2-0.1c2.8-2,6-2.1,9.2-2.5c1-0.1,2-0.1,3,0
			c2.5,0.2,5-0.6,6.9-2.2c-1.3-1.6-2.8-2.3-4.7-1.2c-1.4,0.8-3,1-4.5,0.4c-0.9-0.3-1.9-0.4-2.9-0.4c-1.3,0-2.5-0.2-3.8-0.4
			c-2.6-0.7-5.4-0.6-8,0.1c-2.6,0.7-5.2,1.5-7.9,1.2c-0.9-0.1-1.7,0-2.5,0.4c-3,1.3-6.2,2-9.4,2.2c-0.7,0.1-1.4,0.3-2.1,0.5
			c-2.2,0.5-4.3,1.2-6.6,0.4c-0.7-0.1-1.4-0.1-2.1,0c-2,0.1-2.4,0.4-3,2.3c-0.9,2.6-2.5,3.4-5.1,2.6c-0.6-0.2-0.9-0.8-0.7-1.4
			c0-0.8,1-1.4,0.8-2.3c-0.8-0.4-1.7-0.5-2.5-0.3c-3,0.8-6.2,0.6-9.1,1.9c-1.3,0.6-2.8,0.6-4.1,0.1c-2.2-0.6-4.5-0.7-6.7-0.1
			c-1.5,0.4-3,0.6-4.6,0.6c-1,0-2,0.3-2.8,0.9c-1,0.6-0.9,1.7-1,2.6c0,0.9-0.4,1.7-1.2,2.1c-0.8,0.5-1.5,1.3-1.9,2.2
			c-0.4,0.9-1.3,1.8-0.6,2.7s1.9,0.5,2.8,0.4c1.5-0.1,2.9-0.6,3.5-2c1-2.6,2.9-2.9,5.3-3.2c2.2-0.4,4.5-0.6,6.7-0.7h1.3
			c1.2-0.1,2,1,3.1,1.1c1.1,0.1,1.9-1.3,3.1-1.1c0.6,0.1,1.1,0.1,1.2,0.9c0.1,0.6-0.3,1.2-0.9,1.3c-2.9,0-5.3,1.9-8.1,2.1
			c-2,0.1-3.9,1.2-4.8,3c-0.6,1.3-2,2.1-3.4,2c-1.1,0.1-2.2,0.5-3.2,1.1c-1.4,0.9-3.2,0.7-4.4-0.3c-1-1.1-2.8-1.1-3.8-0.1
			c0,0,0,0-0.1,0.1c-1.3,1.3-3.1,2-5,1.9c-1,0-1.5,0.6-1.6,1.6c-0.1,1.6-0.2,3,1.8,3.7c1.5,0.5,1.7,1.6,0.6,2.6
			c-1.4,1.4-2.5,3.1-4.4,3.9c1.2-6.7,1.5-13.5,1.1-20.3c-0.3-2.4,0.4-4.8,1.7-6.8c2.3-3.5,6.2-4.2,9.7-5.6c0.8-0.2,1.6-0.5,2.4-0.9
			c0.4-0.3,0.1-0.7-0.2-1c-0.3-0.3-0.8-0.5-0.8,0.1c-0.1,0.9-0.7,1.6-1.6,1.8c-1.5,0.5-3.3,1.9-4.7,0.3c-1.3-1.4-0.8-3.2,0-4.7
			c4-7.4,8.8-14.2,15.3-19.6c2-1.7,4.1-2.9,6.9-2.7s5-1.7,8.4-3.4c-4-0.8-7-0.9-10,0.8c-0.8,0.5-1.7,1.4-2.6,0.4
			c-0.7-0.9-0.1-1.9,0.4-2.7c1.5-2,3.2-3.9,5-5.7c1.4-0.5,2.3,1.2,3.6,0.8c0.4,0,0.7,0.1,1.1,0.2c4.9-1.2,8.8-5.1,10.1-10
			c-3.7-3.9-7.9-6.6-11.3-10.3c-0.1-4.6,0.3-9,2.3-13.2c0.9-2.3,1.2-4.7,0.9-7.1c-0.1-2.7,0.9-4.8,4.2-4.3c1,0.4,1.2,1.1,0.7,2.7
			c1.8-1.6,2.6-3.2,3.9-4.3c1.3-1.1,2.7-2.4,4.8-1.1c2,1.1,4.1-0.6,6.2-0.2c5.2,1.1,10.6,0,15.9,1c1.3,0,1.5-0.9,1.9-1.9
			s1-1.4,2-0.6c1,0.9,2.5,0.9,3.5,0.1l1.4-0.9c2.4-1.4,3.2-1.3,5.1,0.7c0.8,0.9,1.4,1.7,2.7,1.8c1.1,0,1.7,0.9,2.2,1.7
			c1.1,1.8,1.7,3.9,1.9,6c0,0.6,0.5,1,1.1,1c0,0,0.1,0,0.1,0c0.3,0,0.6-0.1,0.7-0.4c0.6-0.5,1.2-1.1,1.7-1.8
			c0.6-0.8,1.4-1.4,2.3-1.7c2.3-0.9,2.3-1,3.9-3.4c1.1,0.5,1,1.6,1,2.6c0.1,3,1.7,5.6,2.5,8.4c0.3,1.1,1.4,1.3,2.5,0.7
			c0.8-0.3,1.5-0.9,2-1.6c0.7-1.3,1.9-2.2,3.3-2.4c0.9-0.2,1.3-0.9,1.8-1.7s0.7-1.9,1.6-2.4v75.1c-0.2,0.2-0.3,0.4-0.2,0.6
			c0.1,0.2,0.1,0.3,0.2,0.3L1450.2,410.3z"/>
		<path class="st5" d="M1450.2,614.2h-2.1c-2.4-0.2-4.5,0.3-5.7,2.7c-0.5,1.2-1.6,1.4-2.8,1.6c-2.7,0.4-3.3,1.1-2.8,3.5
			c0.2,1,0.7,1.9-0.2,2.8c-1.1,1.1-2.1,2.2-3.9,2.2c-3.1-0.1-6.2,0-9.4,0c-1.5,0-3.1,0.1-4.6,0.3c-1.8,0.2-3.6-0.3-5.4-0.3
			c-1.7,0-3.3-0.6-4.7-1.6c-0.6-0.4-1.3-0.6-2-0.7c-1.3,0.1-2.5,0.9-3,2.1c-0.1,0.8,1.1,1.6,2.6,1.8s3.2-0.2,4.5,0.9
			c0.3,0.3,0.6,0.6,0.7,1c0.1,0.6-0.4,1-0.9,1.3c-0.1,0.1-0.3,0.1-0.4,0.1c-3.3-0.1-6.4,1.1-9.7,1.1c-5.1-0.2-10.1-0.1-15.2,0.4
			c-0.4,0.1-0.8,0.1-1.2,0c-1.1-0.3-2.2-0.9-3.2,0c-0.8,0.8-1.3,1.9-1.5,3c-0.4,1.2-1,2.3-1.4,3.5c-0.1,0.6,0.3,1.3,0.9,1.4
			c0,0,0.1,0,0.1,0h0.2c0.7-0.2,1.3-0.4,2-0.6c1.6-0.4,3.2,0.5,3.7,2.1c0,0.1,0.1,0.3,0.1,0.4c0.3,1.1-0.8,2.4-1.8,2
			c-1.2-0.5-2.6-0.2-3.5,0.7c-2,1.6-4.5,1.7-6.8,2.2c-1.1,0.3-1.9-0.6-1.7-1.8c0.1-0.7,0.4-1.3,0.5-2c0-0.5-0.4-0.9-0.9-0.9
			c0,0,0,0,0,0h-0.3c-1.1,0.4-2.1,0.9-3.1,1.4c-1.3,0.8-2.8-0.6-4.1,0.4c-1,0.8-1.9,1.7-2.9,2.5c-0.4,0.2-0.8,0.3-1.2,0.3
			c-2.6-0.1-5,0.9-7.5,1.5c-1.1,0.2-2.2,0.2-3.4,0.4c-0.8,0.1-1.4,0.9-1.3,1.7v0.1c0.1,0.6,0.3,1.1,0.6,1.6c0.6,1.6,0.1,2.5-1.5,2.3
			c-0.7-0.1-1.3-0.3-2-0.5c-1.7-0.6-3.2-0.3-4.6,1.9c-0.5,0.7-0.8,1.5-0.9,2.3c0.2,2.7-1.4,4.4-3.2,5.6c-2.6,1.7-4.5,4.4-7.7,5
			c-1.9,0.4-1.6,2.5-2.8,3.5c0.4-4.9,0.6-9.9,1.2-14.8c0.6-3.1,1.3-6.1,2.2-9.1c0.5-0.5,0.3-1.2,0.8-1.8l0,0
			c3.3-3.6,7.5-6.5,8.7-11.7c0-0.4,0.1-0.7,0.2-1.1c0.2-0.6,0.4-1.3,0.6-2l0.3-0.9c0.3-0.8,0.4-1.6,0.5-2.4c0.1-0.3,0.2-0.7,0.3-1
			c0.2-0.5,0.5-1,0.7-1.5c0.2-0.4,0.4-0.7,0.7-1c3.8-5.4,7-11.2,11.2-16.3c2.3-2.9,5.6-4.8,9.3-5.3c1.6-0.3,2.7-0.5,2.7-2.4
			c0.1-1.4,0.8-2.8,1.8-3.8c2.6-3.2,5.3-6.1,6.8-10.1c1.1-3.2,4.7-4.3,7.6-5.9c1-0.5,2.2-0.7,3-1.5c5.6-6.3,13-9.6,20.6-12.9
			c2.6-1.1,5-2.3,6.2-5.4c0.7-1.9,3-2.9,4.8-4.1c0.5-0.3,1.1-0.5,1.7-0.6c3.7-1.7,8.1-1.9,11.2-5c3-2.8,7.1-1.2,10.5-2.4
			c4-0.8,8-1.3,11.8,0.8V614.2z"/>
		<path class="st6" d="M1369.9,560.4c0.1-0.4,0-1,0.3-1.2c2.9-2.7,4.4-6.6,8.1-8.6c0.3-0.1,0.5-0.3,0.6-0.5
			c2.5-4.5,7.3-5.9,11.1-8.8c4.9-3.7,10.6-5.9,15.9-8.9c1.1-0.6,2.2-1.3,3.3-1.9c1.7-1.1,3.4-2,5.2-2.9c2.8-1.1,4.5-3.2,6-5.7
			c2.2-3.6,4.7-7,7.1-10.5c0.4,0.3,0.9,0.5,1.4,0.7c0.9,0.3,1.7,0,1.6-0.6c-0.6-3.4-0.1-7.1-1.5-10.4c-1.1-2.6-1.3-5.5-0.6-8.3
			c0.3-1.4,0.2-2.8-0.2-4.1c-0.2-1.5-1.5-2.5-3-2.5c-0.8,0-1.7-0.1-2.5-0.3c-1-0.2-1.9-1.5-1.7-2.1c0.5-1.2,1.8-1.9,3.1-1.7
			c0.6,0.2,1.1,0.4,1.6,0.7c0.5,0.3,1,0.5,1.6,0.6c0.8,0.3,1.8-0.1,2.1-0.9c1.1-4.7,3.7-8.9,5.1-13.5c0.1-0.1,0.1-0.3,0.1-0.4
			c0.1-0.5-0.3-1-0.9-1.1c0,0-0.1,0-0.1,0c-0.8-0.1-1.7,0.1-2.4,0.5c-1.1,0.6-2.2,1.3-3.3,2c-0.6,0.3-1.3,0.8-2,0.5
			c-1.2-0.6-3.2-0.8-3.3-2.3c-0.2-1.9,2-1.7,3.2-2.1c2.7-0.8,5.4-1.5,8.2-2.1c2.3-0.3,4.3-1.7,5.4-3.7c0.3-0.6,0.9-1.1,1.2-1.7
			c0.9-1.6,2.1-1.8,3.7-0.1c0.8,0.9,0.7,2.1,1.1,3.2c0.2,0.8,1.1,1.3,1.9,1.1c0,0,0,0,0,0c0.3-0.1,0.6-0.3,0.8-0.5
			c0.8-0.8,1.5-1.7,2.2-2.5v6.8c-0.7,0.6-1.5,0.3-2.3,0.4c0.8,0.1,1.6-0.2,2.3,0.4v10.2c-3.4,6.1-4.4,12.9-4.9,19.7
			c-0.1,1.5-0.1,3.3-2,3.8c-4.7,1.4-5.7,5.8-6.6,9.5c-0.9,3.7-1.9,6.7-5.2,8.7c-0.9,0.5-1.5,1.3-1.9,2.2c-0.4,0.6-0.3,1.4,0.1,2
			c0.4,0.4,1.1,0.2,1.6,0c1.7-0.8,3.6-0.9,5.3-0.1c2.2,0.8,3.8-0.5,5.2-1.9c2.6-2.6,5.4-2.9,8.2-0.4V533c-3.4,0.6-6.7,2.2-9.3,4.5
			c-0.6,0.6-1.4,0.9-2.3,0.9c-2.6-0.1-5.1,0.8-7,2.6c-7.4,6.2-16.9,7.7-25.2,11.8c-3.2,0.7-6.6,0.6-9.3,3c-2.2,0.5-4.2,1.7-6.6,1.3
			c-0.9-1.3-1.2-3-3.5-3c-2.3,0-1.7-1.5-0.9-3.1c-2.6,6.2-9.4,6-13.8,9.3c-0.5,0.7-1.4,0.8-2,0.3
			C1370.1,560.6,1370,560.5,1369.9,560.4z"/>
		<path class="st3" d="M1450.2,521.2c-0.8,0-1.7-0.2-2.5-0.4c-2.1-0.9-3.6-0.1-4.9,1.4c-0.3,0.3-0.6,0.6-0.8,1c-0.6,1.4-2,1.4-3.1,2
			s-2.1-0.1-3.1-0.7c-1.2-0.9-2.8-0.8-3.9,0.2c-0.4,0.4-0.8,0.8-1.3,1.1c-0.7,0.5-1.6,0.3-2-0.3c0,0,0-0.1-0.1-0.1
			c-0.1-0.1-0.2-0.3-0.2-0.5c-0.8-2.4,0.2-5,2.5-6.2c2.1-0.9,3.7-2.7,4.4-4.9c0.5-0.7,0.6-1.6,0.3-2.4c-0.8-1.6,0.1-2.8,0.9-3.9
			c1-1.1,1.7-2.5,2.1-4c0.4-2.1,2.1-3.1,4.3-3.1c0.9,0,1.3-0.2,1.4-1.1c0.1-0.4,0.1-0.9,0.1-1.3c-0.2-3.1,0.3-6.2,1.3-9.2
			c0.2-0.4,0.3-0.8,0.3-1.2c-0.4-2.6,0-4.9,2.2-6.7c0.4-0.4,0.4-1.3,0.5-2s0.9-1,1.6-1.1V521.2z"/>
		<path class="st7" d="M1405.9,552c1.8-0.5,3.5-1.2,5.1-2c3.8-2.1,7.9-3.2,11.9-4.5c1.4-0.3,2.6-1,3.6-2c1.3-1.5,2.9-2.7,4.8-3.4
			c0.9-0.4,1.8-0.9,2.6-1.5c1.1-0.9,2.5-1.3,3.9-0.9c1.8,0.4,2.3-0.1,3.1-2.2c0.3-0.8,0.8-1.2,1.5-0.4c0.7,0.8,1.5,0.6,1.7-0.1
			c0.9-2.9,2.8-2.6,5-1.8c0.3,0.1,0.5,0.1,0.8,0.1v11.9c-0.9,0.9-2.2,1.4-3.5,1.2c-4.9-0.7-9.7,1.5-14.7-0.1c-2.2-0.7-4,0.8-5.7,2.2
			c1.8,2.3,4.1,1.7,6.4,1.3s4.6-0.5,5.5,2.4c-1.5,1.2-3.2,0.6-4.9,0.7c-2,0-3.9,0.6-5.5,1.8c-3.7,2.1-7.8,2.3-11.9,2.4
			c-0.4-0.1-0.7-0.4-1-0.7c0.5-1.6-0.4-5,2.8-4.7c-2.5,1.2-5.4,3.1-8.9,2.3C1407.8,553.5,1405.9,554.3,1405.9,552z"/>
		<path class="st8" d="M1438.3,552c-1.7-1.4-3.5-2.3-5.8-1.2c-1.1,0.3-2.2,0.4-3.3,0.2c-0.9,0-2.5,0.8-1.9-1.4
			c-0.8-0.6-2,0.1-2.7-0.6c1.4-2.3,3.7-4,6.4-4.5c0.7-0.1,1.4-0.3,1.9,0.3c1.2,1.5,2.8,1.1,4.3,0.9s2.7-0.6,4.1-0.9
			c0.4-0.1,1-0.4,1.2-0.2c2.5,2.1,5.2-0.3,7.7,0.5v6.8c-2-0.2-4.1-0.1-6.1-0.4S1440.2,551.8,1438.3,552z"/>
		<path class="st2" d="M1374.2,329.2h-0.8c-2.5,0.3-3.7,1.6-3,3.9c0.6,1.9,0.5,3.9-0.3,5.7c-0.2,0.5-0.3,1.1-0.5,1.6
			c-1.6,3.3-2.4,6.9-2.1,10.6c0,1-0.3,2-0.9,2.8c1.8,2.3-0.4,4.1-0.8,6.1c-0.1,0.4-0.3,0.8-0.5,1.1c-0.3,0.6-0.6,1.1-0.9,1.6
			c-3.3,5.1-4,11.3-7.1,16.7c-2.3,4.2-5,8.1-8.2,11.6c-2.6,2.9-5.7,5.5-7.9,8.8c-0.4,0.6-1,1.5-2,0.7c-0.5-0.4-0.2-1.1,0-1.6
			c-0.1-0.2,0-0.4,0.2-0.6c1-1.3-0.1-3,0.8-4.3l0.2-1c0.5-0.7,0-1.6,0.5-2.3c0.1-1.3,0.4-2.5,1-3.6c1.2-0.8-0.6-3.2,1.5-3.4
			c1.1-0.1,2,0.8,2.1,1.9c0,0,0,0,0,0v0.3c3.3-4.8,2.2-9.7,0.5-15.1c-2.1-6.9-2.4-14.4-2.9-21.5c-0.4-6.2,0.6-12.3,3.1-18
			c0.4-1.1,0.2-2.3-0.6-3.2c-2.2-2.9-2.8-6.7-1.5-10.1c0.4-0.9,0.4-2,0.1-2.9c-1.1-3.1,0.6-4.9,3.1-6.1c1.8-0.8,3-1.7,3-4.1
			s-1.6-2.6-3.3-2.8c-0.6-0.1-1-0.5-1.2-1c-1.1-2,1.3-8.8,3.3-10c2.6-1.5,5.4-2.3,8.4-2.4c4.1,0,8,1.2,12,2.1
			c4.5,1.1,6.1,4.5,7.1,8.5c1.7,4.6,4.5,8.8,6.2,13.5c0.1,1.7,0.8,3.3,1.9,4.5c0.2,0.3,0.4,0.6,0.5,1c0.3,0.9,0.4,1.9,0.5,2.8
			c0,0.4-0.1,0.7-0.2,1.1C1381.7,324.8,1377.4,326.1,1374.2,329.2z"/>
		<path class="st9" d="M1357.2,290c-1.2,0-2.4,1.1-3.7,0.4c-0.4-0.1-0.8,0-1.1,0.3c-1,1.8-2.7,1.9-4.4,2.1c-0.5,0.1-0.9,0.6-0.9,1.1
			v0.1c0.8,1.7,0.5,3.7-0.8,5.1c-0.1,0.2-0.2,0.5-0.2,0.8c-0.1,0.6,0.1,1.2,0.5,1.6c0.5,0.4,1.1,0.4,1.6,0.2
			c0.8-0.3,1.3-1.3,2.2-0.9c1.2,0.5,0.7,1.7,0.7,2.6c-0.1,1.3,0.1,2.6,0.4,3.8c0.3,0.6,0,1.4-0.6,1.7c-0.1,0-0.1,0-0.2,0.1
			c-0.9,0.4-1.8,0.7-2.8,1.1c-1.2,0.4-2.3,1.2-3.1,2.2c-0.5,0.8-0.8,1.6-0.1,2.3c1.1,0.8,1.3,2.3,0.5,3.4c0,0,0,0,0,0l0,0
			c-0.5,0.7-0.8,1.5-0.9,2.4c-0.5,2.2,0,4.6,1.2,6.5c0.5,0.7,1,1.4,1.4,2.1c1.5,2.3,1.5,2.3-0.8,4.2c-0.7,0.6-1.3,1.3-1,2.2
			c1.5,3.5-0.2,6.6-0.8,9.9c-0.3,0.8-0.5,1.6-0.7,2.4c-0.6,2.2-0.4,4.5,0.6,6.6c0.6,1.2,1.1,2.6,1.7,3.9c0.5,1.2,0.6,2.5,0.1,3.7
			c-1.2,3.1-0.4,6.2,0.6,9c1,2.5,1.5,5.1,2.4,7.7c0.4,0.8,0.4,1.7-0.1,2.5c-1.5,1.9-2.2,4.3-3.1,6.7c-1.2-1-1.1-2.8-2.8-3.1
			c-1,0.6-0.2,2.3-1.4,2.8c0-1.6,0.2-3.1,0.6-4.6c0.7-3.5,0.6-7.1-0.2-10.5c-0.7-2.6-1-5.3-0.9-8c0-1.7-0.2-3.4-0.6-5
			c-0.6-2.6-0.8-5.3-0.5-8c0.3-3.2,0.5-6.5,0.7-9.7c0.1-2.4-0.3-4.8-1.3-7c-1.7-4.1-2.4-8.5-2.1-12.9c0.3-0.2,0.7-0.2,1,0.1l0,0
			c0.4,0.4,0.5,1,1,1.3c-0.4-0.7-0.9-1.3-1.4-1.9c-1.2-4.7-0.3-9.5-0.4-14.3c0.5-3.1,2.5-5.7,2.5-9.2s-1.3-5.1-4.6-5.6
			c-0.8-0.1-1.6-0.5-2.2-1.1l0,0c-0.6-1.4-0.7-2.9-1.5-4.2c-1.8-1.8-2.2-4.6-1-6.9c2.4,1.3,4.9,2.2,7.1,3.9c0.2,0.2,0.4,0.3,0.7,0.4
			c0.8,0.4,1.6,0.6,2.4,0.8c4.4,0.4,8.6,2.9,13.3,1.5c0.5-0.2,1.2-0.6,1.6-0.4c2.5,0.9,5.1,0.3,7.6,1c1.6,0.5,3.3,0.7,5,0.5
			c2.7-0.1,5.4,0.2,8,1.1c2.5,0.7,4.7,2,6.5,3.8c2,1.8,4,3.5,6.9,3.9c1.4,0.1,2.5,1.4,2.4,2.8c0,0,0,0.1,0,0.1v0.1
			c-0.1,0.9,0.5,1.7,1.3,1.8c0.2,0,0.3,0,0.5,0c1.3-0.1,2.5,0.2,3.7,0.7c0.7,0.4,1.6,0.8,1.8,1.7c0.6,2.4,2.5,4.1,3.6,6.2
			c0.1,2.2,0.3,4.5,0.6,6.7c0.3,2.2,0,4.3-3.1,3.3c-1.6-0.5-1.7,1.1-2.7,1.5c-3.1,1.3-6.5,0-9.8,0.8c-2.5,0.6-2-2.7-2.7-4.3
			c-0.2-0.6-0.3-1.1-0.4-1.7c-0.1-1-0.4-2-0.9-2.8c-3-4.7-6.8-9.1-6.4-15.3c0.1-0.4,0.5-0.7,0.7-1c0.5-1.1-0.5-0.5-0.7-0.4
			c-1.7,0.7-3.4,1.6-3-1.7c0.2-1.7-1.5-1.9-2.6-2.4c-6.4-2.8-13.3-3.3-20.1-3.8C1353.9,288.8,1356,287.7,1357.2,290z"/>
		<path class="st7" d="M1390.4,557c2.1-1,4.4-1.6,6.8-1.8c1.2-0.4,2.7-1.2,3.2,0.4c0.4,1.3-1.4,1.4-2.2,2.1c-3.1,2.4-7,3.6-10.1,5.9
			c7.3-3.3,15.5-4.1,22.7-7.7c1.4-0.9,3.2-0.8,4.4,0.3l0,0c-0.5,1.6,3.4,1.1,1.6,3.3l-1.6,0.3c-9.4,3.1-18.6,6.4-27.4,11
			c-0.4,0.2-0.8,0.4-1.2,0.5c-6.9,0.2-11.4,4.5-15.2,9.5c-3.6,4.8-9.3,7.3-12.9,12.1c-1.3,1.7-2.7,3.3-4.3,4.7
			c-0.8,0.7-1.8,1.9-2.9,0.9c-1.3-1.1-0.5-2.3,0.5-3.3c0.3-0.3,0.5-0.7,0.2-0.5c-2.7,3.3-4.3,7.4-4.7,11.6
			c-0.8,7.5-2.9,14.7-6.3,21.4l0,0c-0.5,0.5-0.3,1.2-0.8,1.7c-0.1,0.2-0.1,0.5-0.1,0.7c-0.6,0.8,0,2-0.8,2.7l0,0
			c-0.7,0.7,0,1.9-0.8,2.6l0,0c-0.6,0.8-0.5,2.5-2.1,1.9c-1.1-0.4-1-1.6-0.8-2.6c0.7-3.8,3.3-6.8,4.2-10.5c0.5-0.7,0.7-1.6,1.2-2.3
			c-0.8,0.3-0.2,1.3-0.9,1.6c-1.5,1.5,0,5.5-4.1,4.9c0-0.3,0-0.5,0.1-0.8c1.9-4,3.3-8.2,4.1-12.6c2.4-3.7,3.3-8,4.1-12.3
			c1.2-6,4.2-11,7.9-15.6c0.2-0.2,0.4-0.4,0.7-0.5c4.5,1.2,6.3-1.7,8.4-4.8c1.8-2.7,5.1-4.2,7.2-7c-1.4,0.1-3.2,1.2-3.2-1.5
			c0.4-0.7,0.8-1.4,1.2-2c0.3-0.3,0.6-0.6,0.8-0.9l0,0c1.4-2.9,4.1-4.4,6.4-6.5C1378.7,559.9,1384.6,558.8,1390.4,557z"/>
		<path class="st10" d="M1339.1,399l0.6,1.5c1.7-3.8,5-6,7.7-8.8c4.7-4.5,8.4-10,10.9-16c1-2.5,2.2-4.9,2.6-7.6
			c0.5-2.4,1.6-4.6,3.2-6.4l0.8-0.9l0,0c1.6-0.5,3.6-1.5,4.3,0.6c0.6,1.8-1.2,2.9-2.9,3.6c-1.9,0.8-3.1,2-1.6,4.2
			c1.3,1.9,0,2.8-1.6,3.5c-0.9,1.3-1.4,2.9-3.1,3.9c-1.2,0.7-1.9,2.4-2.7,3.5c0.2,0.5,0.4,0.6,0.7,0.4c1.6-0.6,2.2-2.9,4.7-2.3
			c1.7,0.4,3.5-0.7,5.3,0.2c1,0.3,2,0.4,3,0.4c-0.1,0.4-0.3,0.8-0.6,1.2c-2.3,2-5.2,2.9-7.8,4.2c-0.4,0.2-0.8,0.3-1.2,0.1
			c-2.8-1.4-4.8,0.5-6.3,2c-2.9,2.8-6.2,5.3-8.4,8.9c-0.8,1-1.6,2-2.5,2.9c-0.7,0.9-1.5,1.7-1.2,3c0.2,0.5,0,1.1-0.5,1.4
			c-0.9,0.7-1.7,1.5-2.3,2.4c-0.7,1-1.1,2.3-1,3.5c-0.1,0.8,0.4,1.5,0.9,1.3c1.3-0.4,2.7-0.9,4-1.4c0.9-0.3,0.1-0.8,0.2-1.3
			c0-0.7,0.6-1.2,1.3-1.2c0,0,0,0,0.1,0c0.3,0,0.5,0.1,0.7,0.3c0.4,0.3,0.2,1.1,0.9,1.3c0.7,0.2,2-0.2,1.8,1.1
			c-0.1,0.9-1.3,1.2-2,1.3c-3.6,0.5-6.6,2.5-9.9,3.7c-1.1,0.4-1.5,1.7-2.8,1.8c1.9-3.4,2.3-7.4,3.9-10.9c0.4-0.8,0.1-1.9,0.2-2.9
			C1338.3,400.6,1338.5,399.7,1339.1,399z"/>
		<path class="st11" d="M1336,628.6c1.3-0.3,2.3-1.2,2.6-2.5c0.2-1,0.7-1.9,1.5-2.5l0,0c-0.2,3-1.4,5.7-2.4,8.5
			c-0.5,1.3-1,2.6-1.4,4c0,0.3,0,0.5,0.2,0.7c0.4,0.3,0.7,0,1-0.4s0.6-0.6,0.9-0.9c0.7,1.7,0.3,3.7-1,5c-1.8,2.3-3.7,4.5-5.8,6.6
			c-0.7,0.7-1.6,1.2-2.6,1.2c0.7-3.9,1.9-7.6,3.5-11.2C1333.9,634.4,1334.4,631.3,1336,628.6z"/>
		<path class="st12" d="M1333.3,290.9c1.5,0,3.1,0.2,4.6,0.5c2.6,0.5,3.5,2.4,3.6,4.5c0.1,1-0.6,2,0,3.3c0.5,1.1-0.7,2.3-1.2,3.4
			s-1.1,2.6-1.6,3.9h-0.5c-1.2-0.2-2.3-0.8-3.2-1.7c-0.1-0.4-0.1-0.8-0.1-1.2c1.3-3.8,0.5-7.4-1.2-11
			C1333.5,292.1,1333.4,291.5,1333.3,290.9z"/>
		<path class="st12" d="M1338.6,306.4c0.2,3.4-0.1,6.8-0.8,10.2c0.4,1.6,0.6,3.3,0.5,4.9h-0.8l-1-8.5c0.7-2.3-1.2-5.2,1.8-6.9
			L1338.6,306.4z"/>
		<path class="st13" d="M1338.3,306.1c-0.6,0.6-0.9,1.4-0.8,2.2c0,1.6-0.3,3.2-1,4.7c-1.3-2.6-1.4-5.5-1.5-8.4
			c0.5,0.2,1.1,0.3,1.6,0.3C1337.6,304.7,1338,305.3,1338.3,306.1z"/>
		<path class="st12" d="M1331.7,286.6c1.9,0.9,2.3,2.3,1.5,4.2C1331.9,289.7,1331.7,288.2,1331.7,286.6z"/>
		<path class="st10" d="M1340.1,394.1c0.2,1.5,0.6,3.1-0.8,4.3C1339.1,396.9,1339.3,395.4,1340.1,394.1z"/>
		<path class="st10" d="M1340.8,390.8c0.4,0.8,0.2,1.8-0.5,2.3C1340,392.3,1340.2,391.4,1340.8,390.8z"/>
		<path class="st11" d="M1329,648.3c0.1,0.7-0.2,1.4-0.8,1.8C1328,649.4,1328.3,648.6,1329,648.3z"/>
		<path class="st4" d="M1398.1,320.8c0.3-0.6,0.5-1.3,0.4-2c-0.2-0.4,0-1,0.4-1.2c0.1,0,0.1-0.1,0.2-0.1c0.6-0.1,1.2,0.1,1.5,0.6
			c0.2,0.4,0.5,0.7,0.8,1c0.4,0.4,1,0.3,1.4-0.1c0.1-0.1,0.2-0.3,0.2-0.5c0.1-0.6,0.2-1.1,0.2-1.7c-0.1-0.6-0.3-1.1-0.5-1.6
			c-0.9-1.8-0.6-4,0.6-5.6c0.3,0.5,0.7,0.9,1.1,1.2c2.7,2.1,3.2,5.4,4.5,8.3c0.3,0.7,0.1,1.4-0.4,1.9c-0.8,1-2,1.5-3.3,1.4
			c-1.5-0.1-2.8,0.1-3.5,1.7c-1.4,0.5-2.1-0.5-2.9-1.2C1398.1,322.5,1397.8,321.6,1398.1,320.8z"/>
		<path class="st9" d="M1399,322.4l2.6,1.7l0,0c0.3,0.3,0.6,0.6,0.9,0.8c1,0.4,1.8,0.9,2.5,1.7c-0.3,0.6-0.7,1.3-1.5,1.2
			c-1-0.1-2-0.2-2.9-0.5c-1.3-0.5-2.7-0.5-4,0c-1.6,0.5-3.4,0.4-5-0.1c-1-0.2-1.9-0.4-2.9-0.5c-0.5-0.3-1-0.4-1.6-0.4
			c-1.1-0.2-3,0.9-3.3-0.7c-0.3-1.6,1.7-2.1,3-2.2C1390.8,323,1394.8,322,1399,322.4z"/>
		<path class="st4" d="M1402.4,325l-0.9-0.8L1402.4,325z"/>
		<path class="st14" d="M1390.4,557c0.4,2.1,0,2.7-1.5,2.1c-2.2-0.8-3.9,0-5.5,1.1c-0.9,0.9-2.3,1.1-3.5,0.6
			c-0.4-0.2-0.9-0.1-1.1,0.3v0.1c-1,2.9-3.6,3.7-6,4.8c-0.6,0.3-1.1,0.8-1.8,1.2c-0.9,0.3-1.6,1.1-1.7,2.1c-0.1,0.5-1.3,0.9-2,1.4
			c-0.2-2.7,0.1-5.4,0.9-8c0.2-1,0.8-1.8,1.7-2.3c0.7,0.1,1.5-0.2,1.9-0.8c0.7-1.2,2-2.1,3.4-2.2c2.8-0.3,4.7-2.5,7.4-3.1
			c0.3-0.2,0.6-0.5,0.7-0.9c1-3,1-3,3.5-3.2h1.3c0.3,0.1,0.5,0.2,0.8,0.3c-0.1,1.8-2.3,1.4-2.8,2.7c1.3,0.9,2.4-0.3,3.6-0.2
			c0.6,0,1.1,0.5,1.1,1.1C1390.7,555,1390.6,556,1390.4,557z"/>
		<path class="st15" d="M1365.7,573.3c0.4,1.4,0.8,1.7,1.4,1.2s1.6-1.2,2.4-1.7c0.3-0.1,0.5,0,0.7,0.2c0.2,0.2,0.3,0.4,0.3,0.7
			c-0.1,0.5-0.4,1-0.7,1.5c-0.9,1.3-2.7,1.9-3.4,3.1c-0.6,1.2-1.7,2.1-3,2.5c-0.7,0.2-1.2,0.8-1.3,1.5c-0.1,1.4-1.9,1.6-2.1,3
			s-1.4,2-2.1,3.1c-0.9,1.3-1.7,1.3-2.4-0.2s-1.6-1.4-2.7-1.4c0.5-0.8,1.6-1.1,1.8-2.2c0.2-1,0.8-1.9,1.7-2.3c2.4-1.2,3.6-3.4,5-5.5
			c0.9-1.5,2.1-2.7,3.5-3.6c0.2-0.2,0.5-0.3,0.8-0.1C1365.7,573.2,1365.7,573.2,1365.7,573.3z"/>
		<path class="st14" d="M1365.7,573.3h-0.9c0.3-0.8,1-1.4,1.8-1.7C1366.7,572.3,1366.3,573,1365.7,573.3z"/>
		<path class="st14" d="M1367.4,570.7c-0.1,0.4-0.4,0.8-0.8,0.9C1366.6,571.1,1366.9,570.7,1367.4,570.7z"/>
		<path class="st3" d="M1413.2,372c-0.1,0.4-0.3,0.7-0.6,1c-1.4,1.7-3.1,3-5,3.9c-5.5,2.6-11.2,4.6-17.1,6c-2.1,0.5-4.2,0.8-6.3,0.9
			c-2.2,0.1-4.5,0.7-6.5,1.6c-2.1,0.8-4.2,1.5-6.4,2.3c-0.9,0.4-2,0.4-2.9-0.1c-0.8-0.4-1-1.4-0.6-2.2c0,0,0,0,0,0l0,0
			c1.3-1.6,3.2-2.5,5.2-2.4c3.9-0.3,7.8-1.1,11.6-2.3c4.6,0.3,7.9-2.6,11.6-4.6c2.4-1.3,4.7-2.6,7-3.9c2-1.1,4.3-1.3,6.5-2
			c0.8-0.2,1.7-0.1,2.5,0.1C1412.9,370.4,1413.3,370.8,1413.2,372z"/>
		<path class="st16" d="M1363.1,372.7l1-1.4c0.7-1,0.7-1.1-0.6-1.4c-0.9-0.2-1.3-0.6-1.1-1.4c0.3-1.1,0.7-2.1,1.2-3.1
			c0.5-1,1.1-1.8,2.6-1.5s1.9-1,2.3-2c0.2-0.5-0.1-1-0.5-0.8c-1,0.5-2.2,0.4-3.1-0.3c-0.1-1,0.2-2,0.7-2.8c0.6-1.2,1-2.6,1-4
			c1.7,0.5,3,2,4.9,2c1.7,0,1.2,2.1,2.5,2.4c1.6,0.4,0.9,1.8,1.1,2.8c0.1,0.3,0.2,0.5,0.4,0.7c1.1-0.1,1.9-1.3,3.1-1.1
			c0.3,0,0.5,0.1,0.8,0.2c0.1,0.2,0.2,0.5,0.1,0.7c-1,1.2-1.5,2.7-1.3,4.2c0.1,0.9-1.7,0.5-1.6,1.5c0.1,0.8-0.1,1.7-0.7,2.3
			l-0.3,0.3l-0.3,0.3c-2.6,0.6-4.1,2.8-6.1,4.4c-1.2,0.9-2,0.5-2.6-1.2c0.4-2.3,3.7-2.7,3.5-5.3c-1-0.4-1.6,0.2-2,1
			c-0.1,0.5-0.4,0.9-0.8,1.2c-0.9,0.4-0.3,0.9-0.1,1.3c0.1,0.7-0.1,1.3-0.6,1.8c-0.4,0.2-0.8,0.4-1.1,0.7c-1,0.8-1.4,0.6-1.6-0.6
			C1363.8,373.3,1363.4,373,1363.1,372.7z"/>
		<path class="st3" d="M1420.3,391.7c0.4,2.1-0.7,3.8-2.5,5.1c-0.8,0.7-1.9,0.7-2.7,0c-1.4-1.4-3-1.7-4.9-2.1
			c-1.8-0.5-3.6-0.5-5.4,0c-1.8,0.6-3.5-0.6-5.3-1.1c-0.3-0.1-0.4-0.7-0.1-1.1c0.5-1,1.6-1.7,2.7-1.8c1.4,0,2.8,0,4.2-0.1
			c3.1-0.2,6.2-0.4,8.9-2.1c0.4-0.2,0.8-0.3,1.2-0.4c2.8-1,3.6-0.5,3.7,2.5C1420.3,390.8,1420.3,391.1,1420.3,391.7z"/>
		<path class="st3" d="M1435.9,371c1.5-1.4,2.9-2.7,4.3-4.1c0.4-0.4,0.8-0.8,1.5-0.6c0.7,0.2,1,1,1.2,1.6c0.1,0.2,0.2,0.5,0.1,0.8
			c-0.6,3.6-1.1,7.2-1.9,10.8c-0.4,1.7-0.4,3,1.2,4c0.6,0.3,0.8,1,0.6,1.6c0,0,0,0.1-0.1,0.1c0,0.1,0,0.1-0.1,0.1l0,0
			c-0.5,0.9-1.7,1.2-2.6,0.7c-0.6-0.4-1.1-0.9-1.6-1.4c-1.3-1.5-2.8-2.8-4.5-3.8c-0.5-0.3-0.8-0.8-0.7-1.4c0.1-0.7,0.7-1.3,1.4-1.4
			c0.8-0.1,1.7-0.1,2.5,0.1c0.7,0.1,1.3-0.3,1.5-0.9c0.1-0.3,0-0.7-0.2-1C1437.8,374.5,1436.8,372.8,1435.9,371z"/>
		<path class="st17" d="M1399,322.4c-2.7,1.2-5.6,1.8-8.5,1.7c-2.1,0-4.2,0-6,1.3c1.3,1,3.2-0.4,4.3,1.2c-1.5-0.1-3.1,0.2-4.5,0.8
			c-0.5,0.1-1.5,0.1-1.6-0.1c-1.1-2.9-2.4-0.8-3.4,0c-1.1,0.9-2,2-2.7,3.2c-0.6,1.2-1.5,2.1-2.7,2.6c-0.3,0.1-0.6,0.1-0.8-0.1
			c-0.2-0.2-0.3-0.4-0.3-0.7c0.4-1,0.8-2.1,1.3-3.1c1.5-3.2,4.6-5.5,8.1-6c1.3-0.1,2.5-0.7,3.2-1.8c0-1.4-0.6-3,0.8-4.2
			c1,0.8,0.7,2,0.9,3.1c0,0.6,0.6,1.1,1.2,1.1c0.4,0,0.7-0.2,0.9-0.5c0.3-0.4,0.7-0.8,1.1-1.2c0.4-0.4,1-0.4,1.4-0.1l0.1,0.1
			c1.1,1.3,2.5,1.1,3.8,0.8c0.8-0.2,1.7-0.1,2.4,0.3L1399,322.4z"/>
		<path class="st3" d="M1426.7,367.6h1.7c1-0.1,2,0.5,2.2,1.5c0.2,0.7,0.6,1.3,1.1,1.7c1.6,1.5,1.4,2.2,0.2,4.1
			c-0.5,1-1.4,1.8-2.4,2.3c-1.6,0.5-2.9,1.8-3.4,3.4c-0.1,0.1-0.1,0.2-0.2,0.3c-0.5,0.7-1.4,1-2.2,0.8c-0.7-0.2-0.9-1.3-0.3-2.2
			c1.3-2,1.9-4.3,3.9-5.9c0.7-0.7,1.2-1.6,1.4-2.6c0.3-0.8-0.1-1.7-0.8-2.2c-0.5-0.3-1.1-0.3-1.6,0.1c-1.7,0.9-3.4,1.9-5.1,2.8
			c-0.7,0.5-1.5,0.8-2.4,0.7c-0.7-0.1-1.3-0.6-1.5-1.3c-0.2-0.5,0.1-1.1,0.6-1.4C1420.6,368.3,1423.6,367.6,1426.7,367.6z"/>
		<path class="st2" d="M1419.4,332.9c-0.3,0.4-0.4,0.9-0.7,1.1c-0.4,0.2-0.8,0.2-1.2,0.1c-1.6-0.9-2.9-2.1-4.5-2.9s-1.4-2.8-0.4-4
			l0.9-0.9c1.3-1.1,3.3-1,4.4,0.3c0.3,0.3,0.5,0.7,0.6,1.1c0,0.1,0.1,0.3,0.1,0.4C1418.5,329.7,1418.8,331.4,1419.4,332.9z"/>
		<path class="st2" d="M1424.2,342.3c-0.2-0.2-0.4-0.4-0.4-0.6c0-0.9,0.5-1.3,1.3-1.2c0.3,0.1,0.4,0.2,0.5,0.5
			C1425.5,341.7,1424.9,342.2,1424.2,342.3z"/>
		<path class="st3" d="M1334.9,424.5c-0.3-0.2-0.3-0.4,0-0.7c0.1-0.1,0.2-0.2,0.4-0.2c0.3,0,0.5,0.2,0.3,0.5
			C1335.4,424.4,1335.1,424.4,1334.9,424.5z"/>
		<path class="st11" d="M1340.9,627.8c0.8-3.7,0.9-7.5,3-10.9c0.2-0.5,0.3-1.1,0.3-1.6c0.3-2.7,1-5.3,2.1-7.7c0.4-1,0.7-1.9-0.2-2.7
			c-0.6-0.4-0.8-1.3-0.4-1.9c1.1-2.1,1.7-4.7,3.4-6.3c1.7-1.6,3.1-4,5.2-5.3c0.9,0.6,0.2,1,0,1.4c-1,1.5-2.1,3-3.1,4.6
			c-0.1,0.2,0.1,0.6,0.2,0.7c0.2,0.1,0.5,0.1,0.7,0c0.9-0.7,1.7-1.5,2.4-2.4c2.4-3.4,5.8-5.8,8.3-8.9c0.3-0.5,0.8-0.9,1.3-1.1
			c2.6-0.3,3.8-2.2,4.9-4.2c0.4-0.6,0.9-1.1,1.5-1.5c0.8-0.7,1.8-1.3,2-2.6c0.2-1,1-1.8,2-2.1c1.5-0.5,2.9-1.2,3.3-2.9
			c0.2-0.4,0.5-0.6,0.9-0.7c1.9-0.4,3.9-0.8,5.8-1c1-0.1,2,0,2.8-0.7c3.6-2.9,7.9-4.2,12.3-5.3c0.6,0,1.1-0.2,1.6-0.5
			c1.7-2.5,4.6-2.6,7.1-3.3c2.2-0.7,4.4-1,6.7-1c-1.3,0.9-2.1,2.3-3.6,2.9c-1,0.4-0.7,0.8-0.4,1.6s-0.3,1-0.8,1.4
			c-1.9,1.7-4.1,3.1-6.4,4.1c-1.8,0.7-3.7,1.3-5.5,2.1c-1.9,0.9-3.7,2.1-5.2,3.5c-0.5,0.5-0.9,1.2-1.6,1.2c-2.7-0.2-4.2,1.5-5.5,3.4
			s-2.6,3.4-5.2,3.9c-1.8,0.3-3.5,1.8-5.1,2.9c-1.8,1.2-3,3.1-3.2,5.3c-0.1,1.6-1,3-2.4,3.8c-2.1,1.3-3,3.8-4.6,5.5
			c-0.7,0.8-0.1,1.6,0,2.4c0.3,2-0.8,3.1-2.7,2.5c-1.3-0.6-2.8-0.4-3.9,0.6c-0.5,0.5-1.2,0.8-1.9,1c-1.9,0.3-3.4,1.6-4,3.4
			c-0.3,0.8-0.8,1.5-1.6,1.9c-1.7,0.8-2.3,2.4-2.8,4s-1.1,3.2-2.9,4c-1,0.5-1.2,1.5-1.5,2.4C1343.6,625.4,1342.8,627,1340.9,627.8z"
			/>
		<path class="st1" d="M1398.2,616.7c0,0.4-0.1,0.8-0.1,1.3c-0.1,0.7-0.7,1.3-1.4,1.3c-0.3,0.1-0.5,0.1-0.8,0
			c-2.6-0.9-5.3-0.9-7.9-0.1c-1.6,0.4-2.9-1.5-2.4-3.1c0.5-1.2,1.1-2.3,1.7-3.4c0.3-0.7,1.1-1.1,1.8-0.9c0.1,0,0.2,0.1,0.3,0.2
			c1.5,0.9,3.3,1,4.8,0.1c1.2-0.7,2.2,0.2,3,1C1397.9,614.2,1398.3,615.4,1398.2,616.7z"/>
		<path class="st18" d="M1416.7,559.5c0.1-0.8-0.4-1.5-1.1-1.6c0,0,0,0-0.1,0h-0.2c-1.4-0.3-1.3-0.3-0.2-1.7l10.3-1.4l2.5-0.3
			c-0.5,1.2-1.6,2-2.9,2.2C1422.2,557.3,1419.6,558.8,1416.7,559.5z"/>
		<path class="st1" d="M1393.1,626.7c-1.1,0.4-2.2,0.4-3.3,0.1c-0.5-0.1-0.9-0.6-0.8-1.2c0,0,0,0,0,0l0,0c0-0.4,0.4-0.8,0.8-0.9
			C1391.4,624.2,1392,624.6,1393.1,626.7z"/>
		<path class="st11" d="M1356.7,618.8c0.8-2.2,1.2-2.6,2.7-3.5c0.1-0.1,0.3-0.1,0.4,0c0.2,0.1,0.3,0.3,0.3,0.5
			c0,0.1-0.1,0.1-0.1,0.2c-0.7,0.7-1.3,1.4-2,2.1C1357.5,618.4,1357.1,618.6,1356.7,618.8z"/>
		<path class="st11" d="M1338.3,635.5c0-0.9-0.2-2,0.8-2.6C1339.2,633.9,1339.4,634.9,1338.3,635.5z"/>
		<path class="st11" d="M1339.2,632.9c-0.2-1,0.1-2,0.8-2.7C1340.1,631.3,1340.3,632.3,1339.2,632.9z"/>
		<path class="st1" d="M1379.6,625.4c0.1,0.3-0.1,0.5-0.4,0.4c-0.3-0.1-0.3-0.4-0.4-0.6l0.2-0.3
			C1379.2,625.1,1379.4,625.3,1379.6,625.4z"/>
		<path class="st11" d="M1340.2,629.6c-0.1-0.7,0.2-1.4,0.8-1.7C1341.1,628.6,1340.8,629.2,1340.2,629.6z"/>
		<path class="st18" d="M1415.2,556.2c-2-0.2-4,0.3-5.7,1.3c-3.5,1.8-7.2,3.1-11.1,3.9c-2.5,0.6-4.8,1.6-7.2,2.4l-5.1,1.7
			c0-1.6,2.2-1.7,1.7-3.2c-0.2-0.6,0.6-0.8,1.1-1c0.9-0.2,1.9-0.5,2.8-0.8c0.9-0.3,1.9-0.4,2.3-1c1.5-2.2,3.8-2.7,6.1-3.5
			c-0.9-1-1.9-0.5-2.8-0.8c0.7-1.3,2.2-1.6,3.2-2.6c0.5-0.5,1.3-0.6,1.9-0.3c1.3,0.7,2.4,0,3.6-0.4c0.3,0.2,0.6,0.7,1,0.7
			c2.2,0,4.5,0,6.7-0.1c0.6,0,1.1-0.3,1.3-0.8c0.4-1.2,1-1.5,2.2-1c1.2,0.3,2.5,0.5,3.7,0.7c-1.3,0.2-2.6,0.5-3.8,0.9
			c-0.5,0.2-1,0.7-0.2,1.2c0.3,0.2,1.3,0.2,0.4,1C1416.6,555.2,1415.6,555.2,1415.2,556.2z"/>
		<path class="st14" d="M1393.3,547.7l-2.5-0.1c-0.2,0-0.5-0.2-0.5-0.4V547c0-0.1,0-0.3,0.1-0.4c3.2-1.9,6-4.9,10.2-4
			c1.1,0.2,2.8-1.5,3.2,0.5c0.3,1.4-1.7,1.1-2.5,1.7c-0.4,0.3-1.1,0.4-1.4,0.8C1398.1,547.8,1395.7,547.8,1393.3,547.7z"/>
		<path class="st3" d="M1439.5,485.4c-1.6,0-2.8-1.8-2.8-4c0.2-1.2,1.2-2,2.4-1.9c1.9,0.1,3.4,1.7,3.4,3.6l0,0
			C1442.3,484.6,1441.3,485.3,1439.5,485.4z"/>
		<path class="st19" d="M1357.2,290c-0.6-0.6-1.5-0.9-2.3-0.8c-1.5,0.1-3.1,0-4.6-0.3c1.7-0.6,3.2-1.5,5.1-0.8
			c0.7,0.2,1.4,0.2,2.1,0.2c5.6,0.1,11.1,1.3,16.3,3.5c2,0.8,2.1,1,1.6,3.5c-0.1,0.4-0.3,0.9,0.3,0.9c0.4,0,0.8-0.1,1.1-0.4
			c0.5-1.6,1.2-1.6,2.2-0.5c0.2,0.2,0.4,0.4,0.7,0.5c0.6,0.3,1.7,0.6,1.5,1.3c-0.4,1.2-1.4,0.2-2.1,0.2c-0.2,0-0.5,0.3-0.7,0.4
			c-1.2,0.5-0.5,2.9-2.6,2.5c-1.2-1.1-1.8-2.6-1.7-4.2c0-0.9-0.5-1.7-1.3-2c-1.9-1.2-4-2-6.2-2.5
			C1363.5,291.1,1360.4,289.9,1357.2,290z"/>
		<path class="st20" d="M1375.9,300.2c0.7-0.3,0.8-1,0.9-1.7c0.2-1.3,0.2-1.3,1.7-0.9c0.3,0.8,0.6,1.6,0.7,2.4
			c0.1,3.5,2,6.3,3.7,9.1l2.4,3.9c0.7,0.7,0.1,1.8,0.7,2.6l0.2,1.6c-0.3,1.4,0.4,3-0.8,4.2l0,0c-1.1-0.9,0.1-2.4-1-3.3l0,0
			c-1.1-1.3-1.9-2.7-2.5-4.3c-1-2.1-2-4.3-2.9-6.4C1377.9,305.1,1376.9,302.6,1375.9,300.2z"/>
		<path class="st17" d="M1381.9,313.9c0.9,1.4,2.4,2.4,2.5,4.3C1382.7,317.5,1381.7,315.7,1381.9,313.9z"/>
		<path class="st17" d="M1384.4,318.2c1.3,0.8,0.8,2.1,1,3.3C1384,320.7,1384.6,319.3,1384.4,318.2z"/>
		<path class="st16" d="M1364.8,360.8l-0.8,0.9C1364.1,361.3,1364.4,360.9,1364.8,360.8z"/>
		<path class="st2" d="M1338.3,321.5c2.4,1,2.8,1.5,2.4,3.2c0,0.5-0.4,0.9-0.9,0.9c-0.1,0-0.1,0-0.2,0h-0.2c-0.3,0-0.9-0.4-0.9-0.7
			C1338.4,323.8,1338.4,322.6,1338.3,321.5z"/>
		<path class="st2" d="M1344.1,378.1c-0.7-0.5-0.5-1.2-0.4-1.8c0-0.2,0.2-0.4,0.4-0.4c0.1,0,0.1,0,0.2,0.1c0.5,0.2,0.8,0.8,0.6,1.3
			c0,0,0,0,0,0C1344.8,377.7,1344.5,378,1344.1,378.1z"/>
		<path class="st19" d="M1345.5,289.1c-0.3,0-0.5,0-0.8-0.1c-0.1,0-0.2-0.1-0.3-0.2c0.1-0.1,0.2-0.4,0.4-0.4c0.3-0.1,0.5-0.1,0.8,0
			c0.3,0.1,0.5,0.2,0.7,0.4L1345.5,289.1z"/>
		<path class="st17" d="M1386,315.6c-0.8-0.7-0.7-1.7-0.7-2.6C1386.1,313.6,1386.4,314.7,1386,315.6z"/>
		<path class="st11" d="M1340.1,623.6c0.1-0.5,0.1-1,0.2-1.6c0-0.1,0.1-0.2,0.2-0.3c0.1,0.2,0.4,0.4,0.4,0.6
			C1340.9,622.9,1340.6,623.4,1340.1,623.6z"/>
		<path class="st14" d="M1372.5,568.2c0.1-0.2,0.3-0.4,0.5-0.6c0.3-0.2,0.6-0.1,0.6,0.3c0,0.1-0.2,0.2-0.3,0.2
			C1373,568.1,1372.8,568.1,1372.5,568.2z"/>
		<path class="st14" d="M1372.5,568.1c-0.1,0.2-0.3,0.4-0.5,0.6c-0.3,0.2-0.5,0.1-0.6-0.3c0-0.1,0.2-0.2,0.3-0.2
			C1372,568.2,1372.2,568.2,1372.5,568.1z"/>
		<path class="st4" d="M1366.6,373.6l-0.1-2.6c-0.2-0.2-0.1-0.5,0.1-0.7c0,0,0,0,0,0l0.1-0.1l0.8-0.7c0.5-1.5,1.4-2.6,3.2-1.9
			c0.6,0.2,1.5,0.2,1.1,1.2c-0.2,0.8-0.7,1.5-1.4,2C1369.1,371.7,1367.8,372.7,1366.6,373.6L1366.6,373.6z"/>
		<path class="st10" d="M1370.7,367.6c-1.4,0.2-2.1,1.3-3.2,1.9c-0.5-0.3-1-0.8-0.6-1.3c0.6-0.5,1.3-0.9,2-1.2
			C1369.6,366.7,1370.4,366.9,1370.7,367.6z"/>
		<path class="st10" d="M1366.7,370.2l-0.2,0.8C1365.8,370.5,1366.2,370.3,1366.7,370.2z"/>
		<path class="st7" d="M1410,553.7c-0.2,1.1-1.1,1.3-1.7,1.8c-0.8,0.7-1.6,0.1-2.4,0c-0.6,0-1.1,0-1.7,0.2c-0.7,0.1-1.5,0.5-1.5-0.6
			c0-0.7,0.7-1.3,1.4-1.3c0,0,0,0,0,0h0.1C1406.1,553.7,1408,553.7,1410,553.7z"/>
	</g>
</g>
</svg>
