<?xml version="1.0" encoding="utf-8"?>
<!-- Generator: Adobe Illustrator 20.0.0, SVG Export Plug-In . SVG Version: 6.00 Build 0)  -->
<svg version="1.1" id="圖層_1" xmlns="http://www.w3.org/2000/svg" xmlns:xlink="http://www.w3.org/1999/xlink" x="0px" y="0px"
	 viewBox="0 0 1440 120" style="enable-background:new 0 0 1440 120;" xml:space="preserve">
<style type="text/css">
	.st0{clip-path:url(#SVGID_2_);}
	.st1{clip-path:url(#SVGID_2_);fill:#0D0C0A;}
	.st2{clip-path:url(#SVGID_2_);fill:#8E4A19;}
	.st3{clip-path:url(#SVGID_2_);fill:#201811;}
	.st4{clip-path:url(#SVGID_2_);fill:#33201A;}
	.st5{clip-path:url(#SVGID_2_);fill:#3F2B1D;}
	.st6{clip-path:url(#SVGID_2_);fill:#322018;}
	.st7{clip-path:url(#SVGID_2_);fill:#3B2420;}
	.st8{clip-path:url(#SVGID_2_);fill:#3A2314;}
	.st9{clip-path:url(#SVGID_2_);fill:#653212;}
	.st10{clip-path:url(#SVGID_2_);fill:#54311F;}
	.st11{clip-path:url(#SVGID_2_);fill:#5C2E11;}
	.st12{clip-path:url(#SVGID_2_);fill:#974B16;}
	.st13{clip-path:url(#SVGID_2_);fill:#543124;}
	.st14{clip-path:url(#SVGID_2_);fill:#895039;}
	.st15{clip-path:url(#SVGID_2_);fill:#AB6738;}
	.st16{clip-path:url(#SVGID_2_);fill:none;}
</style>
<title>工作區域 2</title>
<g>
	<defs>
		<rect id="SVGID_1_" width="1440" height="120"/>
	</defs>
	<clipPath id="SVGID_2_">
		<use xlink:href="#SVGID_1_"  style="overflow:visible;"/>
	</clipPath>
	<rect y="-108.4" class="st0" width="278.7" height="228.4"/>
	<path class="st1" d="M292.7,121.4c-1.3,0-1.4-0.8-1.4-1.6c0-1.1-0.4-2.4,0.6-3.2c0.6-0.5,1,0,1.3,0.5c0.4,0.5,0.1,1.4,0.5,2.1
		c0.2-0.3-0.1-0.7,0.1-1c1.3-1.8,1-3.3-0.8-4.7c-0.8-0.5-1-1.5-0.5-2.2c0,0,0-0.1,0.1-0.1c0.4-0.5,0.7-0.5,1.1-0.4
		c0.8,0.2,1.6-0.5,1.3-1.3c-0.3-0.9-0.8-1.7-1.5-2.3c-0.9-0.7-0.6-2-0.2-3c0.2-0.5,0.5-1,0.8-1.5c1.1-2.4,0.8-1.8,2.9-0.7
		c2.6,1.5,1.3,2.9,0.9,4.5c-0.4,1.2-0.4,2.6,0.2,3.7c0.6-0.2,0.5-0.8,0.9-1.2c0.7-0.7,1.4-1.2,1.9,0.2c0.3,1,0.8,1.1,1.6,0.5
		s2-0.8,1.2-2s-0.7-2.9-1.8-4.1c-0.4-0.5-0.4-1.1-0.1-1.6c0.7-1.2,1-2.7,0.6-4.1c-0.2-1,0.7-1.5,1.5-1.9c0.9-0.4,1.5-1.4,1.2-2.4
		c-0.1-0.9,0.1-1.9,0.6-2.7c1.7-2.2,2.4-5,4.4-7c1.3-1.3,1.2-3.4,1.6-5.2c0.1-1,0.4-1.9,0.8-2.8c0-0.1,0.1-0.1,0.1-0.2
		c0.6-1,1.8-1.8,1.3-3.3c-1-3.7-1.3-7.6-4.5-10.4c-0.3-0.4-1-0.5-1.4-0.2c0,0-0.1,0.1-0.1,0.1c-1.4,0.9-1.6,0-1.5-1.1
		c0-0.6,0.4-1.1,0.5-1.6c0.2-1.1-0.5-1.6-1.4-1.7s-1.1,0.7-1,1.4c0,1.8-0.3,3.4-1.9,4.5c-0.4,0.3-0.5,0.7-0.3,1.2
		c0.2,0.9,0.2,1.8,0.1,2.8c0,2-0.1,2.5-1.6,3.3c-0.5,0.3-0.7,1-0.4,1.5c0.2,0.3,0.4,0.6,0.5,0.9c0.2,0.3,0.4,0.7,0.8,0.6
		c2.5-0.8,2.9,1.5,3.8,2.7c0.9,1.2,0.3,2.7-1.3,3.6c-0.4,0.2-0.8,0.5-1.2,0.9c-0.7,0.8-0.8,1.5,0.4,1.9c0.6,0.2,1.2,0.4,1.8,0.7
		c1.3,0.7,1.9,1.7,1.2,3.2c-0.5,1-0.7,2-0.8,3.1c-0.1,1-0.1,2.2-1.5,2.1s-1.9-1.2-1.9-2.5c0-0.6,0.2-1.3,0.6-1.8
		c0.2-0.4,0.4-0.8,0.5-1.2c0.1-0.7-0.3-0.9-0.9-0.9s-0.7,0.4-0.6,0.9c0.5,1.5-0.2,3-0.2,4.4c0,0.6-0.2,1.2-0.5,1.7
		c-0.3,0.5-0.2,1.1,0.3,1.4c0.2,0.1,0.4,0.3,0.6,0.6c0.7,0.7,0.1,1.3-0.3,1.9c-0.3,0.5-0.4,1.1-0.3,1.6c0.2,1.1-0.5,2.2-1.6,2.5
		c-0.1,0-0.1,0-0.2,0c-1.2,0.3-1.5-0.8-1.9-1.6c-0.2-0.4-0.2-1-0.7-1.4c-1.6,1.8-3.1,3.6-4.5,5.6c-0.6,0.9-0.6,2.1,0,3
		c0.5,0.9,0.5,2.1-0.1,3c-0.9,2-2,3.9-3,5.9c-0.4,0.7-0.8,1.4-1.7,1.3s-0.9-0.9-1.1-1.6c-0.9-2.5-2.2-4.7-4-6.7
		c-1.2-1.2-2.2-2.6-3-4.1c-0.6-1.4-1.5-2.7-2.5-4c-0.4-0.6-1.3-0.5-1.7,0.2c-0.1,0.2-0.3,0.4-0.7,0.4c-0.9,0.2-1.9,0.2-2.8,0
		c-1.5-0.3-2.2-1.8-1.6-3.8c0.5-1.4,0.6-3,0.1-4.4c-0.3-0.8-0.1-1.8,0.5-2.4c0.9-1.2,0.5-2-0.5-2.9c0,0,0,0,0,0
		c-0.9-0.8-2.2,0.5-1.4,1.5c0.1,0.1,0.1,0.1,0.2,0.2c1.4,1.5,1.1,5.5-0.3,6.9c-0.6,0.6-1,0.3-1.5,0s-0.8-1.1-1.5-1.5
		c-0.1,0.6,0.2,1.2,0,1.7c-0.6,1.7-0.1,3.5,1.1,4.8c0.8,0.9,1,2.1,0.6,3.2c-0.3,0.8-0.8,0.9-1.4,0.9c-0.7,0-1.2,0.7-0.9,1.3
		c0.4,1,0.9,1.9,2.3,2.1c1.1,0.2,1.4,1.3,2,2c0.1,0.1,0.3,0,0.4-0.1c0,0,0,0,0,0c0.4-0.8,0.1-2.1,1.3-2.3s1.9,0.8,2.5,1.6
		c0.5,0.8,1.3,1.3,2.2,1.5c1.5,0.4,2.5,1.2,2.4,3c0,0.9,0.4,1.8,0.9,2.6c0.6,1,0.9,2.2,0.9,3.5c-0.1,0.9-0.3,1.6-1.4,1.4H44.3
		c-0.7,0-2.3,0.1-3.4,0c-0.5-0.1-0.9-0.5-0.9-1V-49.8c0-0.6,0.5-1,1-1H1479c0.6,0,1,0.5,1,1v170.2c0,0.6-0.5,1-1,1h-132.1
		c-0.6,0,23.8-0.4,23.7-1c-0.1-6.3-30-17.5-39.3-18.3c-5.3-0.7-10.7-0.7-16-0.1c-2.8,0.3-5.7,0-8.4-0.9c-4.8-1.7-9.8-2.6-14.9-2.9
		c-1.9-0.1-3.8-0.5-5.6-1.4c-8.7-4.3-18.3-6.6-28-6.7c-0.9,0.1-1.9-0.2-2.7-0.6c-5.7-3.5-11.8-6.4-18.2-8.4c-0.2,0-0.3-0.1-0.4-0.3
		c-1.5-1.5-3.5-2-5.4-2.6c-1.4-0.5-2.8-1.2-4-2c-1.6-1-2.9-2.2-4.7-2.9c-0.9-0.4-1.8-1-2.8-0.3c-0.8,0.5-1.4,0.1-2.1-0.5
		c-2.4-2-5.3-3.2-7.6-5.3c-0.4-0.3-0.9-0.5-1.5-0.4c-0.6,0.6,1.1,2.3-0.9,2.3c-0.4,0-0.9-0.2-1.2-0.5c-0.1-0.1-0.2-0.2-0.3-0.4
		c-1.7-3.4-4.8-6-8.5-7.1c-2.7-1-5.2-2.2-7.6-3.7c-0.7-0.4-1.5-0.8-2.3-1c0.7,1,2,1.9,0.3,3c-4.2,1.2-8.4,2-12.7,1
		c-0.1,0-0.2,0-0.3-0.1c-1.5-0.7-3-1.7-4.9-1.4c-0.3,0.1-0.6,0-0.8-0.2c-1.7-1.7-3.9-0.2-6-0.5c-0.4,0-0.9-0.1-1.2-0.3
		c-2.2-1.7-4.9-0.7-7.4-1.6c-2-0.7-4.1-1.2-5.8-2.6c-0.2-0.2-0.5-0.3-0.8-0.3c-5.6,0-9.8-3.4-14.3-6c-2.5-1.4-5.3-1.7-7.8-2.7
		c-1-0.2-1.9-0.6-2.7-1.2c-2.5-2.1-5.9-2.4-8.6-4.1c-0.8-0.5-2.9,0.7-3.8,0.5c-4.9-0.7-8.5-3.3-12.5-0.2c-0.2,0.1-0.3,0.2-0.5,0.2
		c-2.6,0.3-5-0.5-7.6-0.7c-6.9-0.7-13.6,0.3-20.3,1.8c-0.8,0.3-1.7,0.4-2.6,0.4c-0.1,0-0.2,0-0.3-0.1c-0.8-0.3-1.6-0.3-2.4-0.2
		c-3.2,0.8-6.2,0.1-9.3-0.3c-2.5-0.4-4.9-0.3-6.7,1.9c-0.4,0.4-1,0.6-1.6,0.5c-3.6,0-7.1,0.6-10.6,0.5c-3.7-0.2-7.4-0.1-11.1,0.3
		c-2.8,0.5-5.7-0.4-8.5-0.4c-1.9,0-3.8-0.1-5.8,0.1c-6.1,0.1-65.1-1.5-85.1-3c0,0-0.1,0-0.1,0c-27,0.2-154.5,1.5-198.1,2.6
		c-77.4,3.7-127.3,6.5-131.9,7c-6.4,0.7-12.6,2.5-19,3.1c-8,0.8-15.9,1.8-23.8,2.7c-0.8,0.1-1.6,0.1-2.3,0.1
		c-2.4-0.3-4.9,0.2-7.3-0.8c-1.2-0.5-2.8,0.3-4.2,0.3c-5,0.1-9.9-0.4-14.9-0.4c-1.8,0-3.5,0.1-5.3,0.2c-2,0.2-4,0.7-6.1,0.2
		c-0.9-0.1-1.8-0.1-2.7,0.3c-3,0.9-6,0.4-9-0.1c-0.3,0-0.7-0.3-0.6-0.7s0.5-0.3,0.6-0.3c-5.5,1-11.3,0.9-17.1,0.7
		c-0.1,0-0.1,0-0.2,0c-1-0.3-2.1-0.4-3.1-0.3h-4c0,0-0.1,0-0.1,0c-2.5-0.4-5,0-7.5-0.3c-0.7,0-1.4,0.2-2.1,0.4
		c-1.1,0.4-2.4,0.4-3.5,0c-1.7-0.6-3.5-0.6-5.3-0.2c-1,0.3-2.1,0.2-3.1-0.2c-2.1-1-4.5-1.4-6.8-1c-1.8,0.3-3.7-0.7-5.6-0.2
		c-0.3,0.1,0.1,0.3,0,0.1s0-0.2,0.1-0.2c2.5-0.3,5,0.7,7.6,0.1c0.5-0.1,1.3,0.1,1.3,0.8s-0.6,0.9-1.1,1.1c-1,0-2,0.2-3,0.4
		c-5.6,0.9-30.9,2.7-31.5,2.8c-26.9,3.4-42.3,8.1-48.4,14.9c-11.6,13.1-15.4,32.5-16.7,48.4C351.4,129.1,297.4,121.6,292.7,121.4z"
		/>
	<path class="st2" d="M291,121.5l-0.1,0.5h-0.4c-0.4-0.3-0.9-0.3-1.3,0h-2.1l-0.2-0.5c-0.8-0.3-1.4-1.1-1.5-2
		c-0.1-0.7,0.2-1.3,0.8-1.6c0.5-0.4,1.2-0.2,1.5,0.2c0.8,0.7,1.7,1.3,2.8,1.6C291.5,120,292.1,120.6,291,121.5z"/>
	<path class="st3" d="M291,121.5c0.4-0.7,0.2-1.1-0.7-1.3c-1.2-0.3-2.5-0.5-3.1-1.9c-0.1-0.3-0.4-0.3-0.7-0.1
		c-0.5,0.2-0.7,0.7-0.6,1.2c0.2,0.7,0.6,1.4,1,2.1c-2.5,0.2-5,0.1-7.6,0c0.2-1.9-0.4-3.8-1.6-5.4c-0.4-0.5-0.6-1.2-0.5-1.8
		c0.2-1.5-0.3-2.4-1.8-2.5c-1.2-0.1-2.3-0.8-2.8-1.9c-0.4-0.8-1.2-1.4-2.1-1.4l-0.6,2.6c-0.1,0.3,0,0.8-0.5,0.9
		c-0.5,0.1-0.7-0.4-0.9-0.7s-0.3-0.9-0.6-1.4c-0.2-0.4-0.7-1.1-1.1-0.9c-1.6,0.9-1.6-0.6-2.1-1.4c-0.5-0.6-0.9-1.3-1.2-2
		c-0.3-0.5-0.1-1.1,0.4-1.4c0.3-0.2,0.6-0.2,0.9,0c0.6,0.1,1.1,1.2,1.7,0c0.6-0.9,0.4-2-0.4-2.7c-0.9-0.9-1.5-2.1-1.7-3.4
		c-0.1-0.4-0.3-0.8-0.1-1c0.7-0.8,0.8-2.1,0.1-2.9c-0.2-0.3-0.1-0.6,0.2-0.8c0,0,0.1,0,0.1-0.1c0.3-0.2,0.5,0.1,0.7,0.3
		c0.9,0.7,1.1,2,2.3,2.5c1-1.3,1.1-3,1.5-4.5c0.2-0.7-0.2-1.5-0.8-1.8c-1.7-1.2-1.8-3.4-3.2-4.7c-0.2-0.2-0.2-0.6,0.1-0.8
		c0,0,0,0,0,0c0.3-0.2,0.5-0.1,0.8,0.1c2,1,3.9,2.3,5.5,3.8c0.5,0.5,0.8,0.9,0.1,1.5c-1,1-1.7,2.2-0.9,3.8c0.7,1.4-0.1,2.8-0.4,4.1
		c-0.5,1.9,0.2,2.9,2.2,2.7c0.2,0,0.4-0.1,0.6-0.1c1.7,0.1,1.7,0.1,1.3-1.6c-0.1-0.4-0.4-0.9,0.1-1.2s1,0.1,1.2,0.5
		c1.4,2.2,3.2,4.2,4.3,6.6c0.6,1.4,1.4,3.1,3.3,3.6c0.3,0.1,0.5,0.3,0.5,0.6c0.1,1.3,1,2.2,1.7,3.2c0.7,1,1.7,2.1,1.4,3.6
		c-0.1,0.3,0.2,0.7,0.5,0.8c0,0,0,0,0.1,0c0.4,0.1,0.7-0.1,0.9-0.5c0.6-2.2,2.3-3.9,2.8-6.1c0-0.3,0.2-0.5,0.4-0.8
		c0.9-0.8,0.8-1.5,0-2.3s0.2-2.2-0.5-3.2c0.1-0.1,0.2-0.2,0.3-0.3c1.2-0.3,1.4-1.6,2.1-2.3s0.9-1.6,1.8-2.1c0.2-0.1,0.5-0.4,0.5-0.6
		c-0.2-1.8,1-1,1.9-1.1c-0.2,1.3,0.7,2.2,1.1,3.3c2-0.7,2.1-0.7,1.8-2.6c-0.2-1.2,0.7-1.6,1.3-2.4c-0.8-0.7-1.4-1.7-2.6-0.6
		c-0.2,0.1-0.5,0.2-0.8,0.1c-0.2,0-0.4-0.2-0.5-0.3c-0.1-0.2,0-0.4,0.2-0.5c0,0,0,0,0,0c0.4-0.2,0.8-0.3,1.1-0.5
		c1.1-0.5,1.8-1.7,1.7-2.9c-0.1-0.6,0-1.1,0.1-1.6c0.3-1.2,0.7-2.4-0.8-3.1c0.8-1,1.7-0.7,2.5-0.9c0.9-0.2,1.6,1,1.1,1.9
		c-0.3,0.6-0.7,1.2-1.1,1.8c-0.4,0.6-0.4,1.4,0.1,2c0.4,0.6,0.9,1.1,1.5,1s0.6-0.9,0.6-1.4c-0.1-1.4,0.3-2.7,1-3.9
		c0.4-0.5,0.4-1.2-0.1-1.6c-0.1-0.1-0.3-0.2-0.5-0.3c-0.7-0.3-1.1-1.2-2.1-0.9s-1.2-0.5-1.5-1.1c-0.4-0.5-0.2-1.2,0.3-1.6
		c0.1,0,0.1-0.1,0.2-0.1c0.9-0.4,1.1-2,2.5-1.5c0.4,0.1,0.2-0.4,0.3-0.6c0.5-1.2,0-2.7-1.1-3.3c-0.3-0.2-0.6-0.4-0.8-0.6
		c-0.8-1-0.8-1-1.4,0.2c-0.7-0.3-1.2-0.8-1.5-1.4c-0.4-0.8-0.6-1.7-1.7-2c-0.4-0.1-0.4-0.5-0.2-0.9s0.4-0.2,0.7-0.1
		c1.8,0.4,3-0.9,2.5-2.6c-0.1-0.3-0.4-0.5-0.1-0.8c0.8-0.9,0.3-1.7-0.1-2.6c-0.3-0.6-0.3-1.3,0.4-1.4c0.9-0.2,1.5-0.2,1.5-1.4
		c0-0.7,0.8-1.3,0.6-2.3c-0.1-0.8-0.5-1.8,0.4-2.3s1.8,0.2,2.6,0.4s1,1.6,0.4,2.8c-0.3,0.6-0.8,1.2-0.2,1.8c0.5,0,0.5-0.3,0.6-0.6
		c0.2-0.9,0.8-1,1.4-0.5c2.5,2.2,4.3,4.7,4.6,8.1c0,1.1,0.3,2.1,0.8,3.1c0.6,0.8,0.5,2-0.3,2.7c-1.2,1.2-1.8,2.9-1.8,4.6
		c-0.1,1.4-1,2.6-0.9,4.1c0,0.4-0.4,0.6-0.7,0.8c-0.6,0.4-1.1,0.9-1.5,1.5c-1.1,1.9-2,3.9-3.2,5.7c-0.6,0.9-0.7,2.1-0.3,3.1
		c0.4,1,0.1,1.4-1,1.6c-0.4,0.1-0.7,0.5-1,0.7c-0.8,0.5-1.3,1.1-0.6,2s0,2-0.6,2.7c-0.6,0.7-0.6,1.7,0,2.3c0,0,0.1,0.1,0.1,0.1
		c0.5,0.5,0.8,1.2,0.8,1.9c-0.2,0.7,0.3,1.5,1,1.7c0.7,0.2,0.6,0.7,0.3,1.1c-0.9,1-2,1.8-3.3,2.4c-0.5,0.3-0.9,0-1-0.5
		c-0.1-0.6-0.1-1.2-0.2-1.8c-1.7,0.4-1,2.5-2.6,3c0.2-1.2-0.9-2-0.8-3.2c0-0.9,0.2-1.7,0.6-2.5c0.2-0.6,0.4-1.2,0.5-1.8
		c0.2-0.5,0.3-1-0.2-1.4s-0.7,0.6-1.2,0.5c-0.1-0.8-0.4-1.6-0.8-2.4c-0.8,0.1-0.9,0.6-1,1.1c-0.1,0.7-0.4,1.3-0.9,1.9
		c-0.8,0.9-0.8,2.4,0.2,3.2c0.1,0.1,0.3,0.2,0.5,0.3c0.7,0.3,1.1,1.2,0.9,1.9c-0.2,0.8-0.1,1.4,0.7,1.7c0.2,0.1,0.4,0.3,0.3,0.5
		c0,0.1,0,0.1-0.1,0.2c-0.1,0.3-0.4,0.4-0.7,0.4c-0.8-0.1-1.5-0.4-2.2-0.8c-0.2-0.2-0.5-0.3-0.8-0.1c-0.3,0.2-0.4,0.7-0.2,1
		c0.6,1.1,1.4,2,2.5,2.5c0.2,0.1,0.6,0.1,0.6,0.5c0,0.7-0.7,1-1,1.5c-0.9,1.8-0.9,1.8,0,3.3c-1.4,0.1-1.9-0.3-2-1.9
		c0.1-0.8-0.4-1.5-1.1-1.7c0,1.7,0,3.1,0,4.6L291,121.5z"/>
	<path class="st4" d="M1175.7,60.4c-4.9,0.2-9.6-1-14.3-2c-7.5-1.5-15-3.2-22.4-5.1c-1.5-0.2-2.9-0.6-4.3-1c-1.1-1-0.2-1.6,0.4-2.3
		c-0.4-0.2-0.8-0.2-1.1-0.1c-0.9,0.2-1.6,1.4-2.7,0.8c-1.7-0.9-3.8-1.4-5-3.2c-1.3-1.9-3.3-3-5.6-3.1c-1.7-0.1-2.9-1.1-4.3-1.8
		c-1-0.7-2.2-1-3.4-0.8c-1.4,0.2-2.9-0.2-4-1.1c-0.8-0.6-1.8-0.6-2.6-0.1c-1,0.7-2.3,0.9-3.4,0.5c-1.3-0.1-2.5-0.4-3.7-0.9
		c0-0.9,0.7-1.6,1.6-1.7c1.5-0.3,2.9-0.9,4.2-1.6c1-0.6,2.2-0.7,3.2-0.1c0.4,0.2,0.8,0.4,1.2,0.4c1.5-0.2,3-0.2,4.5,0.1
		c1.1,0.2,2,0.2,2.8,1c0.8,0.7,1.9,1,2.9,0.8c0.5-0.1,1.1,0.1,1.4,0.5c1.5,1.4,3.3,2.5,5.3,3.1c1,0.2,1.9,0.5,2.8,0.9
		c0.4,0.2,0.8,0.3,1.2,0.2c0.8-0.2,1.7,0,2.4,0.6c1.1,0.7,2.4,1.2,3.5,2c1.4,1.1,3,1.9,4.7,2.4c0.9,0.3,1.7,0.7,2.4,1.4
		c0.9,0.8,2.1,1.2,3.3,1.1c1.6-0.2,3.3,0.3,4.5,1.4c0.9,0.7,1.9,1.2,3.1,1.3c1.1,0.2,2.2,0.6,3.2,1.1c0.4,0.2,0.7,0.4,1.2,0.3
		c1.4-0.4,2.7,0.5,3.6,1.2c1.3,0.9,2.9,1.1,4.4,0.7c1-0.2,1.6-0.2,2.2,0.5c0.7,1.1,2,1.5,3.2,0.9c0.3-0.2,0.7-0.2,1,0
		C1173.7,59.6,1174.9,59.7,1175.7,60.4z"/>
	<path class="st5" d="M551.6,56.2c-0.7,0.3-1.5,0.4-2.3,0.3c-5-0.2-10.1,0-15.2,0.1c-6.5,0.2-13-0.1-19.4,0.2
		c-4.2,0.2-8.4,0-12.6,0.1c-4.5,0.2-9-0.3-13.4-0.6c-2.2,0.1-4.4-0.1-6.5-0.5c0.9-0.6,1.8-0.3,2.7-0.2c2.6,0,5.1,0.1,7.7,0.1
		c3.5,0,6.9-0.3,10.4-0.8c0.7-0.2,1.4-0.1,2.1,0.2c-0.4,0.8-1,0.6-1.5,0.6c-0.5,0-1,0.1-1.5,0.2c1.4,0.1,2.7,0.9,4.1,0.4
		c0.4-0.1,0.9-0.1,1.3,0.1c1.3,0.4,2.7,0.3,3.9-0.4c0.9-0.5,2-0.5,2.9-0.1c2,0.7,3.9,0,5.8-0.2c3-0.3,6.1-0.4,9.1-0.2
		c3.3,0.2,6.6,0.3,10,0.3c1.4,0,2.8-0.1,4.2-0.3c0.8-0.2,1.9-0.8,2.6,0.5c0.2,0.4,0.9,0.2,1.4,0.2C548.8,56,550.2,56,551.6,56.2z"/>
	<path class="st6" d="M1205.2,69c-4.6-2.7-9.4-5.1-13.6-8.5c-0.7-0.7-1.7-1.1-2.7-1.1c0.5-0.9-0.2-1.3-0.8-1.7s-1.4-0.7-1.1-1.3
		s1.1-0.1,1.7,0.1c1.1,0.2,2,0.7,2.8,1.4c0.1,0.1,0.2,0.2,0.3,0.3c2.8,0.7,4.9,2.9,7.8,3.2c0.4,0,0.8,0.2,1.2,0.4
		c1.8,1.6,3.8,2.8,5.4,4.6c0.5,0.7,0.8,1.5,0.7,2.4l-0.2,0.2C1206.3,69.1,1205.7,69.1,1205.2,69z"/>
	<path class="st7" d="M1067.9,41.6c-1.4,0.7-2.9,1.1-4.5,1.1c-2.5,0-5.1,0.4-7.5,1c-0.3,0.1-0.7,0.1-1,0.1c-6-0.2-12,0.8-18.1,0.5
		c-2.8-0.2-5.7,0.3-8.5,0.3c-5,0-10.1-0.3-15.1-0.5c-0.5,0-1-0.1-1.5-0.3c3.1-0.2,6.2-0.1,9.3,0.2c2.1,0.3,4.3,0.3,6.4-0.1
		c0.7-0.1,1.4-0.2,2.1-0.2c2.2,0,4.4-0.1,6.6,0c4.3,0.3,8.5-0.6,12.6-0.5c0.3-0.1,0.4-0.5,0.2-0.8c0,0,0,0,0,0c-0.4-1,0.2-1.4,1-1.3
		c1.1,0.3,2.3,0.1,3.1-0.7c0.3-0.3,0.9-0.1,1.4,0c2,0.4,4,0.8,6,1.1c1.2,0.2,2.4,0.1,3.6-0.2C1065.4,40.9,1066.8,41,1067.9,41.6z"/>
	<path class="st6" d="M1208.2,69.3c0.4,0,0.8-0.1,0.6-0.6c-0.1-0.3-0.4-0.6-0.6-0.9s-0.5-0.8-0.1-1.2c0.3-0.3,0.8-0.3,1.2-0.1
		c1.1,0.3,2.1,0.8,2.9,1.6c1.3,1.3,2.8,2.3,4.5,3c0.8,0.3,1.4,0.9,1.9,1.6c0.4,0.7,1,0.8,1.5,0.1c0.7-1,1.3-0.6,2.1-0.1
		c2,0.9,3.8,2,5.5,3.4c-1.8,0.4-3.5,1.1-5.4-0.4c-1.5-1.2-3.6-1.5-5.5-2.1c-3.1-1.1-6.1-2.5-8.9-4.2L1208.2,69.3z"/>
	<path class="st8" d="M473.8,55.7l-8,0.3c-0.2,0-0.4,0-0.6,0c-2.5,1.3-5.1,0.6-7.7,0.4c-3-0.2-6.1-0.1-9.1-0.3
		c0.6-0.7,1.5-0.4,2.2-0.4c0.6-0.1,1.3,0.1,1.8-0.5c-1.6-0.9-3.2,0.8-4.6-0.1s-3-0.4-4.6-0.8c0.4-0.3,0.9-0.4,1.4-0.3
		c3,0.2,5.9-0.4,8.9,0c1.1,0.1,2.1,0.4,3,1c0.7,0.5,1.6,0.6,2.3,0.2c1.8-0.7,3.8-0.7,5.6,0c1.1,0.5,2.3,0.5,3.5,0.2
		c1.1-0.3,2.2-0.7,3.3-0.2c0.1,0,0.3,0,0.4,0c2-0.7,3.9,0.2,5.9,0.1C476.4,56.6,475.1,55.7,473.8,55.7z"/>
	<path class="st9" d="M382.5,54.7c-2.1,0.9-3.3,2.6-5.5,2.6c-0.9,0.1-1.8,0.5-2.5,1.2c-1.5,1.1-3.1,2-4.8,2.8
		c-2.4,1.3-4.8,2.4-7.1,3.8s-4.8,1.8-6.8,3.5c0-1.6,1-3.1,2.5-3.7c1.4-0.8,2.8-1.7,4.1-2.7c0.4-0.2,0.7-0.5,1.2-0.4
		c0.4,0.7-0.6,0.8-0.4,1.5c1.8-0.9,3.6-1.7,5.3-2.7s3.4-1.8,5-2.8c2.1-1.1,4.2-2,6.5-2.6C380.6,55.1,381.2,54.4,382.5,54.7z"/>
	<path class="st10" d="M1217.1,73.3c2.1,0.6,4.1,1.3,6.1,2.1c0.3,0.1,0.6,0.4,0.6,0.8c0,0.4,0.4,0.6,0.5,0.4c0.8-1.5,2-0.2,2.9-0.3
		c0.2,0,0.4,0,0.6,0c2.2,1,4.3,2.4,6.8,2.6c1.2,0.1,1.8,1.2,2.6,2c-6-1.1-12-2.5-17.6-5.2C1218.9,74.9,1217.2,75,1217.1,73.3z"/>
	<path class="st11" d="M397.8,48.8c0.1-0.1,0.2-0.2,0.3-0.3c3-0.9,6.1-1.7,9.2-2.8l-0.2,1.4c4.1-1,7.9-2.9,12.2-3.4
		c0,0.6-0.4,1.2-1.1,1.3c-4.2,1-8.3,2.5-12.6,3.2c-2.5,0.4-4.9,1.3-7.5,1.6C397.9,49.5,397.7,49.2,397.8,48.8z"/>
	<path class="st12" d="M397.8,48.8c0.3,0.2,0.5,0.5,0.4,0.8l0,0c-0.5,0.5-1.2,0-1.7,0.4L385,54.4l-0.1-0.3c1.2-0.8,2.5-1.6,3.9-2.2
		C391.7,50.7,394.7,49.6,397.8,48.8z"/>
	<path class="st5" d="M473.8,55.7c1.2-0.3,2.5,0.4,3.7-0.5h4.3c0.2,0.2,0.2,0.3,0,0.5C479.1,56,476.5,56.5,473.8,55.7z"/>
	<path class="st5" d="M506.2,55c0.9,0,1.6-1.1,2.9,0C508.1,55.3,507.1,55.3,506.2,55z"/>
	<path class="st8" d="M481.8,55.8v-0.5c1,0.1,2.1-0.3,3.1,0.3l-2.7,0.2L481.8,55.8z"/>
	<path class="st11" d="M409.5,56.1c0.5-0.6,1.1-0.4,1.7-0.4C410.7,56.3,410.1,56.1,409.5,56.1z"/>
	<path class="st6" d="M1207,68.9c0.5,0,0.9,0.1,1.3,0.4l-0.1,0.1c-0.6,0.3-1.1,0.4-1.3-0.4L1207,68.9z"/>
	<path class="st13" d="M1102.8,41.2c1.1,0,2.2-0.4,3.1-1c0.7-0.6,2.4-1.5,3.4,0.3c1.4,0.4,2.7,1.4,4.2,0.6c0.7-0.3,1.4-0.1,2,0.3
		c1.1,0.6,2.1,1.2,3.1,1.8c0.8,0.4,1.5,1,2.6,0.5c0.8-0.4,1.4,0.5,2.1,0.8c1.4,0.6,2.8,1.2,3.5,2.8c0.5,0.9,1.4,1.5,2.3,1.7
		c0.7,0.2,1.4,0.5,2,1c0.5,0.5,1.2,0.5,1.5-0.1c0.5-1.3,1.4-1,2.2-0.7c0.6,0.2,1.3-0.4,1.9,0.4c-1,0.6-2.6,0.8-2,2.6
		c-2.4-0.5-4.9-1.1-7.3-1.8c-2.4-1.8-5.4-2.2-8-3.6s-4.9-2.8-7.8-2.8l0,0c-0.9-1-2.2-1-3.4-1.3L1102.8,41.2z"/>
	<path class="st14" d="M1111.5,44.2c1.6-0.7,2.9-0.3,4.5,0.4c2,0.9,3.8,2.2,5.8,2.9c0.7,0.2,1.3,0.4,2,0.5c1.6,0.3,2.4,1.7,3.6,2.6
		c-3.1-0.5-6.1-1.1-8.9-2.7C1116.2,46.5,1113.8,45.4,1111.5,44.2z"/>
	<path class="st15" d="M1206.8,69c0.3,0.3,0.8,0.5,1.3,0.4c3.2,0.9,5.9,2.8,9,3.8c0.6,1.1,2.1,1.2,2.6,2.4c-3-1.1-6-2.5-8.9-3.9
		c-1.9-1-4-1.4-5.6-2.8C1205.7,68.5,1206.3,68.7,1206.8,69z"/>
	<path class="st14" d="M1108.1,42.9c1.3-0.1,2.7-0.1,3.4,1.3C1110.3,43.9,1109.1,43.5,1108.1,42.9z"/>
	<path class="st1" d="M301.5,106.1c-0.3,0-0.5-0.1-0.5-0.5c0-0.3,0.2-0.5,0.5-0.5c0,0,0,0,0.1,0c0.2,0.1,0.3,0.2,0.4,0.4
		C302,105.9,301.8,106.1,301.5,106.1z"/>
	<path class="st1" d="M308.4,68.8c-0.3-0.1-0.5-0.2-0.5-0.5c0-0.2,0.1-0.4,0.3-0.4c0,0,0,0,0.1,0c0.3,0,0.5,0.3,0.5,0.5
		C308.8,68.6,308.7,68.8,308.4,68.8C308.5,68.8,308.4,68.8,308.4,68.8z"/>
	<polyline class="st16" points="0,122 0,2 1440,2 1440,122 	"/>
</g>
</svg>
