<?xml version="1.0" encoding="utf-8"?>
<!-- Generator: Adobe Illustrator 20.0.0, SVG Export Plug-In . SVG Version: 6.00 Build 0)  -->
<svg version="1.1" id="圖層_1" xmlns="http://www.w3.org/2000/svg" xmlns:xlink="http://www.w3.org/1999/xlink" x="0px" y="0px"
	 viewBox="0 0 1440 140" style="enable-background:new 0 0 1440 140;" xml:space="preserve">
<style type="text/css">
	.st0{clip-path:url(#SVGID_2_);}
	.st1{fill:none;}
	.st2{fill:#0D0C0A;}
	.st3{fill:#33201A;}
	.st4{fill:#322018;}
	.st5{fill:#3B2420;}
	.st6{fill:#3A2314;}
	.st7{fill:#653212;}
	.st8{fill:#54311F;}
	.st9{fill:#5C2E11;}
	.st10{fill:#974B16;}
	.st11{fill:#3F2B1D;}
	.st12{fill:#543124;}
	.st13{fill:#895039;}
	.st14{fill:#AB6738;}
</style>
<title>工作區域 2</title>
<g>
	<g>
		<defs>
			<rect id="SVGID_1_" width="1440" height="140"/>
		</defs>
		<clipPath id="SVGID_2_">
			<use xlink:href="#SVGID_1_"  style="overflow:visible;"/>
		</clipPath>
		<g class="st0">
			<path d="M0-107.8h94.8c0,0,45.9,189.5,11.4,228.2c0,0-66.4-2.6-106.2,5.8C0,126.2,0-107.8,0-107.8z"/>
			<path class="st1" d="M431.4,61.9L431.4,61.9C431.2,61.9,431.5,62.1,431.4,61.9z"/>
			<path class="st1" d="M438.6,61.9c-0.6,0-1.1,0-1.7,0.1C437.5,62,438,62,438.6,61.9z"/>
			<path class="st2" d="M438.9,61.8c-0.1,0-0.2,0-0.3,0c0.4,0,0.8,0,1.1,0.1C439.5,61.8,439.2,61.8,438.9,61.8z"/>
			<path class="st2" d="M487.8,63c0.1,0,0.3,0,0.4-0.1C488.2,62.9,488,62.8,487.8,63z"/>
			<path class="st2" d="M431.5,61.7c-0.1,0-0.2,0-0.1,0.1C431.4,61.8,431.4,61.8,431.5,61.7c1.8-0.4,3.6,0.6,5.4,0.3c0,0,0,0,0.1,0
				C435.1,62,433.3,61.5,431.5,61.7z"/>
			<path class="st2" d="M1439-107.8H39.9c-0.5,0-1,0.4-1,1v223.6c0,0.5,0.4,0.9,0.9,1c1.1,0.1,49.3,1.8,50,1.8
				c75.8,4.3,116.1-5.3,158.6-4.7c2.9,0,7,0.3,11.7,0.1c0.1-1.8-0.4-3.6-1.6-5.1c-0.4-0.5-0.6-1.2-0.5-1.8c0.2-1.5-0.3-2.3-1.8-2.4
				c-1.2-0.1-2.2-0.8-2.7-1.8c-0.4-0.8-1.2-1.4-2-1.4l-0.6,2.5c-0.1,0.3,0,0.8-0.5,0.9s-0.7-0.4-0.9-0.7c-0.2-0.3-0.3-0.9-0.6-1.4
				c-0.2-0.4-0.7-1.1-1.1-0.9c-1.6,0.9-1.6-0.6-2-1.4c-0.5-0.6-0.9-1.3-1.2-1.9c-0.3-0.5-0.1-1.1,0.4-1.4c0.3-0.2,0.6-0.2,0.9,0
				c0.6,0.1,1.1,1.2,1.7,0c0.6-0.9,0.4-1.9-0.4-2.6c-0.9-0.9-1.5-2-1.7-3.3c-0.1-0.4-0.3-0.8-0.1-1c0.7-0.8,0.8-2,0.1-2.8
				c-0.2-0.3-0.1-0.6,0.2-0.8c0,0,0.1,0,0.1-0.1c0.3-0.2,0.5,0.1,0.7,0.3c0.9,0.7,1.1,1.9,2.2,2.4c1-1.3,1.1-2.9,1.5-4.4
				c0.2-0.7-0.2-1.5-0.8-1.8c-1.7-1.2-1.8-3.3-3.1-4.6c-0.2-0.2-0.2-0.6,0.1-0.8c0.3-0.2,0.5-0.1,0.8,0.1c1.9,1,3.8,2.2,5.4,3.7
				c0.5,0.5,0.8,0.9,0.1,1.5c-1,1-1.7,2.1-0.9,3.7c0.7,1.4-0.1,2.7-0.4,4c-0.5,1.8,0.2,2.8,2.1,2.6c0.2,0,0.4-0.1,0.6-0.1
				c1.7,0.1,1.7,0.1,1.3-1.6c-0.1-0.4-0.4-0.9,0.1-1.2c0.5-0.3,1,0.1,1.2,0.5c1.4,2.1,3.1,4.1,4.2,6.4c0.6,1.4,1.4,3,3.2,3.5
				c0.3,0.1,0.5,0.3,0.5,0.6c0.1,1.3,1,2.1,1.7,3.1s1.7,2,1.4,3.5c-0.1,0.3,0.2,0.7,0.5,0.8c0,0,0,0,0.1,0c0.4,0.1,0.7-0.1,0.9-0.5
				c0.6-2.1,2.2-3.8,2.7-5.9c0-0.3,0.2-0.5,0.4-0.8c0.9-0.8,0.8-1.5,0-2.2c-0.8-0.8,0.2-2.1-0.5-3.1c0.1-0.1,0.2-0.2,0.3-0.3
				c1.2-0.3,1.4-1.6,2-2.2c0.7-0.7,0.9-1.6,1.8-2c0.2-0.1,0.5-0.4,0.5-0.6c-0.2-1.8,1-1,1.8-1.1c-0.2,1.3,0.7,2.1,1.1,3.2
				c1.9-0.7,2-0.7,1.8-2.5c-0.2-1.2,0.7-1.6,1.3-2.3c-0.8-0.7-1.4-1.7-2.5-0.6c-0.2,0.1-0.5,0.2-0.8,0.1c-0.2,0-0.4-0.2-0.5-0.3
				c-0.1-0.2,0-0.4,0.2-0.5c0.4-0.2,0.8-0.3,1.1-0.5c1.1-0.5,1.8-1.7,1.7-2.8c-0.1-0.6,0-1.1,0.1-1.6c0.3-1.2,0.7-2.3-0.8-3
				c0.8-1,1.7-0.7,2.4-0.9c0.9-0.2,1.6,1,1.1,1.8c-0.3,0.6-0.7,1.2-1.1,1.8c-0.4,0.6-0.4,1.4,0.1,1.9c0.4,0.6,0.9,1.1,1.5,1
				s0.6-0.9,0.6-1.4c-0.1-1.4,0.3-2.6,1-3.8c0.4-0.5,0.4-1.2-0.1-1.6c-0.1-0.1-0.3-0.2-0.5-0.3c-0.7-0.3-1.1-1.2-2-0.9
				c-1,0.3-1.2-0.5-1.5-1.1c-0.4-0.5-0.2-1.2,0.3-1.6c0.1,0,0.1-0.1,0.2-0.1c0.9-0.4,1.1-1.9,2.4-1.5c0.4,0.1,0.2-0.4,0.3-0.6
				c0.5-1.2,0-2.6-1.1-3.2c-0.3-0.2-0.6-0.4-0.8-0.6c-0.8-1-0.8-1-1.4,0.2c-0.7-0.3-1.2-0.8-1.5-1.4c-0.4-0.8-0.6-1.7-1.7-1.9
				c-0.4-0.1-0.4-0.5-0.2-0.9c0.2-0.4,0.4-0.2,0.7-0.1c1.8,0.4,2.9-0.9,2.4-2.5c-0.1-0.3-0.4-0.5-0.1-0.8c0.8-0.9,0.3-1.7-0.1-2.5
				c-0.3-0.6-0.3-1.3,0.4-1.4c0.9-0.2,1.5-0.2,1.5-1.4c0-0.7,0.8-1.3,0.6-2.2c-0.1-0.8-0.5-1.8,0.4-2.2c0.9-0.5,1.8,0.2,2.5,0.4
				c0.8,0.2,1,1.6,0.4,2.7c-0.3,0.6-0.8,1.2-0.2,1.8c0.5,0,0.5-0.3,0.6-0.6c0.2-0.9,0.8-1,1.4-0.5c2.4,2.1,4.2,4.6,4.5,7.9
				c0,1.1,0.3,2,0.8,3c0.6,0.8,0.5,1.9-0.3,2.6c-1.2,1.2-1.8,2.8-1.8,4.5c-0.1,1.4-1,2.5-0.9,4c0,0.4-0.4,0.6-0.7,0.8
				c-0.6,0.4-1.1,0.9-1.5,1.5c-1.1,1.8-1.9,3.8-3.1,5.5c-0.6,0.9-0.7,2-0.3,3c0.4,1,0.1,1.4-1,1.6c-0.4,0.1-0.7,0.5-1,0.7
				c-0.8,0.5-1.3,1.1-0.6,1.9c0.7,0.9,0,1.9-0.6,2.6s-0.6,1.7,0,2.2l0.1,0.1c0.5,0.5,0.8,1.2,0.8,1.8c-0.2,0.7,0.3,1.5,1,1.7
				s0.6,0.7,0.3,1.1c-0.9,1-1.9,1.8-3.2,2.3c-0.5,0.3-0.9,0-1-0.5c-0.1-0.6-0.1-1.2-0.2-1.8c-1.7,0.4-1,2.4-2.5,2.9
				c0.2-1.2-0.9-1.9-0.8-3.1c0-0.9,0.2-1.7,0.6-2.4c0.2-0.6,0.4-1.2,0.5-1.8c0.2-0.5,0.3-1-0.2-1.4s-0.7,0.6-1.2,0.5
				c-0.1-0.8-0.4-1.6-0.8-2.3c-0.8,0.1-0.9,0.6-1,1.1c-0.1,0.7-0.4,1.3-0.9,1.8c-0.8,0.9-0.8,2.3,0.2,3.1c0.1,0.1,0.3,0.2,0.5,0.3
				c0.7,0.3,1.1,1.2,0.9,1.8c-0.2,0.8-0.1,1.4,0.7,1.7c0.2,0.1,0.4,0.3,0.3,0.5c0,0.1,0,0.1-0.1,0.2c-0.1,0.3-0.4,0.4-0.7,0.4
				c-0.8-0.1-1.5-0.4-2.1-0.8c-0.2-0.2-0.5-0.3-0.8-0.1c-0.3,0.2-0.4,0.7-0.2,1c0.6,1.1,1.4,1.9,2.4,2.4c0.2,0.1,0.6,0.1,0.6,0.5
				c0,0.7-0.7,1-1,1.5c-0.6,1.2-0.8,1.6-0.6,2.1c5.9-1.5,12.2-4.2,18.3-8.6c22.5-16.4,41.4-0.6,59.4-19.1
				c5.9-6.6,27.2-15.2,53.4-18.5c0.6-0.1,25.2-1.8,30.6-2.7c1-0.2,1.9-0.4,2.9-0.4c0.5-0.2,1.1-0.4,1.1-1.1c0-0.3-0.2-0.5-0.4-0.7
				c-0.4,0-0.8-0.1-1.1-0.1c-0.6,0.1-1.1,0.1-1.7,0.1c0,0,0,0-0.1,0c-1.8,0.3-3.6-0.7-5.4-0.2l0,0c0,0,0,0,0,0.1
				c0.1,0.2-0.3,0,0-0.1c0-0.1,0-0.1,0.1-0.1c1.8-0.2,3.6,0.3,5.4,0.3c0.6-0.1,1.1-0.1,1.7-0.1c0.1,0,0.2,0,0.3,0
				c0.3-0.1,0.6,0,0.8,0.1c1.3,0.1,2.6,0.5,3.7,1.1c1,0.4,2,0.5,3,0.2c1.8-0.4,3.5-0.4,5.2,0.2c1.1,0.4,2.3,0.4,3.4,0
				c0.7-0.2,1.4-0.4,2-0.4c2.4,0.3,4.9-0.1,7.3,0.3h0.1h3.9c1-0.1,2,0,3,0.3c0.1,0,0.1,0,0.2,0c5.5,0.2,11,0.3,16.2-0.6
				c0.2-0.1,0.4-0.1,0.4-0.1c-0.1,0-0.3,0-0.4,0.1c-0.1,0-0.1,0.1-0.1,0.2c-0.1,0.4,0.3,0.7,0.6,0.7c2.9,0.5,5.8,1,8.8,0.1
				c0.9-0.4,1.8-0.4,2.6-0.3c2,0.5,4,0,5.9-0.2c1.8-0.1,3.4-0.2,5.2-0.2c4.9,0,9.6,0.5,14.5,0.4c1.4,0,2.9-0.8,4.1-0.3
				c2.3,1,4.8,0.5,7.1,0.8c0.7,0,1.5,0,2.2-0.1c7.7-0.9,15.4-1.8,23.2-2.6c6.2-0.6,12.3-2.3,18.5-3c4.5-0.5,53-3.2,128.3-6.8
				c42.4-1.1,166.5-2.3,192.7-2.5h0.1c19.5,1.5,76.9,3,82.8,2.9c1.9-0.2,3.8-0.1,5.6-0.1c2.7,0,5.5,0.9,8.3,0.4
				c3.6-0.4,7.2-0.5,10.8-0.3c3.4,0.1,6.8-0.5,10.3-0.5c0.6,0.1,1.2-0.1,1.6-0.5c1.8-2.1,4.1-2.2,6.5-1.8c3,0.4,5.9,1.1,9,0.3
				c0.8-0.1,1.6-0.1,2.3,0.2c0.1,0.1,0.2,0.1,0.3,0.1c0.9,0,1.8-0.1,2.5-0.4c6.5-1.5,13-2.4,19.8-1.8c2.5,0.2,4.9,1,7.4,0.7
				c0.2,0,0.3-0.1,0.5-0.2c3.9-3,7.4-0.5,12.2,0.2c0.9,0.2,2.9-1,3.7-0.5c2.6,1.7,5.9,1.9,8.4,4c0.8,0.6,1.7,1,2.6,1.2
				c2.4,1,5.2,1.3,7.6,2.6c4.4,2.5,8.5,5.8,13.9,5.8c0.3,0,0.6,0.1,0.8,0.3c1.7,1.4,3.7,1.8,5.6,2.5c2.4,0.9,5.1-0.1,7.2,1.6
				c0.3,0.2,0.8,0.3,1.2,0.3c2,0.3,4.2-1.2,5.8,0.5c0.2,0.2,0.5,0.3,0.8,0.2c1.8-0.3,3.3,0.7,4.8,1.4c0.1,0.1,0.2,0.1,0.3,0.1
				c4.2,1,8.3,0.2,12.4-1c1.7-1.1,0.4-1.9-0.3-2.9c0.8,0.2,1.6,0.6,2.2,1c2.3,1.5,4.8,2.6,7.4,3.6c3.6,1.1,6.6,3.6,8.3,6.9
				c0.1,0.2,0.2,0.3,0.3,0.4c0.3,0.3,0.8,0.5,1.2,0.5c1.9,0,0.3-1.7,0.9-2.2c0.6-0.1,1.1,0.1,1.5,0.4c2.2,2,5.1,3.2,7.4,5.2
				c0.7,0.6,1.3,1,2,0.5c1-0.7,1.8-0.1,2.7,0.3c1.8,0.7,3,1.8,4.6,2.8c1.2,0.8,2.5,1.5,3.9,1.9c1.8,0.6,3.8,1.1,5.3,2.5
				c0.1,0.2,0.2,0.3,0.4,0.3c6.2,1.9,12.2,4.8,17.7,8.2c0.8,0.4,1.8,0.7,2.6,0.6c9.4,0.1,18.8,2.3,27.2,6.5c1.8,0.9,3.6,1.3,5.4,1.4
				c5,0.3,9.8,1.2,14.5,2.8c2.6,0.9,5.4,1.2,8.2,0.9c5.2-0.6,10.4-0.6,15.6,0.1c9,0.8,56.3-6.5,83.9,0.2
				c48.3,11.9,59.8,18.6,59.8,18.6c0.5,0,1-0.4,1-1v-233.4C1440-107.3,1439.6-107.8,1439-107.8z"/>
			<path class="st2" d="M295.6,65.4c-0.5-1-0.7-1.7-0.7-2.6c-0.3-3.2-1.8-5.9-4.9-8.6c-0.4-0.4-0.8-0.5-1.2-0.5
				c0.2-0.7,0.1-1.4-0.2-2c-0.3-0.6-0.7-0.9-1.3-1.1c-0.2,0-0.4-0.1-0.6-0.2c-0.7-0.3-1.7-0.7-2.7-0.1c-1.4,0.8-1.1,2.2-1,2.9
				c0,0.1,0,0.2,0.1,0.4c0,0.2,0,0.4-0.2,0.8c-0.2,0.3-0.4,0.7-0.4,1.2c0,0.1,0,0.2,0,0.3c-0.1,0-0.3,0.1-0.4,0.1l-0.2,0
				c-0.6,0.1-1,0.4-1.3,0.8c-0.3,0.6-0.3,1.3,0.1,1.9l0.1,0.3c0.4,0.9,0.4,0.9,0.2,1.1c-0.3,0.3-0.7,0.9-0.2,1.8
				c0.1,0.4,0.1,0.8-0.1,1.1c-0.2,0.2-0.6,0.3-1.1,0.2c-1.1-0.5-1.6,0.3-1.8,0.6c-0.3,0.5-0.3,1.1-0.1,1.5c0.2,0.4,0.5,0.7,0.9,0.8
				c0.4,0.1,0.5,0.3,0.8,0.9c0.1,0.2,0.2,0.3,0.2,0.4c0.4,0.8,1.1,1.5,2,1.9l0.9,0.4l0.3-0.7c0.2,0.2,0.5,0.4,0.8,0.6l0.1,0.1
				c0.6,0.3,0.9,1.2,0.7,1.8c-1,0-1.6,0.9-1.9,1.3c-0.1,0.1-0.2,0.3-0.3,0.4c0,0,0,0,0,0h-0.1l-0.3,0.2c-0.9,0.8-1.2,2-0.5,2.9
				l0.1,0.1c0.1,0.3,0.3,0.7,0.7,1.1c-0.7,0.1-1.5,0.2-2.2,1.2l-0.7,1l1.1,0.5c0.6,0.3,0.6,0.4,0.3,1.6l-0.1,0.3
				c-0.1,0.6-0.2,1.2-0.1,1.9c0.1,0.8-0.4,1.5-1.1,1.8l-0.1,0.1c-0.1,0.1-0.2,0.1-0.4,0.2c-0.2,0.1-0.4,0.2-0.6,0.2
				c-0.4,0.2-0.6,0.5-0.7,0.8c-0.1,0.3-0.1,0.7,0.1,1l0.1,0.1l0.1,0.1c0.2,0.2,0.5,0.5,1,0.6c0,0,0.1,0,0.1,0l-0.9,0.1
				c-0.1,0-0.3,0-0.5,0c-0.5-0.1-1.2-0.2-1.7,0.4c-0.4,0.4-0.5,1-0.5,1.5c-0.7,0.4-1.1,1-1.4,1.4c-0.2,0.3-0.3,0.5-0.6,0.7
				c-0.3,0.3-0.6,0.7-0.8,1.1c-0.3,0.5-0.5,0.8-0.8,0.9l-0.3,0.1l-1.1,1.1l0.5,0.7c0.1,0.2,0.1,0.5,0,0.9c-0.1,0.6-0.2,1.6,0.6,2.3
				c0.3,0.3,0.3,0.4,0.3,0.4c0,0-0.1,0.1-0.3,0.3l-0.3,0.4c-0.2,0.2-0.4,0.6-0.5,1.1c-0.2,0.9-0.7,1.8-1.3,2.7
				c-0.3,0.6-0.7,1.2-1,1.8c-0.2-1-0.8-1.8-1.3-2.4c-0.1-0.1-0.2-0.3-0.3-0.4c-0.2-0.2-0.4-0.5-0.5-0.7c-0.5-0.7-0.9-1.2-1-1.8
				c0-0.7-0.5-1.3-1.2-1.6c-1.4-0.4-2-1.7-2.6-3c-0.8-1.7-1.9-3.2-2.9-4.6c-0.5-0.6-0.9-1.2-1.3-1.9c-0.3-0.5-0.7-0.9-1.2-1
				c-0.5-0.1-0.9-0.1-1.4,0.2c-0.7,0.4-0.9,1.2-0.6,2.1c0,0.1,0,0.1,0,0.2c0,0.1,0.1,0.3,0.1,0.4c-0.1,0-0.3,0-0.4,0
				c-0.2,0-0.4,0-0.6,0.1l-0.1,0c-0.6,0.1-0.9,0-1-0.2c-0.1-0.1-0.2-0.5,0-1.2c0.1-0.3,0.2-0.6,0.3-0.9c0.3-1.1,0.8-2.4,0.1-3.8
				c-0.5-0.9-0.3-1.5,0.7-2.5c0.5-0.4,0.7-0.9,0.8-1.4c0-0.8-0.5-1.3-0.8-1.6c-1.6-1.5-3.4-2.8-5.6-3.8c-0.3-0.2-1-0.6-1.9-0.1
				c-0.4,0.3-0.6,0.7-0.7,1.1c0,0.4,0.1,0.9,0.5,1.2c0.5,0.5,0.8,1.1,1.2,1.9c0.4,0.9,1,2,2,2.8l0.2,0.1c0.2,0.1,0.4,0.4,0.3,0.6
				c-0.1,0.4-0.2,0.8-0.3,1.2c-0.1,0.7-0.3,1.4-0.5,2c-0.1-0.1-0.2-0.3-0.3-0.4c-0.3-0.4-0.6-0.9-1-1.2c-0.8-0.9-1.5-0.6-1.9-0.4
				l-0.4,0.3v0.1c-0.2,0.2-0.3,0.4-0.4,0.6c-0.1,0.4,0,0.9,0.2,1.3l0.1,0.1c0.3,0.4,0.3,1-0.1,1.4c-0.6,0.6-0.3,1.3-0.2,1.7
				c0,0.1,0,0.1,0,0.1c0.2,1.5,0.9,2.8,2,3.9c0.3,0.3,0.5,0.8,0.3,1.2c-0.2-0.1-0.3-0.2-0.5-0.3c-0.6-0.3-1.3-0.3-1.8,0.1
				c-0.5,0.3-0.8,0.7-0.9,1.2c-0.2,0.5-0.1,1,0.2,1.5c0.4,0.8,0.8,1.5,1.3,2.1c0.1,0.1,0.1,0.3,0.2,0.4c0.2,0.5,0.5,1.2,1.3,1.5
				c0.4,0.2,0.9,0.1,1.4-0.1c0.1,0.1,0.1,0.2,0.2,0.3c0.1,0.2,0.2,0.4,0.3,0.6c0.1,0.3,0.2,0.6,0.4,0.8l0.1,0.1
				c0.2,0.3,0.8,1.2,1.9,1c0.7-0.1,1.1-0.6,1.2-1.5l0.4-1.6c0.2,0.1,0.3,0.3,0.4,0.5c0.6,1.4,2.1,2.4,3.5,2.4c0,0,0,0,0,0
				c0.2,0,0.6,0.1,0.7,0.2c0.1,0.1,0.2,0.4,0.2,1c-0.1,0.9,0.1,1.9,0.7,2.6c1,1.4,1.5,2.9,1.4,4.5l-0.5,1l1.5,0
				c2.2-0.1,4.5-0.1,7.1-0.6c4.8-1,7.3-2.2,7.3-2.2c-0.2-0.8,0.9-1.4,1.5-2.5c0-0.1,0.2-0.2,0.3-0.3c0.4-0.3,0.9-0.9,0.9-1.7
				c0-0.5-0.2-1.1-1.2-1.4c-0.5-0.2-0.9-0.5-1.3-1c0.5,0.2,0.9,0.3,1.4,0.4l0.1,0c0.3,0,0.5-0.1,0.8-0.2l0,0.2l1.6-0.5
				c0.9-0.3,1.3-0.8,1.6-1.4c0.2,0.4,0.5,0.6,0.8,0.8c0.5,0.2,1,0.2,1.5-0.1c1.2-0.6,2.3-1.4,3.4-2.5l0.1-0.1
				c0.4-0.5,0.5-1.1,0.4-1.6c-0.1-0.3-0.4-0.8-1.2-1c-0.1,0-0.2-0.1-0.3-0.2c-0.1-0.1-0.1-0.2-0.1-0.2l0-0.3c0-1-0.4-2-1.1-2.5
				l-0.1-0.1c-0.1-0.1-0.2-0.3-0.2-0.4s0-0.3,0.2-0.5c1.7-2,1.1-3.3,0.6-3.9c-0.1-0.1-0.1-0.1-0.1-0.1c0,0,0.1-0.1,0.4-0.2l0.1-0.1
				c0.1-0.1,0.3-0.2,0.4-0.3c0.1-0.1,0.2-0.2,0.2-0.2c0.6-0.1,1.4-0.3,1.8-1c0.4-0.8,0.1-1.6,0-1.9c-0.3-0.7-0.2-1.5,0.2-2.1
				c0.7-1.1,1.3-2.1,1.8-3.2c0.4-0.8,0.8-1.6,1.3-2.3c0.3-0.5,0.7-0.9,1.2-1.2l0.1-0.1c0.3-0.2,1-0.7,1-1.6c0-0.6,0.2-1.2,0.4-1.9
				c0.2-0.6,0.4-1.3,0.5-2.1c0-1.5,0.5-2.8,1.5-3.7C296.2,68.2,296.4,66.6,295.6,65.4z M277.1,98.5c-0.2,0.5-0.4,1-0.5,1.5
				c-0.3-0.4-0.6-0.6-1.1-0.8c-0.1,0-0.1-0.1-0.2-0.1l-0.1-0.1c-0.3-0.2-0.4-0.5-0.4-0.7c0-0.3,0.1-0.7,0.3-0.9
				c0.4-0.5,0.7-0.9,0.9-1.4c0,0.1,0,0.2,0.1,0.3l0.1,0.7l0.7,0.1c0.2,0,0.4,0,0.6,0C277.4,97.6,277.2,98,277.1,98.5z M280.1,91
				c0,0.2,0.1,0.7,0.1,0.9c-0.1,0-0.2,0.1-0.4,0.2c0-0.1-0.1-0.2-0.1-0.3c-0.4-0.6-0.6-1-0.5-1.5l0.2-1.2c0.3,0,0.6-0.1,1-0.2
				l0.2-0.2c0.2-0.2,0.3-0.2,0.3-0.2c0,0,0.1,0.1,0.2,0.1C280.5,89.1,279.9,89.8,280.1,91z M284.5,83.6c0,0,0,0.1,0,0.2
				c-0.1-0.1-0.2-0.2-0.3-0.4l-0.1-0.1c-0.2-0.3-0.2-0.5,0-0.7c0.2-0.2,0.3-0.5,0.5-0.7C284.5,82.5,284.5,83,284.5,83.6z
				 M285.7,79.1l-0.1,0.1c0,0-0.1,0.1-0.1,0.1c0-0.2-0.1-0.5-0.2-0.7c0,0,0.1,0,0.1,0c0.1,0,0.2,0.1,0.2,0.1l0.1,0.1
				C285.8,79,285.8,79.1,285.7,79.1z"/>
			<path class="st3" d="M1143.9,68.2c-4.8,0.2-9.3-1-13.9-1.9c-7.3-1.5-14.6-3.1-21.8-5c-1.5-0.2-2.8-0.6-4.2-1
				c-1.1-1-0.2-1.6,0.4-2.2c-0.4-0.2-0.8-0.2-1.1-0.1c-0.9,0.2-1.6,1.4-2.6,0.8c-1.7-0.9-3.7-1.4-4.9-3.1c-1.3-1.8-3.2-2.9-5.4-3
				c-1.7-0.1-2.8-1.1-4.2-1.8c-1-0.7-2.1-1-3.3-0.8c-1.4,0.2-2.8-0.2-3.9-1.1c-0.8-0.6-1.8-0.6-2.5-0.1c-1,0.7-2.2,0.9-3.3,0.5
				c-1.3-0.1-2.4-0.4-3.6-0.9c0-0.9,0.7-1.6,1.6-1.7c1.5-0.3,2.8-0.9,4.1-1.6c1-0.6,2.1-0.7,3.1-0.1c0.4,0.2,0.8,0.4,1.2,0.4
				c1.5-0.2,2.9-0.2,4.4,0.1c1.1,0.2,1.9,0.2,2.7,1c0.8,0.7,1.8,1,2.8,0.8c0.5-0.1,1.1,0.1,1.4,0.5c1.5,1.4,3.2,2.4,5.2,3
				c1,0.2,1.8,0.5,2.7,0.9c0.4,0.2,0.8,0.3,1.2,0.2c0.8-0.2,1.7,0,2.3,0.6c1.1,0.7,2.3,1.2,3.4,1.9c1.4,1.1,2.9,1.8,4.6,2.3
				c0.9,0.3,1.7,0.7,2.3,1.4c0.9,0.8,2,1.2,3.2,1.1c1.6-0.2,3.2,0.3,4.4,1.4c0.9,0.7,1.8,1.2,3,1.3c1.1,0.2,2.1,0.6,3.1,1.1
				c0.4,0.2,0.7,0.4,1.2,0.3c1.4-0.4,2.6,0.5,3.5,1.2c1.3,0.9,2.8,1.1,4.3,0.7c1-0.2,1.6-0.2,2.1,0.5c0.7,1.1,1.9,1.5,3.1,0.9
				c0.3-0.2,0.7-0.2,1,0C1142,67.5,1143.1,67.6,1143.9,68.2z"/>
			<path class="st4" d="M1172.6,76.6c-4.5-2.6-9.1-5-13.2-8.3c-0.7-0.7-1.7-1.1-2.6-1.1c0.5-0.9-0.2-1.3-0.8-1.7s-1.4-0.7-1.1-1.3
				c0.3-0.6,1.1-0.1,1.7,0.1c1.1,0.2,1.9,0.7,2.7,1.4c0.1,0.1,0.2,0.2,0.3,0.3c2.7,0.7,4.8,2.8,7.6,3.1c0.4,0,0.8,0.2,1.2,0.4
				c1.8,1.6,3.7,2.7,5.3,4.5c0.5,0.7,0.8,1.5,0.7,2.3l-0.2,0.2C1173.7,76.7,1173.1,76.7,1172.6,76.6z"/>
			<path class="st5" d="M1039,49.9c-1.4,0.7-2.8,1.1-4.4,1.1c-2.4,0-5,0.4-7.3,1c-0.3,0.1-0.7,0.1-1,0.1c-5.8-0.2-11.7,0.8-17.6,0.5
				c-2.7-0.2-5.5,0.3-8.3,0.3c-4.9,0-9.8-0.3-14.7-0.5c-0.5,0-1-0.1-1.5-0.3c3-0.2,6-0.1,9,0.2c2,0.3,4.2,0.3,6.2-0.1
				c0.7-0.1,1.4-0.2,2-0.2c2.1,0,4.3-0.1,6.4,0c4.2,0.3,8.3-0.6,12.3-0.5c0.3-0.1,0.4-0.5,0.2-0.8l0,0c-0.4-1,0.2-1.4,1-1.3
				c1.1,0.3,2.2,0.1,3-0.7c0.3-0.3,0.9-0.1,1.4,0c1.9,0.4,3.9,0.8,5.8,1.1c1.2,0.2,2.3,0.1,3.5-0.2C1036.6,49.3,1038,49.4,1039,49.9
				z"/>
			<path class="st4" d="M1175.5,76.9c0.4,0,0.8-0.1,0.6-0.6c-0.1-0.3-0.4-0.6-0.6-0.9s-0.5-0.8-0.1-1.2c0.3-0.3,0.8-0.3,1.2-0.1
				c1.1,0.3,2,0.8,2.8,1.6c1.3,1.3,2.7,2.2,4.4,2.9c0.8,0.3,1.4,0.9,1.8,1.6s1,0.8,1.5,0.1c0.7-1,1.3-0.6,2-0.1
				c1.9,0.9,3.7,1.9,5.4,3.3c-1.8,0.4-3.4,1.1-5.3-0.4c-1.5-1.2-3.5-1.5-5.4-2c-3-1.1-5.9-2.4-8.7-4.1L1175.5,76.9z"/>
			<path class="st6" d="M461,63.7l-7.8,0.3c-0.2,0-0.4,0-0.6,0c-2.4,1.3-5,0.6-7.5,0.4c-2.9-0.2-5.9-0.1-8.9-0.3
				c0.6-0.7,1.5-0.4,2.1-0.4c0.6-0.1,1.3,0.1,1.8-0.5c-1.6-0.9-3.1,0.8-4.5-0.1c-1.4-0.9-2.9-0.4-4.5-0.8c0.4-0.3,0.9-0.4,1.4-0.3
				c2.9,0.2,5.7-0.4,8.7,0c1.1,0.1,2,0.4,2.9,1c0.7,0.5,1.6,0.6,2.2,0.2c1.8-0.7,3.7-0.7,5.4,0c1.1,0.5,2.2,0.5,3.4,0.2
				c1.1-0.3,2.1-0.7,3.2-0.2c0.1,0,0.3,0,0.4,0c1.9-0.7,3.8,0.2,5.7,0.1C463.5,64.5,462.3,63.7,461,63.7z"/>
			<path class="st7" d="M372.2,62.7c-2,0.9-3.2,2.5-5.4,2.5c-0.9,0.1-1.8,0.5-2.4,1.2c-1.5,1.1-3,1.9-4.7,2.7
				c-2.3,1.3-4.7,2.3-6.9,3.7c-2.2,1.4-4.7,1.8-6.6,3.4c0-1.6,1-3,2.4-3.6c1.4-0.8,2.7-1.7,4-2.6c0.4-0.2,0.7-0.5,1.2-0.4
				c0.4,0.7-0.6,0.8-0.4,1.5c1.8-0.9,3.5-1.7,5.2-2.6c1.7-1,3.3-1.8,4.9-2.7c2-1.1,4.1-1.9,6.3-2.5
				C370.3,63.1,370.9,62.4,372.2,62.7z"/>
			<path class="st8" d="M1184.2,80.8c2,0.6,4,1.3,5.9,2c0.3,0.1,0.6,0.4,0.6,0.8s0.4,0.6,0.5,0.4c0.8-1.5,1.9-0.2,2.8-0.3
				c0.2,0,0.4,0,0.6,0c2.1,1,4.2,2.3,6.6,2.5c1.2,0.1,1.8,1.2,2.5,1.9c-5.8-1.1-11.7-2.4-17.1-5.1
				C1186,82.3,1184.3,82.4,1184.2,80.8z"/>
			<path class="st9" d="M387,57c0.1-0.1,0.2-0.2,0.3-0.3c2.9-0.9,5.9-1.7,9-2.7l-0.2,1.4c4-1,7.7-2.8,11.9-3.3
				c0,0.6-0.4,1.2-1.1,1.3c-4.1,1-8.1,2.4-12.3,3.1c-2.4,0.4-4.8,1.3-7.3,1.6C387.1,57.6,387,57.3,387,57z"/>
			<path class="st10" d="M387,57c0.3,0.2,0.5,0.5,0.4,0.8l0,0c-0.5,0.5-1.2,0-1.7,0.4l-11.2,4.3l-0.1-0.3c1.2-0.8,2.4-1.6,3.8-2.1
				C381.1,58.8,384,57.7,387,57z"/>
			<path class="st11" d="M461,63.7c1.2-0.3,2.4,0.4,3.6-0.5h4.2c0.2,0.2,0.2,0.3,0,0.5C466.2,64,463.6,64.4,461,63.7z"/>
			<path class="st11" d="M492.5,63c0.9,0,1.6-1.1,2.8,0C494.4,63.3,493.4,63.3,492.5,63z"/>
			<path class="st6" d="M468.8,63.8v-0.5c1,0.1,2-0.3,3,0.3l-2.6,0.2H468.8z"/>
			<path class="st9" d="M398.4,64.1c0.5-0.6,1.1-0.4,1.7-0.4C399.6,64.2,399,64.1,398.4,64.1z"/>
			<path class="st4" d="M1174.4,76.5c0.5,0,0.9,0.1,1.3,0.4l-0.1,0.1C1175,77.3,1174.5,77.4,1174.4,76.5L1174.4,76.5z"/>
			<path class="st12" d="M1073,49.6c1.1,0,2.1-0.4,3-1c0.7-0.6,2.3-1.5,3.3,0.3c1.4,0.4,2.6,1.4,4.1,0.6c0.7-0.3,1.4-0.1,1.9,0.3
				c1.1,0.6,2,1.2,3,1.8c0.8,0.4,1.5,1,2.5,0.5c0.8-0.4,1.4,0.5,2,0.8c1.4,0.6,2.7,1.2,3.4,2.7c0.5,0.9,1.4,1.5,2.2,1.7
				c0.7,0.2,1.4,0.5,1.9,1s1.2,0.5,1.5-0.1c0.5-1.3,1.4-1,2.1-0.7c0.6,0.2,1.3-0.4,1.8,0.4c-1,0.6-2.5,0.8-1.9,2.5
				c-2.3-0.5-4.8-1.1-7.1-1.8c-2.3-1.8-5.3-2.1-7.8-3.5s-4.8-2.7-7.6-2.7l0,0c-0.9-1-2.1-1-3.3-1.3L1073,49.6z"/>
			<path class="st13" d="M1081.5,52.5c1.6-0.7,2.8-0.3,4.4,0.4c1.9,0.9,3.7,2.1,5.6,2.8c0.7,0.2,1.3,0.4,1.9,0.5
				c1.6,0.3,2.3,1.7,3.5,2.5c-3-0.5-5.9-1.1-8.7-2.6C1086,54.7,1083.7,53.6,1081.5,52.5z"/>
			<path class="st14" d="M1174.2,76.6c0.3,0.3,0.8,0.5,1.3,0.4c3.1,0.9,5.7,2.7,8.8,3.7c0.6,1.1,2,1.2,2.5,2.3
				c-2.9-1.1-5.8-2.4-8.7-3.8c-1.8-1-3.9-1.4-5.4-2.7C1173.1,76.1,1173.7,76.3,1174.2,76.6z"/>
			<path class="st13" d="M1078.2,51.2c1.3-0.1,2.6-0.1,3.3,1.3C1080.3,52.2,1079.1,51.8,1078.2,51.2z"/>
			<path class="st2" d="M281.7,100.1c-0.3,0-0.5-0.1-0.5-0.5c0-0.3,0.2-0.5,0.5-0.5c0,0,0,0,0.1,0c0.2,0.1,0.3,0.2,0.4,0.4
				C282.2,99.9,282,100.1,281.7,100.1z"/>
			<path class="st2" d="M288.4,63.8c-0.3-0.1-0.5-0.2-0.5-0.5c0-0.2,0.1-0.4,0.3-0.4c0,0,0,0,0.1,0c0.3,0,0.5,0.3,0.5,0.5
				S288.7,63.8,288.4,63.8C288.5,63.8,288.4,63.8,288.4,63.8z"/>
		</g>
	</g>
</g>
</svg>
