<svg id="圖層_1" xmlns="http://www.w3.org/2000/svg" xmlns:xlink="http://www.w3.org/1999/xlink" viewBox="0 0 1440 720"><style>.st0{clip-path:url(#SVGID_2_)}.st1{fill:#060b0e}.st2{fill:#050a0e}.st3{fill:#081013}.st4{fill:#141716}.st5{fill:#121b1a}.st6{fill:#1b1c18}.st7{fill:#885123}.st8{fill:#b46f2c}.st9{fill:#1f1810}.st10{fill:#824d22}.st11{fill:#2a2419}.st12{fill:#684122}.st13{fill:#c4834b}.st14{fill:#3a2919}.st15{fill:#402e1b}.st16{fill:#55341a}.st17{fill:#5d381b}.st18{fill:#3b2d1d}.st19{fill:#4a2a13}.st20{fill:#97531b}</style><title>cave_right</title><defs><path id="SVGID_1_" d="M1311.5 0H1440v720h-128.5z"/></defs><clipPath id="SVGID_2_"><use xlink:href="#SVGID_1_" overflow="visible"/></clipPath><g class="st0"><path class="st1" d="M1410 0h40.2v720.2H1410z"/><path class="st2" d="M1330.7 279.8c-.5-1.3-1.2-2.6-1.9-3.8-1-1.7-1.7-3.6-2.2-5.5-.2-.6-.3-1.1-.3-1.7-1.7-5.1-2.3-10.4-4.7-15.4-2.2-4.7-1.8-27.8-4-34.8-1.7-5.3-2.6-10.8-2.6-16.3-.1-10.8 1.6-20.9 1-43.5-.2-5.8-4.6-29.8-4.5-39.5 0-6.1 2.5-29.2 3.2-38.4 1.1-4.4 2.2-21.2 2.8-26.6 1-9.3 1.2-18.7 1.7-28 .4-6.1.8-12.2 2.7-18 .9-2.6 1.8-5.4 1.2-8.3h127.1v330.9c-.6 4.5-4.7 6.1-7.6 8.5-2.1 1.7-4.1.5-4.9-2-.8-2.5-1.7-5.1-2.4-7.7-2.1 1.5-4.3 2.6-6 4.2-2.3 2.1-4.1 1.8-4.5-1.1-.7-4.5-4.2-6.1-7.2-8.4-.7-.5-1.6-1.1-2.3-.5-3 2-6.9 1.3-9.9 3.2-1.3-.2-2.4-.9-3.3-1.8-.3-.3-.5-.7-.7-1.1 0-.2 0-.4-.1-.6.6-2.1 2.4-2.1 4-2.4 2-.4 2.4-1.5 1.9-3.4-.8-3.3-3.1-5.7-5-8.2-2.5-3.5-5.6-6.4-9.3-8.6-3.7-2.2-7.2-4.8-10.4-7.6-3.7-3.1-8.4-4.9-13.3-4.9-6.6-.3-13.2-1-19.8-1.1-6.9-.1-13.8-1.9-18.7-7.6z"/><path class="st3" d="M1340.1 615.2c-.9-9.7-2.8-19.3-5.6-28.7-3.1-10.2-5.4-20.6-6.9-31.1-1.5-10.7-1.2-21.6 1-32.2 1.3-6.5 2.7-13.1 4.1-19.6.6-2.9.8-5.9.8-8.9 0-9.5-.7-19-2.3-28.4-.9-4.7-1.3-9.6-1.3-14.4.1-3.1.6-6.2 1.5-9.2 1.9-2.3 3.3-4.5 1.7-7.9-1-2.1-.4-4.5 3-5.4s6.1-2.4 9.8-1.3c2.7.6 5.6-.3 7.5-2.3 3.3-3.4 7.5-4.1 11.6-5-3.1-.3-6.3-1.1-9.5-.5-2.7.5-5.3.9-7 3.5-.7.9-1.7 1.6-2.9 1.7-1.5.4-3.2.6-4.4-.7-1.2-1.3-.3-3 .5-4.3 1.2-1.6 2.2-3.4 3-5.2.6-1.5 2-2.5 3.6-2.6 3.9-.5 7.8-1.5 11.9-.8 4.1.7 7.8-1.4 11.7-1.6 2.2-.1 4.5-1 5.4 2.4.5 1.9 1.9.8 2.4-.1 1.7-3.2 4.4-3.6 7.6-3.3 3.7.3 7.4-.7 10.9-1.6 5.5-1.4 11.2-1.9 16.7-3.2 2.5-.5 5.1-.6 7.6-.2 4.1.5 8.1 1.5 12.3.4 1.7-.6 3.6.2 4.2 1.9v.1c.6 2-1.5 2.4-2.8 3.1-1.6.6-3.3.9-5 .7-2.4-.2-4.9.1-7.2.9-4.2 1.7-8.2 2.9-12.7 1.1-1.3-.4-2.6-.2-3.7.6-1.7 1.2-3.9 1.5-5.9 1.1 12.6-.4 25.2-1.7 37.6-3.7 3.6-.7 7.2-1.4 10.9-.3v49.5c-2.1 5-3 5.1-6.5.6-.7-.9-1.7-1.8-2.3-.7-3.7 6.1-10.4 5.7-16 7.8-.3.1-.4.4-.6 1 1.8 1.4 3.3 0 4.8-.7 1.7-.8 3.5-1.9 5.1-.3 1.6 1.6.3 3.2-.3 4.8-.8 2.1-1.8 4.2-2.6 6.3-2.3 6-2.3 6-8.6 5.4.4 1.2 1.4 1.2 2.3 1.4 2.9.6 4.4 2.8 4 5.2-1.2 6.1 1.3 11.8 1.8 17.7.2 2.6.7 4.9-3 5.2-1.5.1-2.2 1.8-2.8 3.1-4.1 8.6-11.6 13.3-19.7 17.4-5.9 2.9-11.6 6.1-17.1 9.6-7.2 4.6-12.8 10.7-18 17.3-1.9 2.7-2.1 5.9-2.4 9-.2.8-.6 1.5-1.1 2.1l-.4.4c-.5.6-1.1 1.1-1.7 1.7-3.9 4.7-7.8 9.4-11.9 13.9-5.8 6.1-7.5 14-9.6 21.7-.6 2.1-.4 4.9-3.5 5.6z"/><path class="st1" d="M1323 720c-.1-5.2-.2-10.4-.2-15.6 0-4.9.1-9.8.2-14.8 0-.7.2-1.4.4-2.1.5-1.9.5-3.9.2-5.9-.4-2.6 0-5.3 1.2-7.7.4-2.6 1.8-4.1 4.1-5.4 4.1-2.3 7.9-4.9 9.1-10.1.5-2.5 2.8-4.2 5.3-4 1.8.1 3.1 0 2.9-2.4-.2-1.4.8-2.6 2.1-2.8h.4c6.9-.5 12.9-4.1 19.4-5.8 2.1-.5 3.9-1.1 4.4 2 .3 2 1.8 1.4 3 1.1 2.6-.7 4.8-2.1 7.3-2.8-.2-1-.7-1.3-1.3-1.3-2-.2-4.6.7-4.5-2.8.2-3.8 2.9-7.2 5.8-7.2 5.5 0 11.1-.6 16.6-.3 3.1.1 6.1-.6 9.3-1.1-.9-1.2-2-.8-2.9-1.2-1.6-.6-3.6-1.1-2.8-3.4.5-1.7 2.3-2.7 4.1-2.2.2 0 .3.1.4.2 7.2 3.4 14.8 1.3 22.3 1.8 3.5.2 5.9-.8 5.8-4.9 0-.3.1-.6.2-.8 1.3-3.6 10.6-7.5 14.3-5.9V720H1323z"/><path class="st4" d="M1450.2 410.3c-2 .7-4.2 1-6.3.8-2.9-.2-5.6.7-8.4 1.1-3.8.5-7.5 1-11.3 1.6-5.6.9-11.2.5-16.8 1.4-2.9.5-5.9.1-8.9.1-.2 0-.5-.3-.6-.5-.3-.5.2-.8.5-.9 1.8-.2 3.4-1.5 5.3-.4.7.3 1.5.1 1.9-.5 2.6-2.6 5.7-2.3 8.6-.9 1.9.9 3.6 1 5.2-.1 2.8-2 6-2.1 9.2-2.5 1-.1 2-.1 3 0 2.5.2 5-.6 6.9-2.2-1.3-1.6-2.8-2.3-4.7-1.2-1.4.8-3 1-4.5.4-.9-.3-1.9-.4-2.9-.4-1.3 0-2.5-.2-3.8-.4-2.6-.7-5.4-.6-8 .1-2.6.7-5.2 1.5-7.9 1.2-.9-.1-1.7 0-2.5.4-3 1.3-6.2 2-9.4 2.2-.7.1-1.4.3-2.1.5-2.2.5-4.3 1.2-6.6.4-.7-.1-1.4-.1-2.1 0-2 .1-2.4.4-3 2.3-.9 2.6-2.5 3.4-5.1 2.6-.6-.2-.9-.8-.7-1.4 0-.8 1-1.4.8-2.3-.8-.4-1.7-.5-2.5-.3-3 .8-6.2.6-9.1 1.9-1.3.6-2.8.6-4.1.1-2.2-.6-4.5-.7-6.7-.1-1.5.4-3 .6-4.6.6-1 0-2 .3-2.8.9-1 .6-.9 1.7-1 2.6 0 .9-.4 1.7-1.2 2.1-.8.5-1.5 1.3-1.9 2.2-.4.9-1.3 1.8-.6 2.7s1.9.5 2.8.4c1.5-.1 2.9-.6 3.5-2 1-2.6 2.9-2.9 5.3-3.2 2.2-.4 4.5-.6 6.7-.7h1.3c1.2-.1 2 1 3.1 1.1 1.1.1 1.9-1.3 3.1-1.1.6.1 1.1.1 1.2.9.1.6-.3 1.2-.9 1.3-2.9 0-5.3 1.9-8.1 2.1-2 .1-3.9 1.2-4.8 3-.6 1.3-2 2.1-3.4 2-1.1.1-2.2.5-3.2 1.1-1.4.9-3.2.7-4.4-.3-1-1.1-2.8-1.1-3.8-.1l-.1.1c-1.3 1.3-3.1 2-5 1.9-1 0-1.5.6-1.6 1.6-.1 1.6-.2 3 1.8 3.7 1.5.5 1.7 1.6.6 2.6-1.4 1.4-2.5 3.1-4.4 3.9 1.2-6.7 1.5-13.5 1.1-20.3-.3-2.4.4-4.8 1.7-6.8 2.3-3.5 6.2-4.2 9.7-5.6.8-.2 1.6-.5 2.4-.9.4-.3.1-.7-.2-1-.3-.3-.8-.5-.8.1-.1.9-.7 1.6-1.6 1.8-1.5.5-3.3 1.9-4.7.3-1.3-1.4-.8-3.2 0-4.7 4-7.4 8.8-14.2 15.3-19.6 2-1.7 4.1-2.9 6.9-2.7s5-1.7 8.4-3.4c-4-.8-7-.9-10 .8-.8.5-1.7 1.4-2.6.4-.7-.9-.1-1.9.4-2.7 1.5-2 3.2-3.9 5-5.7 1.4-.5 2.3 1.2 3.6.8.4 0 .7.1 1.1.2 4.9-1.2 8.8-5.1 10.1-10-3.7-3.9-7.9-6.6-11.3-10.3-.1-4.6.3-9 2.3-13.2.9-2.3 1.2-4.7.9-7.1-.1-2.7.9-4.8 4.2-4.3 1 .4 1.2 1.1.7 2.7 1.8-1.6 2.6-3.2 3.9-4.3 1.3-1.1 2.7-2.4 4.8-1.1 2 1.1 4.1-.6 6.2-.2 5.2 1.1 10.6 0 15.9 1 1.3 0 1.5-.9 1.9-1.9s1-1.4 2-.6c1 .9 2.5.9 3.5.1l1.4-.9c2.4-1.4 3.2-1.3 5.1.7.8.9 1.4 1.7 2.7 1.8 1.1 0 1.7.9 2.2 1.7 1.1 1.8 1.7 3.9 1.9 6 0 .6.5 1 1.1 1h.1c.3 0 .6-.1.7-.4.6-.5 1.2-1.1 1.7-1.8.6-.8 1.4-1.4 2.3-1.7 2.3-.9 2.3-1 3.9-3.4 1.1.5 1 1.6 1 2.6.1 3 1.7 5.6 2.5 8.4.3 1.1 1.4 1.3 2.5.7.8-.3 1.5-.9 2-1.6.7-1.3 1.9-2.2 3.3-2.4.9-.2 1.3-.9 1.8-1.7s.7-1.9 1.6-2.4v75.1c-.2.2-.3.4-.2.6.1.2.1.3.2.3l.4 3.2z"/><path class="st5" d="M1450.2 614.2h-2.1c-2.4-.2-4.5.3-5.7 2.7-.5 1.2-1.6 1.4-2.8 1.6-2.7.4-3.3 1.1-2.8 3.5.2 1 .7 1.9-.2 2.8-1.1 1.1-2.1 2.2-3.9 2.2-3.1-.1-6.2 0-9.4 0-1.5 0-3.1.1-4.6.3-1.8.2-3.6-.3-5.4-.3-1.7 0-3.3-.6-4.7-1.6-.6-.4-1.3-.6-2-.7-1.3.1-2.5.9-3 2.1-.1.8 1.1 1.6 2.6 1.8s3.2-.2 4.5.9c.3.3.6.6.7 1 .1.6-.4 1-.9 1.3-.1.1-.3.1-.4.1-3.3-.1-6.4 1.1-9.7 1.1-5.1-.2-10.1-.1-15.2.4-.4.1-.8.1-1.2 0-1.1-.3-2.2-.9-3.2 0-.8.8-1.3 1.9-1.5 3-.4 1.2-1 2.3-1.4 3.5-.1.6.3 1.3.9 1.4h.3c.7-.2 1.3-.4 2-.6 1.6-.4 3.2.5 3.7 2.1 0 .1.1.3.1.4.3 1.1-.8 2.4-1.8 2-1.2-.5-2.6-.2-3.5.7-2 1.6-4.5 1.7-6.8 2.2-1.1.3-1.9-.6-1.7-1.8.1-.7.4-1.3.5-2 0-.5-.4-.9-.9-.9h-.3c-1.1.4-2.1.9-3.1 1.4-1.3.8-2.8-.6-4.1.4-1 .8-1.9 1.7-2.9 2.5-.4.2-.8.3-1.2.3-2.6-.1-5 .9-7.5 1.5-1.1.2-2.2.2-3.4.4-.8.1-1.4.9-1.3 1.7v.1c.1.6.3 1.1.6 1.6.6 1.6.1 2.5-1.5 2.3-.7-.1-1.3-.3-2-.5-1.7-.6-3.2-.3-4.6 1.9-.5.7-.8 1.5-.9 2.3.2 2.7-1.4 4.4-3.2 5.6-2.6 1.7-4.5 4.4-7.7 5-1.9.4-1.6 2.5-2.8 3.5.4-4.9.6-9.9 1.2-14.8.6-3.1 1.3-6.1 2.2-9.1.5-.5.3-1.2.8-1.8 3.3-3.6 7.5-6.5 8.7-11.7 0-.4.1-.7.2-1.1.2-.6.4-1.3.6-2l.3-.9c.3-.8.4-1.6.5-2.4.1-.3.2-.7.3-1 .2-.5.5-1 .7-1.5.2-.4.4-.7.7-1 3.8-5.4 7-11.2 11.2-16.3 2.3-2.9 5.6-4.8 9.3-5.3 1.6-.3 2.7-.5 2.7-2.4.1-1.4.8-2.8 1.8-3.8 2.6-3.2 5.3-6.1 6.8-10.1 1.1-3.2 4.7-4.3 7.6-5.9 1-.5 2.2-.7 3-1.5 5.6-6.3 13-9.6 20.6-12.9 2.6-1.1 5-2.3 6.2-5.4.7-1.9 3-2.9 4.8-4.1.5-.3 1.1-.5 1.7-.6 3.7-1.7 8.1-1.9 11.2-5 3-2.8 7.1-1.2 10.5-2.4 4-.8 8-1.3 11.8.8v63z"/><path class="st6" d="M1369.9 560.4c.1-.4 0-1 .3-1.2 2.9-2.7 4.4-6.6 8.1-8.6.3-.1.5-.3.6-.5 2.5-4.5 7.3-5.9 11.1-8.8 4.9-3.7 10.6-5.9 15.9-8.9 1.1-.6 2.2-1.3 3.3-1.9 1.7-1.1 3.4-2 5.2-2.9 2.8-1.1 4.5-3.2 6-5.7 2.2-3.6 4.7-7 7.1-10.5.4.3.9.5 1.4.7.9.3 1.7 0 1.6-.6-.6-3.4-.1-7.1-1.5-10.4-1.1-2.6-1.3-5.5-.6-8.3.3-1.4.2-2.8-.2-4.1-.2-1.5-1.5-2.5-3-2.5-.8 0-1.7-.1-2.5-.3-1-.2-1.9-1.5-1.7-2.1.5-1.2 1.8-1.9 3.1-1.7.6.2 1.1.4 1.6.7.5.3 1 .5 1.6.6.8.3 1.8-.1 2.1-.9 1.1-4.7 3.7-8.9 5.1-13.5.1-.1.1-.3.1-.4.1-.5-.3-1-.9-1.1h-.1c-.8-.1-1.7.1-2.4.5-1.1.6-2.2 1.3-3.3 2-.6.3-1.3.8-2 .5-1.2-.6-3.2-.8-3.3-2.3-.2-1.9 2-1.7 3.2-2.1 2.7-.8 5.4-1.5 8.2-2.1 2.3-.3 4.3-1.7 5.4-3.7.3-.6.9-1.1 1.2-1.7.9-1.6 2.1-1.8 3.7-.1.8.9.7 2.1 1.1 3.2.2.8 1.1 1.3 1.9 1.1.3-.1.6-.3.8-.5.8-.8 1.5-1.7 2.2-2.5v6.8c-.7.6-1.5.3-2.3.4.8.1 1.6-.2 2.3.4v10.2c-3.4 6.1-4.4 12.9-4.9 19.7-.1 1.5-.1 3.3-2 3.8-4.7 1.4-5.7 5.8-6.6 9.5-.9 3.7-1.9 6.7-5.2 8.7-.9.5-1.5 1.3-1.9 2.2-.4.6-.3 1.4.1 2 .4.4 1.1.2 1.6 0 1.7-.8 3.6-.9 5.3-.1 2.2.8 3.8-.5 5.2-1.9 2.6-2.6 5.4-2.9 8.2-.4V533c-3.4.6-6.7 2.2-9.3 4.5-.6.6-1.4.9-2.3.9-2.6-.1-5.1.8-7 2.6-7.4 6.2-16.9 7.7-25.2 11.8-3.2.7-6.6.6-9.3 3-2.2.5-4.2 1.7-6.6 1.3-.9-1.3-1.2-3-3.5-3s-1.7-1.5-.9-3.1c-2.6 6.2-9.4 6-13.8 9.3-.5.7-1.4.8-2 .3-.1 0-.2-.1-.3-.2z"/><path class="st3" d="M1450.2 521.2c-.8 0-1.7-.2-2.5-.4-2.1-.9-3.6-.1-4.9 1.4-.3.3-.6.6-.8 1-.6 1.4-2 1.4-3.1 2s-2.1-.1-3.1-.7c-1.2-.9-2.8-.8-3.9.2-.4.4-.8.8-1.3 1.1-.7.5-1.6.3-2-.3 0 0 0-.1-.1-.1-.1-.1-.2-.3-.2-.5-.8-2.4.2-5 2.5-6.2 2.1-.9 3.7-2.7 4.4-4.9.5-.7.6-1.6.3-2.4-.8-1.6.1-2.8.9-3.9 1-1.1 1.7-2.5 2.1-4 .4-2.1 2.1-3.1 4.3-3.1.9 0 1.3-.2 1.4-1.1.1-.4.1-.9.1-1.3-.2-3.1.3-6.2 1.3-9.2.2-.4.3-.8.3-1.2-.4-2.6 0-4.9 2.2-6.7.4-.4.4-1.3.5-2s.9-1 1.6-1.1v43.4z"/><path class="st7" d="M1405.9 552c1.8-.5 3.5-1.2 5.1-2 3.8-2.1 7.9-3.2 11.9-4.5 1.4-.3 2.6-1 3.6-2 1.3-1.5 2.9-2.7 4.8-3.4.9-.4 1.8-.9 2.6-1.5 1.1-.9 2.5-1.3 3.9-.9 1.8.4 2.3-.1 3.1-2.2.3-.8.8-1.2 1.5-.4.7.8 1.5.6 1.7-.1.9-2.9 2.8-2.6 5-1.8.3.1.5.1.8.1v11.9c-.9.9-2.2 1.4-3.5 1.2-4.9-.7-9.7 1.5-14.7-.1-2.2-.7-4 .8-5.7 2.2 1.8 2.3 4.1 1.7 6.4 1.3s4.6-.5 5.5 2.4c-1.5 1.2-3.2.6-4.9.7-2 0-3.9.6-5.5 1.8-3.7 2.1-7.8 2.3-11.9 2.4-.4-.1-.7-.4-1-.7.5-1.6-.4-5 2.8-4.7-2.5 1.2-5.4 3.1-8.9 2.3-.7-.5-2.6.3-2.6-2z"/><path class="st8" d="M1438.3 552c-1.7-1.4-3.5-2.3-5.8-1.2-1.1.3-2.2.4-3.3.2-.9 0-2.5.8-1.9-1.4-.8-.6-2 .1-2.7-.6 1.4-2.3 3.7-4 6.4-4.5.7-.1 1.4-.3 1.9.3 1.2 1.5 2.8 1.1 4.3.9s2.7-.6 4.1-.9c.4-.1 1-.4 1.2-.2 2.5 2.1 5.2-.3 7.7.5v6.8c-2-.2-4.1-.1-6.1-.4s-3.9.3-5.8.5z"/><path class="st2" d="M1374.2 329.2h-.8c-2.5.3-3.7 1.6-3 3.9.6 1.9.5 3.9-.3 5.7-.2.5-.3 1.1-.5 1.6-1.6 3.3-2.4 6.9-2.1 10.6 0 1-.3 2-.9 2.8 1.8 2.3-.4 4.1-.8 6.1-.1.4-.3.8-.5 1.1-.3.6-.6 1.1-.9 1.6-3.3 5.1-4 11.3-7.1 16.7-2.3 4.2-5 8.1-8.2 11.6-2.6 2.9-5.7 5.5-7.9 8.8-.4.6-1 1.5-2 .7-.5-.4-.2-1.1 0-1.6-.1-.2 0-.4.2-.6 1-1.3-.1-3 .8-4.3l.2-1c.5-.7 0-1.6.5-2.3.1-1.3.4-2.5 1-3.6 1.2-.8-.6-3.2 1.5-3.4 1.1-.1 2 .8 2.1 1.9v.3c3.3-4.8 2.2-9.7.5-15.1-2.1-6.9-2.4-14.4-2.9-21.5-.4-6.2.6-12.3 3.1-18 .4-1.1.2-2.3-.6-3.2-2.2-2.9-2.8-6.7-1.5-10.1.4-.9.4-2 .1-2.9-1.1-3.1.6-4.9 3.1-6.1 1.8-.8 3-1.7 3-4.1s-1.6-2.6-3.3-2.8c-.6-.1-1-.5-1.2-1-1.1-2 1.3-8.8 3.3-10 2.6-1.5 5.4-2.3 8.4-2.4 4.1 0 8 1.2 12 2.1 4.5 1.1 6.1 4.5 7.1 8.5 1.7 4.6 4.5 8.8 6.2 13.5.1 1.7.8 3.3 1.9 4.5.2.3.4.6.5 1 .3.9.4 1.9.5 2.8 0 .4-.1.7-.2 1.1-3.8 2.7-8.1 4-11.3 7.1z"/><path class="st9" d="M1357.2 290c-1.2 0-2.4 1.1-3.7.4-.4-.1-.8 0-1.1.3-1 1.8-2.7 1.9-4.4 2.1-.5.1-.9.6-.9 1.1v.1c.8 1.7.5 3.7-.8 5.1-.1.2-.2.5-.2.8-.1.6.1 1.2.5 1.6.5.4 1.1.4 1.6.2.8-.3 1.3-1.3 2.2-.9 1.2.5.7 1.7.7 2.6-.1 1.3.1 2.6.4 3.8.3.6 0 1.4-.6 1.7-.1 0-.1 0-.2.1-.9.4-1.8.7-2.8 1.1-1.2.4-2.3 1.2-3.1 2.2-.5.8-.8 1.6-.1 2.3 1.1.8 1.3 2.3.5 3.4-.5.7-.8 1.5-.9 2.4-.5 2.2 0 4.6 1.2 6.5.5.7 1 1.4 1.4 2.1 1.5 2.3 1.5 2.3-.8 4.2-.7.6-1.3 1.3-1 2.2 1.5 3.5-.2 6.6-.8 9.9-.3.8-.5 1.6-.7 2.4-.6 2.2-.4 4.5.6 6.6.6 1.2 1.1 2.6 1.7 3.9.5 1.2.6 2.5.1 3.7-1.2 3.1-.4 6.2.6 9 1 2.5 1.5 5.1 2.4 7.7.4.8.4 1.7-.1 2.5-1.5 1.9-2.2 4.3-3.1 6.7-1.2-1-1.1-2.8-2.8-3.1-1 .6-.2 2.3-1.4 2.8 0-1.6.2-3.1.6-4.6.7-3.5.6-7.1-.2-10.5-.7-2.6-1-5.3-.9-8 0-1.7-.2-3.4-.6-5-.6-2.6-.8-5.3-.5-8 .3-3.2.5-6.5.7-9.7.1-2.4-.3-4.8-1.3-7-1.7-4.1-2.4-8.5-2.1-12.9.3-.2.7-.2 1 .1.4.4.5 1 1 1.3-.4-.7-.9-1.3-1.4-1.9-1.2-4.7-.3-9.5-.4-14.3.5-3.1 2.5-5.7 2.5-9.2s-1.3-5.1-4.6-5.6c-.8-.1-1.6-.5-2.2-1.1-.6-1.4-.7-2.9-1.5-4.2-1.8-1.8-2.2-4.6-1-6.9 2.4 1.3 4.9 2.2 7.1 3.9.2.2.4.3.7.4.8.4 1.6.6 2.4.8 4.4.4 8.6 2.9 13.3 1.5.5-.2 1.2-.6 1.6-.4 2.5.9 5.1.3 7.6 1 1.6.5 3.3.7 5 .5 2.7-.1 5.4.2 8 1.1 2.5.7 4.7 2 6.5 3.8 2 1.8 4 3.5 6.9 3.9 1.4.1 2.5 1.4 2.4 2.8v.2c-.1.9.5 1.7 1.3 1.8h.5c1.3-.1 2.5.2 3.7.7.7.4 1.6.8 1.8 1.7.6 2.4 2.5 4.1 3.6 6.2.1 2.2.3 4.5.6 6.7s0 4.3-3.1 3.3c-1.6-.5-1.7 1.1-2.7 1.5-3.1 1.3-6.5 0-9.8.8-2.5.6-2-2.7-2.7-4.3-.2-.6-.3-1.1-.4-1.7-.1-1-.4-2-.9-2.8-3-4.7-6.8-9.1-6.4-15.3.1-.4.5-.7.7-1 .5-1.1-.5-.5-.7-.4-1.7.7-3.4 1.6-3-1.7.2-1.7-1.5-1.9-2.6-2.4-6.4-2.8-13.3-3.3-20.1-3.8 1.9 0 4-1.1 5.2 1.2z"/><path class="st7" d="M1390.4 557c2.1-1 4.4-1.6 6.8-1.8 1.2-.4 2.7-1.2 3.2.4.4 1.3-1.4 1.4-2.2 2.1-3.1 2.4-7 3.6-10.1 5.9 7.3-3.3 15.5-4.1 22.7-7.7 1.4-.9 3.2-.8 4.4.3-.5 1.6 3.4 1.1 1.6 3.3l-1.6.3c-9.4 3.1-18.6 6.4-27.4 11-.4.2-.8.4-1.2.5-6.9.2-11.4 4.5-15.2 9.5-3.6 4.8-9.3 7.3-12.9 12.1-1.3 1.7-2.7 3.3-4.3 4.7-.8.7-1.8 1.9-2.9.9-1.3-1.1-.5-2.3.5-3.3.3-.3.5-.7.2-.5-2.7 3.3-4.3 7.4-4.7 11.6-.8 7.5-2.9 14.7-6.3 21.4-.5.5-.3 1.2-.8 1.7-.1.2-.1.5-.1.7-.6.8 0 2-.8 2.7-.7.7 0 1.9-.8 2.6-.6.8-.5 2.5-2.1 1.9-1.1-.4-1-1.6-.8-2.6.7-3.8 3.3-6.8 4.2-10.5.5-.7.7-1.6 1.2-2.3-.8.3-.2 1.3-.9 1.6-1.5 1.5 0 5.5-4.1 4.9 0-.3 0-.5.1-.8 1.9-4 3.3-8.2 4.1-12.6 2.4-3.7 3.3-8 4.1-12.3 1.2-6 4.2-11 7.9-15.6.2-.2.4-.4.7-.5 4.5 1.2 6.3-1.7 8.4-4.8 1.8-2.7 5.1-4.2 7.2-7-1.4.1-3.2 1.2-3.2-1.5.4-.7.8-1.4 1.2-2 .3-.3.6-.6.8-.9 1.4-2.9 4.1-4.4 6.4-6.5 5-4 10.9-5.1 16.7-6.9z"/><path class="st10" d="M1339.1 399l.6 1.5c1.7-3.8 5-6 7.7-8.8 4.7-4.5 8.4-10 10.9-16 1-2.5 2.2-4.9 2.6-7.6.5-2.4 1.6-4.6 3.2-6.4l.8-.9c1.6-.5 3.6-1.5 4.3.6.6 1.8-1.2 2.9-2.9 3.6-1.9.8-3.1 2-1.6 4.2 1.3 1.9 0 2.8-1.6 3.5-.9 1.3-1.4 2.9-3.1 3.9-1.2.7-1.9 2.4-2.7 3.5.2.5.4.6.7.4 1.6-.6 2.2-2.9 4.7-2.3 1.7.4 3.5-.7 5.3.2 1 .3 2 .4 3 .4-.1.4-.3.8-.6 1.2-2.3 2-5.2 2.9-7.8 4.2-.4.2-.8.3-1.2.1-2.8-1.4-4.8.5-6.3 2-2.9 2.8-6.2 5.3-8.4 8.9-.8 1-1.6 2-2.5 2.9-.7.9-1.5 1.7-1.2 3 .2.5 0 1.1-.5 1.4-.9.7-1.7 1.5-2.3 2.4-.7 1-1.1 2.3-1 3.5-.1.8.4 1.5.9 1.3 1.3-.4 2.7-.9 4-1.4.9-.3.1-.8.2-1.3 0-.7.6-1.2 1.3-1.2h.1c.3 0 .5.1.7.3.4.3.2 1.1.9 1.3.7.2 2-.2 1.8 1.1-.1.9-1.3 1.2-2 1.3-3.6.5-6.6 2.5-9.9 3.7-1.1.4-1.5 1.7-2.8 1.8 1.9-3.4 2.3-7.4 3.9-10.9.4-.8.1-1.9.2-2.9-.2-.9 0-1.8.6-2.5z"/><path class="st11" d="M1336 628.6c1.3-.3 2.3-1.2 2.6-2.5.2-1 .7-1.9 1.5-2.5-.2 3-1.4 5.7-2.4 8.5-.5 1.3-1 2.6-1.4 4 0 .3 0 .5.2.7.4.3.7 0 1-.4s.6-.6.9-.9c.7 1.7.3 3.7-1 5-1.8 2.3-3.7 4.5-5.8 6.6-.7.7-1.6 1.2-2.6 1.2.7-3.9 1.9-7.6 3.5-11.2 1.4-2.7 1.9-5.8 3.5-8.5z"/><path class="st12" d="M1333.3 290.9c1.5 0 3.1.2 4.6.5 2.6.5 3.5 2.4 3.6 4.5.1 1-.6 2 0 3.3.5 1.1-.7 2.3-1.2 3.4s-1.1 2.6-1.6 3.9h-.5c-1.2-.2-2.3-.8-3.2-1.7-.1-.4-.1-.8-.1-1.2 1.3-3.8.5-7.4-1.2-11-.2-.5-.3-1.1-.4-1.7z"/><path class="st12" d="M1338.6 306.4c.2 3.4-.1 6.8-.8 10.2.4 1.6.6 3.3.5 4.9h-.8l-1-8.5c.7-2.3-1.2-5.2 1.8-6.9l.3.3z"/><path class="st13" d="M1338.3 306.1c-.6.6-.9 1.4-.8 2.2 0 1.6-.3 3.2-1 4.7-1.3-2.6-1.4-5.5-1.5-8.4.5.2 1.1.3 1.6.3 1-.2 1.4.4 1.7 1.2z"/><path class="st12" d="M1331.7 286.6c1.9.9 2.3 2.3 1.5 4.2-1.3-1.1-1.5-2.6-1.5-4.2z"/><path class="st10" d="M1340.1 394.1c.2 1.5.6 3.1-.8 4.3-.2-1.5 0-3 .8-4.3zm.7-3.3c.4.8.2 1.8-.5 2.3-.3-.8-.1-1.7.5-2.3z"/><path class="st11" d="M1329 648.3c.1.7-.2 1.4-.8 1.8-.2-.7.1-1.5.8-1.8z"/><path class="st4" d="M1398.1 320.8c.3-.6.5-1.3.4-2-.2-.4 0-1 .4-1.2.1 0 .1-.1.2-.1.6-.1 1.2.1 1.5.6.2.4.5.7.8 1 .4.4 1 .3 1.4-.1.1-.1.2-.3.2-.5.1-.6.2-1.1.2-1.7-.1-.6-.3-1.1-.5-1.6-.9-1.8-.6-4 .6-5.6.3.5.7.9 1.1 1.2 2.7 2.1 3.2 5.4 4.5 8.3.3.7.1 1.4-.4 1.9-.8 1-2 1.5-3.3 1.4-1.5-.1-2.8.1-3.5 1.7-1.4.5-2.1-.5-2.9-1.2-.7-.4-1-1.3-.7-2.1z"/><path class="st9" d="M1399 322.4l2.6 1.7c.3.3.6.6.9.8 1 .4 1.8.9 2.5 1.7-.3.6-.7 1.3-1.5 1.2-1-.1-2-.2-2.9-.5-1.3-.5-2.7-.5-4 0-1.6.5-3.4.4-5-.1-1-.2-1.9-.4-2.9-.5-.5-.3-1-.4-1.6-.4-1.1-.2-3 .9-3.3-.7-.3-1.6 1.7-2.1 3-2.2 4-.4 8-1.4 12.2-1z"/><path class="st4" d="M1402.4 325l-.9-.8.9.8z"/><path class="st14" d="M1390.4 557c.4 2.1 0 2.7-1.5 2.1-2.2-.8-3.9 0-5.5 1.1-.9.9-2.3 1.1-3.5.6-.4-.2-.9-.1-1.1.3v.1c-1 2.9-3.6 3.7-6 4.8-.6.3-1.1.8-1.8 1.2-.9.3-1.6 1.1-1.7 2.1-.1.5-1.3.9-2 1.4-.2-2.7.1-5.4.9-8 .2-1 .8-1.8 1.7-2.3.7.1 1.5-.2 1.9-.8.7-1.2 2-2.1 3.4-2.2 2.8-.3 4.7-2.5 7.4-3.1.3-.2.6-.5.7-.9 1-3 1-3 3.5-3.2h1.3c.3.1.5.2.8.3-.1 1.8-2.3 1.4-2.8 2.7 1.3.9 2.4-.3 3.6-.2.6 0 1.1.5 1.1 1.1-.1.9-.2 1.9-.4 2.9z"/><path class="st15" d="M1365.7 573.3c.4 1.4.8 1.7 1.4 1.2s1.6-1.2 2.4-1.7c.3-.1.5 0 .7.2.2.2.3.4.3.7-.1.5-.4 1-.7 1.5-.9 1.3-2.7 1.9-3.4 3.1-.6 1.2-1.7 2.1-3 2.5-.7.2-1.2.8-1.3 1.5-.1 1.4-1.9 1.6-2.1 3s-1.4 2-2.1 3.1c-.9 1.3-1.7 1.3-2.4-.2s-1.6-1.4-2.7-1.4c.5-.8 1.6-1.1 1.8-2.2.2-1 .8-1.9 1.7-2.3 2.4-1.2 3.6-3.4 5-5.5.9-1.5 2.1-2.7 3.5-3.6.2-.2.5-.3.8-.1.1.1.1.1.1.2z"/><path class="st14" d="M1365.7 573.3h-.9c.3-.8 1-1.4 1.8-1.7.1.7-.3 1.4-.9 1.7zm1.7-2.6c-.1.4-.4.8-.8.9 0-.5.3-.9.8-.9z"/><path class="st3" d="M1413.2 372c-.1.4-.3.7-.6 1-1.4 1.7-3.1 3-5 3.9-5.5 2.6-11.2 4.6-17.1 6-2.1.5-4.2.8-6.3.9-2.2.1-4.5.7-6.5 1.6-2.1.8-4.2 1.5-6.4 2.3-.9.4-2 .4-2.9-.1-.8-.4-1-1.4-.6-2.2 1.3-1.6 3.2-2.5 5.2-2.4 3.9-.3 7.8-1.1 11.6-2.3 4.6.3 7.9-2.6 11.6-4.6 2.4-1.3 4.7-2.6 7-3.9 2-1.1 4.3-1.3 6.5-2 .8-.2 1.7-.1 2.5.1.7.1 1.1.5 1 1.7z"/><path class="st16" d="M1363.1 372.7l1-1.4c.7-1 .7-1.1-.6-1.4-.9-.2-1.3-.6-1.1-1.4.3-1.1.7-2.1 1.2-3.1s1.1-1.8 2.6-1.5 1.9-1 2.3-2c.2-.5-.1-1-.5-.8-1 .5-2.2.4-3.1-.3-.1-1 .2-2 .7-2.8.6-1.2 1-2.6 1-4 1.7.5 3 2 4.9 2 1.7 0 1.2 2.1 2.5 2.4 1.6.4.9 1.8 1.1 2.8.1.3.2.5.4.7 1.1-.1 1.9-1.3 3.1-1.1.3 0 .5.1.8.2.1.2.2.5.1.7-1 1.2-1.5 2.7-1.3 4.2.1.9-1.7.5-1.6 1.5.1.8-.1 1.7-.7 2.3l-.3.3-.3.3c-2.6.6-4.1 2.8-6.1 4.4-1.2.9-2 .5-2.6-1.2.4-2.3 3.7-2.7 3.5-5.3-1-.4-1.6.2-2 1-.1.5-.4.9-.8 1.2-.9.4-.3.9-.1 1.3.1.7-.1 1.3-.6 1.8-.4.2-.8.4-1.1.7-1 .8-1.4.6-1.6-.6-.1-.3-.5-.6-.8-.9z"/><path class="st3" d="M1420.3 391.7c.4 2.1-.7 3.8-2.5 5.1-.8.7-1.9.7-2.7 0-1.4-1.4-3-1.7-4.9-2.1-1.8-.5-3.6-.5-5.4 0-1.8.6-3.5-.6-5.3-1.1-.3-.1-.4-.7-.1-1.1.5-1 1.6-1.7 2.7-1.8 1.4 0 2.8 0 4.2-.1 3.1-.2 6.2-.4 8.9-2.1.4-.2.8-.3 1.2-.4 2.8-1 3.6-.5 3.7 2.5.2.2.2.5.2 1.1zm15.6-20.7c1.5-1.4 2.9-2.7 4.3-4.1.4-.4.8-.8 1.5-.6.7.2 1 1 1.2 1.6.1.2.2.5.1.8-.6 3.6-1.1 7.2-1.9 10.8-.4 1.7-.4 3 1.2 4 .6.3.8 1 .6 1.6 0 0 0 .1-.1.1 0 .1 0 .1-.1.1-.5.9-1.7 1.2-2.6.7-.6-.4-1.1-.9-1.6-1.4-1.3-1.5-2.8-2.8-4.5-3.8-.5-.3-.8-.8-.7-1.4.1-.7.7-1.3 1.4-1.4.8-.1 1.7-.1 2.5.1.7.1 1.3-.3 1.5-.9.1-.3 0-.7-.2-1-.7-1.7-1.7-3.4-2.6-5.2z"/><path class="st17" d="M1399 322.4c-2.7 1.2-5.6 1.8-8.5 1.7-2.1 0-4.2 0-6 1.3 1.3 1 3.2-.4 4.3 1.2-1.5-.1-3.1.2-4.5.8-.5.1-1.5.1-1.6-.1-1.1-2.9-2.4-.8-3.4 0-1.1.9-2 2-2.7 3.2-.6 1.2-1.5 2.1-2.7 2.6-.3.1-.6.1-.8-.1-.2-.2-.3-.4-.3-.7.4-1 .8-2.1 1.3-3.1 1.5-3.2 4.6-5.5 8.1-6 1.3-.1 2.5-.7 3.2-1.8 0-1.4-.6-3 .8-4.2 1 .8.7 2 .9 3.1 0 .6.6 1.1 1.2 1.1.4 0 .7-.2.9-.5.3-.4.7-.8 1.1-1.2.4-.4 1-.4 1.4-.1l.1.1c1.1 1.3 2.5 1.1 3.8.8.8-.2 1.7-.1 2.4.3l1 1.6z"/><path class="st3" d="M1426.7 367.6h1.7c1-.1 2 .5 2.2 1.5.2.7.6 1.3 1.1 1.7 1.6 1.5 1.4 2.2.2 4.1-.5 1-1.4 1.8-2.4 2.3-1.6.5-2.9 1.8-3.4 3.4-.1.1-.1.2-.2.3-.5.7-1.4 1-2.2.8-.7-.2-.9-1.3-.3-2.2 1.3-2 1.9-4.3 3.9-5.9.7-.7 1.2-1.6 1.4-2.6.3-.8-.1-1.7-.8-2.2-.5-.3-1.1-.3-1.6.1-1.7.9-3.4 1.9-5.1 2.8-.7.5-1.5.8-2.4.7-.7-.1-1.3-.6-1.5-1.3-.2-.5.1-1.1.6-1.4 2.7-1.4 5.7-2.1 8.8-2.1z"/><path class="st2" d="M1419.4 332.9c-.3.4-.4.9-.7 1.1-.4.2-.8.2-1.2.1-1.6-.9-2.9-2.1-4.5-2.9s-1.4-2.8-.4-4l.9-.9c1.3-1.1 3.3-1 4.4.3.3.3.5.7.6 1.1 0 .1.1.3.1.4-.1 1.6.2 3.3.8 4.8zm4.8 9.4c-.2-.2-.4-.4-.4-.6 0-.9.5-1.3 1.3-1.2.3.1.4.2.5.5-.1.7-.7 1.2-1.4 1.3z"/><path class="st3" d="M1334.9 424.5c-.3-.2-.3-.4 0-.7.1-.1.2-.2.4-.2.3 0 .5.2.3.5s-.5.3-.7.4z"/><path class="st11" d="M1340.9 627.8c.8-3.7.9-7.5 3-10.9.2-.5.3-1.1.3-1.6.3-2.7 1-5.3 2.1-7.7.4-1 .7-1.9-.2-2.7-.6-.4-.8-1.3-.4-1.9 1.1-2.1 1.7-4.7 3.4-6.3 1.7-1.6 3.1-4 5.2-5.3.9.6.2 1 0 1.4-1 1.5-2.1 3-3.1 4.6-.1.2.1.6.2.7.2.1.5.1.7 0 .9-.7 1.7-1.5 2.4-2.4 2.4-3.4 5.8-5.8 8.3-8.9.3-.5.8-.9 1.3-1.1 2.6-.3 3.8-2.2 4.9-4.2.4-.6.9-1.1 1.5-1.5.8-.7 1.8-1.3 2-2.6.2-1 1-1.8 2-2.1 1.5-.5 2.9-1.2 3.3-2.9.2-.4.5-.6.9-.7 1.9-.4 3.9-.8 5.8-1 1-.1 2 0 2.8-.7 3.6-2.9 7.9-4.2 12.3-5.3.6 0 1.1-.2 1.6-.5 1.7-2.5 4.6-2.6 7.1-3.3 2.2-.7 4.4-1 6.7-1-1.3.9-2.1 2.3-3.6 2.9-1 .4-.7.8-.4 1.6s-.3 1-.8 1.4c-1.9 1.7-4.1 3.1-6.4 4.1-1.8.7-3.7 1.3-5.5 2.1-1.9.9-3.7 2.1-5.2 3.5-.5.5-.9 1.2-1.6 1.2-2.7-.2-4.2 1.5-5.5 3.4s-2.6 3.4-5.2 3.9c-1.8.3-3.5 1.8-5.1 2.9-1.8 1.2-3 3.1-3.2 5.3-.1 1.6-1 3-2.4 3.8-2.1 1.3-3 3.8-4.6 5.5-.7.8-.1 1.6 0 2.4.3 2-.8 3.1-2.7 2.5-1.3-.6-2.8-.4-3.9.6-.5.5-1.2.8-1.9 1-1.9.3-3.4 1.6-4 3.4-.3.8-.8 1.5-1.6 1.9-1.7.8-2.3 2.4-2.8 4s-1.1 3.2-2.9 4c-1 .5-1.2 1.5-1.5 2.4-.6 1.7-1.4 3.3-3.3 4.1z"/><path class="st1" d="M1398.2 616.7c0 .4-.1.8-.1 1.3-.1.7-.7 1.3-1.4 1.3-.3.1-.5.1-.8 0-2.6-.9-5.3-.9-7.9-.1-1.6.4-2.9-1.5-2.4-3.1.5-1.2 1.1-2.3 1.7-3.4.3-.7 1.1-1.1 1.8-.9.1 0 .2.1.3.2 1.5.9 3.3 1 4.8.1 1.2-.7 2.2.2 3 1 .7 1.1 1.1 2.3 1 3.6z"/><path class="st18" d="M1416.7 559.5c.1-.8-.4-1.5-1.1-1.6h-.3c-1.4-.3-1.3-.3-.2-1.7l10.3-1.4 2.5-.3c-.5 1.2-1.6 2-2.9 2.2-2.8.6-5.4 2.1-8.3 2.8z"/><path class="st1" d="M1393.1 626.7c-1.1.4-2.2.4-3.3.1-.5-.1-.9-.6-.8-1.2 0-.4.4-.8.8-.9 1.6-.5 2.2-.1 3.3 2z"/><path class="st11" d="M1356.7 618.8c.8-2.2 1.2-2.6 2.7-3.5.1-.1.3-.1.4 0 .2.1.3.3.3.5 0 .1-.1.1-.1.2-.7.7-1.3 1.4-2 2.1-.5.3-.9.5-1.3.7zm-18.4 16.7c0-.9-.2-2 .8-2.6.1 1 .3 2-.8 2.6zm.9-2.6c-.2-1 .1-2 .8-2.7.1 1.1.3 2.1-.8 2.7z"/><path class="st1" d="M1379.6 625.4c.1.3-.1.5-.4.4-.3-.1-.3-.4-.4-.6l.2-.3c.2.2.4.4.6.5z"/><path class="st11" d="M1340.2 629.6c-.1-.7.2-1.4.8-1.7.1.7-.2 1.3-.8 1.7z"/><path class="st18" d="M1415.2 556.2c-2-.2-4 .3-5.7 1.3-3.5 1.8-7.2 3.1-11.1 3.9-2.5.6-4.8 1.6-7.2 2.4l-5.1 1.7c0-1.6 2.2-1.7 1.7-3.2-.2-.6.6-.8 1.1-1 .9-.2 1.9-.5 2.8-.8.9-.3 1.9-.4 2.3-1 1.5-2.2 3.8-2.7 6.1-3.5-.9-1-1.9-.5-2.8-.8.7-1.3 2.2-1.6 3.2-2.6.5-.5 1.3-.6 1.9-.3 1.3.7 2.4 0 3.6-.4.3.2.6.7 1 .7 2.2 0 4.5 0 6.7-.1.6 0 1.1-.3 1.3-.8.4-1.2 1-1.5 2.2-1 1.2.3 2.5.5 3.7.7-1.3.2-2.6.5-3.8.9-.5.2-1 .7-.2 1.2.3.2 1.3.2.4 1-.7.7-1.7.7-2.1 1.7z"/><path class="st14" d="M1393.3 547.7l-2.5-.1c-.2 0-.5-.2-.5-.4v-.2c0-.1 0-.3.1-.4 3.2-1.9 6-4.9 10.2-4 1.1.2 2.8-1.5 3.2.5.3 1.4-1.7 1.1-2.5 1.7-.4.3-1.1.4-1.4.8-1.8 2.2-4.2 2.2-6.6 2.1z"/><path class="st3" d="M1439.5 485.4c-1.6 0-2.8-1.8-2.8-4 .2-1.2 1.2-2 2.4-1.9 1.9.1 3.4 1.7 3.4 3.6-.2 1.5-1.2 2.2-3 2.3z"/><path class="st19" d="M1357.2 290c-.6-.6-1.5-.9-2.3-.8-1.5.1-3.1 0-4.6-.3 1.7-.6 3.2-1.5 5.1-.8.7.2 1.4.2 2.1.2 5.6.1 11.1 1.3 16.3 3.5 2 .8 2.1 1 1.6 3.5-.1.4-.3.9.3.9.4 0 .8-.1 1.1-.4.5-1.6 1.2-1.6 2.2-.5.2.2.4.4.7.5.6.3 1.7.6 1.5 1.3-.4 1.2-1.4.2-2.1.2-.2 0-.5.3-.7.4-1.2.5-.5 2.9-2.6 2.5-1.2-1.1-1.8-2.6-1.7-4.2 0-.9-.5-1.7-1.3-2-1.9-1.2-4-2-6.2-2.5-3.1-.4-6.2-1.6-9.4-1.5z"/><path class="st20" d="M1375.9 300.2c.7-.3.8-1 .9-1.7.2-1.3.2-1.3 1.7-.9.3.8.6 1.6.7 2.4.1 3.5 2 6.3 3.7 9.1l2.4 3.9c.7.7.1 1.8.7 2.6l.2 1.6c-.3 1.4.4 3-.8 4.2-1.1-.9.1-2.4-1-3.3-1.1-1.3-1.9-2.7-2.5-4.3-1-2.1-2-4.3-2.9-6.4-1.1-2.3-2.1-4.8-3.1-7.2z"/><path class="st17" d="M1381.9 313.9c.9 1.4 2.4 2.4 2.5 4.3-1.7-.7-2.7-2.5-2.5-4.3zm2.5 4.3c1.3.8.8 2.1 1 3.3-1.4-.8-.8-2.2-1-3.3z"/><path class="st16" d="M1364.8 360.8l-.8.9c.1-.4.4-.8.8-.9z"/><path class="st2" d="M1338.3 321.5c2.4 1 2.8 1.5 2.4 3.2 0 .5-.4.9-.9.9h-.4c-.3 0-.9-.4-.9-.7-.1-1.1-.1-2.3-.2-3.4zm5.8 56.6c-.7-.5-.5-1.2-.4-1.8 0-.2.2-.4.4-.4.1 0 .1 0 .2.1.5.2.8.8.6 1.3-.1.4-.4.7-.8.8z"/><path class="st19" d="M1345.5 289.1c-.3 0-.5 0-.8-.1-.1 0-.2-.1-.3-.2.1-.1.2-.4.4-.4.3-.1.5-.1.8 0 .3.1.5.2.7.4l-.8.3z"/><path class="st17" d="M1386 315.6c-.8-.7-.7-1.7-.7-2.6.8.6 1.1 1.7.7 2.6z"/><path class="st11" d="M1340.1 623.6c.1-.5.1-1 .2-1.6 0-.1.1-.2.2-.3.1.2.4.4.4.6 0 .6-.3 1.1-.8 1.3z"/><path class="st14" d="M1372.5 568.2c.1-.2.3-.4.5-.6.3-.2.6-.1.6.3 0 .1-.2.2-.3.2-.3 0-.5 0-.8.1zm0-.1c-.1.2-.3.4-.5.6-.3.2-.5.1-.6-.3 0-.1.2-.2.3-.2.3 0 .5 0 .8-.1z"/><path class="st4" d="M1366.6 373.6l-.1-2.6c-.2-.2-.1-.5.1-.7l.1-.1.8-.7c.5-1.5 1.4-2.6 3.2-1.9.6.2 1.5.2 1.1 1.2-.2.8-.7 1.5-1.4 2-1.3.9-2.6 1.9-3.8 2.8z"/><path class="st10" d="M1370.7 367.6c-1.4.2-2.1 1.3-3.2 1.9-.5-.3-1-.8-.6-1.3.6-.5 1.3-.9 2-1.2.7-.3 1.5-.1 1.8.6zm-4 2.6l-.2.8c-.7-.5-.3-.7.2-.8z"/><path class="st7" d="M1410 553.7c-.2 1.1-1.1 1.3-1.7 1.8-.8.7-1.6.1-2.4 0-.6 0-1.1 0-1.7.2-.7.1-1.5.5-1.5-.6 0-.7.7-1.3 1.4-1.3h.1c1.9-.1 3.8-.1 5.8-.1z"/></g></svg>