<svg id="圖層_1" xmlns="http://www.w3.org/2000/svg" xmlns:xlink="http://www.w3.org/1999/xlink" viewBox="0 0 1440 140"><style>.st0{clip-path:url(#SVGID_2_)}.st1{fill:none}.st2{fill:#0d0c0a}.st3{fill:#33201a}.st4{fill:#322018}.st5{fill:#3b2420}.st6{fill:#3a2314}.st7{fill:#653212}.st8{fill:#54311f}.st9{fill:#5c2e11}.st10{fill:#974b16}.st11{fill:#3f2b1d}.st12{fill:#543124}.st13{fill:#895039}.st14{fill:#ab6738}</style><title>工作區域 2</title><defs><path id="SVGID_1_" d="M0 0h1440v140H0z"/></defs><clipPath id="SVGID_2_"><use xlink:href="#SVGID_1_" overflow="visible"/></clipPath><g class="st0"><path d="M0-107.8h94.8s45.9 189.5 11.4 228.2c0 0-66.4-2.6-106.2 5.8v-234z"/><path class="st1" d="M431.4 61.9c-.2 0 .1.2 0 0zm7.2 0c-.6 0-1.1 0-1.7.1.6 0 1.1 0 1.7-.1z"/><path class="st2" d="M438.9 61.8h-.3c.4 0 .8 0 1.1.1-.2-.1-.5-.1-.8-.1zm48.9 1.2c.1 0 .3 0 .4-.1 0 0-.2-.1-.4.1zm-56.3-1.3c-.1 0-.2 0-.1.1l.1-.1c1.8-.4 3.6.6 5.4.3h.1c-1.9 0-3.7-.5-5.5-.3z"/><path class="st2" d="M1439-107.8H39.9c-.5 0-1 .4-1 1v223.6c0 .5.4.9.9 1 1.1.1 49.3 1.8 50 1.8 75.8 4.3 116.1-5.3 158.6-4.7 2.9 0 7 .3 11.7.1.1-1.8-.4-3.6-1.6-5.1-.4-.5-.6-1.2-.5-1.8.2-1.5-.3-2.3-1.8-2.4-1.2-.1-2.2-.8-2.7-1.8-.4-.8-1.2-1.4-2-1.4l-.6 2.5c-.1.3 0 .8-.5.9s-.7-.4-.9-.7c-.2-.3-.3-.9-.6-1.4-.2-.4-.7-1.1-1.1-.9-1.6.9-1.6-.6-2-1.4-.5-.6-.9-1.3-1.2-1.9-.3-.5-.1-1.1.4-1.4.3-.2.6-.2.9 0 .6.1 1.1 1.2 1.7 0 .6-.9.4-1.9-.4-2.6-.9-.9-1.5-2-1.7-3.3-.1-.4-.3-.8-.1-1 .7-.8.8-2 .1-2.8-.2-.3-.1-.6.2-.8 0 0 .1 0 .1-.1.3-.2.5.1.7.3.9.7 1.1 1.9 2.2 2.4 1-1.3 1.1-2.9 1.5-4.4.2-.7-.2-1.5-.8-1.8-1.7-1.2-1.8-3.3-3.1-4.6-.2-.2-.2-.6.1-.8.3-.2.5-.1.8.1 1.9 1 3.8 2.2 5.4 3.7.5.5.8.9.1 1.5-1 1-1.7 2.1-.9 3.7.7 1.4-.1 2.7-.4 4-.5 1.8.2 2.8 2.1 2.6.2 0 .4-.1.6-.1 1.7.1 1.7.1 1.3-1.6-.1-.4-.4-.9.1-1.2.5-.3 1 .1 1.2.5 1.4 2.1 3.1 4.1 4.2 6.4.6 1.4 1.4 3 3.2 3.5.3.1.5.3.5.6.1 1.3 1 2.1 1.7 3.1s1.7 2 1.4 3.5c-.1.3.2.7.5.8h.1c.4.1.7-.1.9-.5.6-2.1 2.2-3.8 2.7-5.9 0-.3.2-.5.4-.8.9-.8.8-1.5 0-2.2-.8-.8.2-2.1-.5-3.1l.3-.3c1.2-.3 1.4-1.6 2-2.2.7-.7.9-1.6 1.8-2 .2-.1.5-.4.5-.6-.2-1.8 1-1 1.8-1.1-.2 1.3.7 2.1 1.1 3.2 1.9-.7 2-.7 1.8-2.5-.2-1.2.7-1.6 1.3-2.3-.8-.7-1.4-1.7-2.5-.6-.2.1-.5.2-.8.1-.2 0-.4-.2-.5-.3-.1-.2 0-.4.2-.5.4-.2.8-.3 1.1-.5 1.1-.5 1.8-1.7 1.7-2.8-.1-.6 0-1.1.1-1.6.3-1.2.7-2.3-.8-3 .8-1 1.7-.7 2.4-.9.9-.2 1.6 1 1.1 1.8-.3.6-.7 1.2-1.1 1.8-.4.6-.4 1.4.1 1.9.4.6.9 1.1 1.5 1s.6-.9.6-1.4c-.1-1.4.3-2.6 1-3.8.4-.5.4-1.2-.1-1.6-.1-.1-.3-.2-.5-.3-.7-.3-1.1-1.2-2-.9-1 .3-1.2-.5-1.5-1.1-.4-.5-.2-1.2.3-1.6.1 0 .1-.1.2-.1.9-.4 1.1-1.9 2.4-1.5.4.1.2-.4.3-.6.5-1.2 0-2.6-1.1-3.2-.3-.2-.6-.4-.8-.6-.8-1-.8-1-1.4.2-.7-.3-1.2-.8-1.5-1.4-.4-.8-.6-1.7-1.7-1.9-.4-.1-.4-.5-.2-.9s.4-.2.7-.1c1.8.4 2.9-.9 2.4-2.5-.1-.3-.4-.5-.1-.8.8-.9.3-1.7-.1-2.5-.3-.6-.3-1.3.4-1.4.9-.2 1.5-.2 1.5-1.4 0-.7.8-1.3.6-2.2-.1-.8-.5-1.8.4-2.2.9-.5 1.8.2 2.5.4.8.2 1 1.6.4 2.7-.3.6-.8 1.2-.2 1.8.5 0 .5-.3.6-.6.2-.9.8-1 1.4-.5 2.4 2.1 4.2 4.6 4.5 7.9 0 1.1.3 2 .8 3 .6.8.5 1.9-.3 2.6-1.2 1.2-1.8 2.8-1.8 4.5-.1 1.4-1 2.5-.9 4 0 .4-.4.6-.7.8-.6.4-1.1.9-1.5 1.5-1.1 1.8-1.9 3.8-3.1 5.5-.6.9-.7 2-.3 3 .4 1 .1 1.4-1 1.6-.4.1-.7.5-1 .7-.8.5-1.3 1.1-.6 1.9.7.9 0 1.9-.6 2.6s-.6 1.7 0 2.2l.1.1c.5.5.8 1.2.8 1.8-.2.7.3 1.5 1 1.7s.6.7.3 1.1c-.9 1-1.9 1.8-3.2 2.3-.5.3-.9 0-1-.5-.1-.6-.1-1.2-.2-1.8-1.7.4-1 2.4-2.5 2.9.2-1.2-.9-1.9-.8-3.1 0-.9.2-1.7.6-2.4.2-.6.4-1.2.5-1.8.2-.5.3-1-.2-1.4s-.7.6-1.2.5c-.1-.8-.4-1.6-.8-2.3-.8.1-.9.6-1 1.1-.1.7-.4 1.3-.9 1.8-.8.9-.8 2.3.2 3.1.1.1.3.2.5.3.7.3 1.1 1.2.9 1.8-.2.8-.1 1.4.7 1.7.2.1.4.3.3.5 0 .1 0 .1-.1.2-.1.3-.4.4-.7.4-.8-.1-1.5-.4-2.1-.8-.2-.2-.5-.3-.8-.1-.3.2-.4.7-.2 1 .6 1.1 1.4 1.9 2.4 2.4.2.1.6.1.6.5 0 .7-.7 1-1 1.5-.6 1.2-.8 1.6-.6 2.1 5.9-1.5 12.2-4.2 18.3-8.6 22.5-16.4 41.4-.6 59.4-19.1 5.9-6.6 27.2-15.2 53.4-18.5.6-.1 25.2-1.8 30.6-2.7 1-.2 1.9-.4 2.9-.4.5-.2 1.1-.4 1.1-1.1 0-.3-.2-.5-.4-.7-.4 0-.8-.1-1.1-.1-.6.1-1.1.1-1.7.1h-.1c-1.8.3-3.6-.7-5.4-.2v.1c.1.2-.3 0 0-.1 0-.1 0-.1.1-.1 1.8-.2 3.6.3 5.4.3.6-.1 1.1-.1 1.7-.1h.3c.3-.1.6 0 .8.1 1.3.1 2.6.5 3.7 1.1 1 .4 2 .5 3 .2 1.8-.4 3.5-.4 5.2.2 1.1.4 2.3.4 3.4 0 .7-.2 1.4-.4 2-.4 2.4.3 4.9-.1 7.3.3h4c1-.1 2 0 3 .3h.2c5.5.2 11 .3 16.2-.6.2-.1.4-.1.4-.1-.1 0-.3 0-.4.1-.1 0-.1.1-.1.2-.1.4.3.7.6.7 2.9.5 5.8 1 8.8.1.9-.4 1.8-.4 2.6-.3 2 .5 4 0 5.9-.2 1.8-.1 3.4-.2 5.2-.2 4.9 0 9.6.5 14.5.4 1.4 0 2.9-.8 4.1-.3 2.3 1 4.8.5 7.1.8.7 0 1.5 0 2.2-.1 7.7-.9 15.4-1.8 23.2-2.6 6.2-.6 12.3-2.3 18.5-3 4.5-.5 53-3.2 128.3-6.8 42.4-1.1 166.5-2.3 192.7-2.5h.1c19.5 1.5 76.9 3 82.8 2.9 1.9-.2 3.8-.1 5.6-.1 2.7 0 5.5.9 8.3.4 3.6-.4 7.2-.5 10.8-.3 3.4.1 6.8-.5 10.3-.5.6.1 1.2-.1 1.6-.5 1.8-2.1 4.1-2.2 6.5-1.8 3 .4 5.9 1.1 9 .3.8-.1 1.6-.1 2.3.2.1.1.2.1.3.1.9 0 1.8-.1 2.5-.4 6.5-1.5 13-2.4 19.8-1.8 2.5.2 4.9 1 7.4.7.2 0 .3-.1.5-.2 3.9-3 7.4-.5 12.2.2.9.2 2.9-1 3.7-.5 2.6 1.7 5.9 1.9 8.4 4 .8.6 1.7 1 2.6 1.2 2.4 1 5.2 1.3 7.6 2.6 4.4 2.5 8.5 5.8 13.9 5.8.3 0 .6.1.8.3 1.7 1.4 3.7 1.8 5.6 2.5 2.4.9 5.1-.1 7.2 1.6.3.2.8.3 1.2.3 2 .3 4.2-1.2 5.8.5.2.2.5.3.8.2 1.8-.3 3.3.7 4.8 1.4.1.1.2.1.3.1 4.2 1 8.3.2 12.4-1 1.7-1.1.4-1.9-.3-2.9.8.2 1.6.6 2.2 1 2.3 1.5 4.8 2.6 7.4 3.6 3.6 1.1 6.6 3.6 8.3 6.9.1.2.2.3.3.4.3.3.8.5 1.2.5 1.9 0 .3-1.7.9-2.2.6-.1 1.1.1 1.5.4 2.2 2 5.1 3.2 7.4 5.2.7.6 1.3 1 2 .5 1-.7 1.8-.1 2.7.3 1.8.7 3 1.8 4.6 2.8 1.2.8 2.5 1.5 3.9 1.9 1.8.6 3.8 1.1 5.3 2.5.1.2.2.3.4.3 6.2 1.9 12.2 4.8 17.7 8.2.8.4 1.8.7 2.6.6 9.4.1 18.8 2.3 27.2 6.5 1.8.9 3.6 1.3 5.4 1.4 5 .3 9.8 1.2 14.5 2.8 2.6.9 5.4 1.2 8.2.9 5.2-.6 10.4-.6 15.6.1 9 .8 56.3-6.5 83.9.2 48.3 11.9 59.8 18.6 59.8 18.6.5 0 1-.4 1-1v-233.4c-.2-.1-.6-.6-1.2-.6z"/><path class="st2" d="M295.6 65.4c-.5-1-.7-1.7-.7-2.6-.3-3.2-1.8-5.9-4.9-8.6-.4-.4-.8-.5-1.2-.5.2-.7.1-1.4-.2-2-.3-.6-.7-.9-1.3-1.1-.2 0-.4-.1-.6-.2-.7-.3-1.7-.7-2.7-.1-1.4.8-1.1 2.2-1 2.9 0 .1 0 .2.1.4 0 .2 0 .4-.2.8-.2.3-.4.7-.4 1.2v.3c-.1 0-.3.1-.4.1h-.2c-.6.1-1 .4-1.3.8-.3.6-.3 1.3.1 1.9l.1.3c.4.9.4.9.2 1.1-.3.3-.7.9-.2 1.8.1.4.1.8-.1 1.1-.2.2-.6.3-1.1.2-1.1-.5-1.6.3-1.8.6-.3.5-.3 1.1-.1 1.5.2.4.5.7.9.8.4.1.5.3.8.9.1.2.2.3.2.4.4.8 1.1 1.5 2 1.9l.9.4.3-.7c.2.2.5.4.8.6l.1.1c.6.3.9 1.2.7 1.8-1 0-1.6.9-1.9 1.3-.1.1-.2.3-.3.4h-.1l-.3.2c-.9.8-1.2 2-.5 2.9l.1.1c.1.3.3.7.7 1.1-.7.1-1.5.2-2.2 1.2l-.7 1 1.1.5c.6.3.6.4.3 1.6l-.1.3c-.1.6-.2 1.2-.1 1.9.1.8-.4 1.5-1.1 1.8l-.1.1c-.1.1-.2.1-.4.2s-.4.2-.6.2c-.4.2-.6.5-.7.8-.1.3-.1.7.1 1l.1.1.1.1c.2.2.5.5 1 .6h.1l-.9.1h-.5c-.5-.1-1.2-.2-1.7.4-.4.4-.5 1-.5 1.5-.7.4-1.1 1-1.4 1.4-.2.3-.3.5-.6.7-.3.3-.6.7-.8 1.1-.3.5-.5.8-.8.9l-.3.1-1.1 1.1.5.7c.1.2.1.5 0 .9-.1.6-.2 1.6.6 2.3.3.3.3.4.3.4l-.3.3-.3.4c-.2.2-.4.6-.5 1.1-.2.9-.7 1.8-1.3 2.7-.3.6-.7 1.2-1 1.8-.2-1-.8-1.8-1.3-2.4-.1-.1-.2-.3-.3-.4-.2-.2-.4-.5-.5-.7-.5-.7-.9-1.2-1-1.8 0-.7-.5-1.3-1.2-1.6-1.4-.4-2-1.7-2.6-3-.8-1.7-1.9-3.2-2.9-4.6-.5-.6-.9-1.2-1.3-1.9-.3-.5-.7-.9-1.2-1-.5-.1-.9-.1-1.4.2-.7.4-.9 1.2-.6 2.1v.2c0 .1.1.3.1.4h-.4c-.2 0-.4 0-.6.1h-.1c-.6.1-.9 0-1-.2-.1-.1-.2-.5 0-1.2l.3-.9c.3-1.1.8-2.4.1-3.8-.5-.9-.3-1.5.7-2.5.5-.4.7-.9.8-1.4 0-.8-.5-1.3-.8-1.6-1.6-1.5-3.4-2.8-5.6-3.8-.3-.2-1-.6-1.9-.1-.4.3-.6.7-.7 1.1 0 .4.1.9.5 1.2.5.5.8 1.1 1.2 1.9.4.9 1 2 2 2.8l.2.1c.2.1.4.4.3.6l-.3 1.2c-.1.7-.3 1.4-.5 2-.1-.1-.2-.3-.3-.4-.3-.4-.6-.9-1-1.2-.8-.9-1.5-.6-1.9-.4l-.4.3v.1c-.2.2-.3.4-.4.6-.1.4 0 .9.2 1.3l.1.1c.3.4.3 1-.1 1.4-.6.6-.3 1.3-.2 1.7v.1c.2 1.5.9 2.8 2 3.9.3.3.5.8.3 1.2-.2-.1-.3-.2-.5-.3-.6-.3-1.3-.3-1.8.1-.5.3-.8.7-.9 1.2-.2.5-.1 1 .2 1.5.4.8.8 1.5 1.3 2.1.1.1.1.3.2.4.2.5.5 1.2 1.3 1.5.4.2.9.1 1.4-.1.1.1.1.2.2.3l.3.6c.1.3.2.6.4.8l.1.1c.2.3.8 1.2 1.9 1 .7-.1 1.1-.6 1.2-1.5l.4-1.6c.2.1.3.3.4.5.6 1.4 2.1 2.4 3.5 2.4.2 0 .6.1.7.2.1.1.2.4.2 1-.1.9.1 1.9.7 2.6 1 1.4 1.5 2.9 1.4 4.5l-.5 1h1.5c2.2-.1 4.5-.1 7.1-.6 4.8-1 7.3-2.2 7.3-2.2-.2-.8.9-1.4 1.5-2.5 0-.1.2-.2.3-.3.4-.3.9-.9.9-1.7 0-.5-.2-1.1-1.2-1.4-.5-.2-.9-.5-1.3-1 .5.2.9.3 1.4.4h.1c.3 0 .5-.1.8-.2v.2l1.6-.5c.9-.3 1.3-.8 1.6-1.4.2.4.5.6.8.8.5.2 1 .2 1.5-.1 1.2-.6 2.3-1.4 3.4-2.5l.1-.1c.4-.5.5-1.1.4-1.6-.1-.3-.4-.8-1.2-1-.1 0-.2-.1-.3-.2-.1-.1-.1-.2-.1-.2v-.3c0-1-.4-2-1.1-2.5l-.1-.1c-.1-.1-.2-.3-.2-.4s0-.3.2-.5c1.7-2 1.1-3.3.6-3.9l-.1-.1s.1-.1.4-.2l.1-.1c.1-.1.3-.2.4-.3l.2-.2c.6-.1 1.4-.3 1.8-1 .4-.8.1-1.6 0-1.9-.3-.7-.2-1.5.2-2.1.7-1.1 1.3-2.1 1.8-3.2.4-.8.8-1.6 1.3-2.3.3-.5.7-.9 1.2-1.2l.1-.1c.3-.2 1-.7 1-1.6 0-.6.2-1.2.4-1.9.2-.6.4-1.3.5-2.1 0-1.5.5-2.8 1.5-3.7 1.1-.8 1.3-2.4.5-3.6zm-18.5 33.1c-.2.5-.4 1-.5 1.5-.3-.4-.6-.6-1.1-.8-.1 0-.1-.1-.2-.1l-.1-.1c-.3-.2-.4-.5-.4-.7 0-.3.1-.7.3-.9.4-.5.7-.9.9-1.4 0 .1 0 .2.1.3l.1.7.7.1h.6c-.1.5-.3.9-.4 1.4zm3-7.5c0 .2.1.7.1.9-.1 0-.2.1-.4.2 0-.1-.1-.2-.1-.3-.4-.6-.6-1-.5-1.5l.2-1.2c.3 0 .6-.1 1-.2l.2-.2c.2-.2.3-.2.3-.2s.1.1.2.1c-.6.5-1.2 1.2-1 2.4zm4.4-7.4v.2c-.1-.1-.2-.2-.3-.4l-.1-.1c-.2-.3-.2-.5 0-.7.2-.2.3-.5.5-.7-.1.6-.1 1.1-.1 1.7zm1.2-4.5l-.1.1-.1.1c0-.2-.1-.5-.2-.7h.1c.1 0 .2.1.2.1l.1.1c.1.2.1.3 0 .3z"/><path class="st3" d="M1143.9 68.2c-4.8.2-9.3-1-13.9-1.9-7.3-1.5-14.6-3.1-21.8-5-1.5-.2-2.8-.6-4.2-1-1.1-1-.2-1.6.4-2.2-.4-.2-.8-.2-1.1-.1-.9.2-1.6 1.4-2.6.8-1.7-.9-3.7-1.4-4.9-3.1-1.3-1.8-3.2-2.9-5.4-3-1.7-.1-2.8-1.1-4.2-1.8-1-.7-2.1-1-3.3-.8-1.4.2-2.8-.2-3.9-1.1-.8-.6-1.8-.6-2.5-.1-1 .7-2.2.9-3.3.5-1.3-.1-2.4-.4-3.6-.9 0-.9.7-1.6 1.6-1.7 1.5-.3 2.8-.9 4.1-1.6 1-.6 2.1-.7 3.1-.1.4.2.8.4 1.2.4 1.5-.2 2.9-.2 4.4.1 1.1.2 1.9.2 2.7 1 .8.7 1.8 1 2.8.8.5-.1 1.1.1 1.4.5 1.5 1.4 3.2 2.4 5.2 3 1 .2 1.8.5 2.7.9.4.2.8.3 1.2.2.8-.2 1.7 0 2.3.6 1.1.7 2.3 1.2 3.4 1.9 1.4 1.1 2.9 1.8 4.6 2.3.9.3 1.7.7 2.3 1.4.9.8 2 1.2 3.2 1.1 1.6-.2 3.2.3 4.4 1.4.9.7 1.8 1.2 3 1.3 1.1.2 2.1.6 3.1 1.1.4.2.7.4 1.2.3 1.4-.4 2.6.5 3.5 1.2 1.3.9 2.8 1.1 4.3.7 1-.2 1.6-.2 2.1.5.7 1.1 1.9 1.5 3.1.9.3-.2.7-.2 1 0 .5.8 1.6.9 2.4 1.5z"/><path class="st4" d="M1172.6 76.6c-4.5-2.6-9.1-5-13.2-8.3-.7-.7-1.7-1.1-2.6-1.1.5-.9-.2-1.3-.8-1.7s-1.4-.7-1.1-1.3c.3-.6 1.1-.1 1.7.1 1.1.2 1.9.7 2.7 1.4l.3.3c2.7.7 4.8 2.8 7.6 3.1.4 0 .8.2 1.2.4 1.8 1.6 3.7 2.7 5.3 4.5.5.7.8 1.5.7 2.3l-.2.2c-.5.2-1.1.2-1.6.1z"/><path class="st5" d="M1039 49.9c-1.4.7-2.8 1.1-4.4 1.1-2.4 0-5 .4-7.3 1-.3.1-.7.1-1 .1-5.8-.2-11.7.8-17.6.5-2.7-.2-5.5.3-8.3.3-4.9 0-9.8-.3-14.7-.5-.5 0-1-.1-1.5-.3 3-.2 6-.1 9 .2 2 .3 4.2.3 6.2-.1.7-.1 1.4-.2 2-.2 2.1 0 4.3-.1 6.4 0 4.2.3 8.3-.6 12.3-.5.3-.1.4-.5.2-.8-.4-1 .2-1.4 1-1.3 1.1.3 2.2.1 3-.7.3-.3.9-.1 1.4 0 1.9.4 3.9.8 5.8 1.1 1.2.2 2.3.1 3.5-.2 1.6-.3 3-.2 4 .3z"/><path class="st4" d="M1175.5 76.9c.4 0 .8-.1.6-.6-.1-.3-.4-.6-.6-.9s-.5-.8-.1-1.2c.3-.3.8-.3 1.2-.1 1.1.3 2 .8 2.8 1.6 1.3 1.3 2.7 2.2 4.4 2.9.8.3 1.4.9 1.8 1.6s1 .8 1.5.1c.7-1 1.3-.6 2-.1 1.9.9 3.7 1.9 5.4 3.3-1.8.4-3.4 1.1-5.3-.4-1.5-1.2-3.5-1.5-5.4-2-3-1.1-5.9-2.4-8.7-4.1l.4-.1z"/><path class="st6" d="M461 63.7l-7.8.3h-.6c-2.4 1.3-5 .6-7.5.4-2.9-.2-5.9-.1-8.9-.3.6-.7 1.5-.4 2.1-.4.6-.1 1.3.1 1.8-.5-1.6-.9-3.1.8-4.5-.1s-2.9-.4-4.5-.8c.4-.3.9-.4 1.4-.3 2.9.2 5.7-.4 8.7 0 1.1.1 2 .4 2.9 1 .7.5 1.6.6 2.2.2 1.8-.7 3.7-.7 5.4 0 1.1.5 2.2.5 3.4.2 1.1-.3 2.1-.7 3.2-.2h.4c1.9-.7 3.8.2 5.7.1-.9 1.2-2.1.4-3.4.4z"/><path class="st7" d="M372.2 62.7c-2 .9-3.2 2.5-5.4 2.5-.9.1-1.8.5-2.4 1.2-1.5 1.1-3 1.9-4.7 2.7-2.3 1.3-4.7 2.3-6.9 3.7-2.2 1.4-4.7 1.8-6.6 3.4 0-1.6 1-3 2.4-3.6 1.4-.8 2.7-1.7 4-2.6.4-.2.7-.5 1.2-.4.4.7-.6.8-.4 1.5 1.8-.9 3.5-1.7 5.2-2.6 1.7-1 3.3-1.8 4.9-2.7 2-1.1 4.1-1.9 6.3-2.5.5-.2 1.1-.9 2.4-.6z"/><path class="st8" d="M1184.2 80.8c2 .6 4 1.3 5.9 2 .3.1.6.4.6.8s.4.6.5.4c.8-1.5 1.9-.2 2.8-.3h.6c2.1 1 4.2 2.3 6.6 2.5 1.2.1 1.8 1.2 2.5 1.9-5.8-1.1-11.7-2.4-17.1-5.1-.6-.7-2.3-.6-2.4-2.2z"/><path class="st9" d="M387 57l.3-.3c2.9-.9 5.9-1.7 9-2.7l-.2 1.4c4-1 7.7-2.8 11.9-3.3 0 .6-.4 1.2-1.1 1.3-4.1 1-8.1 2.4-12.3 3.1-2.4.4-4.8 1.3-7.3 1.6-.2-.5-.3-.8-.3-1.1z"/><path class="st10" d="M387 57c.3.2.5.5.4.8-.5.5-1.2 0-1.7.4l-11.2 4.3-.1-.3c1.2-.8 2.4-1.6 3.8-2.1 2.9-1.3 5.8-2.4 8.8-3.1z"/><path class="st11" d="M461 63.7c1.2-.3 2.4.4 3.6-.5h4.2c.2.2.2.3 0 .5-2.6.3-5.2.7-7.8 0zm31.5-.7c.9 0 1.6-1.1 2.8 0-.9.3-1.9.3-2.8 0z"/><path class="st6" d="M468.8 63.8v-.5c1 .1 2-.3 3 .3l-2.6.2h-.4z"/><path class="st9" d="M398.4 64.1c.5-.6 1.1-.4 1.7-.4-.5.5-1.1.4-1.7.4z"/><path class="st4" d="M1174.4 76.5c.5 0 .9.1 1.3.4l-.1.1c-.6.3-1.1.4-1.2-.5z"/><path class="st12" d="M1073 49.6c1.1 0 2.1-.4 3-1 .7-.6 2.3-1.5 3.3.3 1.4.4 2.6 1.4 4.1.6.7-.3 1.4-.1 1.9.3 1.1.6 2 1.2 3 1.8.8.4 1.5 1 2.5.5.8-.4 1.4.5 2 .8 1.4.6 2.7 1.2 3.4 2.7.5.9 1.4 1.5 2.2 1.7.7.2 1.4.5 1.9 1s1.2.5 1.5-.1c.5-1.3 1.4-1 2.1-.7.6.2 1.3-.4 1.8.4-1 .6-2.5.8-1.9 2.5-2.3-.5-4.8-1.1-7.1-1.8-2.3-1.8-5.3-2.1-7.8-3.5s-4.8-2.7-7.6-2.7c-.9-1-2.1-1-3.3-1.3l-5-1.5z"/><path class="st13" d="M1081.5 52.5c1.6-.7 2.8-.3 4.4.4 1.9.9 3.7 2.1 5.6 2.8.7.2 1.3.4 1.9.5 1.6.3 2.3 1.7 3.5 2.5-3-.5-5.9-1.1-8.7-2.6-2.2-1.4-4.5-2.5-6.7-3.6z"/><path class="st14" d="M1174.2 76.6c.3.3.8.5 1.3.4 3.1.9 5.7 2.7 8.8 3.7.6 1.1 2 1.2 2.5 2.3-2.9-1.1-5.8-2.4-8.7-3.8-1.8-1-3.9-1.4-5.4-2.7.4-.4 1-.2 1.5.1z"/><path class="st13" d="M1078.2 51.2c1.3-.1 2.6-.1 3.3 1.3-1.2-.3-2.4-.7-3.3-1.3z"/><path class="st2" d="M281.7 100.1c-.3 0-.5-.1-.5-.5 0-.3.2-.5.5-.5h.1c.2.1.3.2.4.4 0 .4-.2.6-.5.6zm6.7-36.3c-.3-.1-.5-.2-.5-.5 0-.2.1-.4.3-.4h.1c.3 0 .5.3.5.5s-.1.4-.4.4c.1 0 0 0 0 0z"/></g></svg>